<svg width="153" height="40" viewBox="0 0 153 40" fill="none" xmlns="http://www.w3.org/2000/svg">
<g clip-path="url(#clip0_364_19484)">
<mask id="mask0_364_19484" style="mask-type:luminance" maskUnits="userSpaceOnUse" x="-1" y="-1" width="41" height="40">
<path d="M-0.0168457 -0.141602H39.0394V38.787H-0.0168457V-0.141602Z" fill="white"/>
</mask>
<g mask="url(#mask0_364_19484)">
<mask id="mask1_364_19484" style="mask-type:luminance" maskUnits="userSpaceOnUse" x="-1" y="-1" width="40" height="40">
<path d="M10.4694 -0.141602H28.4747C28.8181 -0.141602 29.1615 -0.124861 29.503 -0.0913783C29.8445 -0.0578965 30.1842 -0.007673 30.5201 0.0592913C30.8579 0.126256 31.19 0.209961 31.5185 0.308547C31.847 0.408993 32.1698 0.522461 32.4871 0.654529C32.8043 0.784738 33.1141 0.931687 33.4183 1.09352C33.7206 1.25349 34.0155 1.4302 34.301 1.61993C34.5866 1.80966 34.8609 2.01428 35.1278 2.23191C35.3928 2.44768 35.6466 2.67834 35.8892 2.92015C36.1318 3.16197 36.3632 3.41495 36.5797 3.67908C36.798 3.94508 37.0033 4.21852 37.1937 4.50312C37.384 4.78771 37.5613 5.08161 37.7218 5.38295C37.8842 5.68615 38.0316 5.99493 38.1622 6.31115C38.2947 6.62737 38.4086 6.94917 38.5094 7.27655C38.6083 7.60393 38.6922 7.93503 38.7594 8.27172C38.8266 8.60654 38.877 8.94508 38.9106 9.28548C38.9442 9.62588 38.961 9.96814 38.961 10.3104V28.2568C38.961 28.5991 38.9442 28.9414 38.9106 29.2818C38.877 29.6222 38.8266 29.9607 38.7594 30.2974C38.6922 30.6322 38.6083 30.9633 38.5094 31.2907C38.4086 31.6199 38.2947 31.9417 38.1622 32.2579C38.0316 32.5742 37.8842 32.8829 37.7218 33.1843C37.5613 33.4856 37.384 33.7795 37.1937 34.0641C37.0033 34.3487 36.798 34.624 36.5797 34.8882C36.3632 35.1523 36.1318 35.4053 35.8892 35.6471C35.6466 35.8908 35.3928 36.1196 35.1278 36.3372C34.8609 36.5548 34.5866 36.7576 34.301 36.9473C34.0155 37.137 33.7206 37.3138 33.4183 37.4756C33.1141 37.6356 32.8043 37.7825 32.4871 37.9127C32.1698 38.0448 31.847 38.1601 31.5185 38.2587C31.19 38.3591 30.8579 38.441 30.5201 38.5079C30.1842 38.5749 29.8445 38.6251 29.503 38.6586C29.1615 38.6921 28.8181 38.7088 28.4747 38.7088H10.4694C10.126 38.7088 9.78266 38.6921 9.44115 38.6586C9.09963 38.6251 8.75998 38.5749 8.42406 38.5079C8.08627 38.441 7.75409 38.3591 7.42563 38.2587C7.09718 38.1601 6.77245 38.0448 6.4552 37.9127C6.13794 37.7825 5.82815 37.6356 5.52582 37.4756C5.22349 37.3138 4.92863 37.137 4.6431 36.9473C4.35757 36.7576 4.08137 36.5548 3.81637 36.3372C3.55136 36.1196 3.29756 35.8908 3.05495 35.6471C2.81047 35.4053 2.58093 35.1523 2.36258 34.8882C2.1461 34.624 1.94082 34.3487 1.75046 34.0641C1.56011 33.7795 1.38282 33.4856 1.22046 33.1843C1.05996 32.8829 0.912531 32.5742 0.781896 32.2579C0.649394 31.9417 0.533689 31.6199 0.434779 31.2907C0.334003 30.9633 0.25189 30.6322 0.184706 30.2974C0.117522 29.9607 0.0671343 29.6222 0.0335422 29.2818C-4.95035e-05 28.9414 -0.0168457 28.5991 -0.0168457 28.2568V10.3104C-0.0168457 9.96814 -4.95035e-05 9.62588 0.0335422 9.28548C0.0671343 8.94508 0.117522 8.60654 0.184706 8.27172C0.25189 7.93503 0.334003 7.60393 0.434779 7.27655C0.533689 6.94917 0.649394 6.62737 0.781896 6.31115C0.912531 5.99493 1.05996 5.68615 1.22046 5.38295C1.38282 5.08161 1.56011 4.78771 1.75046 4.50312C1.94082 4.21852 2.1461 3.94508 2.36258 3.67908C2.58093 3.41495 2.81047 3.16197 3.05495 2.92015C3.29756 2.67834 3.55136 2.44768 3.81637 2.23191C4.08137 2.01428 4.35757 1.80966 4.6431 1.61993C4.92863 1.4302 5.22349 1.25349 5.52582 1.09352C5.82815 0.931687 6.13794 0.784738 6.4552 0.654529C6.77245 0.522461 7.09718 0.408993 7.42563 0.308547C7.75409 0.209961 8.08627 0.126256 8.42406 0.0592913C8.75998 -0.007673 9.09963 -0.0578965 9.44115 -0.0913783C9.78266 -0.124861 10.126 -0.141602 10.4694 -0.141602Z" fill="white"/>
</mask>
<g mask="url(#mask1_364_19484)">
<path d="M-0.0168457 38.7088H38.961V-0.141602H-0.0168457V38.7088Z" fill="url(#paint0_linear_364_19484)"/>
</g>
</g>
<mask id="mask2_364_19484" style="mask-type:luminance" maskUnits="userSpaceOnUse" x="6" y="7" width="8" height="24">
<path d="M6.73889 7.7627H13.1382V30.9528H6.73889V7.7627Z" fill="white"/>
</mask>
<g mask="url(#mask2_364_19484)">
<path d="M6.78739 30.804L13.1232 23.1161V7.7627L6.7594 15.4859L6.78739 30.804Z" fill="#FFF4E8"/>
</g>
<mask id="mask3_364_19484" style="mask-type:luminance" maskUnits="userSpaceOnUse" x="12" y="7" width="8" height="24">
<path d="M12.6605 7.7627H19.8268V30.9528H12.6605V7.7627Z" fill="white"/>
</mask>
<g mask="url(#mask3_364_19484)">
<path d="M13.1233 7.7627L19.4722 15.4506V30.804L13.1233 23.0808V7.7627Z" fill="#F1841B"/>
</g>
<mask id="mask4_364_19484" style="mask-type:luminance" maskUnits="userSpaceOnUse" x="19" y="7" width="8" height="24">
<path d="M19.349 7.7627H26.0375V30.9528H19.349V7.7627Z" fill="white"/>
</mask>
<g mask="url(#mask4_364_19484)">
<path d="M19.5002 30.804L25.836 23.1161V7.7627L19.4722 15.4859L19.5002 30.804Z" fill="#FAC491"/>
</g>
<mask id="mask5_364_19484" style="mask-type:luminance" maskUnits="userSpaceOnUse" x="25" y="7" width="8" height="24">
<path d="M25.5598 7.7627H32.1793V30.9528H25.5598V7.7627Z" fill="white"/>
</mask>
<g mask="url(#mask5_364_19484)">
<path d="M25.8361 7.7627L32.1868 15.4506V30.804L25.8361 23.0808V7.7627Z" fill="#C26104"/>
</g>
<path d="M61.982 12.6954H61.8998L60.4442 15.5897L56.5699 22.6061L52.7778 15.6195L51.2699 12.4945H51.1878V25.7013H47.1119V5.87988H51.6954L56.5699 15.1656H56.6296L61.4445 5.87988H66.0578V25.7013H61.982V12.6954Z" fill="#F1841B"/>
<path d="M81.2691 25.7012C80.5114 25.7012 79.8807 25.4668 79.3731 24.9944C78.8692 24.5182 78.5538 23.8839 78.425 23.0896H78.2533C78.0238 24.0569 77.518 24.7916 76.738 25.292C75.9616 25.7924 75.0024 26.0435 73.864 26.0435C72.3598 26.0435 71.2102 25.6473 70.4152 24.853C69.6183 24.055 69.2208 23.004 69.2208 21.6982C69.2208 20.1264 69.7956 18.9583 70.9452 18.1938C72.0948 17.4255 73.6568 17.0405 75.6332 17.0405H77.992V16.103C77.992 15.385 77.8017 14.8121 77.4247 14.3843C77.0459 13.9583 76.4095 13.7444 75.5137 13.7444C74.6776 13.7444 74.0133 13.9267 73.5206 14.2875C73.0279 14.6447 72.6192 15.052 72.2964 15.5078L69.7882 13.2905C70.3947 12.4032 71.158 11.7094 72.0799 11.2072C73.0055 10.7012 74.254 10.4482 75.8272 10.4482C77.9566 10.4482 79.5522 10.9133 80.6122 11.8396C81.676 12.7678 82.2097 14.122 82.2097 15.9021V22.4348H83.6056V25.7012H81.2691ZM75.4316 23.1194C76.1333 23.1194 76.7342 22.9687 77.2381 22.6655C77.7401 22.3642 77.992 21.8694 77.992 21.1848V19.4215H75.9467C74.2932 19.4215 73.4683 19.9832 73.4683 21.103V21.5271C73.4683 22.0777 73.6363 22.4832 73.9759 22.7399C74.3193 22.9929 74.8045 23.1194 75.4316 23.1194Z" fill="#F1841B"/>
<path d="M86.4243 25.7012V10.7905H90.642V13.3203H90.8137C91.0824 12.5427 91.5471 11.8694 92.2096 11.3039C92.8758 10.7347 93.7959 10.4482 94.9716 10.4482C96.5131 10.4482 97.6776 10.9616 98.4652 11.9884C99.2508 13.0115 99.6446 14.4661 99.6446 16.356V25.7012H95.4344V16.6982C95.4344 15.731 95.2795 15.0167 94.9716 14.5554C94.6674 14.0904 94.1281 13.856 93.3517 13.856C93.0083 13.856 92.6743 13.9006 92.3514 13.9899C92.0267 14.0755 91.7356 14.2113 91.478 14.3991C91.2242 14.5889 91.0189 14.8214 90.8659 15.0985C90.7166 15.372 90.642 15.6863 90.642 16.0435V25.7012H86.4243Z" fill="#F1841B"/>
<path d="M114.46 25.7012C113.702 25.7012 113.071 25.4668 112.564 24.9944C112.06 24.5182 111.744 23.8839 111.616 23.0896H111.444C111.214 24.0569 110.709 24.7916 109.929 25.292C109.152 25.7924 108.193 26.0435 107.055 26.0435C105.55 26.0435 104.401 25.6473 103.606 24.853C102.809 24.055 102.411 23.004 102.411 21.6982C102.411 20.1264 102.986 18.9583 104.136 18.1938C105.285 17.4255 106.847 17.0405 108.824 17.0405H111.183V16.103C111.183 15.385 110.992 14.8121 110.615 14.3843C110.237 13.9583 109.6 13.7444 108.704 13.7444C107.868 13.7444 107.204 13.9267 106.711 14.2875C106.219 14.6447 105.81 15.052 105.487 15.5078L102.979 13.2905C103.585 12.4032 104.349 11.7094 105.271 11.2072C106.196 10.7012 107.445 10.4482 109.018 10.4482C111.147 10.4482 112.743 10.9133 113.803 11.8396C114.867 12.7678 115.4 14.122 115.4 15.9021V22.4348H116.796V25.7012H114.46ZM108.622 23.1194C109.324 23.1194 109.925 22.9687 110.429 22.6655C110.931 22.3642 111.183 21.8694 111.183 21.1848V19.4215H109.137C107.484 19.4215 106.659 19.9832 106.659 21.103V21.5271C106.659 22.0777 106.827 22.4832 107.167 22.7399C107.51 22.9929 107.995 23.1194 108.622 23.1194Z" fill="#F1841B"/>
<path d="M120.361 14.0566H118.249V10.7903H120.361V9.02688C120.361 7.58901 120.738 6.50456 121.496 5.77539C122.257 5.04622 123.37 4.68164 124.833 4.68164H127.565V7.94801H124.579V10.7903H127.565V14.0566H124.579V25.701H120.361V14.0566Z" fill="#F1841B"/>
<path d="M138.738 23.2008H138.596C138.462 23.5784 138.285 23.9374 138.066 24.2796C137.846 24.6219 137.566 24.9269 137.223 25.1948C136.883 25.4589 136.48 25.6636 136.013 25.8124C135.551 25.9649 135.013 26.043 134.401 26.043C132.863 26.043 131.699 25.5371 130.907 24.5252C130.12 23.5095 129.728 22.0549 129.728 20.165V10.79H133.946V19.793C133.946 20.7008 134.106 21.4039 134.431 21.8987C134.754 22.3897 135.306 22.6353 136.088 22.6353C136.411 22.6353 136.732 22.5888 137.051 22.4939C137.374 22.4009 137.659 22.2633 137.91 22.0847C138.158 21.9024 138.357 21.6792 138.507 21.415C138.66 21.1472 138.738 20.8347 138.738 20.4775V10.79H142.956V25.7008H138.738V23.2008Z" fill="#F1841B"/>
<path d="M151.067 25.701C149.623 25.701 148.563 25.3513 147.887 24.6519C147.216 23.9525 146.88 22.9387 146.88 21.6087V4.68164H151.097V22.4346H152.978V25.701H151.067Z" fill="#F1841B"/>
<path d="M74.7051 38.4231V33.4678H75.3023V37.8949H77.4148V38.4231H74.7051Z" fill="#F1841B"/>
<path d="M80.15 38.5047C79.8999 38.5047 79.6741 38.4601 79.4707 38.3708C79.271 38.2815 79.0974 38.1531 78.9481 37.9839C78.8026 37.8165 78.6906 37.6156 78.6122 37.3812C78.5376 37.1487 78.5002 36.8864 78.5002 36.5925C78.5002 36.306 78.5376 36.0419 78.6122 35.8038C78.6906 35.5657 78.8026 35.3648 78.9481 35.2011C79.0974 35.0337 79.271 34.9035 79.4707 34.8142C79.6741 34.7212 79.8999 34.6729 80.15 34.6729C80.3982 34.6729 80.6203 34.7212 80.8144 34.8142C81.0084 34.9035 81.1727 35.0281 81.307 35.1862C81.4451 35.3406 81.5534 35.5266 81.628 35.7443C81.7027 35.9638 81.74 36.2037 81.74 36.466V36.7339H79.0974V36.905C79.0974 37.0594 79.1217 37.2063 79.1721 37.344C79.2206 37.4779 79.2915 37.5951 79.3811 37.6937C79.4744 37.7941 79.5901 37.8723 79.7245 37.9318C79.8626 37.9876 80.0175 38.0136 80.1873 38.0136C80.4206 38.0136 80.6221 37.9597 80.792 37.8499C80.9655 37.742 81.0999 37.5858 81.1951 37.3812L81.6056 37.6714C81.4862 37.9206 81.2996 38.1215 81.0458 38.274C80.7957 38.4266 80.4971 38.5047 80.15 38.5047ZM80.15 35.149C79.9951 35.149 79.8533 35.1769 79.7245 35.2309C79.5938 35.2867 79.4819 35.363 79.3886 35.4615C79.299 35.562 79.2262 35.681 79.1721 35.8187C79.1217 35.9526 79.0974 36.0996 79.0974 36.2577V36.3098H81.1279V36.2279C81.1279 35.9005 81.0383 35.6401 80.8591 35.4467C80.68 35.2495 80.443 35.149 80.15 35.149Z" fill="#F1841B"/>
<path d="M85.9067 38.4229C85.6921 38.4229 85.5372 38.367 85.4438 38.2517C85.3543 38.1383 85.2964 37.9969 85.2722 37.8276H85.2348C85.1546 38.0564 85.0221 38.2275 84.8392 38.341C84.6544 38.4489 84.4324 38.5047 84.1748 38.5047C83.7866 38.5047 83.4825 38.4061 83.2641 38.2071C83.0495 38.0099 82.9431 37.742 82.9431 37.4035C82.9431 37.0575 83.07 36.7915 83.3238 36.6074C83.5776 36.4251 83.9733 36.3321 84.5107 36.3321H85.2348V35.9675C85.2348 35.7052 85.162 35.5062 85.0183 35.3723C84.8784 35.2346 84.6619 35.1639 84.3689 35.1639C84.145 35.1639 83.9583 35.2141 83.809 35.3127C83.6597 35.4132 83.5347 35.5471 83.4358 35.7145L83.0924 35.3946C83.1913 35.1974 83.35 35.0281 83.5702 34.8886C83.7885 34.7454 84.0647 34.6729 84.3988 34.6729C84.8411 34.6729 85.1844 34.7826 85.4289 35.0002C85.6771 35.2197 85.8022 35.5211 85.8022 35.908V37.9243H86.2277V38.4229H85.9067ZM84.2644 38.0285C84.4081 38.0285 84.5406 38.0118 84.66 37.9764C84.7795 37.9429 84.8802 37.8946 84.9661 37.8351C85.0501 37.7718 85.1154 37.6993 85.1602 37.6193C85.2087 37.5412 85.2348 37.4537 85.2348 37.3589V36.7562H84.4809C84.1524 36.7562 83.9135 36.8045 83.7643 36.8976C83.615 36.9924 83.5403 37.1282 83.5403 37.3068V37.4556C83.5403 37.6397 83.6038 37.7811 83.7344 37.8797C83.8688 37.9801 84.0442 38.0285 84.2644 38.0285Z" fill="#F1841B"/>
<path d="M87.5929 38.4224V34.7617H88.1602V35.4314H88.1976C88.2666 35.2584 88.386 35.104 88.5559 34.9701C88.7238 34.8324 88.959 34.7617 89.2576 34.7617H89.4815V35.3272H89.1456C88.8358 35.3272 88.5951 35.3867 88.4215 35.5058C88.2461 35.6211 88.1602 35.7643 88.1602 35.9373V38.4224H87.5929Z" fill="#F1841B"/>
<path d="M90.7621 38.4229V34.7621H91.3294V35.3574H91.3593C91.4489 35.149 91.5758 34.9835 91.74 34.8589C91.9042 34.7361 92.1244 34.6729 92.4044 34.6729C92.7813 34.6729 93.0799 34.7975 93.3001 35.0449C93.5241 35.2886 93.6361 35.6308 93.6361 36.0717V38.4229H93.0613V36.1758C93.0613 35.5173 92.7851 35.1862 92.2327 35.1862C92.117 35.1862 92.005 35.2011 91.8967 35.2309C91.7922 35.2569 91.6952 35.2979 91.6056 35.3574C91.5198 35.4132 91.4526 35.4839 91.4041 35.5731C91.3537 35.6624 91.3294 35.7647 91.3294 35.8782V38.4229H90.7621Z" fill="#F1841B"/>
<path d="M95.6462 33.8991C95.5212 33.8991 95.4316 33.8693 95.3775 33.8098C95.3271 33.7503 95.3029 33.674 95.3029 33.5791V33.4899C95.3029 33.3969 95.3271 33.3187 95.3775 33.2592C95.4316 33.1997 95.5212 33.1699 95.6462 33.1699C95.7694 33.1699 95.859 33.1997 95.915 33.2592C95.9691 33.3187 95.9971 33.3969 95.9971 33.4899V33.5791C95.9971 33.674 95.9691 33.7503 95.915 33.8098C95.859 33.8693 95.7694 33.8991 95.6462 33.8991ZM95.3626 34.7622H95.9299V38.4229H95.3626V34.7622Z" fill="#F1841B"/>
<path d="M97.6986 38.4229V34.7621H98.2659V35.3574H98.2958C98.3854 35.149 98.5123 34.9835 98.6765 34.8589C98.8407 34.7361 99.0609 34.6729 99.3409 34.6729C99.7179 34.6729 100.016 34.7975 100.237 35.0449C100.461 35.2886 100.573 35.6308 100.573 36.0717V38.4229H99.9978V36.1758C99.9978 35.5173 99.7216 35.1862 99.1692 35.1862C99.0535 35.1862 98.9415 35.2011 98.8333 35.2309C98.7288 35.2569 98.6317 35.2979 98.5421 35.3574C98.4563 35.4132 98.3891 35.4839 98.3406 35.5731C98.2902 35.6624 98.2659 35.7647 98.2659 35.8782V38.4229H97.6986Z" fill="#F1841B"/>
<path d="M105.397 38.8247C105.397 39.206 105.248 39.4832 104.949 39.658C104.655 39.8366 104.212 39.9259 103.621 39.9259C103.042 39.9259 102.628 39.8459 102.374 39.6878C102.124 39.5334 102.001 39.312 102.001 39.0256C102.001 38.8265 102.053 38.6703 102.158 38.5568C102.262 38.4471 102.404 38.369 102.583 38.3187V38.2369C102.363 38.1327 102.255 37.9653 102.255 37.7309C102.255 37.5431 102.314 37.4017 102.434 37.3068C102.553 37.2082 102.704 37.1357 102.889 37.0911V37.0613C102.669 36.9571 102.501 36.8083 102.382 36.6149C102.262 36.4214 102.202 36.1963 102.202 35.9378C102.202 35.7555 102.234 35.5862 102.299 35.4318C102.363 35.2737 102.456 35.1398 102.576 35.03C102.699 34.9166 102.846 34.8291 103.016 34.7696C103.184 34.7064 103.374 34.6729 103.583 34.6729C103.841 34.6729 104.072 34.7213 104.278 34.8143V34.7547C104.278 34.6115 104.309 34.4943 104.375 34.405C104.444 34.312 104.556 34.2637 104.711 34.2637H105.256V34.7622H104.561V34.9928C104.69 35.1082 104.793 35.244 104.867 35.4021C104.942 35.562 104.979 35.7406 104.979 35.9378C104.979 36.1219 104.944 36.2931 104.875 36.4512C104.81 36.6056 104.714 36.7395 104.591 36.853C104.472 36.9627 104.326 37.0501 104.158 37.1134C103.988 37.1729 103.8 37.2027 103.591 37.2027C103.471 37.2027 103.352 37.1915 103.233 37.1655C103.108 37.2008 102.996 37.251 102.897 37.3143C102.796 37.3794 102.747 37.4668 102.747 37.5747C102.747 37.6844 102.8 37.7588 102.904 37.7979C103.009 37.8388 103.145 37.8574 103.315 37.8574H104.091C104.548 37.8574 104.879 37.9448 105.084 38.1178C105.293 38.2871 105.397 38.5215 105.397 38.8247ZM104.867 38.8693C104.867 38.7242 104.81 38.6089 104.696 38.5196C104.586 38.4303 104.386 38.3857 104.098 38.3857H102.874C102.65 38.4899 102.538 38.6554 102.538 38.8842C102.538 39.0423 102.598 39.1781 102.717 39.2934C102.837 39.4069 103.04 39.4646 103.33 39.4646H103.86C104.177 39.4646 104.423 39.4143 104.599 39.3158C104.778 39.2153 104.867 39.0665 104.867 38.8693ZM103.591 36.7488C103.83 36.7488 104.02 36.693 104.166 36.5777C104.309 36.4586 104.382 36.2782 104.382 36.0345V35.8411C104.382 35.5992 104.309 35.4207 104.166 35.3053C104.02 35.1863 103.83 35.1268 103.591 35.1268C103.346 35.1268 103.152 35.1863 103.009 35.3053C102.869 35.4207 102.8 35.5992 102.8 35.8411V36.0345C102.8 36.2782 102.869 36.4586 103.009 36.5777C103.152 36.693 103.346 36.7488 103.591 36.7488Z" fill="#F1841B"/>
<path d="M112.026 38.4231L111.526 36.9574H109.518L109.017 38.4231H108.413L110.152 33.4678H110.914L112.653 38.4231H112.026ZM110.533 34.0258H110.496L109.659 36.4365H111.376L110.533 34.0258Z" fill="#F1841B"/>
<path d="M113.974 34.7621H114.541V35.3574H114.571C114.664 35.1249 114.804 34.9537 114.989 34.844C115.172 34.7305 115.392 34.6729 115.646 34.6729C115.874 34.6729 116.081 34.7212 116.265 34.8142C116.448 34.9035 116.605 35.03 116.736 35.1937C116.87 35.3574 116.971 35.5583 117.042 35.7964C117.111 36.0345 117.146 36.3005 117.146 36.5925C117.146 36.8864 117.111 37.1505 117.042 37.3886C116.971 37.623 116.87 37.8239 116.736 37.9913C116.605 38.155 116.448 38.2815 116.265 38.3708C116.081 38.4601 115.874 38.5047 115.646 38.5047C115.148 38.5047 114.789 38.2796 114.571 37.8276H114.541V39.844H113.974V34.7621ZM115.489 37.9987C115.812 37.9987 116.066 37.9002 116.251 37.7011C116.439 37.4984 116.534 37.2324 116.534 36.905V36.28C116.534 35.9526 116.439 35.6903 116.251 35.4913C116.066 35.2886 115.812 35.1862 115.489 35.1862C115.364 35.1862 115.243 35.2048 115.123 35.2383C115.008 35.2737 114.907 35.3239 114.817 35.3871C114.731 35.4467 114.664 35.5211 114.616 35.6104C114.565 35.6959 114.541 35.7871 114.541 35.8856V37.2547C114.541 37.37 114.565 37.4742 114.616 37.5672C114.664 37.6621 114.731 37.742 114.817 37.8053C114.907 37.8648 115.008 37.9132 115.123 37.9467C115.243 37.982 115.364 37.9987 115.489 37.9987Z" fill="#F1841B"/>
<path d="M118.66 34.7621H119.227V35.3574H119.257C119.35 35.1249 119.49 34.9537 119.675 34.844C119.858 34.7305 120.078 34.6729 120.332 34.6729C120.56 34.6729 120.767 34.7212 120.952 34.8142C121.134 34.9035 121.291 35.03 121.422 35.1937C121.556 35.3574 121.657 35.5583 121.728 35.7964C121.797 36.0345 121.832 36.3005 121.832 36.5925C121.832 36.8864 121.797 37.1505 121.728 37.3886C121.657 37.623 121.556 37.8239 121.422 37.9913C121.291 38.155 121.134 38.2815 120.952 38.3708C120.767 38.4601 120.56 38.5047 120.332 38.5047C119.834 38.5047 119.475 38.2796 119.257 37.8276H119.227V39.844H118.66V34.7621ZM120.175 37.9987C120.498 37.9987 120.752 37.9002 120.937 37.7011C121.125 37.4984 121.22 37.2324 121.22 36.905V36.28C121.22 35.9526 121.125 35.6903 120.937 35.4913C120.752 35.2886 120.498 35.1862 120.175 35.1862C120.05 35.1862 119.929 35.2048 119.809 35.2383C119.694 35.2737 119.593 35.3239 119.503 35.3871C119.417 35.4467 119.35 35.5211 119.302 35.6104C119.251 35.6959 119.227 35.7871 119.227 35.8856V37.2547C119.227 37.37 119.251 37.4742 119.302 37.5672C119.35 37.6621 119.417 37.742 119.503 37.8053C119.593 37.8648 119.694 37.9132 119.809 37.9467C119.929 37.982 120.05 37.9987 120.175 37.9987Z" fill="#F1841B"/>
</g>
<defs>
<linearGradient id="paint0_linear_364_19484" x1="-2.57089" y1="35.1943" x2="41.4149" y2="3.23682" gradientUnits="userSpaceOnUse">
<stop stop-color="#FED8B5"/>
<stop offset="0.00390625" stop-color="#FED8B4"/>
<stop offset="0.0078125" stop-color="#FED7B3"/>
<stop offset="0.0117187" stop-color="#FED7B2"/>
<stop offset="0.015625" stop-color="#FED7B1"/>
<stop offset="0.0195312" stop-color="#FED6B1"/>
<stop offset="0.0234375" stop-color="#FED6B0"/>
<stop offset="0.0273437" stop-color="#FDD5AF"/>
<stop offset="0.03125" stop-color="#FDD5AE"/>
<stop offset="0.0351562" stop-color="#FDD4AD"/>
<stop offset="0.0390625" stop-color="#FDD4AD"/>
<stop offset="0.0429687" stop-color="#FDD3AC"/>
<stop offset="0.046875" stop-color="#FDD3AB"/>
<stop offset="0.0507812" stop-color="#FDD3AA"/>
<stop offset="0.0546875" stop-color="#FDD2A9"/>
<stop offset="0.0585937" stop-color="#FDD2A9"/>
<stop offset="0.0625" stop-color="#FDD1A8"/>
<stop offset="0.0664062" stop-color="#FDD1A7"/>
<stop offset="0.0703125" stop-color="#FDD0A6"/>
<stop offset="0.0742188" stop-color="#FDD0A5"/>
<stop offset="0.078125" stop-color="#FDD0A5"/>
<stop offset="0.0820312" stop-color="#FDCFA4"/>
<stop offset="0.0859375" stop-color="#FCCFA3"/>
<stop offset="0.0898437" stop-color="#FCCEA2"/>
<stop offset="0.09375" stop-color="#FCCEA1"/>
<stop offset="0.0976562" stop-color="#FCCDA1"/>
<stop offset="0.101563" stop-color="#FCCDA0"/>
<stop offset="0.105469" stop-color="#FCCC9F"/>
<stop offset="0.109375" stop-color="#FCCC9E"/>
<stop offset="0.113281" stop-color="#FCCC9D"/>
<stop offset="0.117187" stop-color="#FCCB9D"/>
<stop offset="0.121094" stop-color="#FCCB9C"/>
<stop offset="0.125" stop-color="#FCCA9B"/>
<stop offset="0.128906" stop-color="#FCCA9A"/>
<stop offset="0.132812" stop-color="#FCC999"/>
<stop offset="0.136719" stop-color="#FCC999"/>
<stop offset="0.140625" stop-color="#FCC898"/>
<stop offset="0.144531" stop-color="#FBC897"/>
<stop offset="0.148438" stop-color="#FBC896"/>
<stop offset="0.152344" stop-color="#FBC795"/>
<stop offset="0.15625" stop-color="#FBC795"/>
<stop offset="0.160156" stop-color="#FBC694"/>
<stop offset="0.164062" stop-color="#FBC693"/>
<stop offset="0.167969" stop-color="#FBC592"/>
<stop offset="0.171875" stop-color="#FBC591"/>
<stop offset="0.175781" stop-color="#FBC591"/>
<stop offset="0.179688" stop-color="#FBC490"/>
<stop offset="0.183594" stop-color="#FBC48F"/>
<stop offset="0.1875" stop-color="#FBC38E"/>
<stop offset="0.191406" stop-color="#FBC38D"/>
<stop offset="0.195312" stop-color="#FBC28D"/>
<stop offset="0.199219" stop-color="#FAC28C"/>
<stop offset="0.203125" stop-color="#FAC18B"/>
<stop offset="0.207031" stop-color="#FAC18A"/>
<stop offset="0.210938" stop-color="#FAC189"/>
<stop offset="0.214844" stop-color="#FAC089"/>
<stop offset="0.21875" stop-color="#FAC088"/>
<stop offset="0.222656" stop-color="#FABF87"/>
<stop offset="0.226562" stop-color="#FABF86"/>
<stop offset="0.230469" stop-color="#FABE85"/>
<stop offset="0.234375" stop-color="#FABE85"/>
<stop offset="0.238281" stop-color="#FABE84"/>
<stop offset="0.242188" stop-color="#FABD83"/>
<stop offset="0.246094" stop-color="#FABD82"/>
<stop offset="0.25" stop-color="#FABC81"/>
<stop offset="0.253906" stop-color="#FABC81"/>
<stop offset="0.257812" stop-color="#F9BB80"/>
<stop offset="0.261719" stop-color="#F9BB7F"/>
<stop offset="0.265625" stop-color="#F9BA7E"/>
<stop offset="0.269531" stop-color="#F9BA7D"/>
<stop offset="0.273438" stop-color="#F9BA7D"/>
<stop offset="0.277344" stop-color="#F9B97C"/>
<stop offset="0.28125" stop-color="#F9B97B"/>
<stop offset="0.285156" stop-color="#F9B87A"/>
<stop offset="0.289062" stop-color="#F9B879"/>
<stop offset="0.292969" stop-color="#F9B779"/>
<stop offset="0.296875" stop-color="#F9B778"/>
<stop offset="0.300781" stop-color="#F9B677"/>
<stop offset="0.304687" stop-color="#F9B676"/>
<stop offset="0.308594" stop-color="#F9B675"/>
<stop offset="0.3125" stop-color="#F9B575"/>
<stop offset="0.316406" stop-color="#F8B574"/>
<stop offset="0.320312" stop-color="#F8B473"/>
<stop offset="0.324219" stop-color="#F8B472"/>
<stop offset="0.328125" stop-color="#F8B371"/>
<stop offset="0.332031" stop-color="#F8B370"/>
<stop offset="0.335938" stop-color="#F8B370"/>
<stop offset="0.339844" stop-color="#F8B26F"/>
<stop offset="0.34375" stop-color="#F8B26E"/>
<stop offset="0.347656" stop-color="#F8B16D"/>
<stop offset="0.351562" stop-color="#F8B16C"/>
<stop offset="0.355469" stop-color="#F8B06C"/>
<stop offset="0.359375" stop-color="#F8B06B"/>
<stop offset="0.363281" stop-color="#F8AF6A"/>
<stop offset="0.367187" stop-color="#F8AF69"/>
<stop offset="0.371094" stop-color="#F8AF68"/>
<stop offset="0.375" stop-color="#F7AE68"/>
<stop offset="0.378906" stop-color="#F7AE67"/>
<stop offset="0.382812" stop-color="#F7AD66"/>
<stop offset="0.386719" stop-color="#F7AD65"/>
<stop offset="0.390625" stop-color="#F7AC64"/>
<stop offset="0.394531" stop-color="#F7AC64"/>
<stop offset="0.398438" stop-color="#F7AB63"/>
<stop offset="0.402344" stop-color="#F7AB62"/>
<stop offset="0.40625" stop-color="#F7AB61"/>
<stop offset="0.410156" stop-color="#F7AA60"/>
<stop offset="0.414062" stop-color="#F7AA60"/>
<stop offset="0.417969" stop-color="#F7A95F"/>
<stop offset="0.421875" stop-color="#F7A95E"/>
<stop offset="0.425781" stop-color="#F7A85D"/>
<stop offset="0.429687" stop-color="#F6A85C"/>
<stop offset="0.433594" stop-color="#F6A85C"/>
<stop offset="0.4375" stop-color="#F6A75B"/>
<stop offset="0.441406" stop-color="#F6A75A"/>
<stop offset="0.445312" stop-color="#F6A659"/>
<stop offset="0.449219" stop-color="#F6A658"/>
<stop offset="0.453125" stop-color="#F6A558"/>
<stop offset="0.457031" stop-color="#F6A557"/>
<stop offset="0.460937" stop-color="#F6A456"/>
<stop offset="0.464844" stop-color="#F6A455"/>
<stop offset="0.46875" stop-color="#F6A454"/>
<stop offset="0.472656" stop-color="#F6A354"/>
<stop offset="0.476562" stop-color="#F6A353"/>
<stop offset="0.480469" stop-color="#F6A252"/>
<stop offset="0.484375" stop-color="#F6A251"/>
<stop offset="0.488281" stop-color="#F5A150"/>
<stop offset="0.492187" stop-color="#F5A150"/>
<stop offset="0.496094" stop-color="#F5A04F"/>
<stop offset="0.5" stop-color="#F5A04E"/>
<stop offset="0.503906" stop-color="#F5A04D"/>
<stop offset="0.507812" stop-color="#F59F4C"/>
<stop offset="0.511719" stop-color="#F59F4C"/>
<stop offset="0.515625" stop-color="#F59E4B"/>
<stop offset="0.519531" stop-color="#F59E4A"/>
<stop offset="0.523437" stop-color="#F59D49"/>
<stop offset="0.527344" stop-color="#F59D48"/>
<stop offset="0.53125" stop-color="#F59D48"/>
<stop offset="0.535156" stop-color="#F59C47"/>
<stop offset="0.539062" stop-color="#F59C46"/>
<stop offset="0.542969" stop-color="#F59B45"/>
<stop offset="0.546875" stop-color="#F49B44"/>
<stop offset="0.550781" stop-color="#F49A44"/>
<stop offset="0.554687" stop-color="#F49A43"/>
<stop offset="0.558594" stop-color="#F49942"/>
<stop offset="0.5625" stop-color="#F49941"/>
<stop offset="0.566406" stop-color="#F49940"/>
<stop offset="0.570312" stop-color="#F49840"/>
<stop offset="0.574219" stop-color="#F4983F"/>
<stop offset="0.578125" stop-color="#F4973E"/>
<stop offset="0.582031" stop-color="#F4973D"/>
<stop offset="0.585937" stop-color="#F4963C"/>
<stop offset="0.589844" stop-color="#F4963C"/>
<stop offset="0.59375" stop-color="#F4953B"/>
<stop offset="0.597656" stop-color="#F4953A"/>
<stop offset="0.601562" stop-color="#F49539"/>
<stop offset="0.605469" stop-color="#F39438"/>
<stop offset="0.609375" stop-color="#F39438"/>
<stop offset="0.613281" stop-color="#F39337"/>
<stop offset="0.617187" stop-color="#F39336"/>
<stop offset="0.621094" stop-color="#F39235"/>
<stop offset="0.625" stop-color="#F39234"/>
<stop offset="0.628906" stop-color="#F39234"/>
<stop offset="0.632812" stop-color="#F39133"/>
<stop offset="0.636719" stop-color="#F39132"/>
<stop offset="0.640625" stop-color="#F39031"/>
<stop offset="0.644531" stop-color="#F39030"/>
<stop offset="0.648437" stop-color="#F38F30"/>
<stop offset="0.652344" stop-color="#F38F2F"/>
<stop offset="0.65625" stop-color="#F38E2E"/>
<stop offset="0.660156" stop-color="#F38E2D"/>
<stop offset="0.664062" stop-color="#F28E2C"/>
<stop offset="0.667969" stop-color="#F28D2C"/>
<stop offset="0.671875" stop-color="#F28D2B"/>
<stop offset="0.675781" stop-color="#F28C2A"/>
<stop offset="0.679687" stop-color="#F28C29"/>
<stop offset="0.683594" stop-color="#F28B28"/>
<stop offset="0.6875" stop-color="#F28B28"/>
<stop offset="0.691406" stop-color="#F28B27"/>
<stop offset="0.695312" stop-color="#F28A26"/>
<stop offset="0.699219" stop-color="#F28A25"/>
<stop offset="0.703125" stop-color="#F28924"/>
<stop offset="0.707031" stop-color="#F28924"/>
<stop offset="0.710937" stop-color="#F28823"/>
<stop offset="0.714844" stop-color="#F28822"/>
<stop offset="0.71875" stop-color="#F18721"/>
<stop offset="0.722656" stop-color="#F18720"/>
<stop offset="0.726562" stop-color="#F18720"/>
<stop offset="0.730469" stop-color="#F1861F"/>
<stop offset="0.734375" stop-color="#F1861E"/>
<stop offset="0.738281" stop-color="#F1851D"/>
<stop offset="0.742187" stop-color="#F1851C"/>
<stop offset="0.746094" stop-color="#F1841C"/>
<stop offset="0.75" stop-color="#F1841B"/>
<stop offset="1" stop-color="#F1841B"/>
</linearGradient>
<clipPath id="clip0_364_19484">
<rect width="153" height="40" fill="white"/>
</clipPath>
</defs>
</svg>
