<svg width="500" height="500" viewBox="0 0 500 500" fill="none" xmlns="http://www.w3.org/2000/svg">
<g clip-path="url(#clip0_184_14303)">
<path d="M146.022 318.453H145.793L141.731 326.558L130.918 346.203L120.335 326.641L116.126 317.891H115.897V354.87H104.522V299.37H117.314L130.918 325.37H131.085L144.522 299.37H157.397V354.87H146.022V318.453Z" fill="#F1841B"/>
<path d="M199.85 354.87C197.735 354.87 195.975 354.214 194.558 352.891C193.152 351.558 192.271 349.782 191.912 347.558H191.433C190.792 350.266 189.381 352.324 187.204 353.725C185.037 355.126 182.36 355.829 179.183 355.829C174.985 355.829 171.777 354.719 169.558 352.495C167.334 350.261 166.225 347.318 166.225 343.662C166.225 339.261 167.829 335.99 171.037 333.85C174.245 331.699 178.605 330.62 184.12 330.62H190.704V327.995C190.704 325.985 190.173 324.381 189.12 323.183C188.063 321.99 186.287 321.391 183.787 321.391C181.454 321.391 179.6 321.902 178.225 322.912C176.85 323.912 175.709 325.053 174.808 326.329L167.808 320.12C169.501 317.636 171.631 315.693 174.204 314.287C176.787 312.87 180.271 312.162 184.662 312.162C190.605 312.162 195.058 313.464 198.016 316.058C200.985 318.657 202.475 322.449 202.475 327.433V345.725H206.37V354.87H199.85ZM183.558 347.641C185.516 347.641 187.193 347.219 188.6 346.37C190.001 345.527 190.704 344.141 190.704 342.225V337.287H184.995C180.381 337.287 178.079 338.86 178.079 341.995V343.183C178.079 344.725 178.548 345.86 179.495 346.579C180.454 347.287 181.808 347.641 183.558 347.641Z" fill="#F1841B"/>
<path d="M214.237 354.87V313.12H226.008V320.204H226.487C227.237 318.027 228.534 316.141 230.383 314.558C232.242 312.964 234.81 312.162 238.091 312.162C242.393 312.162 245.643 313.6 247.841 316.475C250.034 319.339 251.133 323.412 251.133 328.704V354.87H239.383V329.662C239.383 326.954 238.951 324.954 238.091 323.662C237.242 322.36 235.737 321.704 233.57 321.704C232.612 321.704 231.68 321.829 230.779 322.079C229.872 322.318 229.06 322.699 228.341 323.225C227.633 323.756 227.06 324.407 226.633 325.183C226.216 325.949 226.008 326.829 226.008 327.829V354.87H214.237Z" fill="#F1841B"/>
<path d="M292.479 354.87C290.365 354.87 288.604 354.214 287.188 352.891C285.782 351.558 284.901 349.782 284.542 347.558H284.063C283.422 350.266 282.011 352.324 279.834 353.725C277.667 355.126 274.99 355.829 271.813 355.829C267.615 355.829 264.407 354.719 262.188 352.495C259.964 350.261 258.854 347.318 258.854 343.662C258.854 339.261 260.459 335.99 263.667 333.85C266.875 331.699 271.235 330.62 276.75 330.62H283.334V327.995C283.334 325.985 282.802 324.381 281.75 323.183C280.693 321.99 278.917 321.391 276.417 321.391C274.084 321.391 272.229 321.902 270.854 322.912C269.479 323.912 268.339 325.053 267.438 326.329L260.438 320.12C262.131 317.636 264.261 315.693 266.834 314.287C269.417 312.87 272.901 312.162 277.292 312.162C283.235 312.162 287.688 313.464 290.646 316.058C293.615 318.657 295.104 322.449 295.104 327.433V345.725H299V354.87H292.479ZM276.188 347.641C278.146 347.641 279.823 347.219 281.229 346.37C282.631 345.527 283.334 344.141 283.334 342.225V337.287H277.625C273.011 337.287 270.709 338.86 270.709 341.995V343.183C270.709 344.725 271.177 345.86 272.125 346.579C273.084 347.287 274.438 347.641 276.188 347.641Z" fill="#F1841B"/>
<path d="M308.95 322.266H303.054V313.12H308.95V308.182C308.95 304.156 310.002 301.12 312.117 299.078C314.242 297.036 317.346 296.016 321.429 296.016H329.054V305.161H320.721V313.12H329.054V322.266H320.721V354.87H308.95V322.266Z" fill="#F1841B"/>
<path d="M360.237 347.87H359.841C359.466 348.927 358.971 349.933 358.362 350.891C357.747 351.849 356.966 352.703 356.008 353.453C355.06 354.193 353.935 354.766 352.633 355.183C351.341 355.61 349.841 355.828 348.133 355.828C343.841 355.828 340.591 354.412 338.383 351.578C336.185 348.735 335.091 344.662 335.091 339.37V313.12H346.862V338.328C346.862 340.87 347.31 342.839 348.216 344.224C349.117 345.599 350.659 346.287 352.841 346.287C353.742 346.287 354.638 346.157 355.529 345.891C356.43 345.631 357.226 345.245 357.924 344.745C358.617 344.235 359.174 343.61 359.591 342.87C360.018 342.12 360.237 341.245 360.237 340.245V313.12H372.008V354.87H360.237V347.87Z" fill="#F1841B"/>
<path d="M394.646 354.87C390.615 354.87 387.656 353.891 385.771 351.932C383.896 349.974 382.958 347.135 382.958 343.411V296.016H394.729V345.724H399.979V354.87H394.646Z" fill="#F1841B"/>
<mask id="mask0_184_14303" style="mask-type:luminance" maskUnits="userSpaceOnUse" x="171" y="119" width="157" height="157">
<path d="M171.896 119.417H327.896V275.417H171.896V119.417Z" fill="white"/>
</mask>
<g mask="url(#mask0_184_14303)">
<mask id="mask1_184_14303" style="mask-type:luminance" maskUnits="userSpaceOnUse" x="171" y="119" width="158" height="157">
<path d="M213.922 119.417H286.078C287.453 119.417 288.828 119.485 290.198 119.62C291.568 119.756 292.927 119.959 294.276 120.224C295.625 120.495 296.958 120.828 298.276 121.224C299.594 121.625 300.891 122.089 302.161 122.615C303.432 123.141 304.672 123.729 305.891 124.381C307.104 125.026 308.281 125.735 309.427 126.5C310.568 127.266 311.672 128.084 312.74 128.953C313.802 129.828 314.818 130.75 315.792 131.724C316.766 132.698 317.687 133.719 318.562 134.782C319.437 135.844 320.255 136.948 321.021 138.094C321.786 139.24 322.49 140.417 323.141 141.631C323.786 142.844 324.375 144.089 324.901 145.36C325.427 146.631 325.891 147.922 326.292 149.24C326.693 150.558 327.026 151.891 327.292 153.24C327.562 154.594 327.766 155.953 327.901 157.323C328.036 158.693 328.099 160.063 328.099 161.438V233.599C328.099 234.974 328.036 236.349 327.901 237.719C327.766 239.089 327.562 240.448 327.292 241.797C327.026 243.146 326.693 244.479 326.292 245.797C325.891 247.115 325.427 248.407 324.901 249.677C324.375 250.948 323.786 252.193 323.141 253.407C322.49 254.62 321.786 255.802 321.021 256.943C320.255 258.089 319.437 259.193 318.562 260.256C317.687 261.318 316.766 262.339 315.792 263.313C314.818 264.287 313.802 265.209 312.74 266.084C311.672 266.953 310.568 267.771 309.427 268.537C308.281 269.302 307.104 270.011 305.891 270.657C304.672 271.308 303.432 271.896 302.161 272.422C300.891 272.948 299.594 273.412 298.276 273.813C296.958 274.209 295.625 274.542 294.276 274.813C292.927 275.084 291.568 275.282 290.198 275.417C288.828 275.552 287.453 275.62 286.078 275.62H213.922C212.547 275.62 211.172 275.552 209.802 275.417C208.432 275.282 207.073 275.084 205.724 274.813C204.375 274.542 203.042 274.209 201.724 273.813C200.406 273.412 199.109 272.948 197.838 272.422C196.568 271.896 195.323 271.308 194.109 270.657C192.896 270.011 191.719 269.302 190.573 268.537C189.432 267.771 188.328 266.953 187.26 266.084C186.198 265.209 185.177 264.287 184.208 263.313C183.234 262.339 182.312 261.318 181.437 260.256C180.562 259.193 179.745 258.089 178.979 256.943C178.213 255.802 177.51 254.62 176.859 253.407C176.213 252.193 175.625 250.948 175.099 249.677C174.573 248.407 174.109 247.115 173.708 245.797C173.307 244.479 172.974 243.146 172.708 241.797C172.437 240.448 172.234 239.089 172.099 237.719C171.963 236.349 171.896 234.974 171.896 233.599V161.438C171.896 160.063 171.963 158.693 172.099 157.323C172.234 155.953 172.437 154.594 172.708 153.24C172.974 151.891 173.307 150.558 173.708 149.24C174.109 147.922 174.573 146.631 175.099 145.36C175.625 144.089 176.213 142.844 176.859 141.631C177.51 140.417 178.213 139.24 178.979 138.094C179.745 136.948 180.562 135.844 181.437 134.782C182.312 133.719 183.234 132.698 184.208 131.724C185.177 130.75 186.198 129.828 187.26 128.953C188.328 128.084 189.432 127.266 190.573 126.5C191.719 125.735 192.896 125.026 194.109 124.381C195.323 123.729 196.568 123.141 197.838 122.615C199.109 122.089 200.406 121.625 201.724 121.224C203.042 120.828 204.375 120.495 205.724 120.224C207.073 119.959 208.432 119.756 209.802 119.62C211.172 119.485 212.547 119.417 213.922 119.417Z" fill="white"/>
</mask>
<g mask="url(#mask1_184_14303)">
<path d="M171.896 275.417H327.896V119.417H171.896V275.417Z" fill="url(#paint0_linear_184_14303)"/>
</g>
</g>
<mask id="mask2_184_14303" style="mask-type:luminance" maskUnits="userSpaceOnUse" x="198" y="151" width="28" height="93">
<path d="M198.969 151.192H225.333V244H198.969V151.192Z" fill="white"/>
</mask>
<g mask="url(#mask2_184_14303)">
<path d="M199.156 243.833L224.547 212.922V151.192L199.042 182.244L199.156 243.833Z" fill="#FFF4E8"/>
</g>
<mask id="mask3_184_14303" style="mask-type:luminance" maskUnits="userSpaceOnUse" x="224" y="151" width="27" height="93">
<path d="M224 151.192H250.667V244H224V151.192Z" fill="white"/>
</mask>
<g mask="url(#mask3_184_14303)">
<path d="M224.547 151.192L249.99 182.099V243.833L224.547 212.781V151.192Z" fill="#F1841B"/>
</g>
<mask id="mask4_184_14303" style="mask-type:luminance" maskUnits="userSpaceOnUse" x="249" y="151" width="27" height="93">
<path d="M249.333 151.192H276V244H249.333V151.192Z" fill="white"/>
</mask>
<g mask="url(#mask4_184_14303)">
<path d="M250.104 243.833L275.495 212.922V151.192L249.99 182.244L250.104 243.833Z" fill="#FAC491"/>
</g>
<mask id="mask5_184_14303" style="mask-type:luminance" maskUnits="userSpaceOnUse" x="274" y="151" width="27" height="93">
<path d="M274.667 151.192H300.969V244H274.667V151.192Z" fill="white"/>
</mask>
<g mask="url(#mask5_184_14303)">
<path d="M275.495 151.192L300.943 182.099V243.833L275.495 212.781V151.192Z" fill="#C26104"/>
</g>
<path d="M181.554 397.116V383.241H183.221V395.637H189.116V397.116H181.554Z" fill="#F1841B"/>
<path d="M196.747 397.345C196.049 397.345 195.419 397.22 194.851 396.97C194.294 396.72 193.809 396.361 193.393 395.887C192.986 395.418 192.674 394.856 192.455 394.2C192.247 393.549 192.143 392.814 192.143 391.991C192.143 391.189 192.247 390.45 192.455 389.783C192.674 389.116 192.986 388.554 193.393 388.095C193.809 387.627 194.294 387.262 194.851 387.012C195.419 386.752 196.049 386.616 196.747 386.616C197.439 386.616 198.059 386.752 198.601 387.012C199.143 387.262 199.601 387.611 199.976 388.054C200.361 388.486 200.663 389.007 200.872 389.616C201.08 390.231 201.184 390.903 201.184 391.637V392.387H193.809V392.866C193.809 393.299 193.877 393.71 194.018 394.095C194.153 394.47 194.351 394.799 194.601 395.075C194.861 395.356 195.184 395.575 195.559 395.741C195.945 395.897 196.377 395.97 196.851 395.97C197.502 395.97 198.064 395.819 198.538 395.512C199.023 395.21 199.398 394.772 199.663 394.2L200.809 395.012C200.476 395.71 199.955 396.272 199.247 396.7C198.549 397.127 197.715 397.345 196.747 397.345ZM196.747 387.95C196.314 387.95 195.919 388.028 195.559 388.179C195.195 388.335 194.882 388.549 194.622 388.825C194.372 389.106 194.169 389.439 194.018 389.825C193.877 390.2 193.809 390.611 193.809 391.054V391.2H199.476V390.97C199.476 390.054 199.226 389.325 198.726 388.783C198.226 388.231 197.564 387.95 196.747 387.95Z" fill="#F1841B"/>
<path d="M212.81 397.116C212.211 397.116 211.778 396.96 211.518 396.637C211.268 396.319 211.107 395.924 211.039 395.45H210.935C210.711 396.09 210.341 396.569 209.83 396.887C209.315 397.189 208.695 397.345 207.976 397.345C206.893 397.345 206.044 397.069 205.435 396.512C204.836 395.96 204.539 395.21 204.539 394.262C204.539 393.293 204.893 392.549 205.601 392.033C206.31 391.522 207.414 391.262 208.914 391.262H210.935V390.241C210.935 389.507 210.732 388.95 210.33 388.575C209.94 388.189 209.336 387.991 208.518 387.991C207.893 387.991 207.372 388.132 206.955 388.408C206.539 388.689 206.19 389.064 205.914 389.533L204.955 388.637C205.232 388.085 205.674 387.611 206.289 387.22C206.898 386.819 207.669 386.616 208.601 386.616C209.836 386.616 210.794 386.924 211.476 387.533C212.169 388.147 212.518 388.991 212.518 390.075V395.72H213.705V397.116H212.81ZM208.226 396.012C208.627 396.012 208.997 395.965 209.33 395.866C209.664 395.772 209.945 395.637 210.185 395.47C210.419 395.293 210.601 395.09 210.726 394.866C210.862 394.647 210.935 394.403 210.935 394.137V392.45H208.83C207.914 392.45 207.247 392.585 206.83 392.845C206.414 393.111 206.205 393.491 206.205 393.991V394.408C206.205 394.924 206.383 395.319 206.747 395.595C207.122 395.877 207.612 396.012 208.226 396.012Z" fill="#F1841B"/>
<path d="M217.512 397.116V386.866H219.096V388.741H219.2C219.392 388.257 219.726 387.825 220.2 387.45C220.668 387.064 221.325 386.866 222.158 386.866H222.783V388.45H221.846C220.981 388.45 220.309 388.616 219.825 388.95C219.335 389.272 219.096 389.674 219.096 390.158V397.116H217.512Z" fill="#F1841B"/>
<path d="M226.355 397.116V386.866H227.938V388.533H228.022C228.272 387.95 228.626 387.486 229.084 387.137C229.542 386.793 230.157 386.616 230.938 386.616C231.99 386.616 232.824 386.965 233.438 387.658C234.063 388.34 234.376 389.299 234.376 390.533V397.116H232.772V390.825C232.772 388.981 232.001 388.054 230.459 388.054C230.136 388.054 229.824 388.095 229.522 388.179C229.23 388.252 228.959 388.366 228.709 388.533C228.47 388.689 228.282 388.887 228.147 389.137C228.006 389.387 227.938 389.674 227.938 389.991V397.116H226.355Z" fill="#F1841B"/>
<path d="M239.983 384.449C239.634 384.449 239.384 384.366 239.233 384.199C239.093 384.032 239.025 383.819 239.025 383.553V383.303C239.025 383.043 239.093 382.824 239.233 382.657C239.384 382.491 239.634 382.407 239.983 382.407C240.327 382.407 240.577 382.491 240.733 382.657C240.884 382.824 240.962 383.043 240.962 383.303V383.553C240.962 383.819 240.884 384.032 240.733 384.199C240.577 384.366 240.327 384.449 239.983 384.449ZM239.192 386.866H240.775V397.116H239.192V386.866Z" fill="#F1841B"/>
<path d="M245.709 397.116V386.866H247.293V388.533H247.376C247.626 387.95 247.98 387.486 248.439 387.137C248.897 386.793 249.512 386.616 250.293 386.616C251.345 386.616 252.178 386.965 252.793 387.658C253.418 388.34 253.73 389.299 253.73 390.533V397.116H252.126V390.825C252.126 388.981 251.355 388.054 249.814 388.054C249.491 388.054 249.178 388.095 248.876 388.179C248.584 388.252 248.314 388.366 248.064 388.533C247.824 388.689 247.637 388.887 247.501 389.137C247.361 389.387 247.293 389.674 247.293 389.991V397.116H245.709Z" fill="#F1841B"/>
<path d="M267.192 398.241C267.192 399.308 266.775 400.084 265.942 400.574C265.119 401.074 263.885 401.324 262.233 401.324C260.619 401.324 259.463 401.1 258.754 400.657C258.056 400.225 257.713 399.605 257.713 398.803C257.713 398.246 257.858 397.808 258.15 397.491C258.442 397.183 258.838 396.965 259.338 396.824V396.595C258.723 396.303 258.421 395.834 258.421 395.178C258.421 394.652 258.588 394.256 258.921 393.991C259.254 393.715 259.676 393.511 260.192 393.386V393.303C259.577 393.011 259.108 392.595 258.775 392.053C258.442 391.511 258.275 390.881 258.275 390.157C258.275 389.647 258.364 389.173 258.546 388.741C258.723 388.298 258.983 387.923 259.317 387.616C259.661 387.298 260.072 387.053 260.546 386.886C261.015 386.709 261.546 386.616 262.129 386.616C262.848 386.616 263.494 386.751 264.067 387.011V386.845C264.067 386.444 264.155 386.116 264.338 385.866C264.53 385.605 264.843 385.47 265.275 385.47H266.796V386.866H264.858V387.511C265.218 387.834 265.504 388.215 265.713 388.657C265.921 389.105 266.025 389.605 266.025 390.157C266.025 390.673 265.926 391.152 265.733 391.595C265.551 392.027 265.286 392.402 264.942 392.72C264.608 393.027 264.202 393.272 263.733 393.449C263.26 393.616 262.733 393.699 262.15 393.699C261.817 393.699 261.483 393.668 261.15 393.595C260.801 393.694 260.489 393.834 260.213 394.011C259.931 394.194 259.796 394.438 259.796 394.741C259.796 395.048 259.942 395.256 260.233 395.366C260.525 395.48 260.905 395.532 261.379 395.532H263.546C264.822 395.532 265.744 395.777 266.317 396.261C266.9 396.735 267.192 397.392 267.192 398.241ZM265.713 398.366C265.713 397.959 265.551 397.636 265.233 397.386C264.926 397.136 264.369 397.011 263.567 397.011H260.15C259.525 397.303 259.213 397.767 259.213 398.407C259.213 398.85 259.379 399.23 259.713 399.553C260.046 399.871 260.614 400.032 261.421 400.032H262.9C263.786 400.032 264.473 399.892 264.963 399.616C265.463 399.334 265.713 398.918 265.713 398.366ZM262.15 392.428C262.817 392.428 263.348 392.272 263.754 391.949C264.155 391.616 264.358 391.11 264.358 390.428V389.886C264.358 389.209 264.155 388.709 263.754 388.386C263.348 388.053 262.817 387.886 262.15 387.886C261.468 387.886 260.926 388.053 260.525 388.386C260.135 388.709 259.942 389.209 259.942 389.886V390.428C259.942 391.11 260.135 391.616 260.525 391.949C260.926 392.272 261.468 392.428 262.15 392.428Z" fill="#F1841B"/>
<path d="M285.682 397.116L284.286 393.012H278.682L277.286 397.116H275.598L280.453 383.241H282.578L287.432 397.116H285.682ZM281.515 384.804H281.411L279.078 391.554H283.869L281.515 384.804Z" fill="#F1841B"/>
<path d="M291.115 386.866H292.698V388.533H292.781C293.042 387.882 293.432 387.403 293.948 387.095C294.458 386.778 295.073 386.616 295.781 386.616C296.417 386.616 296.995 386.752 297.51 387.012C298.021 387.262 298.458 387.616 298.823 388.075C299.198 388.533 299.479 389.095 299.677 389.762C299.87 390.429 299.969 391.174 299.969 391.991C299.969 392.814 299.87 393.554 299.677 394.22C299.479 394.877 299.198 395.439 298.823 395.908C298.458 396.366 298.021 396.72 297.51 396.97C296.995 397.22 296.417 397.345 295.781 397.345C294.391 397.345 293.391 396.715 292.781 395.45H292.698V401.095H291.115V386.866ZM295.344 395.929C296.245 395.929 296.953 395.653 297.469 395.095C297.995 394.528 298.26 393.783 298.26 392.866V391.116C298.26 390.2 297.995 389.465 297.469 388.908C296.953 388.34 296.245 388.054 295.344 388.054C294.995 388.054 294.656 388.106 294.323 388.2C294 388.299 293.719 388.439 293.469 388.616C293.229 388.783 293.042 388.991 292.906 389.241C292.766 389.481 292.698 389.736 292.698 390.012V393.845C292.698 394.168 292.766 394.46 292.906 394.72C293.042 394.986 293.229 395.21 293.469 395.387C293.719 395.554 294 395.689 294.323 395.783C294.656 395.882 294.995 395.929 295.344 395.929Z" fill="#F1841B"/>
<path d="M304.189 386.866H305.773V388.533H305.856C306.117 387.882 306.507 387.403 307.023 387.095C307.533 386.778 308.148 386.616 308.856 386.616C309.492 386.616 310.07 386.752 310.585 387.012C311.096 387.262 311.533 387.616 311.898 388.075C312.273 388.533 312.554 389.095 312.752 389.762C312.945 390.429 313.044 391.174 313.044 391.991C313.044 392.814 312.945 393.554 312.752 394.22C312.554 394.877 312.273 395.439 311.898 395.908C311.533 396.366 311.096 396.72 310.585 396.97C310.07 397.22 309.492 397.345 308.856 397.345C307.465 397.345 306.465 396.715 305.856 395.45H305.773V401.095H304.189V386.866ZM308.419 395.929C309.32 395.929 310.028 395.653 310.544 395.095C311.07 394.528 311.335 393.783 311.335 392.866V391.116C311.335 390.2 311.07 389.465 310.544 388.908C310.028 388.34 309.32 388.054 308.419 388.054C308.07 388.054 307.731 388.106 307.398 388.2C307.075 388.299 306.794 388.439 306.544 388.616C306.304 388.783 306.117 388.991 305.981 389.241C305.84 389.481 305.773 389.736 305.773 390.012V393.845C305.773 394.168 305.84 394.46 305.981 394.72C306.117 394.986 306.304 395.21 306.544 395.387C306.794 395.554 307.075 395.689 307.398 395.783C307.731 395.882 308.07 395.929 308.419 395.929Z" fill="#F1841B"/>
</g>
<defs>
<linearGradient id="paint0_linear_184_14303" x1="161.761" y1="261.418" x2="338.202" y2="133.646" gradientUnits="userSpaceOnUse">
<stop stop-color="#FED8B5"/>
<stop offset="0.00390625" stop-color="#FED8B4"/>
<stop offset="0.0078125" stop-color="#FED7B3"/>
<stop offset="0.0117187" stop-color="#FED7B2"/>
<stop offset="0.015625" stop-color="#FED7B1"/>
<stop offset="0.0195312" stop-color="#FED6B1"/>
<stop offset="0.0234375" stop-color="#FED6B0"/>
<stop offset="0.0273438" stop-color="#FDD5AF"/>
<stop offset="0.03125" stop-color="#FDD5AE"/>
<stop offset="0.0351563" stop-color="#FDD4AD"/>
<stop offset="0.0390625" stop-color="#FDD4AD"/>
<stop offset="0.0429688" stop-color="#FDD3AC"/>
<stop offset="0.046875" stop-color="#FDD3AB"/>
<stop offset="0.0507812" stop-color="#FDD3AA"/>
<stop offset="0.0546875" stop-color="#FDD2A9"/>
<stop offset="0.0585938" stop-color="#FDD2A9"/>
<stop offset="0.0625" stop-color="#FDD1A8"/>
<stop offset="0.0664062" stop-color="#FDD1A7"/>
<stop offset="0.0703125" stop-color="#FDD0A6"/>
<stop offset="0.0742188" stop-color="#FDD0A5"/>
<stop offset="0.078125" stop-color="#FDCFA5"/>
<stop offset="0.0820312" stop-color="#FDCFA4"/>
<stop offset="0.0859375" stop-color="#FCCFA3"/>
<stop offset="0.0898438" stop-color="#FCCEA2"/>
<stop offset="0.09375" stop-color="#FCCEA1"/>
<stop offset="0.0976562" stop-color="#FCCDA1"/>
<stop offset="0.101562" stop-color="#FCCDA0"/>
<stop offset="0.105469" stop-color="#FCCC9F"/>
<stop offset="0.109375" stop-color="#FCCC9E"/>
<stop offset="0.113281" stop-color="#FCCC9D"/>
<stop offset="0.117188" stop-color="#FCCB9D"/>
<stop offset="0.121094" stop-color="#FCCB9C"/>
<stop offset="0.125" stop-color="#FCCA9B"/>
<stop offset="0.128906" stop-color="#FCCA9A"/>
<stop offset="0.132812" stop-color="#FCC999"/>
<stop offset="0.136719" stop-color="#FCC999"/>
<stop offset="0.140625" stop-color="#FCC898"/>
<stop offset="0.144531" stop-color="#FBC897"/>
<stop offset="0.148438" stop-color="#FBC896"/>
<stop offset="0.152344" stop-color="#FBC795"/>
<stop offset="0.15625" stop-color="#FBC794"/>
<stop offset="0.160156" stop-color="#FBC694"/>
<stop offset="0.164062" stop-color="#FBC693"/>
<stop offset="0.167969" stop-color="#FBC592"/>
<stop offset="0.171875" stop-color="#FBC591"/>
<stop offset="0.175781" stop-color="#FBC590"/>
<stop offset="0.179688" stop-color="#FBC490"/>
<stop offset="0.183594" stop-color="#FBC48F"/>
<stop offset="0.1875" stop-color="#FBC38E"/>
<stop offset="0.191406" stop-color="#FBC38D"/>
<stop offset="0.195312" stop-color="#FBC28C"/>
<stop offset="0.199219" stop-color="#FAC28C"/>
<stop offset="0.203125" stop-color="#FAC18B"/>
<stop offset="0.207031" stop-color="#FAC18A"/>
<stop offset="0.210937" stop-color="#FAC189"/>
<stop offset="0.214844" stop-color="#FAC088"/>
<stop offset="0.21875" stop-color="#FAC088"/>
<stop offset="0.222656" stop-color="#FABF87"/>
<stop offset="0.226563" stop-color="#FABF86"/>
<stop offset="0.230469" stop-color="#FABE85"/>
<stop offset="0.234375" stop-color="#FABE84"/>
<stop offset="0.238281" stop-color="#FABD84"/>
<stop offset="0.242187" stop-color="#FABD83"/>
<stop offset="0.246094" stop-color="#FABD82"/>
<stop offset="0.25" stop-color="#FABC81"/>
<stop offset="0.253906" stop-color="#FABC80"/>
<stop offset="0.257812" stop-color="#F9BB80"/>
<stop offset="0.261719" stop-color="#F9BB7F"/>
<stop offset="0.265625" stop-color="#F9BA7E"/>
<stop offset="0.269531" stop-color="#F9BA7D"/>
<stop offset="0.273438" stop-color="#F9BA7C"/>
<stop offset="0.277344" stop-color="#F9B97C"/>
<stop offset="0.28125" stop-color="#F9B97B"/>
<stop offset="0.285156" stop-color="#F9B87A"/>
<stop offset="0.289062" stop-color="#F9B879"/>
<stop offset="0.292969" stop-color="#F9B778"/>
<stop offset="0.296875" stop-color="#F9B778"/>
<stop offset="0.300781" stop-color="#F9B677"/>
<stop offset="0.304688" stop-color="#F9B676"/>
<stop offset="0.308594" stop-color="#F9B675"/>
<stop offset="0.3125" stop-color="#F9B574"/>
<stop offset="0.316406" stop-color="#F8B574"/>
<stop offset="0.320312" stop-color="#F8B473"/>
<stop offset="0.324219" stop-color="#F8B472"/>
<stop offset="0.328125" stop-color="#F8B371"/>
<stop offset="0.332031" stop-color="#F8B370"/>
<stop offset="0.335938" stop-color="#F8B370"/>
<stop offset="0.339844" stop-color="#F8B26F"/>
<stop offset="0.34375" stop-color="#F8B26E"/>
<stop offset="0.347656" stop-color="#F8B16D"/>
<stop offset="0.351562" stop-color="#F8B16C"/>
<stop offset="0.355469" stop-color="#F8B06C"/>
<stop offset="0.359375" stop-color="#F8B06B"/>
<stop offset="0.363281" stop-color="#F8AF6A"/>
<stop offset="0.367188" stop-color="#F8AF69"/>
<stop offset="0.371094" stop-color="#F8AF68"/>
<stop offset="0.375" stop-color="#F7AE68"/>
<stop offset="0.378906" stop-color="#F7AE67"/>
<stop offset="0.382812" stop-color="#F7AD66"/>
<stop offset="0.386719" stop-color="#F7AD65"/>
<stop offset="0.390625" stop-color="#F7AC64"/>
<stop offset="0.394531" stop-color="#F7AC64"/>
<stop offset="0.398438" stop-color="#F7AB63"/>
<stop offset="0.402344" stop-color="#F7AB62"/>
<stop offset="0.40625" stop-color="#F7AB61"/>
<stop offset="0.410156" stop-color="#F7AA60"/>
<stop offset="0.414062" stop-color="#F7AA60"/>
<stop offset="0.417969" stop-color="#F7A95F"/>
<stop offset="0.421875" stop-color="#F7A95E"/>
<stop offset="0.425781" stop-color="#F7A85D"/>
<stop offset="0.429688" stop-color="#F7A85C"/>
<stop offset="0.433594" stop-color="#F6A85C"/>
<stop offset="0.4375" stop-color="#F6A75B"/>
<stop offset="0.441406" stop-color="#F6A75A"/>
<stop offset="0.445312" stop-color="#F6A659"/>
<stop offset="0.449219" stop-color="#F6A658"/>
<stop offset="0.453125" stop-color="#F6A558"/>
<stop offset="0.457031" stop-color="#F6A557"/>
<stop offset="0.460938" stop-color="#F6A456"/>
<stop offset="0.464844" stop-color="#F6A455"/>
<stop offset="0.46875" stop-color="#F6A454"/>
<stop offset="0.472656" stop-color="#F6A354"/>
<stop offset="0.476562" stop-color="#F6A353"/>
<stop offset="0.480469" stop-color="#F6A252"/>
<stop offset="0.484375" stop-color="#F6A251"/>
<stop offset="0.488281" stop-color="#F5A150"/>
<stop offset="0.492188" stop-color="#F5A150"/>
<stop offset="0.496094" stop-color="#F5A04F"/>
<stop offset="0.5" stop-color="#F5A04E"/>
<stop offset="0.503906" stop-color="#F5A04D"/>
<stop offset="0.507812" stop-color="#F59F4C"/>
<stop offset="0.511719" stop-color="#F59F4C"/>
<stop offset="0.515625" stop-color="#F59E4B"/>
<stop offset="0.519531" stop-color="#F59E4A"/>
<stop offset="0.523438" stop-color="#F59D49"/>
<stop offset="0.527344" stop-color="#F59D48"/>
<stop offset="0.53125" stop-color="#F59D48"/>
<stop offset="0.535156" stop-color="#F59C47"/>
<stop offset="0.539063" stop-color="#F59C46"/>
<stop offset="0.542969" stop-color="#F59B45"/>
<stop offset="0.546875" stop-color="#F49B44"/>
<stop offset="0.550781" stop-color="#F49A44"/>
<stop offset="0.554688" stop-color="#F49A43"/>
<stop offset="0.558594" stop-color="#F49942"/>
<stop offset="0.5625" stop-color="#F49941"/>
<stop offset="0.566406" stop-color="#F49940"/>
<stop offset="0.570312" stop-color="#F49840"/>
<stop offset="0.574219" stop-color="#F4983F"/>
<stop offset="0.578125" stop-color="#F4973E"/>
<stop offset="0.582031" stop-color="#F4973D"/>
<stop offset="0.585938" stop-color="#F4963C"/>
<stop offset="0.589844" stop-color="#F4963C"/>
<stop offset="0.59375" stop-color="#F4963B"/>
<stop offset="0.597656" stop-color="#F4953A"/>
<stop offset="0.601562" stop-color="#F49539"/>
<stop offset="0.605469" stop-color="#F39438"/>
<stop offset="0.609375" stop-color="#F39438"/>
<stop offset="0.613281" stop-color="#F39337"/>
<stop offset="0.617188" stop-color="#F39336"/>
<stop offset="0.621094" stop-color="#F39235"/>
<stop offset="0.625" stop-color="#F39234"/>
<stop offset="0.628906" stop-color="#F39234"/>
<stop offset="0.632812" stop-color="#F39133"/>
<stop offset="0.636719" stop-color="#F39132"/>
<stop offset="0.640625" stop-color="#F39031"/>
<stop offset="0.644531" stop-color="#F39030"/>
<stop offset="0.648438" stop-color="#F38F30"/>
<stop offset="0.652344" stop-color="#F38F2F"/>
<stop offset="0.65625" stop-color="#F38E2E"/>
<stop offset="0.660156" stop-color="#F38E2D"/>
<stop offset="0.664062" stop-color="#F28E2C"/>
<stop offset="0.667969" stop-color="#F28D2C"/>
<stop offset="0.671875" stop-color="#F28D2B"/>
<stop offset="0.675781" stop-color="#F28C2A"/>
<stop offset="0.679688" stop-color="#F28C29"/>
<stop offset="0.683594" stop-color="#F28B28"/>
<stop offset="0.6875" stop-color="#F28B28"/>
<stop offset="0.691406" stop-color="#F28B27"/>
<stop offset="0.695312" stop-color="#F28A26"/>
<stop offset="0.699219" stop-color="#F28A25"/>
<stop offset="0.703125" stop-color="#F28924"/>
<stop offset="0.707031" stop-color="#F28924"/>
<stop offset="0.710938" stop-color="#F28823"/>
<stop offset="0.714844" stop-color="#F28822"/>
<stop offset="0.71875" stop-color="#F18721"/>
<stop offset="0.722656" stop-color="#F18720"/>
<stop offset="0.726562" stop-color="#F18720"/>
<stop offset="0.730469" stop-color="#F1861F"/>
<stop offset="0.734375" stop-color="#F1861E"/>
<stop offset="0.738281" stop-color="#F1851D"/>
<stop offset="0.742188" stop-color="#F1851C"/>
<stop offset="0.746094" stop-color="#F1841C"/>
<stop offset="0.75" stop-color="#F1841B"/>
<stop offset="1" stop-color="#F1841B"/>
</linearGradient>
<clipPath id="clip0_184_14303">
<rect width="500" height="500" fill="white"/>
</clipPath>
</defs>
</svg>
