<svg width="24" height="24" viewBox="0 0 24 24" fill="none" xmlns="http://www.w3.org/2000/svg">
<g clip-path="url(#clip0_184_12077)">
<path d="M20.9294 20.9284L17.4051 17.4041M11.4651 19.857C13.691 19.857 15.8258 18.9728 17.3998 17.3988C18.9737 15.8248 19.858 13.6901 19.858 11.4641C19.858 9.23822 18.9737 7.10347 17.3998 5.5295C15.8258 3.95553 13.691 3.07129 11.4651 3.07129C9.2392 3.07129 7.10444 3.95553 5.53048 5.5295C3.95651 7.10347 3.07227 9.23822 3.07227 11.4641C3.07227 13.6901 3.95651 15.8248 5.53048 17.3988C7.10444 18.9728 9.2392 19.857 11.4651 19.857Z" stroke="#F1841B" stroke-width="1.42857" stroke-linecap="round" stroke-linejoin="round"/>
<path d="M9.85714 8.42871L7 11.2859L9.85714 14.143M12.7143 8.42871L15.5714 11.2859L12.7143 14.143" stroke="#F1841B" stroke-width="1.42857" stroke-linecap="round" stroke-linejoin="round"/>
</g>
<defs>
<clipPath id="clip0_184_12077">
<rect width="20" height="20" fill="white" transform="translate(2 2)"/>
</clipPath>
</defs>
</svg>
