<svg width="32" height="32" viewBox="0 0 32 32" fill="none" xmlns="http://www.w3.org/2000/svg">
<path d="M15.9997 29.3337C15.2663 29.3337 14.6388 29.0728 14.117 28.551C13.5952 28.0292 13.3339 27.4012 13.333 26.667H18.6663C18.6663 27.4003 18.4055 28.0283 17.8837 28.551C17.3619 29.0737 16.7339 29.3345 15.9997 29.3337ZM5.33301 25.3337V22.667H7.99967V13.3337C7.99967 11.4892 8.55523 9.85055 9.66634 8.41766C10.7775 6.98477 12.2219 6.04566 13.9997 5.60033V2.66699H17.9997V5.10033C17.7552 5.58921 17.5775 6.08921 17.4663 6.60033C17.3552 7.11144 17.3108 7.63366 17.333 8.16699C17.1108 8.12255 16.8939 8.08344 16.6823 8.04966C16.4708 8.01588 16.2432 7.99944 15.9997 8.00033C14.533 8.00033 13.2775 8.52255 12.233 9.56699C11.1886 10.6114 10.6663 11.867 10.6663 13.3337V22.667H21.333V14.1003C21.733 14.2781 22.161 14.4172 22.617 14.5177C23.073 14.6181 23.5339 14.6679 23.9997 14.667V22.667H26.6663V25.3337H5.33301ZM23.9997 12.0003C22.8886 12.0003 21.9441 11.6114 21.1663 10.8337C20.3886 10.0559 19.9997 9.11144 19.9997 8.00033C19.9997 6.88921 20.3886 5.94477 21.1663 5.16699C21.9441 4.38921 22.8886 4.00033 23.9997 4.00033C25.1108 4.00033 26.0552 4.38921 26.833 5.16699C27.6108 5.94477 27.9997 6.88921 27.9997 8.00033C27.9997 9.11144 27.6108 10.0559 26.833 10.8337C26.0552 11.6114 25.1108 12.0003 23.9997 12.0003Z" fill="white"/>
<path d="M15.9963 28.5133C15.4026 28.5133 14.8959 28.3022 14.4763 27.88C14.0568 27.4587 13.847 26.952 13.847 26.36H18.1537C18.1537 26.9556 17.9426 27.4636 17.5203 27.884C17.0972 28.3036 16.5892 28.5133 15.9963 28.5133ZM7.33367 25.0253C7.14433 25.0253 6.98611 24.9613 6.859 24.8333C6.73189 24.7053 6.66789 24.5467 6.667 24.3573C6.66611 24.168 6.73011 24.0098 6.859 23.8827C6.98789 23.7556 7.14611 23.692 7.33367 23.692H8.82167V13.128C8.82167 11.3858 9.37278 9.85378 10.475 8.532C11.5772 7.21022 12.9746 6.38667 14.667 6.06133V5.33333C14.667 4.96267 14.7963 4.648 15.055 4.38933C15.3137 4.12978 15.6279 4 15.9977 4C16.3674 4 16.6826 4.12978 16.943 4.38933C17.2034 4.64889 17.3337 4.96356 17.3337 5.33333V5.43333C17.1408 5.73467 16.9719 6.03822 16.827 6.344C16.6821 6.64978 16.5688 6.97511 16.487 7.32L16.2497 7.29333C16.1723 7.28622 16.0892 7.28267 16.0003 7.28267C14.3799 7.28267 13.0003 7.85156 11.8617 8.98933C10.723 10.1271 10.1541 11.5067 10.155 13.128V23.692H21.847V15.588C22.0586 15.628 22.2768 15.6596 22.5017 15.6827C22.7266 15.7058 22.9523 15.7089 23.179 15.692V23.692H24.667C24.8563 23.692 25.0146 23.756 25.1417 23.884C25.2697 24.012 25.3337 24.1707 25.3337 24.36C25.3337 24.5493 25.2697 24.7076 25.1417 24.8347C25.0137 24.9618 24.8554 25.0253 24.667 25.0253H7.33367ZM22.619 12.5387C21.6937 12.5387 20.9061 12.2147 20.2563 11.5667C19.6066 10.9187 19.2821 10.1324 19.283 9.208C19.2839 8.28356 19.6074 7.496 20.2537 6.84533C20.8999 6.19467 21.6866 5.87022 22.6137 5.872C23.5408 5.87378 24.3274 6.19733 24.9737 6.84267C25.6199 7.488 25.9452 8.27467 25.9497 9.20267C25.9541 10.1307 25.6301 10.9178 24.9777 11.564C24.3252 12.2102 23.5386 12.5347 22.6177 12.5373" fill="white"/>
</svg>
