<svg width="32" height="32" viewBox="0 0 32 32" fill="none" xmlns="http://www.w3.org/2000/svg">
<mask id="mask0_363_3374" style="mask-type:alpha" maskUnits="userSpaceOnUse" x="0" y="0" width="32" height="32">
<rect width="32" height="32" fill="#D9D9D9"/>
</mask>
<g mask="url(#mask0_363_3374)">
<path d="M15.9997 15.9997C14.533 15.9997 13.2775 15.4775 12.233 14.433C11.1886 13.3886 10.6663 12.133 10.6663 10.6663C10.6663 9.19967 11.1886 7.94412 12.233 6.89967C13.2775 5.85523 14.533 5.33301 15.9997 5.33301C17.4663 5.33301 18.7219 5.85523 19.7663 6.89967C20.8108 7.94412 21.333 9.19967 21.333 10.6663C21.333 12.133 20.8108 13.3886 19.7663 14.433C18.7219 15.4775 17.4663 15.9997 15.9997 15.9997ZM5.33301 26.6663V22.933C5.33301 22.1775 5.52745 21.483 5.91634 20.8497C6.30523 20.2163 6.8219 19.733 7.46634 19.3997C8.84412 18.7108 10.2441 18.1941 11.6663 17.8497C13.0886 17.5052 14.533 17.333 15.9997 17.333C17.4663 17.333 18.9108 17.5052 20.333 17.8497C21.7552 18.1941 23.1552 18.7108 24.533 19.3997C25.1775 19.733 25.6941 20.2163 26.083 20.8497C26.4719 21.483 26.6663 22.1775 26.6663 22.933V26.6663H5.33301ZM7.99967 23.9997H23.9997V22.933C23.9997 22.6886 23.9386 22.4663 23.8163 22.2663C23.6941 22.0663 23.533 21.9108 23.333 21.7997C22.133 21.1997 20.9219 20.7497 19.6997 20.4497C18.4775 20.1497 17.2441 19.9997 15.9997 19.9997C14.7552 19.9997 13.5219 20.1497 12.2997 20.4497C11.0775 20.7497 9.86634 21.1997 8.66634 21.7997C8.46634 21.9108 8.30523 22.0663 8.18301 22.2663C8.06079 22.4663 7.99967 22.6886 7.99967 22.933V23.9997ZM15.9997 13.333C16.733 13.333 17.3608 13.0719 17.883 12.5497C18.4052 12.0275 18.6663 11.3997 18.6663 10.6663C18.6663 9.93301 18.4052 9.30523 17.883 8.78301C17.3608 8.26079 16.733 7.99967 15.9997 7.99967C15.2663 7.99967 14.6386 8.26079 14.1163 8.78301C13.5941 9.30523 13.333 9.93301 13.333 10.6663C13.333 11.3997 13.5941 12.0275 14.1163 12.5497C14.6386 13.0719 15.2663 13.333 15.9997 13.333Z" fill="#9DA0A7"/>
</g>
</svg>
