<svg width="26" height="28" viewBox="0 0 26 28" fill="none" xmlns="http://www.w3.org/2000/svg">
<path d="M5.66347 14.4323H3.2528C2.4808 14.4323 1.85547 15.059 1.85547 15.8297V24.9363C1.85547 25.707 2.48214 26.3337 3.2528 26.3337H5.6648C6.43814 26.3337 7.06347 25.707 7.06347 24.935V15.8297C7.06312 15.4588 6.91564 15.1033 6.65342 14.841C6.39119 14.5788 6.03564 14.4313 5.6648 14.431M14.5901 1.66699H12.1795C11.4061 1.66699 10.7808 2.29366 10.7808 3.06566V24.9337C10.7808 25.707 11.4075 26.3323 12.1808 26.3323H14.5901C15.3635 26.3323 15.9888 25.7057 15.9888 24.9337V3.06699C15.9888 2.29366 15.3621 1.66833 14.5888 1.66833M23.5168 8.56966H21.1048C20.3315 8.56966 19.7061 9.19633 19.7061 9.96966V24.9337C19.7061 25.707 20.3328 26.3323 21.1048 26.3323H23.5155C23.8863 26.332 24.2419 26.1845 24.5041 25.9223C24.7663 25.6601 24.9138 25.3045 24.9141 24.9337V9.96833C24.9141 9.19499 24.2875 8.56966 23.5141 8.56966" stroke="#A6A6A6" stroke-width="1.73333" stroke-linecap="round" stroke-linejoin="round"/>
</svg>
