<svg width="32" height="32" viewBox="0 0 32 32" fill="none" xmlns="http://www.w3.org/2000/svg">
<path d="M10.34 17.84V26.9467C10.34 27.4912 10.1237 28.0135 9.73861 28.3986C9.35354 28.7837 8.83126 29 8.28668 29H5.87335C5.60258 29.0018 5.33414 28.9499 5.08348 28.8475C4.83282 28.7451 4.60488 28.5942 4.4128 28.4033C4.22071 28.2125 4.06827 27.9855 3.96425 27.7355C3.86023 27.4855 3.80668 27.2174 3.80668 26.9467V17.84C3.80491 17.5681 3.85716 17.2986 3.96039 17.047C4.06362 16.7955 4.21579 16.567 4.40805 16.3747C4.60031 16.1824 4.82884 16.0303 5.08038 15.927C5.33192 15.8238 5.60146 15.7716 5.87335 15.7733H8.28668C8.55746 15.7733 8.82556 15.8269 9.07555 15.9309C9.32555 16.0349 9.5525 16.1874 9.74334 16.3794C9.93419 16.5715 10.0852 16.7995 10.1876 17.0501C10.29 17.3008 10.3418 17.5692 10.34 17.84ZM19.2734 5.06667V26.9467C19.2734 27.2174 19.2198 27.4855 19.1158 27.7355C19.0118 27.9855 18.8593 28.2125 18.6672 28.4033C18.4752 28.5942 18.2472 28.7451 17.9966 28.8475C17.7459 28.9499 17.4775 29.0018 17.2067 29H14.7934C14.2475 29 13.7239 28.7841 13.3367 28.3994C12.9495 28.0147 12.7302 27.4925 12.7267 26.9467V5.06667C12.7302 4.51963 12.949 3.996 13.3359 3.60918C13.7227 3.22236 14.2463 3.0035 14.7934 3H17.2067C17.7548 3 18.2805 3.21774 18.668 3.60531C19.0556 3.99289 19.2734 4.51855 19.2734 5.06667ZM28.1934 11.9733V26.9467C28.1934 27.4912 27.977 28.0135 27.5919 28.3986C27.2069 28.7837 26.6846 29 26.14 29H23.7267C23.4559 29.0018 23.1875 28.9499 22.9368 28.8475C22.6862 28.7451 22.4582 28.5942 22.2661 28.4033C22.074 28.2125 21.9216 27.9855 21.8176 27.7355C21.7136 27.4855 21.66 27.2174 21.66 26.9467V11.9733C21.66 11.7019 21.7135 11.4332 21.8173 11.1825C21.9212 10.9317 22.0734 10.7039 22.2653 10.512C22.4572 10.3201 22.6851 10.1678 22.9358 10.064C23.1865 9.96012 23.4553 9.90667 23.7267 9.90667H26.1934C26.7298 9.92398 27.2385 10.1493 27.6118 10.5351C27.9851 10.9208 28.1936 11.4366 28.1934 11.9733Z" fill="#F1841B"/>
</svg>
