<svg width="24" height="24" viewBox="0 0 24 24" fill="none" xmlns="http://www.w3.org/2000/svg">
<path d="M11.992 20C12.0407 20.18 12.1077 20.356 12.193 20.528C12.2783 20.7007 12.3743 20.858 12.481 21H5.616C5.15533 21 4.771 20.846 4.463 20.538C4.155 20.23 4.00067 19.8457 4 19.385V4.615C4 4.155 4.15433 3.771 4.463 3.463C4.77167 3.155 5.156 3.00067 5.616 3H16.385C16.845 3 17.2293 3.15433 17.538 3.463C17.8467 3.77167 18.0007 4.156 18 4.616V11.735C17.8533 11.7143 17.6867 11.704 17.5 11.704C17.3133 11.704 17.1467 11.714 17 11.734V4.617C17 4.463 16.936 4.32167 16.808 4.193C16.68 4.06433 16.5387 4 16.384 4H11.5V10.192L9.5 9L7.5 10.192V4H5.616C5.462 4 5.32067 4.064 5.192 4.192C5.06333 4.32 4.99933 4.461 5 4.615V19.385C5 19.5383 5.064 19.6793 5.192 19.808C5.32 19.9367 5.461 20.0007 5.615 20H11.992ZM17.5 21.692C16.386 21.692 15.441 21.304 14.665 20.528C13.8883 19.752 13.5 18.8067 13.5 17.692C13.5 16.5787 13.8883 15.6337 14.665 14.857C15.441 14.0803 16.386 13.692 17.5 13.692C18.614 13.692 19.5593 14.0803 20.336 14.857C21.1127 15.6337 21.5007 16.5787 21.5 17.692C21.4993 18.8053 21.1113 19.7507 20.336 20.528C19.5607 21.3053 18.6153 21.6933 17.5 21.692ZM16.635 19.577L19.365 17.654L16.635 15.731V19.577ZM11.992 4H5H17H11.5H11.992Z" fill="#F1841B"/>
</svg>
