<svg width="92" height="88" viewBox="0 0 92 88" fill="none" xmlns="http://www.w3.org/2000/svg">
<path d="M53.1152 29.9164C54.225 29.9164 81.9125 29.723 89.7215 29.723C90.268 29.723 89.5764 28.7771 89.2758 28.7098C88.3152 28.4996 87.3126 28.4891 86.333 28.3882C85.3709 28.299 84.4277 28.0651 83.5353 27.6946C82.766 27.3709 81.9987 26.9946 81.1642 26.8538C79.5541 26.6015 78.1416 27.4844 76.6302 27.8606C76.1714 27.9932 75.6899 28.0282 75.2167 27.9634C74.7435 27.8986 74.2892 27.7354 73.8829 27.4844C73.185 27.064 72.5502 26.5637 71.8208 26.1937C70.4243 25.5055 68.9007 25.1129 67.3454 25.0405C65.7901 24.9682 64.2367 25.2177 62.7822 25.7733C62.0892 26.0399 61.4262 26.3788 60.8043 26.7844C60.0665 27.27 59.4296 27.888 58.6897 28.3672C57.0501 29.4182 55.0238 29.0819 53.235 29.6894C53.1299 29.7314 53.0185 29.9164 53.1152 29.9164Z" fill="#EBEBEB"/>
<path d="M51.5238 5.11161C52.9952 5.11161 77.6685 5.27346 79.2197 5.22512C79.3311 5.22512 79.39 5.05696 79.2807 5.00231C78.3012 4.51884 77.1934 4.61554 76.1781 4.27291C75.5791 4.06271 75.2112 3.68015 74.7971 3.22191C74.4542 2.82922 74.0099 2.53836 73.5128 2.38111C73.0587 2.24471 72.5768 2.2295 72.115 2.33697C71.6147 2.45678 71.1796 2.74265 70.7024 2.92342C69.5169 3.37115 68.365 2.94655 67.5179 2.07001C66.82 1.34692 66.1327 0.66377 65.1847 0.2749C64.7971 0.0995597 64.3775 0.0060731 63.9522 0.000286169C63.5269 -0.00550076 63.1049 0.0765364 62.7127 0.241268C61.8068 0.651159 61.1867 1.47514 60.3354 1.97122C59.3285 2.55978 58.122 2.42105 57.01 2.60182C55.898 2.78259 55.0425 3.71798 54.0672 4.2582C53.7491 4.4624 53.3815 4.57645 53.0036 4.58821C52.7934 4.58821 52.5706 4.52305 52.3562 4.49572C52.0199 4.45368 51.7004 4.46419 51.4733 4.74376C51.4166 4.82153 51.4292 5.11161 51.5238 5.11161Z" fill="#EBEBEB"/>
<path d="M2.13707 17.935C3.20698 17.935 21.2232 18.0548 22.3562 18.0169C22.4361 18.0169 22.4802 17.895 22.4003 17.8551C21.6857 17.502 20.8764 17.5734 20.1344 17.3233C19.6972 17.1761 19.4302 16.8903 19.1275 16.5645C18.8763 16.2788 18.5523 16.0667 18.19 15.9507C17.8581 15.851 17.5059 15.8402 17.1685 15.9191C16.8159 16.0374 16.4712 16.1778 16.1364 16.3395C15.2725 16.6654 14.4317 16.3564 13.8137 15.7089C13.3029 15.1813 12.8026 14.6832 12.1089 14.3994C11.8263 14.2712 11.5202 14.2028 11.2098 14.1985C10.8995 14.1941 10.5916 14.2539 10.3054 14.3742C9.64331 14.6727 9.18927 15.2759 8.56918 15.6354C7.83348 16.0663 6.95275 15.9633 6.14137 16.0936C5.33 16.2239 4.70361 16.9071 3.99103 17.3023C3.75862 17.4518 3.48959 17.5347 3.21329 17.5419C3.05564 17.5419 2.89799 17.4956 2.74034 17.4767C2.62685 17.4451 2.50685 17.4452 2.39342 17.4771C2.27999 17.5089 2.1775 17.5714 2.09713 17.6575C2.0677 17.7248 2.0677 17.935 2.13707 17.935Z" fill="#EBEBEB"/>
<path d="M69.0899 18.4048C70.1619 18.4048 88.1782 18.5246 89.309 18.4867C89.391 18.4867 89.4352 18.3648 89.3532 18.3249C88.6406 17.9718 87.8313 18.0432 87.0893 17.7931C86.6521 17.6459 86.3852 17.3601 86.0825 17.0343C85.8313 16.7486 85.5073 16.5365 85.145 16.4205C84.8131 16.3208 84.4608 16.31 84.1234 16.3889C83.7709 16.5072 83.4261 16.6476 83.0913 16.8093C82.2253 17.1352 81.3845 16.8262 80.7665 16.1787C80.2578 15.6511 79.7554 15.153 79.0639 14.8692C78.7809 14.741 78.4744 14.6725 78.1637 14.6682C77.853 14.6638 77.5448 14.7237 77.2583 14.844C76.5982 15.1425 76.1442 15.7457 75.5241 16.1052C74.7884 16.5256 73.9077 16.4331 73.0942 16.5634C72.2807 16.6937 71.6585 17.3769 70.946 17.7721C70.7161 17.9258 70.4486 18.0138 70.1724 18.0264C70.0137 18.0124 69.8558 17.9899 69.6995 17.9591C69.5858 17.928 69.4657 17.9285 69.3523 17.9608C69.2389 17.993 69.1366 18.0557 69.0563 18.142C69.0121 18.1925 69.0205 18.4048 69.0899 18.4048Z" fill="#EBEBEB"/>
<path d="M19.7831 35.939C20.8552 35.939 38.8714 36.0588 40.0044 36.0209C40.0842 36.0209 40.1284 35.899 40.0485 35.8591C39.3338 35.5059 38.5246 35.5774 37.7826 35.3273C37.3453 35.1801 37.0784 34.8943 36.7757 34.5684C36.5245 34.2828 36.2005 34.0707 35.8382 33.9547C35.5063 33.855 35.1541 33.8442 34.8166 33.9231C34.4641 34.0414 34.1194 34.1818 33.7846 34.3435C32.9206 34.6693 32.0777 34.3603 31.4724 33.7129C30.9616 33.1853 30.4613 32.6872 29.7676 32.4034C29.4846 32.2751 29.1782 32.2067 28.8675 32.2024C28.5568 32.198 28.2485 32.2579 27.962 32.3782C27.302 32.6766 26.848 33.2799 26.2279 33.6394C25.4922 34.0598 24.6114 33.9673 23.8001 34.0976C22.9887 34.2279 22.3623 34.9111 21.6497 35.3062C21.4173 35.4558 21.1483 35.5387 20.872 35.5459C20.7133 35.5317 20.5554 35.5093 20.399 35.4786C20.2853 35.4477 20.1653 35.4483 20.052 35.4806C19.9386 35.5128 19.8362 35.5754 19.7558 35.6615C19.7054 35.7287 19.7243 35.939 19.7831 35.939Z" fill="#EBEBEB"/>
<path d="M11.8547 25.8139C11.8758 25.8748 40.2527 25.8139 39.8933 25.8139C39.7314 25.8139 40.1413 25.57 39.9816 25.4902C39.0588 25.0319 38.0477 25.0193 37.0388 24.9268C36.4435 24.9014 35.8592 24.7585 35.3194 24.5064C34.7854 24.2269 34.4512 23.7392 34.0729 23.2915C33.488 22.5986 32.7362 22.0663 31.8884 21.7449C31.0407 21.4234 30.1249 21.3234 29.2278 21.4543C27.2098 21.7717 25.6186 23.3083 23.5986 23.59C22.3836 23.7602 21.236 23.2915 20.0483 23.1254C19.1306 22.9991 18.1965 23.17 17.383 23.6131C16.7524 23.9305 16.1512 24.1974 15.4281 24.2437C14.8732 24.2815 14.3162 24.2185 13.7591 24.2121C12.8514 24.2348 11.983 24.5875 11.3166 25.2043C11.2157 25.2821 10.9299 25.8139 11.8547 25.8139Z" fill="#EBEBEB"/>
<path d="M60.6969 27.9043H31.3025V68.9186H60.6969V27.9043Z" fill="#FFC727"/>
<path opacity="0.7" d="M60.6969 27.9043H31.3025V68.9186H60.6969V27.9043Z" fill="white"/>
<path d="M56.4928 55.0293H35.5065V56.0866H56.4928V55.0293Z" fill="#FFC727"/>
<path d="M52.4233 56.0869H39.5885V68.0788H52.4233V56.0869Z" fill="#455A64"/>
<path d="M51.5592 56.9717H40.4523V68.0787H51.5592V56.9717Z" fill="#37474F"/>
<g opacity="0.5">
<path d="M51.5594 61.6084V63.6705L47.1515 68.0805H45.0895L51.5594 61.6084Z" fill="#455A64"/>
<path d="M43.3534 56.9727L40.4547 59.8713V57.8093L41.2892 56.9727H43.3534Z" fill="#455A64"/>
<path d="M49.5501 56.9727L40.4547 66.0701V65.0401L48.5201 56.9727H49.5501Z" fill="#455A64"/>
<path d="M51.5599 64.7432V65.7752L49.254 68.0811H48.2219L51.5599 64.7432Z" fill="#455A64"/>
<path d="M51.5598 58.0059V58.1929L41.6762 68.0808H41.4828L51.5598 58.0059Z" fill="#455A64"/>
<path d="M44.5557 56.9727L40.4547 61.0737V60.8824L44.3644 56.9727H44.5557Z" fill="#455A64"/>
<path d="M48.0534 56.9727L40.4547 64.5714V64.378L47.8601 56.9727H48.0534Z" fill="#455A64"/>
</g>
<path d="M46.3653 56.9717H45.6506V68.0787H46.3653V56.9717Z" fill="#455A64"/>
<path d="M40.4713 32.376H35.8889V39.4786H40.4713V32.376Z" fill="#455A64"/>
<path d="M40.001 32.8975H36.3624V38.9596H40.001V32.8975Z" fill="#37474F"/>
<path d="M41.1273 39.4795H35.2333V40.5011H41.1273V39.4795Z" fill="#FFC727"/>
<g opacity="0.5">
<path d="M40.0004 32.8984V33.6468L36.3597 37.2874V35.9022L39.3656 32.8984H40.0004Z" fill="#455A64"/>
<path d="M40.0007 37.3926V38.0841L39.1242 38.9607H38.4326L40.0007 37.3926Z" fill="#455A64"/>
<path d="M37.5852 32.8984L36.3597 34.1239V33.4302L36.8915 32.8984H37.5852Z" fill="#455A64"/>
<path d="M40.0003 36.3076V36.5304L37.5683 38.9603H37.3455L40.0003 36.3076Z" fill="#455A64"/>
</g>
<path d="M40.4713 36.4639H35.8889V36.9831H40.4713V36.4639Z" fill="#455A64"/>
<path d="M48.2907 32.376H43.7084V39.4786H48.2907V32.376Z" fill="#455A64"/>
<path d="M47.8204 32.8975H44.1819V38.9596H47.8204V32.8975Z" fill="#37474F"/>
<path d="M48.9467 39.4795H43.0527V40.5011H48.9467V39.4795Z" fill="#FFC727"/>
<g opacity="0.5">
<path d="M47.82 32.8984V33.6468L44.1793 37.2874V35.9022L47.1852 32.8984H47.82Z" fill="#455A64"/>
<path d="M47.8206 37.3926V38.0841L46.944 38.9607H46.2504L47.8206 37.3926Z" fill="#455A64"/>
<path d="M45.4048 32.8984L44.1793 34.1239V33.4302L44.7111 32.8984H45.4048Z" fill="#455A64"/>
<path d="M47.8207 36.3076V36.5304L45.3887 38.9603H45.1659L47.8207 36.3076Z" fill="#455A64"/>
</g>
<path d="M48.2907 36.4639H43.7084V36.9831H48.2907V36.4639Z" fill="#455A64"/>
<path d="M56.1102 32.376H51.5278V39.4786H56.1102V32.376Z" fill="#455A64"/>
<path d="M55.6399 32.8975H52.0013V38.9596H55.6399V32.8975Z" fill="#37474F"/>
<path d="M56.7662 39.4795H50.8722V40.5011H56.7662V39.4795Z" fill="#FFC727"/>
<g opacity="0.5">
<path d="M55.6396 32.8984V33.6468L51.9989 37.2874V35.9022L55.0048 32.8984H55.6396Z" fill="#455A64"/>
<path d="M55.6397 37.3926V38.0841L54.7632 38.9607H54.0717L55.6397 37.3926Z" fill="#455A64"/>
<path d="M53.2244 32.8984L51.9989 34.1239V33.4302L52.5307 32.8984H53.2244Z" fill="#455A64"/>
<path d="M55.6394 36.3076V36.5304L53.2074 38.9603H52.9846L55.6394 36.3076Z" fill="#455A64"/>
</g>
<path d="M56.1102 36.4639H51.5278V36.9831H56.1102V36.4639Z" fill="#455A64"/>
<path d="M40.4713 43.1025H35.8889V50.2052H40.4713V43.1025Z" fill="#455A64"/>
<path d="M40.001 43.6221H36.3624V49.6842H40.001V43.6221Z" fill="#37474F"/>
<path d="M41.1273 50.207H35.2333V51.2286H41.1273V50.207Z" fill="#FFC727"/>
<g opacity="0.5">
<path d="M40.0004 43.623V44.3735L36.3597 48.012V46.6289L39.3656 43.623H40.0004Z" fill="#455A64"/>
<path d="M40.0007 48.1172V48.8109L39.1242 49.6874H38.4326L40.0007 48.1172Z" fill="#455A64"/>
<path d="M37.5852 43.623L36.3597 44.8485V44.157L36.8915 43.623H37.5852Z" fill="#455A64"/>
<path d="M40.0003 47.0332V47.256L37.5683 49.688H37.3455L40.0003 47.0332Z" fill="#455A64"/>
</g>
<path d="M40.4713 47.1904H35.8889V47.7096H40.4713V47.1904Z" fill="#455A64"/>
<path d="M48.2907 43.1025H43.7084V50.2052H48.2907V43.1025Z" fill="#455A64"/>
<path d="M47.8204 43.6221H44.1819V49.6842H47.8204V43.6221Z" fill="#37474F"/>
<path d="M48.9467 50.207H43.0527V51.2286H48.9467V50.207Z" fill="#FFC727"/>
<g opacity="0.5">
<path d="M47.82 43.623V44.3735L44.1793 48.012V46.6289L47.1852 43.623H47.82Z" fill="#455A64"/>
<path d="M47.8206 48.1172V48.8109L46.944 49.6874H46.2504L47.8206 48.1172Z" fill="#455A64"/>
<path d="M45.4048 43.623L44.1793 44.8485V44.157L44.7111 43.623H45.4048Z" fill="#455A64"/>
<path d="M47.8207 47.0332V47.256L45.3887 49.688H45.1659L47.8207 47.0332Z" fill="#455A64"/>
</g>
<path d="M48.2907 47.1904H43.7084V47.7096H48.2907V47.1904Z" fill="#455A64"/>
<path d="M56.1102 43.1025H51.5278V50.2052H56.1102V43.1025Z" fill="#455A64"/>
<path d="M55.6399 43.6221H52.0013V49.6842H55.6399V43.6221Z" fill="#37474F"/>
<path d="M56.7662 50.207H50.8722V51.2286H56.7662V50.207Z" fill="#FFC727"/>
<g opacity="0.5">
<path d="M55.6396 43.623V44.3735L51.9989 48.012V46.6289L55.0048 43.623H55.6396Z" fill="#455A64"/>
<path d="M55.6397 48.1172V48.8109L54.7632 49.6874H54.0717L55.6397 48.1172Z" fill="#455A64"/>
<path d="M53.2244 43.623L51.9989 44.8485V44.157L52.5307 43.623H53.2244Z" fill="#455A64"/>
<path d="M55.6394 47.0332V47.256L53.2074 49.688H52.9846L55.6394 47.0332Z" fill="#455A64"/>
</g>
<path d="M56.1102 47.1904H51.5278V47.7096H56.1102V47.1904Z" fill="#455A64"/>
<path opacity="0.5" d="M60.6969 52.9033H31.3025V53.2628L60.6969 53.082V52.9033Z" fill="#FFC727"/>
<path d="M60.6969 52.4033H31.3025V52.9036H60.6969V52.4033Z" fill="white"/>
<path opacity="0.5" d="M60.6969 41.8496H31.3025V42.2112L60.6969 42.0304V41.8496Z" fill="#FFC727"/>
<path d="M60.6969 41.3496H31.3025V41.8499H60.6969V41.3496Z" fill="white"/>
<path opacity="0.5" d="M60.6969 30.7998H31.3025V31.1613L60.6969 30.9806V30.7998Z" fill="#FFC727"/>
<path d="M60.6969 30.2998H31.3025V30.8001H60.6969V30.2998Z" fill="white"/>
<path d="M31.3029 27.9043H30.0417V68.9186H31.3029V27.9043Z" fill="#FFC727"/>
<path opacity="0.8" d="M31.3029 27.9043H30.0417V68.9186H31.3029V27.9043Z" fill="white"/>
<path d="M61.9577 27.9043H60.6965V68.9186H61.9577V27.9043Z" fill="#FFC727"/>
<path opacity="0.8" d="M61.9577 27.9043H60.6965V68.9186H61.9577V27.9043Z" fill="white"/>
<path d="M55.6039 56.0869H54.5193V68.0788H55.6039V56.0869Z" fill="#FFC727"/>
<path opacity="0.9" d="M55.6039 56.0869H54.5193V68.0788H55.6039V56.0869Z" fill="white"/>
<path d="M37.4806 56.0869H36.396V68.0788H37.4806V56.0869Z" fill="#FFC727"/>
<path opacity="0.9" d="M37.4806 56.0869H36.396V68.0788H37.4806V56.0869Z" fill="white"/>
<path d="M57.7146 68.501H34.2836V68.9235H57.7146V68.501Z" fill="#EBEBEB"/>
<path d="M56.5727 68.0781H35.4266V68.5006H56.5727V68.0781Z" fill="#EBEBEB"/>
<path d="M56.5727 68.3951L35.4266 68.29V68.5023H56.5727V68.3951Z" fill="#DBDBDB"/>
<path d="M30.0438 39.2666H3.88232V68.9196H30.0438V39.2666Z" fill="#FFC727"/>
<path opacity="0.7" d="M30.0438 39.2666H3.88232V68.9196H30.0438V39.2666Z" fill="white"/>
<path opacity="0.5" d="M30.0438 64.4365H3.88232V68.9201H30.0438V64.4365Z" fill="#FFC727"/>
<path d="M11.4321 43.0527H6.84973V50.1554H11.4321V43.0527Z" fill="#455A64"/>
<path d="M10.9619 43.5723H7.32336V49.6344H10.9619V43.5723Z" fill="#37474F"/>
<path d="M12.0881 50.1553H6.19409V51.1768H12.0881V50.1553Z" fill="#FFC727"/>
<g opacity="0.5">
<path d="M10.9624 43.5742V44.3225L7.32385 47.9632V46.578L10.3276 43.5742H10.9624Z" fill="#455A64"/>
<path d="M10.9621 48.0684V48.7599L10.0856 49.6365H9.39404L10.9621 48.0684Z" fill="#455A64"/>
<path d="M8.54932 43.5742L7.32385 44.7997V44.106L7.85356 43.5742H8.54932Z" fill="#455A64"/>
<path d="M10.9622 46.9844V47.2051L8.53226 49.6371H8.30945L10.9622 46.9844Z" fill="#455A64"/>
</g>
<path d="M11.4321 47.1387H6.84973V47.6579H11.4321V47.1387Z" fill="#455A64"/>
<path d="M19.2515 43.0527H14.6692V50.1554H19.2515V43.0527Z" fill="#455A64"/>
<path d="M18.7813 43.5723H15.1427V49.6344H18.7813V43.5723Z" fill="#37474F"/>
<path d="M19.9076 50.1553H14.0135V51.1768H19.9076V50.1553Z" fill="#FFC727"/>
<g opacity="0.5">
<path d="M18.7808 43.5742V44.3225L15.1422 47.9632V46.578L18.146 43.5742H18.7808Z" fill="#455A64"/>
<path d="M18.7806 48.0684V48.7599L17.9041 49.6365H17.2125L18.7806 48.0684Z" fill="#455A64"/>
<path d="M16.3677 43.5742L15.1422 44.7997V44.106L15.6719 43.5742H16.3677Z" fill="#455A64"/>
<path d="M18.7807 46.9844V47.2051L16.3486 49.6371H16.1279L18.7807 46.9844Z" fill="#455A64"/>
</g>
<path d="M19.2515 47.1387H14.6692V47.6579H19.2515V47.1387Z" fill="#455A64"/>
<path d="M27.071 43.0527H22.4886V50.1554H27.071V43.0527Z" fill="#455A64"/>
<path d="M26.6007 43.5723H22.9622V49.6344H26.6007V43.5723Z" fill="#37474F"/>
<path d="M27.727 50.1553H21.833V51.1768H27.727V50.1553Z" fill="#FFC727"/>
<g opacity="0.5">
<path d="M26.6004 43.5742V44.3225L22.9618 47.9632V46.578L25.9656 43.5742H26.6004Z" fill="#455A64"/>
<path d="M26.6002 48.0684V48.7599L25.7237 49.6365H25.0321L26.6002 48.0684Z" fill="#455A64"/>
<path d="M24.1873 43.5742L22.9618 44.7997V44.106L23.4936 43.5742H24.1873Z" fill="#455A64"/>
<path d="M26.6002 46.9844V47.2051L24.1703 49.6371H23.9475L26.6002 46.9844Z" fill="#455A64"/>
</g>
<path d="M27.071 47.1387H22.4886V47.6579H27.071V47.1387Z" fill="#455A64"/>
<path d="M11.4321 53.7764H6.84973V60.879H11.4321V53.7764Z" fill="#455A64"/>
<path d="M10.9619 54.2988H7.32336V60.361H10.9619V54.2988Z" fill="#37474F"/>
<path d="M12.0881 60.8818H6.19409V61.9034H12.0881V60.8818Z" fill="#FFC727"/>
<g opacity="0.5">
<path d="M10.9624 54.2988V55.0492L7.32385 58.6878V57.3047L10.3276 54.2988H10.9624Z" fill="#455A64"/>
<path d="M10.9621 58.7939V59.4876L10.0856 60.362H9.39404L10.9621 58.7939Z" fill="#455A64"/>
<path d="M8.54932 54.2988L7.32385 55.5243V54.8327L7.85356 54.2988H8.54932Z" fill="#455A64"/>
<path d="M10.9622 57.707V57.9298L8.53226 60.3598H8.30945L10.9622 57.707Z" fill="#455A64"/>
</g>
<path d="M11.4321 57.8633H6.84973V58.3825H11.4321V57.8633Z" fill="#455A64"/>
<path d="M19.2515 53.7764H14.6692V60.879H19.2515V53.7764Z" fill="#455A64"/>
<path d="M18.7813 54.2988H15.1427V60.361H18.7813V54.2988Z" fill="#37474F"/>
<path d="M19.9076 60.8818H14.0135V61.9034H19.9076V60.8818Z" fill="#FFC727"/>
<g opacity="0.5">
<path d="M18.7808 54.2988V55.0492L15.1422 58.6878V57.3047L18.146 54.2988H18.7808Z" fill="#455A64"/>
<path d="M18.7806 58.7939V59.4876L17.9041 60.362H17.2125L18.7806 58.7939Z" fill="#455A64"/>
<path d="M16.3677 54.2988L15.1422 55.5243V54.8327L15.6719 54.2988H16.3677Z" fill="#455A64"/>
<path d="M18.7807 57.707V57.9298L16.3486 60.3598H16.1279L18.7807 57.707Z" fill="#455A64"/>
</g>
<path d="M19.2515 57.8633H14.6692V58.3825H19.2515V57.8633Z" fill="#455A64"/>
<path d="M27.071 53.7764H22.4886V60.879H27.071V53.7764Z" fill="#455A64"/>
<path d="M26.6007 54.2988H22.9622V60.361H26.6007V54.2988Z" fill="#37474F"/>
<path d="M27.727 60.8818H21.833V61.9034H27.727V60.8818Z" fill="#FFC727"/>
<g opacity="0.5">
<path d="M26.6004 54.2988V55.0492L22.9618 58.6878V57.3047L25.9656 54.2988H26.6004Z" fill="#455A64"/>
<path d="M26.6002 58.7939V59.4876L25.7237 60.362H25.0321L26.6002 58.7939Z" fill="#455A64"/>
<path d="M24.1873 54.2988L22.9618 55.5243V54.8327L23.4936 54.2988H24.1873Z" fill="#455A64"/>
<path d="M26.6002 57.707V57.9298L24.1703 60.3598H23.9475L26.6002 57.707Z" fill="#455A64"/>
</g>
<path d="M27.071 57.8633H22.4886V58.3825H27.071V57.8633Z" fill="#455A64"/>
<path d="M30.0414 37.7881H2.98865V39.2658H30.0414V37.7881Z" fill="#FFC727"/>
<path opacity="0.5" d="M30.0417 52.5684H3.88232V52.9278L30.0417 52.747V52.5684Z" fill="#FFC727"/>
<path d="M30.0438 52.0684H3.88232V52.5686H30.0438V52.0684Z" fill="white"/>
<path opacity="0.5" d="M28.1219 39.2666H30.0411V68.9196H29.4252L28.1219 39.2666Z" fill="#FFC727"/>
<path d="M61.956 68.9199H88.1174V39.267H61.956V68.9199Z" fill="#FFC727"/>
<path opacity="0.7" d="M61.956 68.9199H88.1174V39.267H61.956V68.9199Z" fill="white"/>
<path d="M69.5087 43.0527H64.9264V50.1554H69.5087V43.0527Z" fill="#455A64"/>
<path d="M69.0376 43.5723H65.399V49.6344H69.0376V43.5723Z" fill="#37474F"/>
<path d="M70.1646 50.1553H64.2706V51.1768H70.1646V50.1553Z" fill="#FFC727"/>
<g opacity="0.5">
<path d="M69.0376 43.5742V44.3225L65.399 47.9632V46.578L68.4028 43.5742H69.0376Z" fill="#455A64"/>
<path d="M69.0382 48.0684V48.7599L68.1616 49.6365H67.4701L69.0382 48.0684Z" fill="#455A64"/>
<path d="M66.6245 43.5742L65.399 44.7997V44.106L65.9309 43.5742H66.6245Z" fill="#455A64"/>
<path d="M69.0375 46.9844V47.2051L66.6076 49.6371H66.3848L69.0375 46.9844Z" fill="#455A64"/>
</g>
<path d="M69.5087 47.1387H64.9264V47.6579H69.5087V47.1387Z" fill="#455A64"/>
<path d="M77.3282 43.0527H72.7458V50.1554H77.3282V43.0527Z" fill="#455A64"/>
<path d="M76.8571 43.5723H73.2185V49.6344H76.8571V43.5723Z" fill="#37474F"/>
<path d="M77.9841 50.1553H72.0901V51.1768H77.9841V50.1553Z" fill="#FFC727"/>
<g opacity="0.5">
<path d="M76.8572 43.5742V44.3225L73.2186 47.9632V46.578L76.2224 43.5742H76.8572Z" fill="#455A64"/>
<path d="M76.8569 48.0684V48.7599L75.9804 49.6365H75.2888L76.8569 48.0684Z" fill="#455A64"/>
<path d="M74.4441 43.5742L73.2186 44.7997V44.106L73.7504 43.5742H74.4441Z" fill="#455A64"/>
<path d="M76.8571 46.9844V47.2051L74.4272 49.6371H74.2043L76.8571 46.9844Z" fill="#455A64"/>
</g>
<path d="M77.3282 47.1387H72.7458V47.6579H77.3282V47.1387Z" fill="#455A64"/>
<path d="M85.1477 43.0527H80.5653V50.1554H85.1477V43.0527Z" fill="#455A64"/>
<path d="M84.6765 43.5723H81.038V49.6344H84.6765V43.5723Z" fill="#37474F"/>
<path d="M85.8035 50.1553H79.9095V51.1768H85.8035V50.1553Z" fill="#FFC727"/>
<g opacity="0.5">
<path d="M84.6768 43.5742V44.3225L81.0382 47.9632V46.578L84.042 43.5742H84.6768Z" fill="#455A64"/>
<path d="M84.6765 48.0684V48.7599L83.8 49.6365H83.1084L84.6765 48.0684Z" fill="#455A64"/>
<path d="M82.2637 43.5742L81.0382 44.7997V44.106L81.57 43.5742H82.2637Z" fill="#455A64"/>
<path d="M84.6766 46.9844V47.2051L82.2467 49.6371H82.0239L84.6766 46.9844Z" fill="#455A64"/>
</g>
<path d="M85.1477 47.1387H80.5653V47.6579H85.1477V47.1387Z" fill="#455A64"/>
<path d="M69.5087 53.7764H64.9264V60.879H69.5087V53.7764Z" fill="#455A64"/>
<path d="M69.0376 54.2988H65.399V60.361H69.0376V54.2988Z" fill="#37474F"/>
<path d="M70.1646 60.8818H64.2706V61.9034H70.1646V60.8818Z" fill="#FFC727"/>
<g opacity="0.5">
<path d="M69.0376 54.2988V55.0492L65.399 58.6878V57.3047L68.4028 54.2988H69.0376Z" fill="#455A64"/>
<path d="M69.0382 58.7939V59.4876L68.1616 60.362H67.4701L69.0382 58.7939Z" fill="#455A64"/>
<path d="M66.6245 54.2988L65.399 55.5243V54.8327L65.9309 54.2988H66.6245Z" fill="#455A64"/>
<path d="M69.0375 57.707V57.9298L66.6076 60.3598H66.3848L69.0375 57.707Z" fill="#455A64"/>
</g>
<path d="M69.5087 57.8633H64.9264V58.3825H69.5087V57.8633Z" fill="#455A64"/>
<path d="M77.3282 53.7764H72.7458V60.879H77.3282V53.7764Z" fill="#455A64"/>
<path d="M76.8571 54.2988H73.2185V60.361H76.8571V54.2988Z" fill="#37474F"/>
<path d="M77.9841 60.8818H72.0901V61.9034H77.9841V60.8818Z" fill="#FFC727"/>
<g opacity="0.5">
<path d="M76.8572 54.2988V55.0492L73.2186 58.6878V57.3047L76.2224 54.2988H76.8572Z" fill="#455A64"/>
<path d="M76.8569 58.7939V59.4876L75.9804 60.362H75.2888L76.8569 58.7939Z" fill="#455A64"/>
<path d="M74.4441 54.2988L73.2186 55.5243V54.8327L73.7504 54.2988H74.4441Z" fill="#455A64"/>
<path d="M76.8571 57.707V57.9298L74.4272 60.3598H74.2043L76.8571 57.707Z" fill="#455A64"/>
</g>
<path d="M77.3282 57.8633H72.7458V58.3825H77.3282V57.8633Z" fill="#455A64"/>
<path d="M85.1477 53.7764H80.5653V60.879H85.1477V53.7764Z" fill="#455A64"/>
<path d="M84.6765 54.2988H81.038V60.361H84.6765V54.2988Z" fill="#37474F"/>
<path d="M85.8035 60.8818H79.9095V61.9034H85.8035V60.8818Z" fill="#FFC727"/>
<g opacity="0.5">
<path d="M84.6768 54.2988V55.0492L81.0382 58.6878V57.3047L84.042 54.2988H84.6768Z" fill="#455A64"/>
<path d="M84.6765 58.7939V59.4876L83.8 60.362H83.1084L84.6765 58.7939Z" fill="#455A64"/>
<path d="M82.2637 54.2988L81.0382 55.5243V54.8327L81.57 54.2988H82.2637Z" fill="#455A64"/>
<path d="M84.6766 57.707V57.9298L82.2467 60.3598H82.0239L84.6766 57.707Z" fill="#455A64"/>
</g>
<path d="M85.1477 57.8633H80.5653V58.3825H85.1477V57.8633Z" fill="#455A64"/>
<path d="M61.9585 39.2666H89.0112V37.7889H61.9585V39.2666Z" fill="#FFC727"/>
<path opacity="0.5" d="M88.1196 64.4365H61.9581V68.9201H88.1196V64.4365Z" fill="#FFC727"/>
<path opacity="0.5" d="M88.1175 52.5684H61.9581V52.9278L88.1175 52.747V52.5684Z" fill="#FFC727"/>
<path d="M88.1196 52.0684H61.9581V52.5686H88.1196V52.0684Z" fill="white"/>
<path opacity="0.5" d="M63.8772 39.2666H61.9581V68.9196H62.574L63.8772 39.2666Z" fill="#FFC727"/>
<path d="M58.2653 23.7949H33.7371V28.5728H58.2653V23.7949Z" fill="#FFC727"/>
<path d="M58.2627 27.999H33.7345V28.1041H58.2627V27.999Z" fill="white"/>
<path d="M58.2627 24.2637H33.7345V24.3688H58.2627V24.2637Z" fill="white"/>
<path d="M36.1459 27.0437V25.3831C36.1503 25.3447 36.1687 25.3093 36.1976 25.2836C36.2265 25.2578 36.2638 25.2436 36.3025 25.2436C36.3411 25.2436 36.3785 25.2578 36.4073 25.2836C36.4362 25.3093 36.4546 25.3447 36.4591 25.3831V26.0599H37.1906V25.3831C37.1903 25.3626 37.1941 25.3422 37.2018 25.3232C37.2095 25.3042 37.221 25.287 37.2355 25.2725C37.25 25.258 37.2673 25.2465 37.2863 25.2388C37.3053 25.2311 37.3256 25.2273 37.3461 25.2276C37.3876 25.2275 37.4274 25.2439 37.4569 25.273C37.4864 25.3021 37.5032 25.3417 37.5038 25.3831V27.0479C37.5038 27.0685 37.4997 27.0889 37.4917 27.1079C37.4838 27.1269 37.4721 27.1442 37.4575 27.1586C37.4428 27.1731 37.4254 27.1845 37.4063 27.1922C37.3872 27.1999 37.3667 27.2037 37.3461 27.2034C37.3256 27.2037 37.3053 27.1999 37.2863 27.1922C37.2673 27.1845 37.25 27.173 37.2355 27.1585C37.221 27.144 37.2095 27.1267 37.2018 27.1077C37.1941 27.0887 37.1903 27.0684 37.1906 27.0479V26.371H36.4591V27.0479C36.4546 27.0863 36.4362 27.1217 36.4073 27.1474C36.3785 27.1732 36.3411 27.1874 36.3025 27.1874C36.2638 27.1874 36.2265 27.1732 36.1976 27.1474C36.1687 27.1217 36.1503 27.0863 36.1459 27.0479V27.0437Z" fill="white"/>
<path d="M38.0271 25.3831C38.0268 25.3626 38.0307 25.3422 38.0384 25.3232C38.0461 25.3042 38.0575 25.287 38.072 25.2725C38.0865 25.258 38.1038 25.2465 38.1228 25.2388C38.1418 25.2311 38.1622 25.2273 38.1827 25.2276C38.2241 25.2275 38.2639 25.2439 38.2934 25.273C38.3229 25.3021 38.3398 25.3417 38.3403 25.3831V27.0479C38.3398 27.0893 38.3229 27.1289 38.2934 27.158C38.2639 27.1871 38.2241 27.2034 38.1827 27.2034C38.1622 27.2037 38.1418 27.1999 38.1228 27.1922C38.1038 27.1845 38.0865 27.173 38.072 27.1585C38.0575 27.144 38.0461 27.1267 38.0384 27.1077C38.0307 27.0887 38.0268 27.0684 38.0271 27.0479V25.3831Z" fill="white"/>
<path d="M38.7791 26.1856C38.7804 26.0495 38.8088 25.9151 38.8625 25.7901C38.9162 25.6651 38.9942 25.5519 39.092 25.4573C39.1897 25.3627 39.3053 25.2884 39.432 25.2388C39.5587 25.1891 39.694 25.1652 39.8301 25.1682C40.0619 25.1645 40.2883 25.2385 40.4733 25.3784C40.4924 25.3904 40.5089 25.4063 40.5215 25.4251C40.5342 25.4439 40.5427 25.4651 40.5467 25.4874C40.5506 25.5096 40.5499 25.5325 40.5444 25.5545C40.539 25.5764 40.529 25.597 40.5151 25.6149C40.5012 25.6327 40.4838 25.6475 40.4638 25.6582C40.4439 25.6689 40.4219 25.6753 40.3994 25.677C40.3768 25.6787 40.3541 25.6756 40.3328 25.668C40.3115 25.6604 40.2921 25.6484 40.2757 25.6328C40.1476 25.5352 39.9911 25.482 39.8301 25.4814C39.7355 25.4803 39.6416 25.4983 39.5542 25.5344C39.4668 25.5706 39.3876 25.624 39.3214 25.6916C39.2544 25.754 39.201 25.8295 39.1645 25.9134C39.128 25.9973 39.1091 26.0878 39.1091 26.1793C39.1091 26.2708 39.128 26.3613 39.1645 26.4452C39.201 26.5291 39.2544 26.6046 39.3214 26.667C39.3876 26.7346 39.4668 26.788 39.5542 26.8242C39.6416 26.8603 39.7355 26.8783 39.8301 26.8772C39.9661 26.8758 40.0995 26.8388 40.2168 26.77V26.3832H39.8132C39.7707 26.3832 39.7298 26.3664 39.6995 26.3365C39.6692 26.3066 39.6519 26.266 39.6514 26.2234C39.6514 26.2023 39.6556 26.1813 39.6637 26.1618C39.6719 26.1423 39.6839 26.1246 39.6989 26.1097C39.714 26.0949 39.7318 26.0831 39.7515 26.0752C39.7711 26.0673 39.7921 26.0634 39.8132 26.0637H40.3745C40.3958 26.0631 40.417 26.0668 40.4369 26.0746C40.4568 26.0824 40.4749 26.0941 40.4902 26.109C40.5054 26.1239 40.5176 26.1417 40.5259 26.1613C40.5342 26.181 40.5384 26.2021 40.5384 26.2234V26.854C40.5398 26.8701 40.5398 26.8863 40.5384 26.9024C40.5376 26.9073 40.5376 26.9122 40.5384 26.9171C40.5287 26.9453 40.5094 26.9691 40.4838 26.9844C40.3309 27.0993 40.1496 27.1704 39.9593 27.1899C39.7691 27.2094 39.5771 27.1766 39.4041 27.0951C39.2311 27.0136 39.0836 26.8864 38.9775 26.7272C38.8714 26.5681 38.8108 26.383 38.8022 26.1919L38.7791 26.1856Z" fill="white"/>
<path d="M41.0393 27.0437V25.3831C41.039 25.3626 41.0429 25.3422 41.0506 25.3232C41.0583 25.3042 41.0697 25.287 41.0842 25.2725C41.0987 25.258 41.116 25.2465 41.135 25.2388C41.154 25.2311 41.1744 25.2273 41.1949 25.2276C41.2363 25.2275 41.2761 25.2439 41.3056 25.273C41.3351 25.3021 41.352 25.3417 41.3525 25.3831V26.0599H42.0819V25.3831C42.0864 25.3447 42.1048 25.3093 42.1337 25.2836C42.1625 25.2578 42.1998 25.2436 42.2385 25.2436C42.2772 25.2436 42.3145 25.2578 42.3434 25.2836C42.3722 25.3093 42.3906 25.3447 42.3951 25.3831V27.0479C42.3906 27.0863 42.3722 27.1217 42.3434 27.1474C42.3145 27.1732 42.2772 27.1874 42.2385 27.1874C42.1998 27.1874 42.1625 27.1732 42.1337 27.1474C42.1048 27.1217 42.0864 27.0863 42.0819 27.0479V26.371H41.3525V27.0479C41.3525 27.0685 41.3484 27.0889 41.3405 27.1079C41.3325 27.1269 41.3209 27.1442 41.3062 27.1586C41.2915 27.1731 41.2741 27.1845 41.255 27.1922C41.2359 27.1999 41.2155 27.2037 41.1949 27.2034C41.174 27.2037 41.1533 27.1998 41.134 27.1918C41.1147 27.1838 41.0973 27.172 41.0827 27.1571C41.0681 27.1421 41.0568 27.1243 41.0493 27.1048C41.0419 27.0853 41.0385 27.0645 41.0393 27.0437Z" fill="white"/>
<path d="M43.8237 26.7067C43.8491 26.6763 43.8855 26.6572 43.9249 26.6537C43.9643 26.6501 44.0035 26.6624 44.0339 26.6877C44.1864 26.8145 44.376 26.8883 44.5741 26.8979C44.6995 26.8995 44.8224 26.8636 44.9273 26.7949C44.9631 26.7726 44.9929 26.7417 45.0138 26.705C45.0347 26.6683 45.0462 26.627 45.0471 26.5847C45.0474 26.5528 45.0387 26.5215 45.0219 26.4944C45.0006 26.4603 44.9718 26.4316 44.9378 26.4103C44.818 26.3429 44.687 26.298 44.551 26.2778C44.4254 26.2569 44.3032 26.2194 44.1874 26.1664C44.0818 26.1225 43.9907 26.0497 43.9246 25.9562C43.8816 25.8868 43.8591 25.8067 43.8595 25.725C43.8607 25.6419 43.882 25.5602 43.9215 25.487C43.961 25.4138 44.0176 25.3513 44.0865 25.3046C44.2293 25.2048 44.3999 25.1526 44.5741 25.1554C44.7973 25.167 45.0119 25.2454 45.19 25.3803C45.2057 25.3909 45.2191 25.4044 45.2295 25.4202C45.2399 25.436 45.2471 25.4537 45.2506 25.4722C45.2541 25.4908 45.2539 25.5099 45.25 25.5284C45.2461 25.5469 45.2386 25.5644 45.2279 25.58C45.2178 25.5962 45.2046 25.6103 45.189 25.6212C45.1734 25.6322 45.1557 25.6399 45.137 25.6438C45.1184 25.6478 45.0991 25.6479 45.0804 25.6441C45.0617 25.6404 45.0439 25.6328 45.0282 25.622C44.8986 25.5172 44.7403 25.4542 44.5741 25.4413C44.4615 25.4395 44.3512 25.4734 44.2588 25.5379C44.227 25.5558 44.2003 25.5817 44.1816 25.6131C44.1628 25.6444 44.1524 25.6801 44.1516 25.7166C44.1493 25.7439 44.156 25.7712 44.1706 25.7944C44.1909 25.8235 44.2166 25.8484 44.2462 25.868C44.3548 25.9318 44.4747 25.9739 44.5994 25.992C44.7334 26.016 44.8639 26.0563 44.9882 26.1118C45.1031 26.16 45.2011 26.2412 45.2699 26.3451C45.3145 26.4171 45.3385 26.5 45.3393 26.5847C45.3364 26.6718 45.3128 26.7569 45.2704 26.8329C45.228 26.909 45.168 26.9738 45.0954 27.022C44.9434 27.1302 44.7607 27.1869 44.5741 27.1838C44.3087 27.1703 44.0549 27.0707 43.8511 26.9C43.8248 26.876 43.8076 26.8435 43.8027 26.8083C43.7977 26.773 43.8051 26.7371 43.8237 26.7067Z" fill="white"/>
<path d="M45.6824 26.1854C45.6873 25.914 45.7988 25.6555 45.9926 25.4656C46.1865 25.2756 46.4473 25.1695 46.7187 25.1701C46.9532 25.1655 47.1826 25.2395 47.3703 25.3803C47.4026 25.4078 47.4234 25.4464 47.4285 25.4885C47.4335 25.5306 47.4225 25.573 47.3976 25.6073C47.3711 25.6403 47.333 25.6617 47.2911 25.6672C47.2492 25.6727 47.2067 25.6618 47.1727 25.6368C47.0439 25.5343 46.8833 25.48 46.7187 25.4833C46.5285 25.486 46.3466 25.5612 46.21 25.6935C46.0779 25.8235 46.0024 26.0002 45.9998 26.1854C46.0004 26.2769 46.0194 26.3674 46.0555 26.4515C46.0916 26.5356 46.1441 26.6116 46.21 26.6752C46.3467 26.8073 46.5285 26.8825 46.7187 26.8854C46.8834 26.8872 47.0437 26.8323 47.1727 26.7298C47.2075 26.7065 47.2497 26.6968 47.2912 26.7026C47.3327 26.7084 47.3706 26.7293 47.3976 26.7613C47.4224 26.7953 47.4333 26.8374 47.4283 26.8792C47.4232 26.9209 47.4025 26.9592 47.3703 26.9863C47.1826 27.1271 46.9532 27.2011 46.7187 27.1965C46.4478 27.1976 46.1874 27.0923 45.9935 26.9031C45.7996 26.714 45.6879 26.4562 45.6824 26.1854Z" fill="white"/>
<path d="M47.9461 27.0437V25.3831C47.9458 25.3626 47.9496 25.3422 47.9573 25.3232C47.965 25.3042 47.9765 25.287 47.991 25.2725C48.0055 25.258 48.0227 25.2465 48.0417 25.2388C48.0607 25.2311 48.0811 25.2273 48.1016 25.2276C48.1222 25.2273 48.1427 25.2311 48.1618 25.2388C48.1809 25.2465 48.1983 25.2579 48.2129 25.2724C48.2276 25.2868 48.2393 25.3041 48.2472 25.3231C48.2552 25.3421 48.2593 25.3625 48.2592 25.3831V26.0599H48.9907V25.3831C48.9905 25.3626 48.9943 25.3422 49.002 25.3232C49.0097 25.3042 49.0212 25.287 49.0357 25.2725C49.0502 25.258 49.0674 25.2465 49.0864 25.2388C49.1054 25.2311 49.1258 25.2273 49.1463 25.2276C49.1877 25.2275 49.2275 25.2439 49.257 25.273C49.2865 25.3021 49.3034 25.3417 49.3039 25.3831V27.0479C49.3039 27.0685 49.2999 27.0889 49.2919 27.1079C49.284 27.1269 49.2723 27.1442 49.2576 27.1586C49.243 27.1731 49.2256 27.1845 49.2065 27.1922C49.1873 27.1999 49.1669 27.2037 49.1463 27.2034C49.1258 27.2037 49.1054 27.1999 49.0864 27.1922C49.0674 27.1845 49.0502 27.173 49.0357 27.1585C49.0212 27.144 49.0097 27.1267 49.002 27.1077C48.9943 27.0887 48.9905 27.0684 48.9907 27.0479V26.371H48.2592V27.0479C48.2595 27.0686 48.2556 27.0891 48.2478 27.1082C48.24 27.1274 48.2283 27.1447 48.2136 27.1593C48.1989 27.1738 48.1813 27.1852 48.1621 27.1928C48.1429 27.2004 48.1223 27.204 48.1016 27.2034C48.0807 27.2037 48.06 27.1998 48.0407 27.1918C48.0214 27.1838 48.004 27.172 47.9894 27.1571C47.9749 27.1421 47.9635 27.1243 47.9561 27.1048C47.9486 27.0853 47.9452 27.0645 47.9461 27.0437Z" fill="white"/>
<path d="M51.4206 25.4705C51.6028 25.664 51.705 25.9194 51.7064 26.1852C51.7066 26.4507 51.6041 26.706 51.4206 26.8978C51.3353 26.9923 51.2313 27.0681 51.1151 27.1202C50.9989 27.1723 50.8732 27.1996 50.7458 27.2005C50.616 27.2001 50.4876 27.173 50.3686 27.1209C50.2497 27.0688 50.1427 26.9929 50.0543 26.8978C49.8724 26.7053 49.7722 26.4499 49.7747 26.1852C49.773 25.92 49.8731 25.6642 50.0543 25.4705C50.1428 25.3757 50.2498 25.3 50.3688 25.2483C50.4878 25.1966 50.6161 25.1699 50.7458 25.1699C50.873 25.1705 50.9987 25.1975 51.1148 25.2492C51.231 25.301 51.3351 25.3763 51.4206 25.4705ZM51.3848 26.1852C51.3842 26.0022 51.3153 25.826 51.1915 25.6912C51.1343 25.6284 51.0647 25.5783 50.9871 25.5439C50.9094 25.5096 50.8255 25.4919 50.7406 25.4919C50.6557 25.4919 50.5717 25.5096 50.4941 25.5439C50.4164 25.5783 50.3468 25.6284 50.2897 25.6912C50.1642 25.825 50.095 26.0018 50.0963 26.1852C50.0941 26.3675 50.1636 26.5433 50.2897 26.675C50.3461 26.7389 50.4155 26.7902 50.4932 26.8252C50.571 26.8603 50.6553 26.8785 50.7406 26.8785C50.8259 26.8785 50.9102 26.8603 50.9879 26.8252C51.0657 26.7902 51.135 26.7389 51.1915 26.675C51.3159 26.5423 51.3851 26.3671 51.3848 26.1852Z" fill="white"/>
<path d="M53.7922 25.4705C53.9744 25.664 54.0765 25.9194 54.078 26.1852C54.0781 26.4507 53.9757 26.706 53.7922 26.8978C53.7069 26.9923 53.6028 27.0681 53.4867 27.1202C53.3705 27.1723 53.2447 27.1996 53.1174 27.2005C52.9879 27.1999 52.8599 27.1727 52.7413 27.1207C52.6227 27.0686 52.516 26.9927 52.428 26.8978C52.2454 26.7058 52.145 26.4501 52.1484 26.1852C52.1458 25.9198 52.246 25.6637 52.428 25.4705C52.5161 25.3758 52.6229 25.3003 52.7415 25.2486C52.8601 25.1969 52.988 25.1701 53.1174 25.1699C53.2446 25.1705 53.3702 25.1975 53.4864 25.2492C53.6026 25.301 53.7067 25.3763 53.7922 25.4705ZM53.7564 26.1852C53.7566 26.0024 53.6884 25.8262 53.5651 25.6912C53.5078 25.6284 53.438 25.5782 53.3602 25.5438C53.2824 25.5095 53.1983 25.4917 53.1132 25.4917C53.0282 25.4917 52.944 25.5095 52.8662 25.5438C52.7884 25.5782 52.7186 25.6284 52.6613 25.6912C52.5373 25.8258 52.469 26.0023 52.47 26.1852C52.4681 26.367 52.5367 26.5425 52.6613 26.675C52.7179 26.739 52.7875 26.7902 52.8654 26.8253C52.9433 26.8605 53.0278 26.8786 53.1132 26.8786C53.1987 26.8786 53.2832 26.8605 53.3611 26.8253C53.439 26.7902 53.5085 26.739 53.5651 26.675C53.689 26.5421 53.7574 26.3669 53.7564 26.1852Z" fill="white"/>
<path d="M54.6182 27.0437V25.3831C54.6182 25.3418 54.6346 25.3023 54.6638 25.2731C54.6929 25.2439 54.7325 25.2275 54.7738 25.2275C54.8152 25.2275 54.855 25.2439 54.8845 25.273C54.914 25.3021 54.9309 25.3416 54.9314 25.3831V26.8902H55.6965C55.735 26.8947 55.7704 26.9131 55.7961 26.942C55.8218 26.9708 55.836 27.0082 55.836 27.0468C55.836 27.0855 55.8218 27.1228 55.7961 27.1517C55.7704 27.1806 55.735 27.199 55.6965 27.2034H54.7738C54.753 27.2034 54.7324 27.1993 54.7133 27.1912C54.6941 27.1831 54.6768 27.1713 54.6623 27.1564C54.6478 27.1415 54.6364 27.1238 54.6288 27.1045C54.6213 27.0851 54.6177 27.0644 54.6182 27.0437Z" fill="white"/>
<g opacity="0.5">
<path d="M7.47599 62.6826H5.76917V63.2712H7.47599V62.6826Z" fill="#FFC727"/>
<path d="M6.5243 64.0147C6.01982 64.0147 5.31985 64.0378 4.81958 64.0378H4.80066V63.4072H4.82799C5.33036 63.4072 6.03874 63.4072 6.53271 63.4198H6.54742V63.4303L6.53271 64.021L6.5243 64.0147ZM6.5243 64.0147L6.51169 63.4303L6.5243 63.4451C6.24053 63.4451 5.95676 63.4451 5.67299 63.4451H4.81958L4.8448 63.4177V64.0084L4.82168 63.9832C5.31144 63.9832 6.02823 63.9979 6.5264 64.0084L6.5243 64.0147Z" fill="#FFC727"/>
<path d="M35.403 46.2999C34.8965 46.2999 34.1965 46.323 33.6962 46.323H33.6731V45.6924H33.7004C34.2028 45.6924 34.9112 45.6924 35.4072 45.705H35.4199V45.7176L35.4072 46.3083L35.403 46.2999ZM35.403 46.2999L35.3883 45.7092L35.403 45.7239C35.1172 45.7239 34.8334 45.7239 34.5496 45.7239H33.6962L33.7214 45.6966V46.2873L33.6983 46.262C34.1881 46.262 34.907 46.2788 35.4051 46.2873L35.403 46.2999Z" fill="#FFC727"/>
<path d="M34.451 46.4521H32.7441V47.0407H34.451V46.4521Z" fill="#FFC727"/>
<path d="M33.503 46.2995C32.9964 46.2995 32.2965 46.3226 31.7962 46.3226H31.7731V46.2995V45.7088V45.6836H31.8004C32.3028 45.6836 33.0111 45.6836 33.5072 45.6962H33.5198V45.7088L33.5072 46.2995H33.503ZM33.503 46.2995L33.4883 45.7088L33.503 45.7235C33.2171 45.7235 32.9334 45.7235 32.6496 45.7235H31.7962L31.8214 45.6962V46.2869L31.7983 46.2616C32.2881 46.2616 33.0069 46.2785 33.5051 46.2869L33.503 46.2995Z" fill="#FFC727"/>
<path d="M86.3331 42.0323C85.8265 42.0323 85.1266 42.0575 84.6263 42.0554H84.6031V41.4248H84.6305C85.1329 41.4248 85.8412 41.4248 86.3373 41.4395H86.3499V41.4521L86.3373 42.0407L86.3331 42.0323ZM86.3331 42.0323L86.3184 41.4437L86.3331 41.4563H85.4797H84.6263L84.6515 41.4311V42.0197L84.6284 41.9965C85.1181 41.9965 85.837 42.0113 86.3352 42.0197L86.3331 42.0323Z" fill="#FFC727"/>
<path d="M86.3331 54.0749C85.8265 54.0749 85.1266 54.1001 84.6263 54.1001H84.6031V53.459H84.6305C85.1329 53.459 85.8412 53.459 86.3373 53.4737H86.3499V53.4863L86.3373 54.0749H86.3331ZM86.3331 54.0749L86.3184 53.4863L86.3331 53.4989L85.4797 53.5094H84.6263L84.6515 53.4842V54.0728L84.6284 54.0496C85.1181 54.0496 85.837 54.0644 86.3352 54.0728L86.3331 54.0749Z" fill="#FFC727"/>
<path d="M87.2724 40.6973H85.5656V41.2858H87.2724V40.6973Z" fill="#FFC727"/>
<path d="M65.6661 41.918H63.9592V42.5065H65.6661V41.918Z" fill="#FFC727"/>
<path d="M65.672 63.862C65.1654 63.862 64.4654 63.8872 63.9651 63.8851H63.942V63.862V63.2734V63.2461H63.9693C64.4717 63.2461 65.1801 63.2461 65.6762 63.2587H65.6888V63.2734L65.6762 63.862H65.672ZM65.672 63.862L65.6572 63.2734L65.672 63.286C65.3861 63.286 65.1023 63.286 64.8186 63.286H63.9651L63.9904 63.2608V63.8494L63.9672 63.8241C64.457 63.8241 65.1759 63.841 65.6741 63.8494L65.672 63.862Z" fill="#FFC727"/>
<path d="M66.6122 62.5264H64.9054V63.1149H66.6122V62.5264Z" fill="#FFC727"/>
<path d="M85.3765 41.2881C84.8721 41.2881 84.1721 41.3134 83.6718 41.3113H83.6466V40.6807H83.6739C84.1763 40.6807 84.8847 40.6807 85.3787 40.6933H85.3934V40.7059L85.3787 41.2944L85.3765 41.2881ZM85.3765 41.2881L85.3639 40.6996L85.3765 40.7122L84.5252 40.7227H83.6718L83.6971 40.6975V41.286L83.6739 41.2629C84.1637 41.2629 84.8805 41.2776 85.3787 41.286L85.3765 41.2881Z" fill="#FFC727"/>
<path d="M15.0667 47.4833C14.5602 47.4833 13.8602 47.5085 13.3599 47.5085H13.3368V46.8779H13.3641C13.8665 46.8779 14.5749 46.8779 15.0709 46.8905H15.0836V46.9032L15.0709 47.4917L15.0667 47.4833ZM15.0667 47.4833L15.0541 46.8947L15.0667 46.9074L14.2133 46.9179H13.3599L13.3872 46.8905V47.4791L13.3641 47.456C13.8539 47.456 14.5728 47.4707 15.0709 47.4791L15.0667 47.4833Z" fill="#FFC727"/>
<path d="M34.4577 63.6573C33.9511 63.6573 33.2512 63.6825 32.7509 63.6804H32.7278V63.0498H32.7572C33.2596 63.0498 33.968 63.0498 34.464 63.0624H34.4766V63.0771L34.464 63.6657L34.4577 63.6573ZM34.4577 63.6573L34.4451 63.0687L34.4577 63.0813L33.6043 63.0918H32.7572L32.7845 63.0666V63.6552L32.7572 63.6405C33.247 63.6405 33.9659 63.6552 34.464 63.6636L34.4577 63.6573Z" fill="#FFC727"/>
<path d="M13.1667 47.4833C12.6601 47.4833 11.9602 47.5085 11.4599 47.5085H11.4368V46.8779H11.462C11.9644 46.8779 12.6727 46.8779 13.1688 46.8905H13.1814V46.9032L13.1688 47.4917L13.1667 47.4833ZM13.1667 47.4833L13.1541 46.8947L13.1667 46.9074L12.3133 46.9179H11.4599L11.4872 46.8905V47.4791L11.4641 47.456C11.9539 47.456 12.6727 47.4707 13.1709 47.4791L13.1667 47.4833Z" fill="#FFC727"/>
<path d="M58.7359 57.626C58.2314 57.626 57.5294 57.6492 57.0312 57.6492H57.006V57.0186H57.0333C57.5357 57.0186 58.242 57.0186 58.738 57.0312H58.7527V57.0438L58.738 57.6344L58.7359 57.626ZM58.7359 57.626L58.7233 57.0354L58.7359 57.0501C58.4522 57.0501 58.1684 57.0501 57.8825 57.0501H57.0417L57.0669 57.0228V57.6134L57.0438 57.5882C57.5336 57.5882 58.2504 57.605 58.7485 57.6134L58.7359 57.626Z" fill="#FFC727"/>
<path d="M58.7359 33.4473C58.2314 33.4473 57.5294 33.4725 57.0312 33.4704H57.006V32.8398H57.0333C57.5357 32.8398 58.242 32.8398 58.738 32.8525H58.7527V32.8651L58.738 33.4536L58.7359 33.4473ZM58.7359 33.4473L58.7233 32.8588L58.7359 32.8714H57.8825H57.0417L57.0669 32.8461V33.4347L57.0438 33.4116C57.5336 33.4116 58.2504 33.4263 58.7485 33.4347L58.7359 33.4473Z" fill="#FFC727"/>
<path d="M59.6873 33.6006H57.9805V34.1891H59.6873V33.6006Z" fill="#FFC727"/>
<path d="M21.6161 40.208H19.9093V40.7966H21.6161V40.208Z" fill="#FFC727"/>
</g>
<path d="M0.716675 70.4985C29.7243 70.3703 62.2716 70.3703 91.2834 70.4985C62.2758 70.6288 29.7285 70.6288 0.716675 70.4985Z" fill="#263238"/>
<path d="M0.716675 87.9026C29.7243 87.7744 62.2716 87.7723 91.2834 87.9026C62.2758 88.0329 29.7285 88.0308 0.716675 87.9026Z" fill="#263238"/>
<path d="M89.8542 68.9219H2.14404V70.45H89.8542V68.9219Z" fill="#C7C7C7"/>
<path d="M8.2944 68.9219C8.43171 69.422 8.43171 69.9499 8.2944 70.45C8.22052 70.2026 8.18507 69.9452 8.1893 69.687C8.18596 69.4281 8.22139 69.1702 8.2944 68.9219Z" fill="#263238"/>
<path d="M15.1489 68.9219C15.2219 69.1702 15.2573 69.4281 15.254 69.687C15.2582 69.9452 15.2228 70.2026 15.1489 70.45C15.0116 69.9499 15.0116 69.422 15.1489 68.9219Z" fill="#263238"/>
<path d="M22.0057 68.9219C22.143 69.422 22.143 69.9499 22.0057 70.45C21.9318 70.2026 21.8964 69.9452 21.9006 69.687C21.8973 69.4281 21.9327 69.1702 22.0057 68.9219Z" fill="#263238"/>
<path d="M28.8602 68.9219C28.9332 69.1702 28.9686 69.4281 28.9653 69.687C28.9695 69.9452 28.9341 70.2026 28.8602 70.45C28.7229 69.9499 28.7229 69.422 28.8602 68.9219Z" fill="#263238"/>
<path d="M35.717 68.9219C35.8543 69.422 35.8543 69.9499 35.717 70.45C35.6431 70.2026 35.6077 69.9452 35.6119 69.687C35.6086 69.4281 35.644 69.1702 35.717 68.9219Z" fill="#263238"/>
<path d="M42.5715 68.9219C42.6445 69.1702 42.6799 69.4281 42.6766 69.687C42.6808 69.9452 42.6454 70.2026 42.5715 70.45C42.4342 69.9499 42.4342 69.422 42.5715 68.9219Z" fill="#263238"/>
<path d="M49.4283 68.9219C49.5656 69.422 49.5656 69.9499 49.4283 70.45C49.3544 70.2026 49.319 69.9452 49.3232 69.687C49.3199 69.4281 49.3553 69.1702 49.4283 68.9219Z" fill="#263238"/>
<path d="M56.2829 68.9219C56.3559 69.1702 56.3914 69.4281 56.388 69.687C56.3922 69.9452 56.3568 70.2026 56.2829 70.45C56.1456 69.9499 56.1456 69.422 56.2829 68.9219Z" fill="#263238"/>
<path d="M63.1397 68.9219C63.277 69.422 63.277 69.9499 63.1397 70.45C63.0659 70.2026 63.0304 69.9452 63.0346 69.687C63.0313 69.4281 63.0667 69.1702 63.1397 68.9219Z" fill="#263238"/>
<path d="M69.9942 68.9219C70.0672 69.1702 70.1027 69.4281 70.0993 69.687C70.1036 69.9452 70.0681 70.2026 69.9942 70.45C69.8569 69.9499 69.8569 69.422 69.9942 68.9219Z" fill="#263238"/>
<path d="M76.851 68.9219C76.9884 69.422 76.9884 69.9499 76.851 70.45C76.7772 70.2026 76.7417 69.9452 76.7459 69.687C76.7426 69.4281 76.778 69.1702 76.851 68.9219Z" fill="#263238"/>
<path d="M83.7055 68.9219C83.7785 69.1702 83.814 69.4281 83.8106 69.687C83.8149 69.9452 83.7794 70.2026 83.7055 70.45C83.5682 69.9499 83.5682 69.422 83.7055 68.9219Z" fill="#263238"/>
<path d="M39.7215 70.498H52.2789L76.0041 87.9026H16.011L39.7215 70.498Z" fill="#EBEBEB"/>
<path d="M12.0353 68.9222C12.0353 68.9222 11.8587 68.0982 11.5056 67.97C11.1524 67.8418 10.9359 68.2138 10.9359 68.2138C10.9359 68.2138 10.854 67.4235 10.3516 67.1881C9.8492 66.9526 9.47504 67.4361 9.47504 67.4361C9.47504 67.4361 9.09038 66.4355 8.40303 66.4355C7.71567 66.4355 7.37094 67.9069 7.37094 67.9069C7.37094 67.9069 6.96526 67.4718 6.54906 67.7178C6.13287 67.9637 6.12866 68.9306 6.12866 68.9306L12.0353 68.9222Z" fill="#37474F"/>
<path d="M70.6477 68.9222C70.6477 68.9222 70.4711 68.0982 70.118 67.97C69.7648 67.8418 69.5504 68.2138 69.5504 68.2138C69.5504 68.2138 69.4664 67.4235 68.9661 67.1881C68.4658 66.9526 68.0895 67.4361 68.0895 67.4361C68.0895 67.4361 67.7049 66.4355 67.0175 66.4355C66.3302 66.4355 65.9833 67.9069 65.9833 67.9069C65.9833 67.9069 65.5798 67.4718 65.1636 67.7178C64.7474 67.9637 64.7432 68.9306 64.7432 68.9306L70.6477 68.9222Z" fill="#455A64"/>
<path d="M27.6489 68.9218H21.4375C21.4375 68.9218 21.6477 68.0474 22.0534 67.9843C22.1774 67.9734 22.3018 68.0005 22.4099 68.0621C22.5181 68.1237 22.6049 68.2168 22.6588 68.3291C22.6588 68.3291 22.6398 67.1078 23.4092 66.8997C24.1785 66.6916 24.8217 67.7699 24.8217 67.7699C24.8217 67.7699 25.3052 67.1562 25.961 67.194C26.6168 67.2318 26.7871 68.245 26.7871 68.245C26.7871 68.245 27.3841 67.8982 27.6489 68.9218Z" fill="#37474F"/>
<path d="M6.5158 68.9225H3.24719C3.24719 68.9225 3.24719 68.4369 3.5751 68.3066C3.66249 68.2689 3.75975 68.2607 3.85224 68.283C3.94474 68.3054 4.02747 68.3572 4.08799 68.4306C4.08799 68.4306 4.21832 67.5352 4.81739 67.5352C5.41646 67.5352 5.70443 68.3066 5.70443 68.3066C5.75525 68.2329 5.82651 68.1758 5.90944 68.1422C5.99236 68.1085 6.08332 68.0999 6.17107 68.1174C6.50319 68.1616 6.5158 68.9225 6.5158 68.9225Z" fill="#455A64"/>
<path d="M30.2139 68.9225H26.9453C26.9453 68.9225 26.9453 68.4369 27.2732 68.3066C27.3606 68.2689 27.4579 68.2607 27.5504 68.283C27.6429 68.3054 27.7256 68.3572 27.7861 68.4306C27.7861 68.4306 27.9185 67.5352 28.5176 67.5352C29.1167 67.5352 29.3941 68.3066 29.3941 68.3066C29.445 68.2329 29.5162 68.1758 29.5991 68.1422C29.6821 68.1085 29.773 68.0999 29.8608 68.1174C30.2013 68.1616 30.2139 68.9225 30.2139 68.9225Z" fill="#455A64"/>
<path d="M83.9825 68.9225H80.7139C80.7139 68.9225 80.7139 68.4369 81.0418 68.3066C81.1292 68.2689 81.2264 68.2607 81.3189 68.283C81.4114 68.3054 81.4941 68.3572 81.5547 68.4306C81.5547 68.4306 81.685 67.5352 82.2841 67.5352C82.8831 67.5352 83.1711 68.3066 83.1711 68.3066C83.2217 68.2327 83.293 68.1754 83.376 68.1418C83.4589 68.1081 83.55 68.0997 83.6377 68.1174C83.9699 68.1616 83.9825 68.9225 83.9825 68.9225Z" fill="#455A64"/>
<path d="M88.752 68.923H83.3624C83.3624 68.923 83.375 68.1221 83.9047 67.9077C84.0488 67.8472 84.2086 67.835 84.3601 67.8729C84.5117 67.9108 84.6469 67.9967 84.7455 68.1179C84.7455 68.1179 84.9557 66.6465 85.95 66.6465C86.9442 66.6465 87.4088 67.9077 87.4088 67.9077C87.4925 67.7861 87.6099 67.6917 87.7466 67.6361C87.8833 67.5804 88.0333 67.566 88.1781 67.5945C88.7309 67.666 88.752 68.923 88.752 68.923Z" fill="#37474F"/>
</svg>
