<svg width="24" height="24" viewBox="0 0 24 24" fill="none" xmlns="http://www.w3.org/2000/svg">
<g clip-path="url(#clip0_184_12065)">
<path d="M17 15.75H18.875V17H15.75V13.25H17V15.75ZM14.5 7H4.5V5.75H14.5V7ZM16.375 10.75C17.1497 10.75 17.8789 10.8965 18.5625 11.1895C19.2461 11.4824 19.8418 11.8861 20.3496 12.4004C20.8574 12.9147 21.2578 13.5104 21.5508 14.1875C21.8438 14.8646 21.9935 15.5938 22 16.375C22 17.1497 21.8535 17.8789 21.5605 18.5625C21.2676 19.2461 20.8639 19.8418 20.3496 20.3496C19.8353 20.8574 19.2396 21.2578 18.5625 21.5508C17.8854 21.8438 17.1562 21.9935 16.375 22C15.6003 22 14.8711 21.8535 14.1875 21.5605C13.5039 21.2676 12.9082 20.8639 12.4004 20.3496C11.8926 19.8353 11.4922 19.2396 11.1992 18.5625C10.9062 17.8854 10.7565 17.1562 10.75 16.375C10.75 15.6003 10.8965 14.8711 11.1895 14.1875C11.4824 13.5039 11.8861 12.9082 12.4004 12.4004C12.9147 11.8926 13.5104 11.4922 14.1875 11.1992C14.8646 10.9062 15.5938 10.7565 16.375 10.75ZM16.375 20.75C16.9805 20.75 17.5469 20.6361 18.0742 20.4082C18.6016 20.1803 19.0638 19.8678 19.4609 19.4707C19.8581 19.0736 20.1706 18.6113 20.3984 18.084C20.6263 17.5566 20.7435 16.987 20.75 16.375C20.75 15.7695 20.6361 15.2031 20.4082 14.6758C20.1803 14.1484 19.8678 13.6862 19.4707 13.2891C19.0736 12.8919 18.6113 12.5794 18.084 12.3516C17.5566 12.1237 16.987 12.0065 16.375 12C15.7695 12 15.2031 12.1139 14.6758 12.3418C14.1484 12.5697 13.6862 12.8822 13.2891 13.2793C12.8919 13.6764 12.5794 14.1387 12.3516 14.666C12.1237 15.1934 12.0065 15.763 12 16.375C12 16.9805 12.1139 17.5469 12.3418 18.0742C12.5697 18.6016 12.8822 19.0638 13.2793 19.4609C13.6764 19.8581 14.1387 20.1706 14.666 20.3984C15.1934 20.6263 15.763 20.7435 16.375 20.75ZM13.3867 9.5C12.6771 9.8125 12.026 10.2292 11.4336 10.75H4.5V9.5H13.3867ZM9.56836 13.25C9.47721 13.4518 9.39583 13.6569 9.32422 13.8652C9.2526 14.0736 9.18424 14.2852 9.11914 14.5H4.5V13.25H9.56836ZM4.5 17H8.9043C8.92383 17.2083 8.94987 17.4167 8.98242 17.625C9.01497 17.8333 9.06055 18.0417 9.11914 18.25H4.5V17ZM10.3008 20.75C10.6263 21.2122 11 22 11.4336 22H2V2H17V8.9043L16.6875 8.88477C16.5833 8.87826 16.4792 8.875 16.375 8.875C16.2708 8.875 16.1667 8.87826 16.0625 8.88477C15.9583 8.89128 15.8542 8.89779 15.75 8.9043V3.25H3.25V20.75H10.3008Z" fill="#F1841B"/>
</g>
<defs>
<clipPath id="clip0_184_12065">
<rect width="20" height="20" fill="white" transform="translate(2 2)"/>
</clipPath>
</defs>
</svg>
