<svg width="88" height="88" viewBox="0 0 88 88" fill="none" xmlns="http://www.w3.org/2000/svg">
<g clip-path="url(#clip0_372_2757)">
<path d="M88 0H0V88H88V0Z" fill="white"/>
<path d="M39.8824 28.101C37.2174 18.4334 25.2077 15.3189 18.3252 22.5442C18.2263 22.648 18.1275 22.7535 18.029 22.8606C8.16172 33.5868 12.8231 60.019 33.4158 66.7184C54.0085 73.4179 75.4277 61.1841 76.631 50.2478C77.8343 39.3117 68.3338 35.8753 53.5901 38.9333C45.2602 40.6611 41.5415 34.1195 39.8824 28.101Z" fill="#D3E8EE"/>
<path d="M58.6538 29.5854C55.8985 30.034 55.135 32.4749 57.2623 34.2066C57.9654 34.7789 58.9697 35.2545 60.4002 35.4917C65.8497 36.3959 68.7414 33.9848 66.557 30.8587C65.2089 28.9294 61.3842 29.1408 58.6538 29.5854Z" fill="#D3E8EE"/>
<path d="M12.698 57.5253C10.6117 55.6706 8.23603 56.6182 8.23462 59.3612C8.23409 60.2677 8.4988 61.347 9.21705 62.6066C11.9537 67.4051 15.6486 68.1275 16.696 64.4606C17.3424 62.1974 14.7655 59.3634 12.698 57.5253Z" fill="#D3E8EE"/>
<path d="M73.5913 61.9059C73.0522 63.1465 73.916 64.3055 75.2411 64.0788C75.6791 64.0038 76.1551 63.7766 76.6406 63.2979C78.4906 61.4743 78.2079 59.4896 76.2577 59.2481C75.054 59.099 74.1256 60.6765 73.5913 61.9059Z" fill="#D3E8EE"/>
<path d="M39.422 23.2793C40.4705 24.1341 41.82 23.616 41.9603 22.2789C42.0068 21.837 41.9167 21.3172 41.5872 20.7202C40.3323 18.446 38.3449 18.1811 37.5848 19.9932C37.1157 21.1115 38.3831 22.4322 39.422 23.2793Z" fill="#D3E8EE"/>
<path d="M23.9891 69.5884C22.6839 69.9438 22.3201 71.3428 23.3259 72.2349C23.6584 72.5297 24.1336 72.7589 24.8107 72.8383C27.3907 73.1408 28.7622 71.6786 27.7305 70.0061C27.0939 68.9737 25.2825 69.2362 23.9891 69.5884Z" fill="#D3E8EE"/>
<path d="M38.4238 13.0446C38.4031 13.0467 38.3816 13.0439 38.361 13.0353C38.1429 12.9432 38.0151 12.9003 38.0139 12.8999C37.947 12.8776 37.9111 12.8054 37.9333 12.7385C37.9557 12.6716 38.0278 12.6357 38.0947 12.6579C38.1002 12.6597 38.232 12.7039 38.4603 12.8001C38.5252 12.8276 38.5556 12.9024 38.5282 12.9673C38.5092 13.0117 38.4685 13.0398 38.4238 13.0446Z" fill="#D3E8EE"/>
<path d="M44.9242 19.8862C45.011 20.1176 45.0921 20.3563 45.1657 20.5956C45.184 20.6549 45.2414 20.6914 45.3009 20.685C45.3089 20.6842 45.317 20.6826 45.3251 20.6801C45.3925 20.6593 45.4302 20.5881 45.4096 20.5207C45.3346 20.2764 45.2516 20.0328 45.163 19.7966C45.1384 19.7308 45.0652 19.6973 44.9988 19.722C44.9328 19.7466 44.8994 19.8202 44.9242 19.8862Z" fill="#D3E8EE"/>
<path d="M45.364 21.3188C45.4224 21.5585 45.4752 21.8053 45.521 22.0522C45.5331 22.1182 45.594 22.1627 45.6596 22.1559C45.663 22.1555 45.6663 22.155 45.6697 22.1545C45.7388 22.1416 45.7848 22.0751 45.7719 22.0057C45.7253 21.7541 45.6714 21.5027 45.6119 21.2584C45.5952 21.19 45.5261 21.1481 45.4578 21.1648C45.3893 21.1814 45.3474 21.2503 45.364 21.3188Z" fill="#D3E8EE"/>
<path d="M45.9019 25.1701C45.9651 25.1634 46.0149 25.1104 46.016 25.0453C46.0199 24.7894 46.0181 24.5326 46.0105 24.282C46.0084 24.2116 45.9496 24.1561 45.8792 24.1583C45.8078 24.1607 45.7534 24.2193 45.7557 24.2896C45.7631 24.5363 45.7648 24.7892 45.7611 25.0413C45.7601 25.1117 45.8162 25.1697 45.8868 25.1708C45.8917 25.171 45.8968 25.1706 45.9019 25.1701Z" fill="#D3E8EE"/>
<path d="M45.7481 22.6486C45.6782 22.6577 45.6289 22.7216 45.6381 22.7915C45.653 22.9067 45.6667 23.0233 45.6787 23.1377C45.6926 23.2698 45.7051 23.4046 45.7155 23.5384C45.721 23.6086 45.7824 23.6611 45.8526 23.6556C45.8538 23.6554 45.8549 23.6554 45.8561 23.6553C45.9246 23.6481 45.9753 23.5875 45.9698 23.5185C45.9591 23.3825 45.9466 23.2454 45.9323 23.1111C45.92 22.9946 45.9061 22.8759 45.8908 22.7586C45.8818 22.6897 45.8197 22.6408 45.751 22.6482C45.7502 22.6484 45.7491 22.6484 45.7481 22.6486Z" fill="#D3E8EE"/>
<path d="M44.6391 19.1928C44.6621 19.2445 44.7155 19.2732 44.769 19.2676C44.782 19.2662 44.795 19.2628 44.8077 19.2572C44.8721 19.2285 44.9008 19.153 44.8721 19.0886C44.7681 18.8563 44.6556 18.6247 44.5377 18.4003C44.505 18.338 44.4279 18.3139 44.3654 18.3468C44.3031 18.3795 44.2792 18.4568 44.3119 18.5191C44.4272 18.7387 44.5374 18.9654 44.6391 19.1928Z" fill="#D3E8EE"/>
<path d="M39.0378 13.3517C39.2569 13.4636 39.4778 13.5854 39.6948 13.7139C39.7194 13.7285 39.7467 13.7338 39.7731 13.731C39.8118 13.7269 39.8483 13.7053 39.8696 13.669C39.9055 13.6085 39.8854 13.5302 39.8248 13.4943C39.6034 13.3631 39.3776 13.2387 39.1539 13.1243C39.0913 13.0923 39.0144 13.1173 38.9823 13.1799C38.9501 13.2428 38.9751 13.3197 39.0378 13.3517Z" fill="#D3E8EE"/>
<path d="M40.9385 14.5528C40.9654 14.5734 40.9979 14.5815 41.0293 14.5783C41.0629 14.5748 41.0951 14.5579 41.1173 14.5289C41.16 14.4729 41.1493 14.3928 41.0933 14.35C40.8913 14.1959 40.6822 14.0457 40.4717 13.9037C40.4133 13.8643 40.3341 13.8796 40.2946 13.938C40.2552 13.9965 40.2707 14.0757 40.3291 14.1151C40.5354 14.2543 40.7405 14.4016 40.9385 14.5528Z" fill="#D3E8EE"/>
<path d="M43.0826 16.6419C43.1107 16.6771 43.1539 16.6934 43.1957 16.689C43.2192 16.6866 43.2422 16.6776 43.2619 16.6618C43.3168 16.6178 43.3258 16.5375 43.2818 16.4824C43.1234 16.2844 42.9562 16.0885 42.785 15.9002C42.7376 15.8481 42.657 15.8441 42.6047 15.8916C42.5526 15.9389 42.5488 16.0197 42.5961 16.0718C42.7637 16.2563 42.9273 16.4481 43.0826 16.6419Z" fill="#D3E8EE"/>
<path d="M42.0745 15.5325C42.1028 15.56 42.1405 15.5717 42.1769 15.5679C42.2056 15.5649 42.2332 15.5522 42.2549 15.53C42.304 15.4795 42.3029 15.3987 42.2524 15.3496C42.071 15.1731 41.8811 14.9992 41.6878 14.8327C41.6345 14.7866 41.5539 14.7928 41.5079 14.8461C41.4618 14.8994 41.4678 14.98 41.5213 15.026C41.7107 15.1891 41.8967 15.3595 42.0745 15.5325Z" fill="#D3E8EE"/>
<path d="M43.9421 17.8666C43.9687 17.91 44.0169 17.932 44.0644 17.9269C44.0827 17.925 44.1007 17.9192 44.1174 17.909C44.1776 17.8722 44.1964 17.7937 44.1598 17.7337C44.0274 17.5168 43.8863 17.3014 43.7404 17.0934C43.6999 17.0357 43.6205 17.0218 43.5626 17.0622C43.5049 17.1027 43.491 17.1823 43.5315 17.2398C43.6742 17.4435 43.8124 17.6543 43.9421 17.8666Z" fill="#D3E8EE"/>
<path d="M38.4207 12.172L38.979 10.1045L32.1389 10.1633L38.4207 12.172Z" fill="#FF4059"/>
<path d="M32.1389 10.1631L38.0888 12.6711L38.1044 12.678L38.3605 13.1019L38.4207 12.172L32.1389 10.1631Z" fill="#E71C4A"/>
<path d="M38.3602 13.1017L37.8057 13.0142L38.1042 12.6777L38.3602 13.1017Z" fill="#BD0631"/>
<path d="M37.3559 12.362L38.1048 12.6778L36.5627 14.4151L32.1389 10.1631L37.3559 12.362Z" fill="#FF4059"/>
<path d="M76.8355 54.0186H70.8082V58.182H76.8355V54.0186Z" fill="#0172D0"/>
<path d="M70.8082 54.0186L73.8217 56.1003L76.8353 54.0186H70.8082Z" fill="#004FC5"/>
<path d="M81.2768 77.9102C81.2768 78.9413 65.2853 79.7773 45.5587 79.7773C25.8321 79.7773 9.8407 78.9413 9.8407 77.9102C9.8407 76.879 25.8322 76.043 45.5587 76.043C65.2851 76.043 81.2768 76.879 81.2768 77.9102Z" fill="#D3E8EE"/>
<path d="M54.9149 71.3597L55.3822 71.5139L55.6302 71.5956L56.3322 71.827C56.3322 71.827 66.79 63.3674 64.1102 58.3282C63.2853 56.7767 60.7914 56.873 59.3925 62.0595C58.0956 66.8673 54.9149 71.3597 54.9149 71.3597Z" fill="#004FC5"/>
<path d="M55.3824 71.5144L55.6304 71.5961C57.7313 69.3843 59.3527 66.7701 60.3749 64.8921C61.5887 62.662 62.2443 60.9581 62.2505 60.9412C62.2739 60.8803 62.2435 60.812 62.1826 60.7891C62.1217 60.7657 62.0536 60.7962 62.0303 60.8569C62.0238 60.874 61.3728 62.566 60.1658 64.7829C59.1381 66.67 57.5022 69.3049 55.3824 71.5144Z" fill="#003388"/>
<path d="M30.4035 25.1376L29.942 25.1462L29.6972 25.1506L29.0039 25.1635C29.0039 25.1635 21.9768 14.6848 25.7747 10.9115C26.9439 9.74992 29.152 10.5273 28.9682 15.5627C28.7982 20.2304 30.4035 25.1376 30.4035 25.1376Z" fill="#004FC5"/>
<path d="M29.9421 25.1463L29.6973 25.1507C28.4276 22.5865 27.699 19.7946 27.3035 17.8284C26.8338 15.4936 26.7185 13.7849 26.7174 13.7681C26.7132 13.707 26.7595 13.6544 26.8206 13.6507C26.8816 13.6464 26.9343 13.6927 26.9383 13.7534C26.9394 13.7705 27.0539 15.4672 27.5212 17.7882C27.9192 19.7644 28.655 22.579 29.9421 25.1463Z" fill="#003388"/>
<path d="M32.6477 26.7722L32.0919 27.1432L31.7971 27.3398L30.962 27.8968C30.962 27.8968 14.2121 20.6104 15.8954 13.0447C16.4135 10.7155 19.7125 9.93881 23.4209 16.2208C26.8586 22.0437 32.6477 26.7722 32.6477 26.7722Z" fill="#0172D0"/>
<path d="M32.0928 27.1437L31.798 27.3402C28.2476 25.2059 25.1793 22.3714 23.1615 20.2833C20.7654 17.8039 19.2906 15.8112 19.2763 15.7913C19.2235 15.7202 19.2388 15.6197 19.3103 15.5676C19.3814 15.5148 19.4817 15.5301 19.5341 15.601C19.5489 15.6211 21.0133 17.5999 23.3958 20.0646C25.4236 22.1627 28.5186 25.019 32.0928 27.1437Z" fill="#004FC5"/>
<path d="M52.4889 72.9876L53.0035 73.4801L53.2767 73.7411L54.0502 74.4808C54.0502 74.4808 72.9864 69.9372 72.6222 61.6822C72.5101 59.141 69.1908 57.7136 64.1325 63.6211C59.4435 69.097 52.4889 72.9876 52.4889 72.9876Z" fill="#0172D0"/>
<path d="M53.0037 73.4796L53.2768 73.7406C57.4 72.1582 61.147 69.7516 63.6525 67.9335C66.6278 65.7747 68.5459 63.9562 68.5645 63.9379C68.633 63.873 68.6358 63.7647 68.5703 63.6968C68.5054 63.6283 68.3971 63.6255 68.3292 63.6905C68.31 63.7088 66.4055 65.5147 63.4473 67.6603C60.9289 69.487 57.15 71.9118 53.0037 73.4796Z" fill="#004FC5"/>
<path d="M67.5707 23.6164C66.8509 25.6624 64.7802 25.4956 64.7413 27.1836C64.7024 28.8711 63.5803 30.0987 62.1395 29.7182C60.6986 29.3373 59.6595 28.9765 58.9126 30.6205C58.166 32.2645 56.0068 32.9985 55.2338 31.6334C55.0411 31.2937 54.8332 30.9255 54.63 30.5644C54.5745 30.4657 54.5189 30.3674 54.4645 30.2706C54.4517 30.2483 54.439 30.2259 54.4265 30.2036C53.6083 28.7507 53.9934 26.8978 55.3528 25.9322C55.9031 25.5415 56.5484 25.3382 57.2564 25.5853C59.4742 26.358 58.7746 24.0547 60.1625 23.1632C61.761 22.1359 63.0241 23.4499 64.1283 22.5622C65.6645 21.3274 68.2906 21.5703 67.5707 23.6164Z" fill="#004FC5"/>
<path d="M64.8414 24.3821L54.6293 30.5646C54.5739 30.4659 54.5183 30.3676 54.4639 30.2708L64.6666 24.0938C64.7461 24.0455 64.8498 24.0709 64.898 24.1504C64.9463 24.2302 64.9209 24.3338 64.8414 24.3821Z" fill="#003388"/>
<path d="M66.1054 12.1417C66.3925 14.8109 63.9908 15.7289 64.8476 17.635C65.7042 19.5407 65.1054 21.5104 63.2933 21.8536C61.4807 22.1966 60.1278 22.3478 60.1702 24.5824C60.2131 26.8169 58.1928 28.7881 56.6013 27.6756C56.2047 27.399 55.7763 27.0987 55.3566 26.8037C55.242 26.7231 55.1276 26.6429 55.0151 26.5638C54.9889 26.5457 54.9627 26.5276 54.937 26.5091C53.2485 25.3227 52.6902 23.0477 53.6936 21.2442C54.0998 20.5144 54.7121 19.9433 55.6348 19.8415C58.5239 19.5217 56.5143 17.3221 57.589 15.5862C58.8264 13.5863 60.9381 14.3804 61.698 12.7998C62.7556 10.6017 65.8184 9.47248 66.1054 12.1417Z" fill="#0172D0"/>
<path d="M63.4654 14.4509L55.3563 26.8028C55.2418 26.7222 55.1274 26.6419 55.0149 26.5629L63.1165 14.2221C63.1797 14.1259 63.3091 14.0989 63.4053 14.1621C63.5014 14.2253 63.5285 14.3547 63.4654 14.4509Z" fill="#004FC5"/>
<path d="M18.0893 73.8531C19.9813 74.9136 21.4258 73.4206 22.57 74.6623C23.7138 75.9036 25.3673 76.084 26.1975 74.8468C27.0277 73.609 27.5696 72.6517 29.2164 73.3926C30.8629 74.134 32.9687 73.2585 32.6475 71.7231C32.568 71.3408 32.4809 70.9271 32.3948 70.5216C32.3712 70.4109 32.348 70.3003 32.3249 70.1917C32.3198 70.1666 32.3145 70.1412 32.3091 70.1164C31.9638 68.4852 30.4505 67.3483 28.7923 67.5213C28.121 67.5913 27.5024 67.865 27.1338 68.5183C25.9791 70.5633 24.9827 68.3719 23.3519 68.6193C21.4733 68.9039 21.3929 70.7248 19.9773 70.7877C18.0086 70.8755 16.1973 72.7925 18.0893 73.8531Z" fill="#004FC5"/>
<path d="M20.6434 72.6258L32.3944 70.5222C32.3709 70.4115 32.3476 70.301 32.3246 70.1924L20.5843 72.294C20.4928 72.3104 20.4317 72.3978 20.4481 72.4895C20.4643 72.5811 20.5519 72.6421 20.6434 72.6258Z" fill="#003388"/>
<path d="M12.4882 64.0462C14.0358 66.2399 16.4454 65.3426 17.0612 67.3395C17.6769 69.336 19.4275 70.4193 21.0147 69.4802C22.6022 68.5404 23.7179 67.7603 25.1622 69.4661C26.6059 71.1721 29.4249 71.3176 29.8848 69.4311C29.9997 68.9615 30.1231 68.4531 30.2433 67.9543C30.276 67.8181 30.3089 67.6822 30.3411 67.5486C30.3489 67.5176 30.3564 67.4866 30.3637 67.4558C30.8478 65.4496 29.764 63.373 27.8196 62.6817C27.0323 62.402 26.1954 62.3777 25.4355 62.9106C23.0551 64.5789 23.111 61.6 21.1574 61.0067C18.9075 60.3226 17.8465 62.3135 16.2319 61.6288C13.986 60.6774 10.9407 61.8525 12.4882 64.0462Z" fill="#0172D0"/>
<path d="M15.9959 64.0386L30.2429 67.956C30.2756 67.8197 30.3085 67.6839 30.3407 67.5503L16.1066 63.6364C15.9955 63.6059 15.8806 63.6711 15.8501 63.7821C15.8197 63.8932 15.8848 64.0081 15.9959 64.0386Z" fill="#004FC5"/>
<path d="M27.2076 45.0833C23.4753 43.7192 16.5545 40.7884 14.1542 39.4012C11.0182 37.5887 9.08013 35.7752 8.39355 34.011C8.34814 33.8941 8.40587 33.7623 8.52291 33.7167C8.63995 33.6712 8.7716 33.7291 8.81718 33.8461C10.0173 36.9303 14.6729 39.831 27.2078 44.6143L27.2076 45.0833Z" fill="#004FC5"/>
<path d="M11.4929 37.5531C11.4929 37.5531 10.72 39.2883 7.72241 37.8104C7.72241 37.8104 9.65859 35.4897 11.4929 37.5531Z" fill="#0172D0"/>
<path d="M12.9992 38.3949C12.9992 38.3949 11.2237 37.7198 12.5325 34.6445C12.5325 34.6445 14.9572 36.4487 12.9992 38.3949Z" fill="#0172D0"/>
<path d="M9.30582 35.1683C9.30582 35.1683 7.40678 35.1238 7.61552 31.7881C7.61552 31.7881 10.503 32.6806 9.30582 35.1683Z" fill="#0172D0"/>
<path d="M15.9764 40.1827C15.9764 40.1827 15.8361 42.077 12.5151 41.7002C12.5151 41.7002 13.5523 38.8613 15.9764 40.1827Z" fill="#0172D0"/>
<path d="M17.6404 40.8084C17.6404 40.8084 15.775 40.4506 16.5321 37.1953C16.5321 37.1953 19.2325 38.5528 17.6404 40.8084Z" fill="#0172D0"/>
<path d="M19.8345 41.8901C19.8345 41.8901 19.7302 43.7867 16.4027 43.4728C16.4027 43.4728 17.3858 40.6151 19.8345 41.8901Z" fill="#0172D0"/>
<path d="M48.5857 24.9933C49.9374 21.2565 51.3179 18.1498 52.6972 15.7447C54.4991 12.6028 56.3059 10.6585 58.068 9.96594C58.1847 9.92018 58.3167 9.97755 58.3627 10.0944C58.4086 10.2113 58.3511 10.3431 58.2344 10.389C55.1542 11.5996 51.8505 17.0329 48.6703 26.1108L48.5857 24.9933Z" fill="#004FC5"/>
<path d="M54.5374 13.0782C54.5374 13.0782 52.7996 12.3112 54.2674 9.30859C54.2674 9.30859 56.5945 11.2368 54.5374 13.0782Z" fill="#0172D0"/>
<path d="M53.6998 14.5867C53.6998 14.5867 54.3688 12.8089 57.4486 14.1074C57.4486 14.1074 55.6527 16.5381 53.6998 14.5867Z" fill="#0172D0"/>
<path d="M56.9148 10.8822C56.9148 10.8822 56.9528 8.98294 60.2892 9.18041C60.2892 9.18041 59.4066 12.0709 56.9148 10.8822Z" fill="#0172D0"/>
<path d="M51.9234 17.5704C51.9234 17.5704 50.0286 17.4364 50.3943 14.1143C50.3943 14.1143 53.2365 15.1419 51.9234 17.5704Z" fill="#0172D0"/>
<path d="M51.303 19.237C51.303 19.237 51.6544 17.3703 54.9124 18.1165C54.9124 18.1165 53.5639 20.8213 51.303 19.237Z" fill="#0172D0"/>
<path d="M50.2274 21.4334C50.2274 21.4334 48.3305 21.3353 48.633 18.0068C48.633 18.0068 51.4943 18.9803 50.2274 21.4334Z" fill="#0172D0"/>
<path d="M71.596 23.4844C71.0627 23.4844 70.6287 23.0506 70.6287 22.5171C70.6287 21.9838 71.0627 21.5498 71.596 21.5498C72.1292 21.5498 72.5633 21.9836 72.5633 22.5171C72.5633 23.0504 72.1294 23.4844 71.596 23.4844ZM71.596 21.8532C71.2299 21.8532 70.9321 22.151 70.9321 22.5171C70.9321 22.8832 71.2299 23.181 71.596 23.181C71.962 23.181 72.2598 22.8832 72.2598 22.5171C72.2598 22.151 71.962 21.8532 71.596 21.8532Z" fill="#0172D0"/>
<path d="M75.0781 26.877C74.5449 26.877 74.1108 26.4431 74.1108 25.9097C74.1108 25.3762 74.5447 24.9424 75.0781 24.9424C75.6116 24.9424 76.0454 25.3762 76.0454 25.9097C76.0454 26.4431 75.6114 26.877 75.0781 26.877ZM75.0781 25.246C74.7121 25.246 74.4143 25.5438 74.4143 25.9099C74.4143 26.2759 74.7121 26.5737 75.0781 26.5737C75.4442 26.5737 75.742 26.2759 75.742 25.9099C75.7418 25.5438 75.444 25.246 75.0781 25.246Z" fill="#0172D0"/>
<path d="M76.2735 30.0214C76.1898 30.0214 76.1218 29.9535 76.1218 29.8697V29.2005C76.1218 29.1168 76.1898 29.0488 76.2735 29.0488C76.3573 29.0488 76.4252 29.1168 76.4252 29.2005V29.8697C76.4252 29.9535 76.3573 30.0214 76.2735 30.0214Z" fill="#FF4059"/>
<path d="M76.2735 31.1923C76.1898 31.1923 76.1218 31.1244 76.1218 31.0406V30.3714C76.1218 30.2877 76.1898 30.2197 76.2735 30.2197C76.3573 30.2197 76.4252 30.2877 76.4252 30.3714V31.0406C76.4252 31.1244 76.3573 31.1923 76.2735 31.1923Z" fill="#FF4059"/>
<path d="M77.2122 30.2722H76.6112C76.5274 30.2722 76.4595 30.2042 76.4595 30.1205C76.4595 30.0367 76.5274 29.9688 76.6112 29.9688H77.2122C77.296 29.9688 77.3639 30.0367 77.3639 30.1205C77.3639 30.2042 77.296 30.2722 77.2122 30.2722Z" fill="#FF4059"/>
<path d="M75.9352 30.2722H75.3342C75.2504 30.2722 75.1825 30.2042 75.1825 30.1205C75.1825 30.0367 75.2504 29.9688 75.3342 29.9688H75.9352C76.019 29.9688 76.087 30.0367 76.087 30.1205C76.087 30.2042 76.019 30.2722 75.9352 30.2722Z" fill="#FF4059"/>
<path d="M70.9325 26.2714C70.8487 26.2714 70.7808 26.2035 70.7808 26.1197V25.4505C70.7808 25.3668 70.8487 25.2988 70.9325 25.2988C71.0162 25.2988 71.0842 25.3668 71.0842 25.4505V26.1197C71.0842 26.2035 71.0162 26.2714 70.9325 26.2714Z" fill="#FF4059"/>
<path d="M70.9325 27.4423C70.8487 27.4423 70.7808 27.3744 70.7808 27.2906V26.6214C70.7808 26.5377 70.8487 26.4697 70.9325 26.4697C71.0162 26.4697 71.0842 26.5377 71.0842 26.6214V27.2906C71.0842 27.3744 71.0162 27.4423 70.9325 27.4423Z" fill="#FF4059"/>
<path d="M71.8712 26.5222H71.2701C71.1863 26.5222 71.1184 26.4542 71.1184 26.3705C71.1184 26.2867 71.1863 26.2188 71.2701 26.2188H71.8712C71.9549 26.2188 72.0229 26.2867 72.0229 26.3705C72.0229 26.4542 71.9549 26.5222 71.8712 26.5222Z" fill="#FF4059"/>
<path d="M70.5942 26.5222H69.9931C69.9094 26.5222 69.8414 26.4542 69.8414 26.3705C69.8414 26.2867 69.9094 26.2188 69.9931 26.2188H70.5942C70.678 26.2188 70.7459 26.2867 70.7459 26.3705C70.7459 26.4542 70.678 26.5222 70.5942 26.5222Z" fill="#FF4059"/>
<path d="M14.2458 22.7319C14.2458 22.1987 14.6797 21.7646 15.2131 21.7646C15.7464 21.7646 16.1804 22.1985 16.1804 22.7319C16.1804 23.2652 15.7466 23.6992 15.2131 23.6992C14.6797 23.6991 14.2458 23.2652 14.2458 22.7319ZM14.5493 22.7319C14.5493 23.098 14.8471 23.3958 15.2131 23.3958C15.5792 23.3958 15.877 23.098 15.877 22.7319C15.877 22.3659 15.5792 22.0681 15.2131 22.0681C14.8471 22.0681 14.5493 22.3659 14.5493 22.7319Z" fill="#0172D0"/>
<path d="M10.3599 24.1597C10.3599 23.6264 10.7937 23.1924 11.3272 23.1924C11.8604 23.1924 12.2945 23.6262 12.2945 24.1597C12.2945 24.693 11.8606 25.127 11.3272 25.127C10.7939 25.127 10.3599 24.693 10.3599 24.1597ZM10.6633 24.1597C10.6633 24.5258 10.9611 24.8236 11.3272 24.8236C11.6932 24.8236 11.991 24.5258 11.991 24.1597C11.991 23.7936 11.6932 23.4958 11.3272 23.4958C10.9611 23.4958 10.6633 23.7936 10.6633 24.1597Z" fill="#0172D0"/>
<path d="M10.2366 27.8105C10.3203 27.8105 10.3883 27.7425 10.3883 27.6588V26.9896C10.3883 26.9058 10.3203 26.8379 10.2366 26.8379C10.1528 26.8379 10.0848 26.9058 10.0848 26.9896V27.6588C10.0847 27.7425 10.1528 27.8105 10.2366 27.8105Z" fill="#FF4059"/>
<path d="M10.2366 28.9814C10.3203 28.9814 10.3883 28.9134 10.3883 28.8297V28.1605C10.3883 28.0767 10.3203 28.0088 10.2366 28.0088C10.1528 28.0088 10.0848 28.0767 10.0848 28.1605V28.8297C10.0847 28.9134 10.1528 28.9814 10.2366 28.9814Z" fill="#FF4059"/>
<path d="M9.29722 28.0612H9.89826C9.98204 28.0612 10.05 27.9933 10.05 27.9095C10.05 27.8257 9.98204 27.7578 9.89826 27.7578H9.29722C9.21344 27.7578 9.14551 27.8257 9.14551 27.9095C9.14551 27.9933 9.21344 28.0612 9.29722 28.0612Z" fill="#FF4059"/>
<path d="M10.5749 28.0612H11.176C11.2597 28.0612 11.3277 27.9933 11.3277 27.9095C11.3277 27.8257 11.2597 27.7578 11.176 27.7578H10.5749C10.4912 27.7578 10.4232 27.8257 10.4232 27.9095C10.4232 27.9933 10.4912 28.0612 10.5749 28.0612Z" fill="#FF4059"/>
<path d="M13.9894 19.1054C14.0731 19.1054 14.1411 19.0375 14.1411 18.9537V18.2845C14.1411 18.2007 14.0731 18.1328 13.9894 18.1328C13.9056 18.1328 13.8376 18.2007 13.8376 18.2845V18.9537C13.8376 19.0375 13.9056 19.1054 13.9894 19.1054Z" fill="#FF4059"/>
<path d="M13.9894 20.2763C14.0731 20.2763 14.1411 20.2084 14.1411 20.1246V19.4554C14.1411 19.3716 14.0731 19.3037 13.9894 19.3037C13.9056 19.3037 13.8376 19.3716 13.8376 19.4554V20.1246C13.8376 20.2084 13.9056 20.2763 13.9894 20.2763Z" fill="#FF4059"/>
<path d="M13.05 19.3562H13.6511C13.7348 19.3562 13.8028 19.2882 13.8028 19.2044C13.8028 19.1207 13.7348 19.0527 13.6511 19.0527H13.05C12.9663 19.0527 12.8983 19.1207 12.8983 19.2044C12.8983 19.2882 12.9663 19.3562 13.05 19.3562Z" fill="#FF4059"/>
<path d="M14.3277 19.3562H14.9288C15.0126 19.3562 15.0805 19.2882 15.0805 19.2044C15.0805 19.1207 15.0126 19.0527 14.9288 19.0527H14.3277C14.244 19.0527 14.176 19.1207 14.176 19.2044C14.176 19.2882 14.244 19.3562 14.3277 19.3562Z" fill="#FF4059"/>
<path d="M58.1039 23.5128V74.3972C58.1039 75.9923 56.8114 77.285 55.2161 77.285H29.8767C29.0754 77.285 28.3508 76.9589 27.8274 76.4323C27.3092 75.9099 26.9889 75.1912 26.9889 74.3974V23.5128C26.9889 21.9177 28.2814 20.625 29.8767 20.625H55.2161C55.6876 20.625 56.1327 20.7378 56.5261 20.9386C57.4629 21.4159 58.1039 22.3892 58.1039 23.5128Z" fill="#223B77"/>
<path d="M58.1042 23.5135V74.3979C58.1042 75.993 56.8117 77.2857 55.2164 77.2857H29.877C29.0757 77.2857 28.3511 76.9595 27.8276 76.4329L56.5264 20.9395C57.4632 21.4166 58.1042 22.3899 58.1042 23.5135Z" fill="#1D1A5E"/>
<path d="M26.9891 36.5018H26.8986C26.3652 36.5018 25.9327 36.0694 25.9327 35.5359V30.7452C25.9327 30.2117 26.3652 29.7793 26.8986 29.7793H26.9891V36.5018Z" fill="#1D1A5E"/>
<path d="M58.1042 34.7425H58.1783C58.6148 34.7425 58.9686 34.3887 58.9686 33.9523V30.0588C58.9686 29.6223 58.6148 29.2686 58.1783 29.2686H58.1042V34.7425Z" fill="#1D1A5E"/>
<path d="M26.9891 44.1366H26.8986C26.3652 44.1366 25.9327 43.7041 25.9327 43.1707V38.38C25.9327 37.8465 26.3652 37.4141 26.8986 37.4141H26.9891V44.1366Z" fill="#1D1A5E"/>
<path d="M56.6642 23.387V74.5228C56.6642 75.2525 56.0723 75.8443 55.3426 75.8443H29.7516C29.2074 75.8443 28.7405 75.5156 28.5379 75.0458C28.4682 74.8853 28.4301 74.7086 28.4301 74.5228V23.387C28.4301 22.657 29.0216 22.0654 29.7516 22.0654H55.3426C55.5355 22.0654 55.7189 22.1066 55.8836 22.1812C56.3437 22.3877 56.6642 22.8499 56.6642 23.387Z" fill="white"/>
<path d="M50.9565 40.4768C50.9565 42.5085 50.2349 44.3708 49.034 45.823C48.7538 46.1619 48.4476 46.4784 48.1185 46.7693C46.6381 48.078 44.6919 48.8727 42.5604 48.8727C40.4289 48.8727 38.483 48.0786 37.0023 46.7693C36.673 46.4786 36.3673 46.1619 36.0871 45.8235C34.8863 44.3713 34.1647 42.5085 34.1647 40.477C34.1647 35.8401 37.9235 32.0811 42.5606 32.0811C47.1971 32.0809 50.9565 35.8399 50.9565 40.4768Z" fill="#D3E8EE"/>
<path d="M51.6331 29.6563H33.4878C32.9621 29.6563 32.532 29.2262 32.532 28.7005V28.5213C32.532 27.9956 32.9621 27.5654 33.4878 27.5654H51.6331C52.1588 27.5654 52.5889 27.9956 52.5889 28.5213V28.7005C52.5889 29.2262 52.1588 29.6563 51.6331 29.6563Z" fill="#D3E8EE"/>
<path d="M37.2208 65.772C37.641 63.9768 36.5263 62.1808 34.7311 61.7607C32.9358 61.3405 31.1399 62.4552 30.7197 64.2504C30.2995 66.0456 31.4142 67.8416 33.2094 68.2618C35.0047 68.682 36.8006 67.5673 37.2208 65.772Z" fill="#0172D0"/>
<path d="M35.8197 63.732C35.8088 63.6869 35.7984 63.6417 35.7872 63.5966C35.7476 63.4377 35.6722 63.2978 35.5651 63.1739C35.4883 63.0852 35.3996 63.0097 35.2993 62.9521C35.161 62.8726 35.0043 62.9065 34.9022 63.0295C34.7199 63.2495 34.5384 63.4703 34.3584 63.6922C34.2479 63.8286 34.266 64.015 34.4029 64.1362C34.501 64.2232 34.6044 64.304 34.7058 64.387C34.7188 64.3978 34.7342 64.4057 34.7454 64.4129C34.5036 65.0632 34.0937 65.5652 33.505 65.927C33.4337 65.8677 33.3591 65.8054 33.2841 65.7433C33.2457 65.7116 33.2077 65.6794 33.1683 65.6491C33.0498 65.5587 32.9131 65.5495 32.7899 65.6298C32.751 65.6551 32.719 65.693 32.6889 65.7292C32.5241 65.9281 32.3617 66.1289 32.1968 66.3274C32.1445 66.3904 32.1112 66.46 32.0996 66.5406C32.1026 66.5701 32.1054 66.5997 32.1084 66.6291C32.1371 66.6789 32.1568 66.7379 32.1962 66.7769C32.2929 66.873 32.399 66.9589 32.5254 67.0159C32.6734 67.0827 32.8281 67.1235 32.9903 67.1092C33.0972 67.0999 33.2042 67.0774 33.3077 67.0483C33.574 66.9741 33.8167 66.847 34.0449 66.693C34.2711 66.5404 34.477 66.363 34.6662 66.1667C34.9216 65.9019 35.1481 65.6132 35.3535 65.3082C35.5154 65.0676 35.6553 64.8159 35.7462 64.5391C35.7917 64.3997 35.8225 64.2573 35.8322 64.1109C35.8361 64.0519 35.8375 63.9928 35.84 63.9338C35.8331 63.867 35.8264 63.7994 35.8197 63.732Z" fill="white"/>
<path d="M54.2305 66.3134C54.949 64.6153 54.1549 62.6563 52.4568 61.9378C50.7588 61.2193 48.7997 62.0134 48.0812 63.7115C47.3627 65.4096 48.1568 67.3686 49.8549 68.0871C51.553 68.8056 53.512 68.0115 54.2305 66.3134Z" fill="#FF4059"/>
<path d="M48.9854 64.4063C48.9576 64.4434 48.9296 64.4804 48.9022 64.5179C48.8052 64.6499 48.7459 64.7974 48.7193 64.9589C48.7003 65.0746 48.6989 65.1911 48.7188 65.3049C48.7461 65.4621 48.8723 65.5608 49.0323 65.5607C49.3181 65.5603 49.6037 65.5587 49.8894 65.555C50.0648 65.5527 50.1967 65.4197 50.2023 65.2368C50.2064 65.1059 50.2023 64.9746 50.2014 64.8436C50.2012 64.8267 50.1975 64.81 50.196 64.7966C50.8505 64.5668 51.4987 64.561 52.1534 64.7824C52.1534 64.8751 52.1533 64.9723 52.1534 65.0696C52.1536 65.1194 52.1531 65.1692 52.1552 65.2189C52.1614 65.3678 52.2418 65.4788 52.3822 65.5221C52.4266 65.5358 52.476 65.5364 52.5232 65.5362C52.7814 65.5357 53.0396 65.5322 53.2978 65.5322C53.3796 65.5322 53.4544 65.5131 53.5238 65.4706C53.5445 65.4494 53.5655 65.4283 53.5863 65.4072C53.6063 65.3532 53.6389 65.3004 53.6438 65.2451C53.6559 65.1094 53.6542 64.9728 53.6171 64.8392C53.5738 64.6828 53.5062 64.5376 53.3916 64.4221C53.3161 64.3459 53.2304 64.2782 53.1419 64.2169C52.9145 64.0596 52.6616 63.9543 52.3972 63.8772C52.1353 63.8008 51.8673 63.756 51.5953 63.7359C51.2284 63.7088 50.8618 63.7194 50.4957 63.7565C50.2072 63.7857 49.9242 63.839 49.6534 63.9464C49.517 64.0004 49.388 64.0678 49.2692 64.1541C49.2213 64.1887 49.175 64.2255 49.128 64.2613C49.0807 64.3097 49.033 64.3581 48.9854 64.4063Z" fill="white"/>
<path d="M53.5346 73.17H31.5867C31.061 73.17 30.6309 72.7398 30.6309 72.2141V72.035C30.6309 71.5092 31.061 71.0791 31.5867 71.0791H53.5346C54.0603 71.0791 54.4905 71.5092 54.4905 72.035V72.2141C54.4905 72.7398 54.0603 73.17 53.5346 73.17Z" fill="#D3E8EE"/>
<path d="M39.2802 59.1742H31.2956C30.9285 59.1742 30.6309 58.8766 30.6309 58.5095C30.6309 58.1423 30.9285 57.8447 31.2956 57.8447H39.2802C39.6473 57.8447 39.945 58.1423 39.945 58.5095C39.945 58.8766 39.6473 59.1742 39.2802 59.1742Z" fill="#D3E8EE"/>
<path d="M39.2802 55.6244H31.2956C30.9285 55.6244 30.6309 55.3268 30.6309 54.9597C30.6309 54.5925 30.9285 54.2949 31.2956 54.2949H39.2802C39.6473 54.2949 39.945 54.5925 39.945 54.9597C39.945 55.3268 39.6473 55.6244 39.2802 55.6244Z" fill="#D3E8EE"/>
<path d="M39.2802 52.0736H31.2956C30.9285 52.0736 30.6309 51.776 30.6309 51.4089C30.6309 51.0418 30.9285 50.7441 31.2956 50.7441H39.2802C39.6473 50.7441 39.945 51.0418 39.945 51.4089C39.945 51.776 39.6473 52.0736 39.2802 52.0736Z" fill="#D3E8EE"/>
<path d="M53.8251 59.1742H45.8405C45.4734 59.1742 45.1758 58.8766 45.1758 58.5095C45.1758 58.1423 45.4734 57.8447 45.8405 57.8447H53.8251C54.1923 57.8447 54.4899 58.1423 54.4899 58.5095C54.4899 58.8766 54.1923 59.1742 53.8251 59.1742Z" fill="#D3E8EE"/>
<path d="M53.8251 55.6244H45.8405C45.4734 55.6244 45.1758 55.3268 45.1758 54.9597C45.1758 54.5925 45.4734 54.2949 45.8405 54.2949H53.8251C54.1923 54.2949 54.4899 54.5925 54.4899 54.9597C54.4899 55.3268 54.1923 55.6244 53.8251 55.6244Z" fill="#D3E8EE"/>
<path d="M53.8251 52.0736H45.8405C45.4734 52.0736 45.1758 51.776 45.1758 51.4089C45.1758 51.0418 45.4734 50.7441 45.8405 50.7441H53.8251C54.1923 50.7441 54.4899 51.0418 54.4899 51.4089C54.4899 51.776 54.1923 52.0736 53.8251 52.0736Z" fill="#D3E8EE"/>
<path d="M45.7369 38.938C46.0233 37.183 44.8329 35.5282 43.078 35.2417C41.3231 34.9552 39.6682 36.1456 39.3817 37.9006C39.0953 39.6555 40.2857 41.3104 42.0406 41.5968C43.7955 41.8833 45.4504 40.6929 45.7369 38.938Z" fill="white"/>
<path d="M48.1184 46.7691C46.638 48.0779 44.6918 48.8725 42.5603 48.8725C40.4287 48.8725 38.4829 48.0784 37.0022 46.7691C37.334 45.4036 38.1541 44.4727 39.0651 43.841C41.1607 42.3876 43.9605 42.3876 46.0562 43.841C46.967 44.4725 47.7866 45.4036 48.1184 46.7691Z" fill="white"/>
<path d="M39.8447 65.263H38.5338C38.3619 65.263 38.2227 65.1236 38.2227 64.9518C38.2227 64.7798 38.362 64.6406 38.5338 64.6406H39.8447C40.0166 64.6406 40.1558 64.78 40.1558 64.9518C40.156 65.1237 40.0166 65.263 39.8447 65.263Z" fill="#D3E8EE"/>
<path d="M43.2564 65.263H41.9456C41.7736 65.263 41.6344 65.1236 41.6344 64.9518C41.6344 64.7798 41.7738 64.6406 41.9456 64.6406H43.2564C43.4284 64.6406 43.5676 64.78 43.5676 64.9518C43.5678 65.1237 43.4284 65.263 43.2564 65.263Z" fill="#D3E8EE"/>
<path d="M46.6682 65.263H45.3573C45.1854 65.263 45.0461 65.1236 45.0461 64.9518C45.0461 64.7798 45.1855 64.6406 45.3573 64.6406H46.6682C46.8401 64.6406 46.9793 64.78 46.9793 64.9518C46.9793 65.1237 46.8401 65.263 46.6682 65.263Z" fill="#D3E8EE"/>
<path d="M49.9408 24.6106H35.1531C34.4167 24.6106 33.8141 24.008 33.8141 23.2716V23.0206C33.8141 22.2843 34.4165 21.6816 35.1531 21.6816H49.9408C50.6772 21.6816 51.2798 22.2843 51.2798 23.0206V23.2716C51.2798 24.008 50.6772 24.6106 49.9408 24.6106Z" fill="#223B77"/>
<path d="M46.7258 23.3151H36.9166C36.7355 23.3151 36.5873 23.1669 36.5873 22.9858V22.924C36.5873 22.7429 36.7355 22.5947 36.9166 22.5947H46.7258C46.9069 22.5947 47.0551 22.7429 47.0551 22.924V22.9858C47.0551 23.1669 46.9069 23.3151 46.7258 23.3151Z" fill="#1D1A5E"/>
<path d="M49.1727 23.3622C49.4113 23.3622 49.6048 23.1688 49.6048 22.9301C49.6048 22.6915 49.4113 22.498 49.1727 22.498C48.9341 22.498 48.7406 22.6915 48.7406 22.9301C48.7406 23.1688 48.9341 23.3622 49.1727 23.3622Z" fill="#223B77"/>
<path opacity="0.3" d="M56.6637 23.3884V74.5241C56.6637 75.2538 56.0718 75.8457 55.3421 75.8457H29.7512C29.207 75.8457 28.7401 75.517 28.5375 75.0472L55.8833 22.1826C56.3432 22.3891 56.6637 22.8512 56.6637 23.3884Z" fill="white"/>
<path d="M68.9199 40.0507C68.9808 40.7388 69.047 41.3994 69.106 41.9529C69.201 42.8456 69.2765 43.4593 69.2765 43.4593L69.9386 45.8018C70.1653 46.6032 71.0548 47.0106 71.8099 46.6596C71.8227 46.654 71.8359 46.6477 71.8491 46.6417C73.1533 46.0144 72.4149 43.4529 72.4149 43.4529L72.1675 43.4353C72.0652 43.155 71.7886 42.4399 71.4364 41.5416C71.3938 41.4312 71.3493 41.3179 71.3044 41.2028C71.2294 41.0118 71.152 40.8145 71.0729 40.6128C70.9607 40.3268 70.8447 40.032 70.7276 39.7353C69.8651 37.542 68.9458 35.2207 68.9458 35.2207C68.5922 35.3909 68.727 37.8596 68.9199 40.0507Z" fill="#FFAA95"/>
<path d="M68.9193 40.0519C68.9802 40.7401 69.0464 41.4006 69.1053 41.9541C70.0688 41.6568 70.7103 41.0537 71.0725 40.6139C70.9602 40.3279 70.8442 40.0331 70.7272 39.7363L68.9193 40.0519Z" fill="#FF8B6B"/>
<path d="M70.8246 44.2848C70.8301 44.2855 70.835 44.2855 70.8405 44.2855C70.8908 44.2855 70.9348 44.2491 70.9424 44.198C71.1254 42.9803 71.312 42.0806 71.4361 41.5408C71.3933 41.4306 71.3486 41.3171 71.3039 41.2021C71.1876 41.6779 70.9603 42.6911 70.7381 44.167C70.7298 44.2235 70.7683 44.2758 70.8246 44.2848Z" fill="#FF8B6B"/>
<path d="M71.7754 39.6677C71.7754 39.6677 71.5615 39.9215 71.188 40.1998C70.7362 40.5387 69.9047 40.9552 69.0834 40.9622C68.9843 38.042 68.8877 35.2459 68.6753 34.5215C69.0535 34.9888 70.9661 37.5772 71.7754 39.6677Z" fill="#0172D0"/>
<path d="M71.0128 44.345C71.0128 44.345 71.1735 41.4206 71.793 40.7947C72.4125 40.1689 72.9805 39.9279 73.5657 39.9452C74.1509 39.9624 74.7016 40.0313 74.6671 40.2722C74.6671 40.2722 76.0095 40.0601 76.6117 40.4044C77.214 40.7486 74.8391 41.0695 74.1335 41.0925C73.4279 41.1156 73.0578 41.5125 73.0321 41.9333C73.0064 42.3541 72.6178 45.1427 72.6178 45.1427L71.0128 44.345Z" fill="#FFAA95"/>
<path d="M67.0958 74.7018V76.18L65.7436 76.1584L65.6554 74.5918L67.0958 74.7018Z" fill="#FFAA95"/>
<path d="M63.6625 53.0999C63.6718 53.2754 63.7184 54.1193 63.7894 55.2955C63.9798 58.5274 64.3364 64.2703 64.5455 65.5605C64.7602 66.8842 64.663 71.2251 64.594 73.4972C64.5828 73.8837 64.7303 74.2347 64.9768 74.4923C65.0684 74.5876 65.1748 74.6698 65.2905 74.737C65.4922 74.8509 65.7236 74.9162 65.97 74.9162H67.0007C67.7774 74.9162 68.4009 74.2739 68.3766 73.4972C68.3187 71.576 68.2478 68.0717 68.3823 65.3645C68.5111 62.788 68.3244 58.2287 68.1806 55.387H68.1786C68.1207 54.2518 68.0704 53.3931 68.0498 53.042L63.6625 53.0999Z" fill="#FF4059"/>
<path d="M68.05 53.042L63.6625 53.0999C63.6718 53.2754 63.7184 54.1193 63.7894 55.2955C65.2792 55.4785 66.8308 55.5549 68.1788 55.387C68.1209 54.2518 68.0704 53.3929 68.05 53.042Z" fill="#E71C4A"/>
<path d="M64.9939 69.4458C64.9555 70.899 64.9155 72.4014 64.9418 73.6124C64.9492 73.9523 64.9609 74.243 64.9766 74.4924C65.0681 74.5889 65.1744 74.6714 65.2915 74.7374C65.2663 74.4481 65.2468 74.0783 65.2364 73.6059C65.2107 72.4017 65.2506 70.9032 65.289 69.4535C65.3362 67.6821 65.3805 66.0085 65.2841 65.2962C65.0736 63.7372 64.6028 55.2864 64.4792 53.0303L64.1841 53.0435C64.3076 55.298 64.7798 63.7661 64.9919 65.3355C65.0848 66.0244 65.0407 67.6867 64.9939 69.4458Z" fill="#E71C4A"/>
<path d="M66.749 76.1247C66.749 76.1247 67.029 75.7308 67.2585 75.7424C67.488 75.7541 69.2864 77.1203 69.8947 77.2231C70.5027 77.3259 70.395 77.7744 70.2891 78.0046C70.1831 78.235 65.4566 78.025 65.4566 78.025C65.4566 78.025 65.2961 76.623 65.4408 76.1898C65.5853 75.7567 66.2775 76.2368 66.749 76.1247Z" fill="#0172D0"/>
<path d="M67.7471 77.0835C67.7258 77.0904 67.7019 77.089 67.6806 77.0774C67.6394 77.055 67.6241 77.0036 67.6463 76.9625C67.6537 76.9487 67.8316 76.6235 68.0778 76.4925C68.4052 76.318 68.6676 76.4996 68.6787 76.5073C68.7169 76.5344 68.7259 76.5874 68.6988 76.6256C68.6718 76.6638 68.6187 76.6728 68.5805 76.6457C68.5734 76.6407 68.3907 76.5184 68.1575 76.6423C67.9569 76.749 67.7973 77.0403 67.7957 77.0432C67.7848 77.0633 67.7672 77.077 67.7471 77.0835Z" fill="white"/>
<path d="M67.4893 76.8502C67.468 76.8571 67.4441 76.8556 67.4228 76.844C67.3816 76.8217 67.3663 76.7703 67.3885 76.7291C67.396 76.7154 67.5738 76.3901 67.82 76.2592C68.1477 76.0846 68.4098 76.266 68.4209 76.274C68.4591 76.3011 68.468 76.354 68.4409 76.3922C68.4138 76.4304 68.3609 76.4396 68.3227 76.4123C68.3155 76.4074 68.1328 76.2851 67.8997 76.409C67.6984 76.5161 67.5395 76.8069 67.5379 76.8099C67.527 76.8298 67.5092 76.8437 67.4893 76.8502Z" fill="white"/>
<path d="M68.0944 77.2692C68.0731 77.2761 68.0491 77.2747 68.0278 77.2632C67.9866 77.2409 67.9712 77.1895 67.9935 77.1481C68.0009 77.1344 68.1788 76.8091 68.4251 76.6782C68.7528 76.5034 69.0148 76.6851 69.0259 76.693C69.0641 76.7201 69.0731 76.7731 69.046 76.8113C69.0189 76.8495 68.9659 76.8586 68.9277 76.8313C68.9205 76.8264 68.7378 76.7041 68.5048 76.828C68.3033 76.9352 68.1445 77.2259 68.1429 77.2289C68.132 77.2488 68.1143 77.2627 68.0944 77.2692Z" fill="white"/>
<path d="M60.5097 74.7018L60.3639 76.1777L59.1574 76.1584L59.0691 74.5918L60.5097 74.7018Z" fill="#FFAA95"/>
<path d="M58.0261 65.3656C58.1605 68.0728 58.0896 71.5772 58.0317 73.4984C58.0094 74.2751 58.631 74.9173 59.4077 74.9173H60.4383C60.6661 74.9173 60.8827 74.8613 61.0712 74.7642C61.1851 74.7043 61.2916 74.6297 61.3831 74.5401C61.6594 74.2807 61.8275 73.9092 61.8145 73.4984C61.7453 71.2262 61.6483 66.8854 61.8631 65.5617C62.0758 64.2491 62.4419 58.3307 62.6304 55.1324C62.692 54.0645 62.735 53.3008 62.7462 53.1123L58.3512 53.1702C58.3381 53.398 58.3175 53.7489 58.2932 54.1933C58.1512 56.7511 57.8768 62.384 58.0261 65.3656Z" fill="#FF4059"/>
<path d="M58.2931 54.1933C59.1201 54.4193 60.7613 54.8338 62.6303 55.1324C62.6919 54.0645 62.7348 53.3008 62.7461 53.1123L58.351 53.1702C58.338 53.3978 58.3174 53.7489 58.2931 54.1933Z" fill="#E71C4A"/>
<path d="M61.1271 73.6059C61.1167 74.0924 61.0961 74.4702 61.0706 74.7629C61.1852 74.704 61.2904 74.6292 61.3835 74.5406C61.4013 74.2809 61.4145 73.9744 61.4224 73.6124C61.448 72.4012 61.4082 70.8988 61.3698 69.4458C61.323 67.6867 61.2793 66.0243 61.3723 65.3357C61.5844 63.7659 62.0566 55.2933 62.1796 53.0417L61.885 53.0283C61.7614 55.2815 61.2908 63.7367 61.0796 65.2962C60.9831 66.0085 61.028 67.6821 61.0747 69.4535C61.1128 70.9032 61.1526 72.4017 61.1271 73.6059Z" fill="#E71C4A"/>
<path d="M59.8939 75.951C59.8939 75.951 59.2786 75.7867 59.1084 75.7901C58.9382 75.7934 57.7986 77.0679 57.4147 77.143C56.7188 77.2792 56.7179 78.3659 57.1414 78.4197C58.3663 78.5758 60.4616 78.0584 60.4616 78.0584C60.4616 78.0584 60.6547 76.6641 60.5709 76.2266C60.4871 75.7889 60.236 76.0796 59.8939 75.951Z" fill="#0172D0"/>
<path d="M58.8795 77.141C58.9013 77.1458 58.925 77.1421 58.9451 77.1287C58.984 77.1025 58.9944 77.0499 58.9682 77.011C58.9594 76.9979 58.7513 76.6912 58.4937 76.5843C58.151 76.4418 57.9072 76.6475 57.897 76.6565C57.8617 76.6871 57.8576 76.7406 57.8884 76.7762C57.919 76.8115 57.9725 76.8156 58.0081 76.7848C58.0148 76.7792 58.1848 76.6401 58.4289 76.741C58.6387 76.8281 58.8256 77.1027 58.8274 77.1055C58.84 77.1245 58.8589 77.1366 58.8795 77.141Z" fill="white"/>
<path d="M59.1147 76.8834C59.1365 76.8881 59.1603 76.8844 59.1803 76.8709C59.2192 76.8447 59.2296 76.792 59.2036 76.7531C59.1948 76.7401 58.9867 76.4334 58.7292 76.3265C58.3864 76.184 58.1428 76.3897 58.1326 76.3987C58.097 76.4293 58.0932 76.4828 58.1238 76.5184C58.1544 76.5537 58.2079 76.5578 58.2435 76.527C58.2502 76.5215 58.4204 76.3821 58.6641 76.4833C58.8748 76.5708 59.0608 76.845 59.0626 76.8478C59.0752 76.8667 59.0941 76.8788 59.1147 76.8834Z" fill="white"/>
<path d="M58.5519 77.3598C58.5737 77.3645 58.5975 77.3608 58.6176 77.3474C58.6565 77.3212 58.6668 77.2686 58.6406 77.2297C58.6318 77.2167 58.4238 76.9099 58.1663 76.8031C57.8235 76.6605 57.5799 76.8663 57.5697 76.8752C57.5343 76.9059 57.5302 76.9595 57.5609 76.9949C57.5915 77.0303 57.645 77.0343 57.6805 77.0035C57.6872 76.9981 57.8574 76.8589 58.1014 76.9599C58.312 77.0474 58.4981 77.3216 58.4998 77.3244C58.5123 77.3431 58.5313 77.3552 58.5519 77.3598Z" fill="white"/>
<path d="M69.2473 53.5537C65.2863 54.5567 61.3219 54.5534 57.3524 53.5537C57.3404 52.4194 57.3557 48.6135 57.4377 44.6866C57.4428 44.4802 57.4462 44.2721 57.4514 44.0639C57.4532 43.965 57.4565 43.8643 57.4583 43.7654C57.4601 43.6614 57.4616 43.5572 57.4652 43.4532C57.4669 43.3492 57.4703 43.2452 57.472 43.1427C57.4754 43.0387 57.4771 42.9347 57.4805 42.8305C57.4822 42.7299 57.4856 42.6309 57.4873 42.532C57.4891 42.428 57.4925 42.3238 57.496 42.2216C57.4993 42.1175 57.5028 42.0135 57.5062 41.9093C57.5095 41.8053 57.5113 41.7013 57.5164 41.5989C57.5181 41.4982 57.5215 41.3993 57.525 41.3004C57.5301 41.0906 57.537 40.8824 57.5454 40.6777C57.6581 37.4331 57.8286 34.7754 58.0828 34.4256C58.6731 33.6153 61.3648 32.4161 62.1904 31.8362V31.9659C62.1904 31.9659 62.7073 32.65 63.289 32.5988C63.8179 32.5544 64.2222 31.9419 64.2903 31.8311C64.7014 32.1211 65.6499 32.5884 66.5693 33.0882C67.4887 33.5863 68.3793 34.1134 68.6744 34.5195C68.9268 34.8692 69.0754 37.4791 69.1605 40.6777V40.6879C69.1623 40.7476 69.1639 40.8072 69.1656 40.8671V40.8757C69.1656 40.9218 69.1674 40.9677 69.169 41.0156C69.1707 41.1094 69.1741 41.205 69.1759 41.3006C69.1776 41.3995 69.181 41.4984 69.1827 41.5991C69.1845 41.7013 69.1861 41.8055 69.1896 41.9095C69.1913 42.0135 69.1929 42.1177 69.1964 42.2217C69.1982 42.324 69.1998 42.4282 69.2016 42.5322C69.2033 42.6311 69.2049 42.73 69.2067 42.8307C69.2084 42.9347 69.21 43.0387 69.2118 43.1429C69.2135 43.2454 69.2151 43.3494 69.2169 43.4534C69.2186 43.5574 69.2202 43.6614 69.222 43.7656C69.2237 43.8645 69.2253 43.9634 69.2253 44.0641C69.2287 44.2723 69.2322 44.4786 69.2338 44.6868C69.2797 48.6016 69.2626 52.409 69.2473 53.5537Z" fill="#0172D0"/>
<path d="M69.196 42.2213H57.4955C57.4988 42.1173 57.5023 42.0133 57.5057 41.9091C57.509 41.8051 57.5108 41.7011 57.5159 41.5986H69.1822C69.184 41.7009 69.1856 41.8051 69.1891 41.9091C69.1909 42.0133 69.1926 42.1173 69.196 42.2213Z" fill="#004FC5"/>
<path d="M69.2156 43.4537H57.4639C57.4656 43.3497 57.469 43.2457 57.4707 43.1433C57.4741 43.0393 57.4758 42.9352 57.4792 42.8311H69.2052C69.2069 42.9351 69.2085 43.0391 69.2103 43.1433C69.212 43.2455 69.2138 43.3497 69.2156 43.4537Z" fill="#004FC5"/>
<path d="M69.2333 44.6862H57.4373C57.4424 44.4797 57.4457 44.2717 57.451 44.0635H69.2249C69.2282 44.2715 69.2315 44.478 69.2333 44.6862Z" fill="#004FC5"/>
<path d="M67.9652 39.0203C68.3061 39.4811 68.8038 40.5251 69.0271 41.0076C69.0576 41.0737 69.0829 41.1295 69.1021 41.1716C69.1275 41.227 69.1414 41.2591 69.1426 41.2613C69.1498 41.2779 69.1611 41.2911 69.1752 41.3002C69.1732 41.2048 69.1708 41.1098 69.1683 41.0151C69.1674 40.9681 69.1658 40.9213 69.1646 40.8752V40.8676C69.1188 40.7694 69.0648 40.6538 69.0043 40.5271C68.7505 39.9973 68.3879 39.2831 68.1132 38.9112C68.0831 38.8704 68.0254 38.8619 67.9845 38.892C67.9435 38.922 67.9356 38.9797 67.9652 39.0203Z" fill="#004FC5"/>
<path d="M60.3644 35.4459C60.3655 35.4459 60.3664 35.4459 60.3674 35.4459C61.9449 35.3958 63.1618 34.7395 63.905 34.1979C64.7101 33.6111 65.137 33.0437 65.1546 33.0199C65.1849 32.9793 65.1764 32.9217 65.1358 32.8913C65.095 32.8608 65.0374 32.8695 65.0071 32.9101C64.9902 32.9326 63.2883 35.1691 60.3614 35.2624C60.3106 35.2639 60.2708 35.3064 60.2724 35.3572C60.2741 35.4067 60.315 35.4459 60.3644 35.4459Z" fill="#004FC5"/>
<path d="M65.6784 50.4671C65.7264 50.4671 65.7669 50.4298 65.7701 50.3812C65.7734 50.3305 65.735 50.2867 65.6843 50.2833C63.0964 50.1137 61.5528 48.8023 60.7134 47.732C59.8008 46.5685 59.4981 45.4289 59.4951 45.4175C59.4823 45.3684 59.4323 45.3388 59.383 45.3516C59.3339 45.3643 59.3043 45.4145 59.317 45.4636C59.3293 45.5113 59.6301 46.6461 60.5638 47.8396C61.4264 48.9419 63.0128 50.2927 65.672 50.4669C65.6743 50.4669 65.6763 50.4671 65.6784 50.4671Z" fill="#004FC5"/>
<path d="M64.2886 48.8226C64.329 48.8226 64.3662 48.7955 64.3773 48.7545C64.3905 48.7055 64.3614 48.655 64.3125 48.6418C62.0636 48.0339 61.6297 46.1557 61.6255 46.1368C61.6148 46.0874 61.5655 46.0557 61.5162 46.0666C61.4668 46.0773 61.4351 46.1263 61.4458 46.1757C61.4502 46.1963 61.5592 46.6863 61.9617 47.2597C62.3322 47.7874 63.0325 48.4863 64.2645 48.8194C64.2725 48.8215 64.2806 48.8226 64.2886 48.8226Z" fill="#004FC5"/>
<path d="M54.4402 53.3911C54.4969 54.196 54.9798 54.7937 54.9823 55.3234C54.9847 55.8537 55.5967 55.507 55.3133 54.4602C55.0305 53.4138 55.4501 52.401 55.6745 52.4103C55.8989 52.4201 55.6032 53.59 55.8389 53.9786C56.0745 54.3667 56.2526 53.5511 56.4593 53.0463C56.6738 52.5224 56.5538 51.4358 56.3595 50.6703C56.1652 49.9054 57.1191 45.0515 56.9941 43.6838L57.3386 41.9094L57.5397 40.8744L57.5774 39.7939L55.7387 39.0654C55.6694 39.4123 55.5984 39.7719 55.5282 40.1334C55.4972 40.2929 55.4668 40.4527 55.4367 40.6121C55.1908 41.9059 54.97 43.1796 54.8798 43.9966C54.6315 46.2566 55.0393 50.8659 55.0393 50.8659C55.0393 50.8659 54.3872 52.6366 54.4402 53.3911Z" fill="#FFAA95"/>
<path d="M55.4366 40.6121C55.8513 41.0859 56.5139 41.6889 57.3385 41.9094L57.5397 40.8744L57.5773 39.7939L55.7387 39.0654C55.6693 39.4123 55.5984 39.7719 55.5282 40.1334C55.4972 40.2929 55.4667 40.4527 55.4366 40.6121Z" fill="#FF8B6B"/>
<path d="M54.9261 39.5882C54.9261 39.5882 55.1454 39.8483 55.5284 40.1338C55.9918 40.4814 56.6957 40.8676 57.5378 40.8748C57.6394 37.8803 57.7893 35.3501 58.0072 34.6074C57.6189 35.0865 55.7558 37.4445 54.9261 39.5882Z" fill="#0172D0"/>
<path d="M58.7995 38.7207C58.4589 39.1813 57.961 40.2253 57.7377 40.7079C57.7074 40.7741 57.6821 40.8297 57.6627 40.872C57.6374 40.9271 57.6233 40.9593 57.6222 40.9616C57.6071 40.9961 57.5735 41.0163 57.5381 41.0163H57.5363C57.5372 40.9695 57.5386 40.9225 57.54 40.876C57.5129 40.876 57.4858 40.876 57.4596 40.8751C57.4721 40.848 57.5018 40.7819 57.5446 40.6886C57.5985 40.5714 57.6729 40.4105 57.7606 40.2275C58.0143 39.6973 58.3771 38.9831 58.6515 38.6116C58.6817 38.5708 58.7393 38.562 58.7801 38.5922C58.8211 38.6223 58.8294 38.6802 58.7995 38.7207Z" fill="#004FC5"/>
<path d="M70.0758 40.4882H78.0623C78.2872 40.4882 78.4696 40.3059 78.4696 40.081V39.8358C78.4696 39.6109 78.2872 39.4287 78.0623 39.4287H70.0758C69.8509 39.4287 69.6687 39.611 69.6687 39.8358V40.081C69.6687 40.3059 69.851 40.4882 70.0758 40.4882Z" fill="#1D1A5E"/>
<path d="M78.4674 40.4881L80.1216 34.2929C80.2145 33.945 79.9523 33.6035 79.5922 33.6035H75.9522C75.7066 33.6035 75.4909 33.7668 75.4245 34.0034L73.6029 40.4881H78.4674Z" fill="#223B77"/>
<path d="M75.4247 34.0036L73.6183 40.435H73.2024L75.0089 34.0036C75.0757 33.767 75.291 33.6035 75.5367 33.6035H75.9526C75.7069 33.6035 75.4916 33.767 75.4247 34.0036Z" fill="#1D1A5E"/>
<path d="M76.3607 37.3239C76.2661 37.7326 76.5206 38.0638 76.9293 38.0638C77.338 38.0638 77.7458 37.7326 77.8405 37.3239C77.935 36.9152 77.6805 36.584 77.2718 36.584C76.8631 36.5842 76.4552 36.9154 76.3607 37.3239Z" fill="#223B77"/>
<path d="M60.6884 27.5561C60.6884 27.5561 60.4434 27.6742 60.3864 27.1979C60.3292 26.7217 60.5235 26.6418 60.3864 26.4132C60.2493 26.1845 60.1578 25.8875 60.3864 25.6819C60.6149 25.4761 60.1555 24.9448 60.4207 24.682C60.6858 24.4193 61.1147 24.3635 61.286 24.0664C61.4574 23.7693 61.7284 23.2008 62.5389 23.2121C63.3494 23.2235 63.6088 23.8763 64.0374 23.7049C64.4659 23.5335 64.7808 23.4419 65.278 23.7964C65.775 24.1509 65.2488 24.6306 65.7117 24.8705C66.1745 25.1106 65.8062 25.8075 66.334 26.219C66.7319 26.5291 66.3173 27.739 65.5117 27.5561C64.706 27.3732 60.6884 27.5561 60.6884 27.5561Z" fill="#1D1A5E"/>
<path d="M60.8895 27.7515C60.8895 27.7515 60.4439 27.1573 60.1125 27.6487C59.781 28.1401 60.2496 29.5914 61.0609 29.2371L60.8895 27.7515Z" fill="#FF8B6B"/>
<path d="M60.8835 28.7888C60.8536 28.7888 60.826 28.7689 60.8175 28.7387C60.6917 28.2906 60.2276 28.1089 60.2228 28.1072C60.1874 28.0936 60.1697 28.0542 60.183 28.0188C60.1964 27.9835 60.236 27.9657 60.2714 27.9791C60.293 27.9873 60.8047 28.1859 60.9495 28.7017C60.9597 28.7381 60.9384 28.776 60.902 28.7862C60.8958 28.788 60.8897 28.7888 60.8835 28.7888Z" fill="#D85C48"/>
<path d="M60.4148 28.5623C60.4021 28.5623 60.3893 28.5588 60.3777 28.5514C60.3458 28.5308 60.3366 28.4884 60.3571 28.4567C60.3604 28.4514 60.4426 28.3261 60.6144 28.2492C60.6487 28.2337 60.6895 28.2492 60.7048 28.2837C60.7203 28.3182 60.7048 28.3588 60.6702 28.3743C60.5373 28.4338 60.4727 28.5299 60.4722 28.5308C60.4593 28.5512 60.4371 28.5623 60.4148 28.5623Z" fill="#D85C48"/>
<path d="M65.4822 27.7515C65.4822 27.7515 65.9278 27.1573 66.2593 27.6487C66.5907 28.1401 66.1222 29.5914 65.3108 29.2371L65.4822 27.7515Z" fill="#FF8B6B"/>
<path d="M65.4876 28.7888C65.5175 28.7888 65.5452 28.7689 65.5536 28.7387C65.6793 28.2906 66.1436 28.1089 66.1483 28.1072C66.1837 28.0936 66.2015 28.0542 66.1881 28.0188C66.1747 27.9835 66.1351 27.9657 66.0998 27.9791C66.0781 27.9873 65.5665 28.1859 65.4216 28.7017C65.4114 28.7381 65.4327 28.776 65.4691 28.7862C65.4753 28.788 65.4815 28.7888 65.4876 28.7888Z" fill="#D85C48"/>
<path d="M65.9566 28.5642C65.9693 28.5642 65.9821 28.5607 65.9937 28.5533C66.0256 28.5327 66.0347 28.4903 66.0143 28.4586C66.011 28.4534 65.9288 28.328 65.757 28.2511C65.7227 28.2356 65.6818 28.2511 65.6665 28.2856C65.651 28.3201 65.6665 28.3608 65.701 28.3763C65.8339 28.4358 65.8985 28.5318 65.899 28.5327C65.9121 28.5531 65.9341 28.5642 65.9566 28.5642Z" fill="#D85C48"/>
<path d="M64.2823 30.4668V31.9102C64.2823 31.9102 63.8518 32.6451 63.2697 32.6953C62.6882 32.746 62.1715 32.0624 62.1715 32.0624V30.5683L64.2823 30.4668Z" fill="#FFAA95"/>
<path d="M64.2823 30.4668V31.1073C63.8917 31.5407 63.1979 31.649 62.1715 31.4975V30.5683L64.2823 30.4668Z" fill="#FF8B6B"/>
<path d="M65.8047 26.7598C65.7779 27.3207 65.7244 28.022 65.6174 28.5829C65.5907 28.7229 65.5606 28.8545 65.527 28.9724C65.2232 30.0358 64.4636 31.8597 62.3366 31.1001C61.3973 30.7648 60.9619 29.7185 60.7677 28.6544C60.6361 27.9317 60.6162 27.2015 60.6259 26.6797C60.6363 26.1469 60.9268 25.6601 61.3904 25.3975C62.6458 24.6858 63.9706 24.9512 64.8427 25.2865C65.4481 25.5188 65.8355 26.1131 65.8047 26.7598Z" fill="#FFAA95"/>
<path d="M62.0662 28.2181C62.1642 28.2181 62.2436 28.0932 62.2436 27.9391C62.2436 27.785 62.1642 27.6602 62.0662 27.6602C61.9682 27.6602 61.8888 27.785 61.8888 27.9391C61.8888 28.0932 61.9682 28.2181 62.0662 28.2181Z" fill="#1D1A5E"/>
<path d="M64.374 27.9391C64.374 28.0931 64.2946 28.2181 64.1966 28.2181C64.0987 28.2181 64.0192 28.0931 64.0192 27.9391C64.0192 27.7851 64.0985 27.6602 64.1966 27.6602C64.2944 27.6602 64.374 27.7851 64.374 27.9391Z" fill="#1D1A5E"/>
<path d="M64.9141 27.0195C64.9141 27.0195 64.1812 26.7298 63.6169 26.9736L63.6734 27.2874C63.6734 27.2874 64.5015 27.2173 64.919 27.3865C64.9561 27.2655 64.9618 27.1436 64.9141 27.0195Z" fill="#1D1A5E"/>
<path d="M61.43 27.0206C61.43 27.0206 62.1683 26.7287 62.7368 26.9743L62.6799 27.2904C62.6799 27.2904 61.8457 27.2198 61.4252 27.3902C61.3875 27.2685 61.3821 27.1455 61.43 27.0206Z" fill="#1D1A5E"/>
<path d="M63.2094 29.108C63.325 29.108 63.4398 29.0629 63.4576 29.0557C63.4926 29.0414 63.5093 29.0013 63.495 28.9663C63.4808 28.9313 63.4407 28.9144 63.4056 28.9286C63.3437 28.9538 63.195 28.9932 63.1306 28.9547C63.1181 28.9473 63.1012 28.9325 63.0968 28.8908C63.0719 28.6512 63.1376 27.8487 63.1383 27.8408C63.1415 27.8031 63.1133 27.7698 63.0756 27.7668C63.0378 27.7637 63.0047 27.7918 63.0017 27.8295C62.9989 27.8629 62.9345 28.653 62.9605 28.905C62.9704 28.9999 63.0202 29.0485 63.0603 29.0724C63.1041 29.0986 63.157 29.108 63.2094 29.108Z" fill="#FF8B6B"/>
<path d="M62.2738 29.4561C62.3298 29.738 62.516 30.2567 63.1436 30.2567C63.7726 30.2567 63.949 29.7827 64.0095 29.4561H62.2738Z" fill="#F6F6F6"/>
<path d="M63.1359 30.6811C63.3133 30.6811 63.4638 30.5911 63.4701 30.5873C63.5025 30.5677 63.5129 30.5255 63.4932 30.4931C63.4737 30.4607 63.4314 30.4503 63.399 30.4699C63.398 30.4706 63.2741 30.5438 63.1357 30.5438C63.0088 30.5438 62.8874 30.4709 62.8862 30.4702C62.854 30.4503 62.8117 30.4602 62.7918 30.4926C62.7719 30.5248 62.782 30.567 62.8142 30.5869C62.8205 30.591 62.9684 30.6811 63.1359 30.6811Z" fill="#FF8B6B"/>
<path d="M65.8044 26.7599C65.7776 27.3208 65.7241 28.0222 65.6171 28.5831L65.3107 28.5615C65.3107 28.5615 65.385 28.0879 65.4193 27.7793C65.4536 27.4708 65.5119 26.894 65.2486 26.8221C64.986 26.7508 65.1402 26.0929 64.7746 25.8076C64.4092 25.5218 63.5973 25.2701 63.0584 25.6019C62.5195 25.9331 61.9065 25.75 61.6584 25.8076C61.4095 25.8644 61.0721 26.2073 61.1633 26.5274C61.2551 26.8471 60.9809 27.0417 60.9144 27.3729C60.8479 27.7042 61.0605 28.5954 61.0605 28.5954L60.7676 28.6544C60.636 27.9317 60.6161 27.2015 60.6258 26.6797C60.6361 26.1469 60.9267 25.6601 61.3903 25.3975C62.6457 24.6858 63.9705 24.9512 64.8425 25.2865C65.4478 25.519 65.8352 26.1133 65.8044 26.7599Z" fill="#1D1A5E"/>
<path d="M63.3789 27.7399V27.8526C63.3789 28.0796 63.4674 28.2927 63.6285 28.4525C63.7871 28.6102 63.9968 28.6968 64.2198 28.6968H64.2473C64.4407 28.6928 64.6165 28.6148 64.7705 28.4652C64.9251 28.3144 65.0136 28.0988 65.0136 27.873V27.7397C65.0136 27.7028 65.0066 27.6676 64.9939 27.6348C64.9791 27.5951 64.9562 27.5599 64.9267 27.5303C64.873 27.4766 64.7992 27.4434 64.7172 27.4434H63.6749C63.5568 27.4434 63.4553 27.5122 63.4078 27.6121C63.3902 27.6486 63.38 27.6892 63.3791 27.7318C63.3789 27.7345 63.3789 27.7375 63.3789 27.7399ZM63.5018 27.7399C63.5018 27.644 63.5797 27.5666 63.6751 27.5666H64.7174C64.8133 27.5666 64.8908 27.644 64.8908 27.7399V27.8732C64.8908 28.0659 64.8158 28.2498 64.6847 28.3772C64.5539 28.5043 64.406 28.5703 64.245 28.574H64.22C64.0299 28.574 63.8508 28.5002 63.7151 28.3654C63.5778 28.229 63.5019 28.047 63.5019 27.8527L63.5018 27.7399Z" fill="#0172D0"/>
<path d="M61.1696 27.7399V27.8526C61.1696 28.0796 61.2584 28.2927 61.4191 28.4525C61.5777 28.6102 61.7875 28.6968 62.0105 28.6968H62.0383C62.2314 28.6928 62.4075 28.6148 62.5612 28.4652C62.7157 28.3144 62.8046 28.0988 62.8046 27.873V27.7397C62.8046 27.7376 62.8046 27.736 62.8042 27.7339C62.8039 27.6938 62.7947 27.6553 62.7793 27.6204C62.7333 27.5159 62.6293 27.4434 62.5084 27.4434H61.4658C61.3744 27.4434 61.2924 27.4852 61.2378 27.5504C61.2116 27.5824 61.1916 27.6195 61.1808 27.6602C61.1733 27.6857 61.1696 27.7125 61.1696 27.7399ZM61.2926 27.7399C61.2926 27.644 61.3704 27.5666 61.4659 27.5666H62.5086C62.6041 27.5666 62.6819 27.644 62.6819 27.7399V27.8732C62.6819 28.0659 62.6066 28.2498 62.4758 28.3772C62.3451 28.5043 62.1972 28.5703 62.036 28.574H62.0107C61.8206 28.574 61.6414 28.5002 61.5062 28.3654C61.3684 28.229 61.2928 28.047 61.2928 27.8527V27.7399H61.2926Z" fill="#0172D0"/>
<path d="M64.8802 27.5554L64.9445 27.6599C64.9454 27.6596 64.9626 27.6492 64.9945 27.6346C65.0999 27.5855 65.3665 27.4853 65.7309 27.5244C65.8074 27.4776 65.8956 27.4454 65.9857 27.4547L65.9882 27.4457C65.4496 27.3097 65.0578 27.4651 64.9272 27.5302C64.8994 27.5436 64.8834 27.5535 64.8802 27.5554Z" fill="#0172D0"/>
<path d="M63.4205 27.7435L63.4608 27.6274C63.4536 27.6249 63.2809 27.5654 63.0914 27.5654C62.8895 27.5654 62.7596 27.6274 62.7542 27.63L62.8078 27.7405C62.8087 27.7402 62.9196 27.6883 63.0914 27.6883C63.2594 27.6885 63.4187 27.743 63.4205 27.7435Z" fill="#0172D0"/>
<path d="M60.4415 27.4474L60.4431 27.4532C60.5246 27.4597 60.6026 27.4967 60.6698 27.5421C60.9493 27.5449 61.2284 27.6802 61.2321 27.6818L61.2861 27.5716C61.2673 27.5621 60.8132 27.3421 60.4415 27.4474Z" fill="#0172D0"/>
<path d="M18.9421 36.4887L17.271 42.1361L17.2396 42.2417C17.2396 42.2677 17.2388 42.2948 17.2377 42.3238C17.1798 43.7255 15.8911 48.0673 16.0027 48.7938C16.1166 49.5358 16.131 50.5746 15.8809 51.0508C15.6394 51.5093 15.3967 52.2652 15.209 51.8762C15.0213 51.4868 15.4075 50.4074 15.1963 50.378C14.9847 50.348 14.4954 51.2683 14.6683 52.2844C14.8406 53.3004 14.2299 53.5725 14.276 53.0711C14.3217 52.5692 13.9192 51.9593 13.9389 51.1932C13.9576 50.4741 14.7355 48.8586 14.7355 48.8586C14.7355 48.8586 14.7697 44.4607 15.2104 42.3451C15.6516 40.2296 17.1706 34.2535 17.1706 34.2535C18.1191 34.0476 18.9421 36.4887 18.9421 36.4887Z" fill="#FFAA95"/>
<path d="M17.2434 41.8781L17.2131 41.9802C17.2131 42.0055 17.2122 42.0316 17.2113 42.0596C16.9039 41.954 16.6085 41.8646 16.3908 41.8234C16.3421 41.8144 16.3091 41.7669 16.3187 41.7178C16.3276 41.6676 16.3751 41.6352 16.4243 41.6454C16.6455 41.6875 16.9385 41.7743 17.2434 41.8781Z" fill="#FF8B6B"/>
<path d="M22.666 57.1123C22.6706 58.4274 22.6892 59.6155 22.72 60.6971C22.9559 68.9557 23.8734 71.6497 24.2965 76.15C24.774 76.36 25.2242 76.3973 25.6295 76.15L25.8611 61.3338L25.9269 57.1123H22.666Z" fill="#FFAA95"/>
<path d="M22.666 57.1123C22.6706 58.4274 22.6892 59.6155 22.72 60.6971C23.0627 60.5707 23.451 60.4992 23.977 60.6884C24.857 61.0052 25.0902 61.3312 25.8613 61.334L25.9271 57.1125L22.666 57.1123Z" fill="#FF8B6B"/>
<path d="M25.3667 76.1247C25.3667 76.1247 25.6467 75.7308 25.8762 75.7424C26.1057 75.7541 27.9041 77.1203 28.5123 77.2231C29.1204 77.3259 29.0127 77.7744 28.9068 78.0046C28.8008 78.235 24.0743 78.025 24.0743 78.025C24.0743 78.025 23.9138 76.623 24.0585 76.1898C24.2032 75.7567 24.8954 76.2368 25.3667 76.1247Z" fill="#FF4059"/>
<path d="M26.3656 77.0835C26.3444 77.0904 26.3204 77.089 26.2991 77.0774C26.2579 77.055 26.2426 77.0036 26.2648 76.9625C26.2722 76.9487 26.4501 76.6235 26.6964 76.4925C27.0237 76.318 27.2861 76.4996 27.2972 76.5073C27.3354 76.5344 27.3444 76.5874 27.3173 76.6256C27.2904 76.6638 27.2372 76.6728 27.199 76.6457C27.1918 76.6407 27.0093 76.5184 26.7761 76.6423C26.5754 76.749 26.4158 77.0403 26.4142 77.0432C26.4033 77.0633 26.3855 77.077 26.3656 77.0835Z" fill="white"/>
<path d="M26.107 76.8502C26.0857 76.8571 26.0617 76.8556 26.0405 76.844C25.9993 76.8217 25.984 76.7703 26.0061 76.7291C26.0137 76.7154 26.1915 76.3901 26.4377 76.2592C26.7654 76.0846 27.0275 76.266 27.0385 76.274C27.0767 76.3011 27.0857 76.354 27.0586 76.3922C27.0315 76.4304 26.9785 76.4396 26.9403 76.4123C26.9331 76.4074 26.7506 76.2851 26.5174 76.409C26.3161 76.5161 26.1571 76.8069 26.1556 76.8099C26.1448 76.8298 26.127 76.8437 26.107 76.8502Z" fill="white"/>
<path d="M26.712 77.2692C26.6907 77.2761 26.6668 77.2747 26.6455 77.2632C26.6043 77.2409 26.5888 77.1895 26.6112 77.1481C26.6186 77.1344 26.7965 76.8091 27.0427 76.6782C27.3705 76.5034 27.6325 76.6851 27.6436 76.693C27.6818 76.7201 27.6908 76.7731 27.6637 76.8113C27.6366 76.8495 27.5836 76.8586 27.5454 76.8313C27.5382 76.8264 27.3555 76.7041 27.1225 76.828C26.921 76.9352 26.7622 77.2259 26.7606 77.2289C26.7499 77.2488 26.7321 77.2627 26.712 77.2692Z" fill="white"/>
<path d="M18.0221 57.1123L18.0761 60.5624L18.3192 76.1217L19.501 76.184C19.9215 71.7083 20.9872 69.2362 21.229 61.0894C21.2644 59.9024 21.2853 58.5856 21.2881 57.1123H18.0221Z" fill="#FFAA95"/>
<path d="M18.0221 57.1125L18.0761 60.5626C18.4471 60.5422 18.9253 60.5726 19.4245 60.7539C20.1235 61.0084 20.73 61.0985 21.2292 61.0894C21.2645 59.9024 21.2855 58.5856 21.2883 57.1123H18.0221V57.1125Z" fill="#FF8B6B"/>
<path d="M19.0511 76.0067C19.0511 76.0067 18.439 75.8309 18.2688 75.8311C18.0986 75.8312 16.9351 77.0838 16.55 77.1516C15.8516 77.2746 15.8302 78.3611 16.2526 78.423C17.4744 78.6022 19.5791 78.1243 19.5791 78.1243C19.5791 78.1243 19.7984 76.7339 19.7229 76.2948C19.6474 75.8559 19.391 76.1417 19.0511 76.0067Z" fill="#FF4059"/>
<path d="M18.0149 77.1771C18.0367 77.1824 18.0605 77.179 18.0807 77.166C18.1202 77.1406 18.1314 77.0882 18.1061 77.0488C18.0976 77.0356 17.8952 76.7249 17.6399 76.6133C17.3 76.4645 17.0524 76.6654 17.042 76.6742C17.0059 76.7042 17.001 76.7577 17.0311 76.7937C17.061 76.8298 17.1145 76.8348 17.1506 76.8047C17.1573 76.7992 17.3299 76.6633 17.5721 76.7689C17.7803 76.8599 17.9619 77.1382 17.9637 77.141C17.9757 77.1597 17.9945 77.1722 18.0149 77.1771Z" fill="white"/>
<path d="M18.2539 76.9244C18.2756 76.9297 18.2993 76.9263 18.3197 76.9131C18.3592 76.8878 18.3704 76.8352 18.3451 76.7959C18.3366 76.7827 18.1342 76.4721 17.8789 76.3605C17.5387 76.2114 17.2914 76.4126 17.281 76.4214C17.2449 76.4513 17.24 76.5048 17.2701 76.5409C17.3 76.577 17.3535 76.5819 17.3896 76.5518C17.3964 76.5464 17.5691 76.4105 17.8111 76.5161C18.0202 76.6074 18.2008 76.8852 18.2027 76.888C18.2148 76.907 18.2335 76.9195 18.2539 76.9244Z" fill="white"/>
<path d="M17.6832 77.3884C17.705 77.3937 17.7288 77.3904 17.749 77.3774C17.7884 77.3518 17.7997 77.2994 17.7743 77.26C17.7659 77.2468 17.5635 76.9361 17.3081 76.8244C16.9679 76.6753 16.7206 76.8765 16.7102 76.8853C16.6742 76.9152 16.6694 76.9687 16.6993 77.0048C16.7292 77.0408 16.7828 77.0458 16.8188 77.0157C16.8255 77.0102 16.9984 76.8743 17.2404 76.9799C17.4494 77.0713 17.6302 77.3492 17.632 77.3518C17.6441 77.371 17.6628 77.3835 17.6832 77.3884Z" fill="white"/>
<path d="M15.6699 59.2421C15.6699 59.2421 15.6863 59.2998 15.7336 59.384C15.9005 59.683 16.4528 60.3159 18.02 59.8903C18.0706 59.8768 18.1191 59.8644 18.1668 59.8539C18.4937 59.7798 18.7619 59.7712 19.0028 59.7976C19.9133 59.8972 20.442 60.494 22.3016 59.9558C23.978 59.4707 24.4125 59.8989 25.1922 60.1327C25.3459 60.1786 25.5127 60.2171 25.7049 60.2395C25.7971 60.2504 25.8895 60.2541 25.9818 60.2518C26.7123 60.2354 27.4146 59.8409 27.8359 59.5505C28.085 59.3781 28.2354 59.2423 28.2354 59.2423C28.1995 59.1036 28.1636 58.955 28.1272 58.7977C27.9868 58.1908 27.844 57.4548 27.7027 56.653C27.6599 56.412 27.6177 56.1647 27.5758 55.9129C27.4739 55.3029 27.3739 54.6687 27.2785 54.0337V54.0332C27.2776 54.0295 27.2771 54.0263 27.2768 54.0228C27.2368 53.76 27.1981 53.4973 27.1599 53.2365C27.1581 53.2241 27.1562 53.212 27.1544 53.1997C27.0327 52.3623 26.9195 51.5446 26.8204 50.8041C26.7827 50.5213 26.7468 50.2504 26.713 49.9936C26.5289 48.5827 26.4138 47.6094 26.4138 47.6094L21.9522 47.7776L17.5042 47.6094C17.5042 47.6094 17.4451 48.1013 17.3446 48.8931C17.3124 49.1413 17.2768 49.4195 17.2374 49.7208C17.1337 50.5141 17.0047 51.4701 16.86 52.4811C16.8218 52.7452 16.7831 53.0129 16.7437 53.2829C16.4646 55.1735 16.1423 57.1526 15.8332 58.5524C15.7785 58.8016 15.724 59.033 15.6699 59.2421Z" fill="#0172D0"/>
<path d="M25.3885 48.9446C25.3885 49.1761 25.5762 49.3639 25.8078 49.3639C26.0392 49.3639 26.227 49.1762 26.227 48.9446C26.227 48.713 26.0394 48.5254 25.8078 48.5254C25.5762 48.5254 25.3885 48.7132 25.3885 48.9446Z" fill="#004FC5"/>
<path d="M24.3479 50.5686C24.3479 50.8003 24.5355 50.9879 24.7671 50.9879C24.9987 50.9879 25.1864 50.8003 25.1864 50.5686C25.1864 50.3372 24.9987 50.1494 24.7671 50.1494C24.5357 50.1494 24.3479 50.3372 24.3479 50.5686Z" fill="#004FC5"/>
<path d="M22.721 50.149C22.9525 50.149 23.1402 49.9613 23.1402 49.7298C23.1402 49.4982 22.9525 49.3105 22.721 49.3105C22.4895 49.3105 22.3018 49.4982 22.3018 49.7298C22.3018 49.9613 22.4895 50.149 22.721 50.149Z" fill="#004FC5"/>
<path d="M25.5321 52.2923C25.5321 52.5237 25.7197 52.7115 25.9513 52.7115C26.183 52.7115 26.3706 52.5239 26.3706 52.2923C26.3706 52.0607 26.183 51.873 25.9513 51.873C25.7197 51.873 25.5321 52.0608 25.5321 52.2923Z" fill="#004FC5"/>
<path d="M22.9746 52.1136C22.9746 52.3452 23.1622 52.5328 23.3938 52.5328C23.6253 52.5328 23.8131 52.3452 23.8131 52.1136C23.8131 51.8821 23.6255 51.6943 23.3938 51.6943C23.1622 51.6943 22.9746 51.8819 22.9746 52.1136Z" fill="#004FC5"/>
<path d="M26.4404 50.3863C26.4404 50.6046 26.6067 50.7841 26.8204 50.8036C26.7827 50.5208 26.7468 50.2499 26.7131 49.9932C26.5536 50.0527 26.4404 50.2058 26.4404 50.3863Z" fill="#004FC5"/>
<path d="M19.2259 54.9967C19.4574 54.9967 19.6451 54.809 19.6451 54.5774C19.6451 54.3459 19.4574 54.1582 19.2259 54.1582C18.9943 54.1582 18.8066 54.3459 18.8066 54.5774C18.8066 54.809 18.9943 54.9967 19.2259 54.9967Z" fill="#004FC5"/>
<path d="M19.0043 52.2923C19.0043 52.5237 19.1919 52.7115 19.4235 52.7115C19.6549 52.7115 19.8427 52.5239 19.8427 52.2923C19.8427 52.0607 19.6551 51.873 19.4235 51.873C19.1921 51.873 19.0043 52.0608 19.0043 52.2923Z" fill="#004FC5"/>
<path d="M16.7441 53.2814C16.7947 53.3027 16.8504 53.3147 16.9087 53.3147C17.1401 53.3147 17.3278 53.1269 17.3278 52.8956C17.3278 52.6642 17.14 52.4766 16.9087 52.4766C16.8923 52.4766 16.8765 52.4774 16.8605 52.4797C16.8223 52.7437 16.7836 53.0114 16.7441 53.2814Z" fill="#004FC5"/>
<path d="M18.5858 56.2513C18.5858 56.4827 18.7734 56.6705 19.005 56.6705C19.2367 56.6705 19.4243 56.4829 19.4243 56.2513C19.4243 56.0197 19.2367 55.832 19.005 55.832C18.7736 55.832 18.5858 56.0197 18.5858 56.2513Z" fill="#004FC5"/>
<path d="M16.7931 55.5823C16.7931 55.8138 16.9807 56.0016 17.2123 56.0016C17.4438 56.0016 17.6316 55.8139 17.6316 55.5823C17.6316 55.3507 17.4439 55.1631 17.2123 55.1631C16.9807 55.1631 16.7931 55.3507 16.7931 55.5823Z" fill="#004FC5"/>
<path d="M20.4497 57.1126C20.4497 57.344 20.6373 57.5318 20.8689 57.5318C21.1006 57.5318 21.2882 57.3442 21.2882 57.1126C21.2882 56.881 21.1006 56.6934 20.8689 56.6934C20.6373 56.6934 20.4497 56.8812 20.4497 57.1126Z" fill="#004FC5"/>
<path d="M20.9474 58.9681C20.9474 59.1995 21.135 59.3873 21.3666 59.3873C21.5982 59.3873 21.7859 59.1997 21.7859 58.9681C21.7859 58.7364 21.5982 58.5488 21.3666 58.5488C21.1352 58.5488 20.9474 58.7366 20.9474 58.9681Z" fill="#004FC5"/>
<path d="M25.1866 60.0665C25.1866 60.0892 25.1884 60.1116 25.1921 60.1329C25.3458 60.1788 25.5126 60.2174 25.7048 60.2397C25.797 60.2506 25.8894 60.2543 25.9816 60.252C26.0098 60.1961 26.0253 60.1329 26.0253 60.0665C26.0253 59.8347 25.8375 59.6475 25.6062 59.6475C25.3744 59.6475 25.1866 59.8347 25.1866 60.0665Z" fill="#004FC5"/>
<path d="M18.1664 59.8331C18.1664 59.84 18.1664 59.8467 18.1669 59.8535C18.4937 59.7794 18.762 59.7708 19.0029 59.7972C18.9851 59.5821 18.8051 59.4141 18.5856 59.4141C18.3542 59.4141 18.1664 59.6013 18.1664 59.8331Z" fill="#004FC5"/>
<path d="M16.7124 57.7376C16.7124 57.9692 16.9 58.1568 17.1316 58.1568C17.3632 58.1568 17.5509 57.9692 17.5509 57.7376C17.5509 57.506 17.3632 57.3184 17.1316 57.3184C16.9 57.3184 16.7124 57.5061 16.7124 57.7376Z" fill="#004FC5"/>
<path d="M15.6699 59.2427C15.6699 59.2427 15.6863 59.3004 15.7336 59.3845C15.7537 59.3877 15.7741 59.3891 15.7951 59.3891C16.0265 59.3891 16.2141 59.2013 16.2141 58.97C16.2141 58.7518 16.0467 58.5723 15.8336 58.5527C15.7785 58.8021 15.724 59.0336 15.6699 59.2427Z" fill="#004FC5"/>
<path d="M25.808 54.9417C25.808 55.1731 25.9956 55.3609 26.2272 55.3609C26.4588 55.3609 26.6464 55.1733 26.6464 54.9417C26.6464 54.7101 26.4588 54.5225 26.2272 54.5225C25.9956 54.5225 25.808 54.7103 25.808 54.9417Z" fill="#004FC5"/>
<path d="M26.9139 53.6161C26.9139 53.8289 27.0725 54.0047 27.2784 54.0311C27.2776 54.0274 27.277 54.0243 27.2767 54.0207C27.2367 53.758 27.198 53.4952 27.1598 53.2344C27.015 53.3007 26.9139 53.4466 26.9139 53.6161Z" fill="#004FC5"/>
<path d="M27.4047 56.2504C27.4047 56.4399 27.5305 56.5999 27.7033 56.6522C27.6606 56.4112 27.6183 56.164 27.5764 55.9121C27.4724 55.9885 27.4047 56.1117 27.4047 56.2504Z" fill="#004FC5"/>
<path d="M24.7681 56.428C24.7681 56.6595 24.9557 56.8473 25.1873 56.8473C25.4189 56.8473 25.6065 56.6596 25.6065 56.428C25.6065 56.1964 25.4189 56.0088 25.1873 56.0088C24.9559 56.0088 24.7681 56.1966 24.7681 56.428Z" fill="#004FC5"/>
<path d="M22.5552 56.0999C22.5552 56.3315 22.7428 56.5191 22.9744 56.5191C23.2058 56.5191 23.3936 56.3315 23.3936 56.0999C23.3936 55.8683 23.2058 55.6807 22.9744 55.6807C22.7428 55.6807 22.5552 55.8683 22.5552 56.0999Z" fill="#004FC5"/>
<path d="M24.1339 54.0394C24.1339 54.271 24.3217 54.4586 24.5531 54.4586C24.7848 54.4586 24.9724 54.271 24.9724 54.0394C24.9724 53.8079 24.7848 53.6201 24.5531 53.6201C24.3215 53.6201 24.1339 53.8077 24.1339 54.0394Z" fill="#004FC5"/>
<path d="M21.8823 53.6194C21.8823 53.851 22.0699 54.0387 22.3016 54.0387C22.533 54.0387 22.7208 53.851 22.7208 53.6194C22.7208 53.388 22.5332 53.2002 22.3016 53.2002C22.0699 53.2002 21.8823 53.3878 21.8823 53.6194Z" fill="#004FC5"/>
<path d="M20.8691 51.4075C20.8691 51.6391 21.0568 51.8267 21.2884 51.8267C21.52 51.8267 21.7076 51.6391 21.7076 51.4075C21.7076 51.1761 21.52 50.9883 21.2884 50.9883C21.0569 50.9883 20.8691 51.1759 20.8691 51.4075Z" fill="#004FC5"/>
<path d="M17.2374 49.7213C17.2665 49.7281 17.2966 49.7313 17.3274 49.7313C17.5592 49.7313 17.7464 49.5435 17.7464 49.3123C17.7464 49.0868 17.5683 48.9022 17.3446 48.8936C17.3124 49.1417 17.2769 49.4198 17.2374 49.7213Z" fill="#004FC5"/>
<path d="M19.8438 50.149C20.0753 50.149 20.263 49.9613 20.263 49.7298C20.263 49.4982 20.0753 49.3105 19.8438 49.3105C19.6123 49.3105 19.4246 49.4982 19.4246 49.7298C19.4246 49.9613 19.6123 50.149 19.8438 50.149Z" fill="#004FC5"/>
<path d="M17.8888 51.2239C17.8888 51.4554 18.0764 51.6432 18.308 51.6432C18.5395 51.6432 18.7273 51.4555 18.7273 51.2239C18.7273 50.9923 18.5395 50.8047 18.308 50.8047C18.0764 50.8047 17.8888 50.9925 17.8888 51.2239Z" fill="#004FC5"/>
<path d="M20.4497 54.9417C20.4497 55.1731 20.6373 55.3609 20.8689 55.3609C21.1006 55.3609 21.2882 55.1733 21.2882 54.9417C21.2882 54.7101 21.1006 54.5225 20.8689 54.5225C20.6373 54.5225 20.4497 54.7103 20.4497 54.9417Z" fill="#004FC5"/>
<path d="M26.2273 57.8284C26.2273 58.0598 26.4149 58.2476 26.6465 58.2476C26.8781 58.2476 27.0658 58.06 27.0658 57.8284C27.0658 57.597 26.8781 57.4092 26.6465 57.4092C26.4149 57.4092 26.2273 57.597 26.2273 57.8284Z" fill="#004FC5"/>
<path d="M23.394 58.1575C23.394 58.389 23.5817 58.5767 23.8133 58.5767C24.0447 58.5767 24.2325 58.3891 24.2325 58.1575C24.2325 57.9259 24.0449 57.7383 23.8133 57.7383C23.5817 57.7383 23.394 57.9261 23.394 58.1575Z" fill="#004FC5"/>
<path d="M27.6694 59.214C27.6694 59.3507 27.7349 59.4727 27.8363 59.5494C28.0853 59.3771 28.2358 59.2413 28.2358 59.2413C28.1999 59.1026 28.164 58.954 28.1276 58.7967C28.1149 58.7953 28.102 58.7949 28.089 58.7949C27.8572 58.7947 27.6694 58.9825 27.6694 59.214Z" fill="#004FC5"/>
<path d="M17.2343 47.7193C19.5808 49.2513 23.8892 49.1312 26.5966 47.7193C26.3379 46.1084 25.9975 44.4956 26.0708 42.3513C26.079 42.1164 26.0889 41.8827 26.1007 41.6514C26.1111 41.45 26.123 41.2499 26.1357 41.0523C26.3694 37.4853 26.978 34.5688 26.6788 34.192C26.5484 34.0269 26.3307 33.8488 26.062 33.6664C25.9565 33.5946 25.8437 33.522 25.7247 33.4491C25.4438 33.2777 25.1314 33.105 24.8178 32.9368C24.0737 32.5395 23.3181 32.1708 22.9395 31.9189C22.5641 32.0826 22.2649 32.1722 21.9427 32.1703C21.9341 32.1703 21.9246 32.1703 21.9149 32.1694C21.9062 32.1703 21.8967 32.1703 21.8881 32.1703C21.5659 32.172 21.2667 32.0826 20.8907 31.9189C20.5394 32.1527 19.878 32.4786 19.2029 32.834C18.7069 33.0953 18.2037 33.3727 17.812 33.6418C17.5555 33.8178 17.3461 33.9905 17.2178 34.1522C17.0696 34.3389 17.1319 35.1582 17.2586 36.3719C17.3841 37.5661 17.5719 39.143 17.6854 40.8763C17.7167 41.3576 17.7426 41.8508 17.76 42.3513C17.8329 44.4954 17.4929 46.1082 17.2343 47.7193Z" fill="#FF4059"/>
<path d="M18.8813 46.0412H18.8816C20.7712 46.033 22.384 45.1732 23.4043 44.4532C24.5076 43.6747 25.1764 42.8859 25.183 42.878C25.2153 42.8396 25.2102 42.7822 25.1719 42.7498C25.1333 42.7175 25.0761 42.7226 25.0437 42.7609C25.0372 42.7687 24.3807 43.5426 23.2952 44.3076C22.2971 45.0111 20.7212 45.8513 18.8807 45.8594C18.8306 45.8596 18.7899 45.9006 18.7903 45.9508C18.7905 46.0007 18.8311 46.0412 18.8813 46.0412Z" fill="#E71C4A"/>
<path d="M20.85 46.6821C22.4896 46.6821 24.1247 45.7478 24.1991 45.7048C24.2426 45.6797 24.2574 45.624 24.2322 45.5806C24.207 45.5371 24.1514 45.5223 24.108 45.5473C24.0888 45.5584 22.1647 46.6572 20.4589 46.4806C20.4083 46.4748 20.3643 46.5118 20.3592 46.5618C20.3539 46.6118 20.3903 46.6565 20.4403 46.6616C20.5763 46.6756 20.7133 46.6821 20.85 46.6821Z" fill="#E71C4A"/>
<path d="M22.3019 36.5135C22.3447 36.5135 22.3829 36.4831 22.3912 36.4396C22.4005 36.3903 22.3681 36.3426 22.3188 36.3333C20.0152 35.8961 19.3208 34.4142 19.314 34.3992C19.2934 34.3535 19.2394 34.3331 19.1936 34.3538C19.1478 34.3746 19.1276 34.4283 19.1482 34.474C19.1772 34.5385 19.8891 36.0573 22.2847 36.5118C22.2907 36.513 22.2965 36.5135 22.3019 36.5135Z" fill="#E71C4A"/>
<path d="M19.2028 32.834C19.66 33.8769 20.7341 35.2916 22.196 35.0391C23.6116 34.7944 24.333 33.711 24.8175 32.9366C24.0732 32.5392 23.3178 32.171 22.9392 31.9189C22.5637 32.0824 22.2645 32.1719 21.9426 32.1704C21.9338 32.1704 21.9241 32.1704 21.9147 32.1696C21.9059 32.1704 21.8963 32.1704 21.8875 32.1704C21.5654 32.1719 21.2662 32.0824 20.8902 31.9189C20.539 32.1525 19.8774 32.4784 19.2028 32.834Z" fill="#FFAA95"/>
<path d="M21.9452 33.6595C20.4532 33.6595 20.188 32.2362 20.1854 32.2218C20.1773 32.1753 20.2082 32.1313 20.2547 32.1232C20.3012 32.1157 20.3454 32.1461 20.3534 32.1924C20.3628 32.2454 20.5984 33.489 21.9452 33.489C23.2949 33.489 23.576 32.3254 23.5873 32.276C23.5978 32.2301 23.6434 32.2012 23.6894 32.2117C23.7353 32.2221 23.7642 32.2677 23.7538 32.3137C23.7508 32.327 23.4336 33.6595 21.9452 33.6595Z" fill="white"/>
<path d="M21.8875 32.208V32.2094C21.8963 32.2094 21.9058 32.2094 21.9146 32.2087C21.9058 32.2087 21.8963 32.208 21.8875 32.208Z" fill="#1D1A5E"/>
<path d="M19.5495 24.668C19.5495 24.668 18.4774 26.6422 18.2068 28.4206C17.8916 30.4922 18.4017 32.01 19.9983 31.9195C21.595 31.8291 24.4592 32.3058 25.3484 31.1699C26.371 29.8638 19.5495 24.668 19.5495 24.668Z" fill="#1D1A5E"/>
<path d="M24.2381 27.8039C24.2381 27.8039 24.6788 27.2163 25.0065 27.7022C25.3342 28.1881 24.871 29.6232 24.0686 29.273L24.2381 27.8039Z" fill="#FF8B6B"/>
<path d="M24.2438 28.8286C24.2734 28.8286 24.3007 28.8091 24.3091 28.7792C24.4334 28.336 24.8926 28.1565 24.8971 28.1547C24.932 28.1413 24.9496 28.1023 24.9364 28.0672C24.9232 28.0322 24.8839 28.0146 24.8491 28.0278C24.8276 28.0359 24.3218 28.2322 24.1785 28.7426C24.1685 28.7786 24.1894 28.8159 24.2255 28.8262C24.2317 28.8277 24.2378 28.8286 24.2438 28.8286Z" fill="#D85C48"/>
<path d="M24.7072 28.6056C24.7199 28.6056 24.7326 28.602 24.7438 28.5948C24.7753 28.5746 24.7843 28.5325 24.7641 28.501C24.7607 28.4957 24.6794 28.3718 24.5096 28.296C24.4756 28.2807 24.4353 28.296 24.42 28.3301C24.4047 28.3643 24.42 28.4044 24.4541 28.4197C24.5854 28.4785 24.6493 28.5735 24.65 28.5746C24.6631 28.5945 24.6849 28.6056 24.7072 28.6056Z" fill="#D85C48"/>
<path d="M19.6959 27.8039C19.6959 27.8039 19.2552 27.2163 18.9275 27.7022C18.5998 28.1881 19.0632 29.6232 19.8654 29.273L19.6959 27.8039Z" fill="#FF8B6B"/>
<path d="M19.6901 28.8286C19.6605 28.8286 19.6333 28.8091 19.6248 28.7792C19.5004 28.336 19.0414 28.1565 19.0368 28.1547C19.002 28.1413 18.9844 28.1023 18.9976 28.0672C19.0108 28.0322 19.05 28.0146 19.0848 28.0278C19.1063 28.0359 19.6121 28.2322 19.7554 28.7426C19.7654 28.7786 19.7445 28.8159 19.7084 28.8262C19.7023 28.8277 19.6961 28.8286 19.6901 28.8286Z" fill="#D85C48"/>
<path d="M19.2267 28.6056C19.2142 28.6056 19.2014 28.602 19.1901 28.5948C19.1586 28.5746 19.1496 28.5325 19.1699 28.501C19.1732 28.4957 19.2545 28.3718 19.4244 28.296C19.4583 28.2807 19.4986 28.296 19.5139 28.3301C19.5293 28.3643 19.5139 28.4044 19.4798 28.4197C19.3485 28.4785 19.2846 28.5735 19.2839 28.5746C19.2709 28.5945 19.2491 28.6056 19.2267 28.6056Z" fill="#D85C48"/>
<path d="M20.8821 30.4902V31.9174C20.8821 31.9174 21.3076 32.6443 21.8833 32.6938C22.4583 32.7439 22.9693 32.0679 22.9693 32.0679V30.5906L20.8821 30.4902Z" fill="#FFAA95"/>
<path d="M20.8821 30.4902V31.1235C21.2682 31.552 21.9541 31.7039 22.9691 31.5542L22.9693 30.5906L20.8821 30.4902Z" fill="#FF8B6B"/>
<path d="M19.3773 26.8257C19.4037 27.3803 19.4567 28.0739 19.5625 28.6287C19.5889 28.767 19.6188 28.8973 19.6519 29.0138C19.9523 30.0654 20.7035 31.8688 22.8067 31.1177C23.7356 30.7861 24.1661 29.7514 24.3579 28.6991C24.4882 27.9845 24.5077 27.2624 24.4982 26.7464C24.488 26.2196 24.2006 25.7381 23.7423 25.4785C22.5008 24.7746 21.1908 25.0371 20.3284 25.3686C19.73 25.5985 19.3469 26.1863 19.3773 26.8257Z" fill="#FFAA95"/>
<path d="M22.8931 27.8891C22.8931 28.0415 22.9716 28.1649 23.0684 28.1649C23.1652 28.1649 23.2438 28.0413 23.2438 27.8891C23.2438 27.7368 23.1653 27.6133 23.0684 27.6133C22.9716 27.6131 22.8931 27.7367 22.8931 27.8891Z" fill="#1D1A5E"/>
<path d="M20.7274 27.8891C20.7274 28.0415 20.8059 28.1649 20.9029 28.1649C20.9997 28.1649 21.0782 28.0413 21.0782 27.8891C21.0782 27.7368 20.9997 27.6133 20.9029 27.6133C20.8061 27.6131 20.7274 27.7367 20.7274 27.8891Z" fill="#1D1A5E"/>
<path d="M23.4159 27.0675C23.2702 27.0264 22.9761 26.956 22.6656 26.9551C22.5839 26.9549 22.5215 27.0274 22.5359 27.1078L22.5362 27.11C22.5479 27.1742 22.6052 27.2196 22.6704 27.2164C22.8816 27.2066 23.436 27.2363 23.6977 27.3423C23.703 27.2969 23.676 27.2471 23.638 27.2027C23.5803 27.1358 23.5011 27.0915 23.4159 27.0675Z" fill="#1D1A5E"/>
<path d="M20.5827 27.0724C20.7285 27.0312 21.0226 26.9608 21.333 26.96C21.4147 26.9598 21.4772 27.0323 21.4627 27.1127L21.4624 27.1147C21.4508 27.1789 21.3934 27.2243 21.3283 27.2211C21.1171 27.2113 20.5627 27.241 20.301 27.347C20.2957 27.3016 20.3226 27.2516 20.3606 27.2074C20.4185 27.1407 20.4977 27.0964 20.5827 27.0724Z" fill="#1D1A5E"/>
<path d="M21.9437 29.1477C21.9956 29.1477 22.0477 29.1385 22.0912 29.1125C22.1308 29.0887 22.1801 29.0407 22.1897 28.9469C22.2156 28.6977 22.1517 27.9166 22.1491 27.8835C22.1461 27.8462 22.1134 27.8184 22.0759 27.8215C22.0386 27.8247 22.0108 27.8574 22.0139 27.8948C22.0146 27.9027 22.0794 28.6964 22.0549 28.9332C22.0507 28.9743 22.0338 28.9889 22.0217 28.9963C21.9581 29.0345 21.811 28.9955 21.7497 28.9706C21.7151 28.9564 21.6755 28.9733 21.6614 29.0078C21.6473 29.0424 21.6639 29.082 21.6985 29.0961C21.716 29.1032 21.8293 29.1477 21.9437 29.1477Z" fill="#FF8B6B"/>
<path d="M22.804 29.5762C22.7528 29.834 22.5824 30.3085 22.0085 30.3085C21.4331 30.3085 21.2717 29.8748 21.2163 29.5762H22.804Z" fill="white"/>
<path d="M22.017 30.7038C22.1826 30.7038 22.3289 30.6145 22.335 30.6108C22.3669 30.5911 22.3768 30.5494 22.357 30.5176C22.3373 30.4857 22.2958 30.4758 22.2638 30.4954C22.2625 30.4961 22.1432 30.5682 22.017 30.5682C21.8803 30.5682 21.7578 30.4959 21.7565 30.4952C21.7243 30.476 21.6828 30.4862 21.6636 30.5184C21.6442 30.5505 21.6545 30.592 21.6865 30.6114C21.6928 30.6149 21.8415 30.7038 22.017 30.7038Z" fill="#FF8B6B"/>
<path d="M19.1045 26.7163C19.1263 26.7781 19.1867 26.8177 19.2676 26.8413C19.2617 26.9909 19.2775 27.1707 19.2921 27.343C19.3759 28.323 19.623 28.4951 19.679 28.2528C19.7157 28.0919 19.7136 27.169 19.6959 26.868C19.8895 26.8554 20.0549 26.823 20.0549 26.823L20.2821 25.8715L20.3617 26.8112C20.7026 26.9298 21.4981 26.7397 21.4981 26.7397L21.7649 25.802L21.93 26.7043C22.4415 26.9534 23.0805 26.7876 23.0805 26.7876L23.2273 25.8143L23.5664 26.7876C23.5664 26.7876 24.6575 27.179 24.6693 26.7876C24.6765 26.5598 24.5096 25.9185 24.3688 25.4217C24.2152 24.8797 23.8593 24.422 23.3778 24.1638C22.0245 23.4374 20.5935 23.8238 20.1026 24.117C19.0619 24.7384 19.1045 26.7163 19.1045 26.7163Z" fill="#1D1A5E"/>
<path d="M24.0376 24.7402C24.0376 24.7402 24.9671 25.8084 25.2626 27.7162C25.5581 29.6241 26.0312 31.1679 24.8175 31.6635C23.8201 32.071 23.4075 31.2783 23.4255 30.8983C23.4434 30.5181 24.7751 29.1482 24.0688 26.2223C23.8408 25.2779 24.0376 24.7402 24.0376 24.7402Z" fill="#1D1A5E"/>
<path d="M19.361 29.3074C19.361 29.3952 19.4321 29.4663 19.5199 29.4663C19.6077 29.4663 19.6788 29.3952 19.6788 29.3074C19.6788 29.2195 19.6077 29.1484 19.5199 29.1484C19.4321 29.1484 19.361 29.2195 19.361 29.3074Z" fill="white"/>
<path d="M26.1352 41.0528C26.3689 37.4858 26.9775 34.5693 26.6783 34.1925C26.5479 34.0274 26.3302 33.8493 26.0615 33.667C25.7878 34.9502 25.097 38.8122 26.1352 41.0528Z" fill="#FFAA95"/>
<path d="M34.1057 37.3584C34.1057 37.3584 31.1153 42.5289 29.8018 43.1618C28.49 43.7963 26.2024 38.8375 26.2024 38.8375L26.7124 34.334C26.7124 34.334 28.3484 38.2729 29.4946 40.1408C29.5168 40.18 29.5408 40.2175 29.5645 40.255C29.5645 40.255 29.6157 40.2106 29.7078 40.127C29.9517 39.9104 30.4873 39.4311 31.1304 38.8426C32.0891 37.9675 33.4061 36.4988 33.4061 36.4988L34.1057 37.3584Z" fill="#FFAA95"/>
<path d="M29.708 40.1279C29.6312 40.5373 29.551 41.0132 29.4691 41.5505C29.4607 41.6 29.4179 41.6375 29.3669 41.6375C29.3618 41.6375 29.3567 41.6375 29.3516 41.6357C29.2952 41.6271 29.256 41.5761 29.2646 41.518C29.3431 41.0011 29.4216 40.5422 29.4948 40.1413C29.517 40.1806 29.5409 40.218 29.5647 40.2555C29.5647 40.2559 29.6159 40.2115 29.708 40.1279Z" fill="#FF8B6B"/>
<path d="M33.3554 36.6392C33.3554 36.6392 33.0777 36.1255 33.2122 35.6816C33.3466 35.2377 33.513 34.4322 33.9079 34.1566C34.2384 33.926 33.882 34.7062 33.9831 35.1038C33.9831 35.1038 34.5079 34.8727 34.8632 34.6275C35.1758 34.4119 35.8186 34.0675 36.1174 33.9103C36.1992 33.8672 36.2878 33.9603 36.2381 34.0383C36.1579 34.1645 35.9667 34.35 35.5326 34.6022C35.5326 34.6022 36.6086 34.046 36.779 34.1854C36.9494 34.3248 35.5913 34.9954 35.5913 34.9954C35.5913 34.9954 36.6818 34.5987 36.7626 34.7641C36.8119 34.865 35.7343 35.4507 35.7343 35.4507C35.7343 35.4507 36.7922 35.1658 36.5877 35.4072C36.5282 35.4776 34.5646 36.3122 34.1064 37.3584C34.1064 37.3584 33.4841 37.0086 33.3554 36.6392Z" fill="#FFAA95"/>
<path d="M17.2588 36.3727C17.3843 37.5668 17.5721 39.1438 17.6856 40.8771C18.6056 38.6419 18.0851 34.9399 17.812 33.6426C17.5556 33.8186 17.3461 33.9912 17.2178 34.153C17.0698 34.3399 17.1319 35.1592 17.2588 36.3727Z" fill="#FFAA95"/>
</g>
<defs>
<clipPath id="clip0_372_2757">
<rect width="88" height="88" fill="white"/>
</clipPath>
</defs>
</svg>
