<svg width="120" height="88" viewBox="0 0 120 88" fill="none" xmlns="http://www.w3.org/2000/svg">
<path d="M107.71 81.9805H99.8054V82.0401H107.71V81.9805Z" fill="#EBEBEB"/>
<path d="M79.3848 82.6299H77.3108V82.6896H79.3848V82.6299Z" fill="#EBEBEB"/>
<path d="M99.5668 79.7656H94.9867V79.8253H99.5668V79.7656Z" fill="#EBEBEB"/>
<path d="M23.1612 80.167H12.853V80.2267H23.1612V80.167Z" fill="#EBEBEB"/>
<path d="M26.7987 80.167H25.288V80.2267H26.7987V80.167Z" fill="#EBEBEB"/>
<path d="M54.069 81.1738H31.7104V81.2335H54.069V81.1738Z" fill="#EBEBEB"/>
<path d="M56.8972 67.4959H10.8148C10.4534 67.4959 10.1068 67.3523 9.85118 67.0967C9.59561 66.8411 9.45203 66.4945 9.45203 66.1331V1.35087C9.45517 0.991505 9.60014 0.647929 9.85538 0.394928C10.1106 0.141928 10.4555 -1.37774e-05 10.8148 1.00302e-09H56.8972C57.2587 1.00303e-09 57.6053 0.143581 57.8609 0.399157C58.1164 0.654732 58.26 1.00137 58.26 1.36281V66.1331C58.26 66.4945 58.1164 66.8411 57.8609 67.0967C57.6053 67.3523 57.2587 67.4959 56.8972 67.4959ZM10.8148 0.0477342C10.4694 0.0483651 10.1383 0.185862 9.89407 0.430111C9.64982 0.67436 9.51232 1.00545 9.51169 1.35087V66.1331C9.51232 66.4785 9.64982 66.8096 9.89407 67.0538C10.1383 67.2981 10.4694 67.4356 10.8148 67.4362H56.8972C57.2426 67.4356 57.5737 67.2981 57.818 67.0538C58.0622 66.8096 58.1997 66.4785 58.2004 66.1331V1.35087C58.1997 1.00545 58.0622 0.67436 57.818 0.430111C57.5737 0.185862 57.2426 0.0483651 56.8972 0.0477342H10.8148Z" fill="#EBEBEB"/>
<path d="M108.524 67.4959H62.4369C62.0757 67.4952 61.7294 67.3515 61.474 67.096C61.2185 66.8406 61.0747 66.4943 61.0741 66.1331V1.35087C61.0779 0.991701 61.223 0.648485 61.4781 0.395618C61.7332 0.142751 62.0777 0.0006082 62.4369 0H108.524C108.883 0.00124216 109.226 0.143739 109.48 0.396605C109.735 0.64947 109.879 0.992331 109.882 1.35087V66.1331C109.882 66.4937 109.739 66.8396 109.485 67.095C109.23 67.3505 108.885 67.4946 108.524 67.4959ZM62.4369 0.0477342C62.0915 0.0483651 61.7604 0.185862 61.5161 0.430111C61.2719 0.67436 61.1344 1.00545 61.1338 1.35087V66.1331C61.1344 66.4785 61.2719 66.8096 61.5161 67.0538C61.7604 67.2981 62.0915 67.4356 62.4369 67.4362H108.524C108.869 67.4356 109.201 67.2981 109.445 67.0538C109.689 66.8096 109.827 66.4785 109.827 66.1331V1.35087C109.827 1.00545 109.689 0.67436 109.445 0.430111C109.201 0.185862 108.869 0.0483651 108.524 0.0477342H62.4369Z" fill="#EBEBEB"/>
<path d="M119.667 78.1406H0.33252V78.2003H119.667V78.1406Z" fill="#EBEBEB"/>
<path d="M46.1118 19.4658H21.4094V78.0999H46.1118V19.4658Z" fill="#E6E6E6"/>
<path d="M45.0615 20.5283H22.4595V78.1003H45.0615V20.5283Z" fill="#F0F0F0"/>
<path d="M31.0278 49.207L35.0016 23.7051H33.2259L29.2521 49.207H31.0278Z" fill="#FAFAFA"/>
<path d="M36.8754 49.207H43.4722V23.7051H40.8492L36.8754 49.207Z" fill="#FAFAFA"/>
<path d="M31.5408 23.7051H24.1683V49.207H27.567L31.5408 23.7051Z" fill="#FAFAFA"/>
<path d="M43.4696 55.582H24.1683V76.6661H43.4696V55.582Z" fill="#EBEBEB"/>
<path d="M25.8152 50.1543H24.1683V54.448H25.8152V50.1543Z" fill="#E6E6E6"/>
<path d="M25.8153 54.4502H26.1399V50.1565H25.8153V54.4502Z" fill="#E0E0E0"/>
<path d="M24.5792 52.5365C24.9628 52.5365 25.2737 52.2256 25.2737 51.842C25.2737 51.4584 24.9628 51.1475 24.5792 51.1475C24.1956 51.1475 23.8846 51.4584 23.8846 51.842C23.8846 52.2256 24.1956 52.5365 24.5792 52.5365Z" fill="#E0E0E0"/>
<path d="M25.1399 53.0449H24.7819V53.9137H25.1399V53.0449Z" fill="#E0E0E0"/>
<path d="M24.9369 51.8415C24.9369 52.0334 24.8801 52.221 24.7735 52.3807C24.667 52.5403 24.5156 52.6648 24.3384 52.7385C24.1611 52.8121 23.9661 52.8317 23.7778 52.7946C23.5895 52.7575 23.4164 52.6654 23.2803 52.5301C23.1443 52.3947 23.0514 52.222 23.0134 52.0339C22.9754 51.8458 22.9939 51.6507 23.0667 51.4731C23.1395 51.2955 23.2633 51.1435 23.4224 51.0362C23.5815 50.9288 23.7688 50.8711 23.9608 50.8701C24.0887 50.8695 24.2155 50.8942 24.334 50.9427C24.4524 50.9912 24.56 51.0627 24.6507 51.1529C24.7414 51.2432 24.8134 51.3505 24.8625 51.4687C24.9116 51.5868 24.9369 51.7135 24.9369 51.8415Z" fill="#EBEBEB"/>
<path d="M96.316 62.9561H58.3054V75.4457H96.316V62.9561Z" fill="#EBEBEB"/>
<path d="M61.3532 76.293H58.9641V78.0973H61.3532V76.293Z" fill="#E6E6E6"/>
<path d="M99.2157 61.4336H96.8267V78.0975H99.2157V61.4336Z" fill="#E6E6E6"/>
<path d="M96.2181 61.4336H57.6896V78.0975H58.9641V76.718H95.5808V78.0975H96.8553V61.4336H96.2181ZM58.9641 63.6628H76.6256V74.4888H58.9641V63.6628ZM77.9097 63.6628H95.5713V74.4888H77.9001L77.9097 63.6628Z" fill="#F5F5F5"/>
<path d="M58.8499 88.0011C84.4073 88.0011 105.126 86.7915 105.126 85.2994C105.126 83.8073 84.4073 82.5977 58.8499 82.5977C33.2926 82.5977 12.5742 83.8073 12.5742 85.2994C12.5742 86.7915 33.2926 88.0011 58.8499 88.0011Z" fill="#F5F5F5"/>
<path d="M81.2652 64.1161C81.2652 64.1161 77.055 63.677 79.3248 60.832C79.6851 60.3845 80.1126 59.9957 80.5921 59.6792C80.6112 60.4143 80.733 61.9418 81.406 61.6459C82.1411 61.3237 82.838 59.2878 83.06 58.6195C84.1087 58.3555 85.1892 58.2391 86.2701 58.2735C86.3143 58.9887 86.3198 59.7057 86.2868 60.4215C85.7832 60.7222 84.8023 61.3762 84.7593 61.8726C84.7164 62.369 85.6949 62.2736 86.1269 62.1948C86.0215 63.0083 85.8303 63.8083 85.5565 64.5815C84.9455 64.4073 84.0171 64.2092 83.7354 64.529C83.4538 64.8488 84.0982 65.8679 84.5039 66.4026C84.2967 66.6311 84.0599 66.8309 83.7999 66.9968C80.7902 68.8513 81.2652 64.1161 81.2652 64.1161Z" fill="#407BFF"/>
<g opacity="0.2">
<path d="M81.6177 63.7612C82.0092 61.742 84.2288 60.0546 85.7706 58.9639C85.9592 58.8326 85.7253 58.5605 85.5319 58.6942C83.9018 59.8446 81.6679 61.6036 81.255 63.7301C81.2096 63.9545 81.5652 63.9855 81.6106 63.7612H81.6177Z" fill="white"/>
</g>
<path d="M81.2626 74.1378L81.4678 74.1235C81.0573 68.0493 81.9619 66.0755 82.7924 65.4884C82.9217 65.3885 83.0733 65.3215 83.2342 65.2932C83.3951 65.2649 83.5605 65.2762 83.7161 65.3261L83.7972 65.1399C83.6099 65.0745 83.4092 65.0569 83.2134 65.0885C83.0175 65.1202 82.8326 65.2002 82.6755 65.3213C81.8019 65.9371 80.8473 67.9682 81.2626 74.1378Z" fill="#407BFF"/>
<path d="M82.418 73.5229C82.6185 68.3557 81.7234 66.4272 80.9358 65.7208C80.8156 65.5946 80.6702 65.4952 80.509 65.429C80.3478 65.3628 80.1744 65.3313 80.0002 65.3365L80.0289 65.5394C80.1754 65.5379 80.3206 65.5669 80.4553 65.6244C80.5901 65.6819 80.7114 65.7667 80.8117 65.8735C81.5588 66.5585 82.4108 68.4392 82.2151 73.5109L82.418 73.5229Z" fill="#407BFF"/>
<path d="M81.5466 73.5277L81.7495 73.5134C81.5395 70.4107 81.9237 68.561 82.8593 68.1696C84.0789 67.6588 85.9024 69.7018 85.9215 69.7209L86.0742 69.5873C85.9955 69.4989 84.1362 67.4154 82.7806 67.981C81.7424 68.4154 81.3271 70.2794 81.5466 73.5277Z" fill="#407BFF"/>
<path d="M82.0622 73.7232C82.0622 71.8138 81.666 70.6372 80.8831 70.2243C80.0001 69.7613 78.9738 70.4486 78.938 70.4773L79.0525 70.6443C79.0525 70.6443 80.0072 69.9975 80.7877 70.4057C81.5037 70.7804 81.8593 71.8974 81.8569 73.7232H82.0622Z" fill="#407BFF"/>
<g opacity="0.2">
<path d="M81.2621 74.1368L81.4673 74.1225C81.0568 68.0484 81.9614 66.0746 82.7919 65.4874C82.9212 65.3875 83.0728 65.3205 83.2337 65.2922C83.3946 65.2639 83.56 65.2752 83.7156 65.3251L83.7967 65.139C83.6094 65.0736 83.4088 65.0559 83.2129 65.0876C83.017 65.1192 82.8322 65.1992 82.675 65.3204C81.8015 65.9361 80.8468 67.9672 81.2621 74.1368Z" fill="black"/>
<path d="M82.4175 73.5209C82.618 68.3537 81.723 66.4253 80.9353 65.7188C80.8151 65.5927 80.6697 65.4932 80.5085 65.427C80.3473 65.3608 80.1739 65.3293 79.9998 65.3345L80.0284 65.5374C80.1749 65.536 80.3201 65.5649 80.4548 65.6224C80.5896 65.6799 80.7109 65.7648 80.8112 65.8715C81.5583 66.5565 82.4103 68.4373 82.2146 73.509L82.4175 73.5209Z" fill="black"/>
<path d="M81.5462 73.5257L81.749 73.5114C81.539 70.4087 81.9233 68.559 82.8588 68.1676C84.0784 67.6568 85.9019 69.6999 85.921 69.719L86.0737 69.5853C85.995 69.497 84.1357 67.4134 82.7801 67.9791C81.7419 68.4134 81.3266 70.2774 81.5462 73.5257Z" fill="black"/>
<path d="M82.0617 73.7212C82.0617 71.8119 81.6655 70.6352 80.8827 70.2223C79.9996 69.7593 78.9733 70.4467 78.9375 70.4753L79.0521 70.6424C79.0521 70.6424 80.0067 69.9956 80.7872 70.4037C81.5032 70.7784 81.8588 71.8954 81.8564 73.7212H82.0617Z" fill="black"/>
</g>
<path d="M86.4658 83.7035L87.2081 73.1758H77.2579L77.9883 83.7035C78.0276 84.2791 78.2842 84.8181 78.706 85.2116C79.1279 85.6051 79.6835 85.8236 80.2604 85.8229H84.1937C84.7702 85.8225 85.3252 85.6036 85.7469 85.2104C86.1685 84.8171 86.4254 84.2786 86.4658 83.7035Z" fill="#263238"/>
<path d="M83.3485 65.1928C83.3485 65.1928 81.2817 61.7201 84.9214 61.67C85.4451 61.6671 85.9667 61.7386 86.4703 61.8824C85.993 62.2046 85.234 62.7941 85.6254 62.9421C86.0169 63.0901 87.5109 62.8013 88.2222 62.6438C89.4084 63.3744 90.4523 64.3141 91.3034 65.4171C90.5675 66.1 89.7817 66.7271 88.9525 67.2931C88.5897 66.9327 88.0408 66.4792 87.7305 66.6606C87.4202 66.842 87.0789 67.8086 86.8713 68.4984C86.1924 68.8264 85.4685 69.0516 84.7233 69.1666C84.7424 68.6105 84.7233 67.7131 84.4655 67.5699C84.2077 67.4267 83.234 68.3456 82.6922 68.9041C79.9045 67.7036 83.3485 65.1928 83.3485 65.1928Z" fill="#407BFF"/>
<path opacity="0.3" d="M83.3485 65.1928C83.3485 65.1928 81.2817 61.7201 84.9214 61.67C85.4451 61.6671 85.9667 61.7386 86.4703 61.8824C85.993 62.2046 85.234 62.7941 85.6254 62.9421C86.0169 63.0901 87.5109 62.8013 88.2222 62.6438C89.4084 63.3744 90.4523 64.3141 91.3034 65.4171C90.5675 66.1 89.7817 66.7271 88.9525 67.2931C88.5897 66.9327 88.0408 66.4792 87.7305 66.6606C87.4202 66.842 87.0789 67.8086 86.8713 68.4984C86.1924 68.8264 85.4685 69.0516 84.7233 69.1666C84.7424 68.6105 84.7233 67.7131 84.4655 67.5699C84.2077 67.4267 83.234 68.3456 82.6922 68.9041C79.9045 67.7036 83.3485 65.1928 83.3485 65.1928Z" fill="white"/>
<path d="M78.5681 67.8019C78.1265 67.6754 77.5824 68.5513 77.2983 69.0788C76.383 68.6726 75.5374 68.1249 74.7923 67.4558C74.9952 67.0119 75.2243 66.3961 75.0787 66.1622C74.9331 65.9283 74.1383 66.1121 73.5751 66.2887C73.0632 65.7472 72.585 65.175 72.1431 64.5751C72.5769 64.2241 73.0355 63.905 73.5154 63.6204C74.3341 63.7111 75.4916 63.7851 75.7732 63.5034C76.0549 63.2218 75.4296 62.9831 74.9761 62.871C75.7365 62.5383 76.5399 62.3141 77.3628 62.2051C77.4702 62.575 77.7088 63.1454 78.1528 63.1454C78.5967 63.1454 79.0573 62.6514 79.3628 62.2838C82.783 63.0189 80.0788 65.4653 80.0788 65.4653C80.0788 65.4653 83.0216 68.9571 79.5227 69.4248C79.3318 68.8282 78.981 67.9188 78.5681 67.8019Z" fill="#407BFF"/>
<path opacity="0.2" d="M78.5681 67.8019C78.1265 67.6754 77.5824 68.5513 77.2983 69.0788C76.383 68.6726 75.5374 68.1249 74.7923 67.4558C74.9952 67.0119 75.2243 66.3961 75.0787 66.1622C74.9331 65.9283 74.1383 66.1121 73.5751 66.2887C73.0632 65.7472 72.585 65.175 72.1431 64.5751C72.5769 64.2241 73.0355 63.905 73.5154 63.6204C74.3341 63.7111 75.4916 63.7851 75.7732 63.5034C76.0549 63.2218 75.4296 62.9831 74.9761 62.871C75.7365 62.5383 76.5399 62.3141 77.3628 62.2051C77.4702 62.575 77.7088 63.1454 78.1528 63.1454C78.5967 63.1454 79.0573 62.6514 79.3628 62.2838C82.783 63.0189 80.0788 65.4653 80.0788 65.4653C80.0788 65.4653 83.0216 68.9571 79.5227 69.4248C79.3318 68.8282 78.981 67.9188 78.5681 67.8019Z" fill="white"/>
<path d="M74.685 70.2166C75.1027 70.4409 75.895 70.8013 76.2149 70.4815C76.5347 70.1617 76.0454 68.8108 75.8067 68.2619C76.1723 67.7994 76.6405 67.4285 77.1743 67.1783C80.4131 65.7463 79.3223 70.3932 79.3223 70.3932C79.3223 70.3932 83.3893 71.3765 80.7639 73.8849C80.5747 74.0648 80.372 74.23 80.1577 74.379C79.9524 73.9017 79.5539 73.1021 79.1553 73.2119C78.7567 73.3217 78.9166 74.3527 79.0383 74.9948C78.3508 75.2759 77.6281 75.4622 76.8903 75.5485C76.7948 75.095 76.6134 74.4936 76.3223 74.5103C76.0311 74.527 75.6063 75.1809 75.3676 75.6296C74.7539 75.6253 74.1416 75.5702 73.537 75.4649C73.537 75.4649 73.7017 72.6224 74.685 70.2166Z" fill="#407BFF"/>
<path d="M85.659 69.4053C85.659 69.4053 87.85 65.7847 89.4587 69.0473C89.7096 69.5646 89.8787 70.1178 89.9599 70.687C89.2892 70.391 87.8548 69.8492 87.8357 70.5867C87.8118 71.3886 89.3537 72.8923 89.8692 73.372C89.6594 74.4327 89.3036 75.4592 88.8119 76.4222C88.1492 76.1596 87.5014 75.8608 86.8715 75.5272C86.8118 74.9424 86.6328 73.7777 86.2104 73.5271C85.7879 73.2765 85.4466 74.2026 85.3344 74.6274C84.6457 74.1854 84.0057 73.6718 83.4251 73.0951C83.8451 72.6178 84.4203 71.8612 84.2485 71.4698C84.0623 71.0402 82.8833 71.2311 82.227 71.3648C82.1075 71.081 82.0272 70.7823 81.9883 70.4769C81.5802 66.9565 85.659 69.4053 85.659 69.4053Z" fill="#407BFF"/>
<g opacity="0.3">
<path d="M83.8854 65.2965C85.895 64.4421 88.444 64.8932 90.4297 65.5066C90.6493 65.5734 90.7424 65.2297 90.5228 65.1629C88.4249 64.5137 85.8163 64.0912 83.7064 64.9863C83.4964 65.077 83.6778 65.3848 83.8854 65.2965Z" fill="white"/>
</g>
<g opacity="0.3">
<path d="M72.9186 64.8574C74.9592 64.509 77.3936 64.4684 79.2433 65.4875C79.4462 65.5997 79.6252 65.2918 79.4247 65.1796C77.4772 64.108 74.964 64.1486 72.8231 64.5137C72.5844 64.5519 72.6942 64.8956 72.9186 64.8574Z" fill="white"/>
</g>
<g opacity="0.2">
<path d="M79.0522 70.4662C76.644 70.7264 74.8206 72.9579 73.8659 74.9866C73.768 75.1943 74.0759 75.3757 74.1738 75.168C75.0664 73.273 76.78 71.0701 79.0522 70.8218C79.2789 70.798 79.2909 70.44 79.0522 70.4662Z" fill="white"/>
</g>
<g opacity="0.2">
<path d="M85.8307 69.8768C87.5014 71.0916 88.0718 73.8196 88.4012 75.6789C88.4418 75.9056 88.7855 75.8101 88.7449 75.5858C88.3988 73.6191 87.7592 70.8482 86.0121 69.5689C85.8259 69.4329 85.6469 69.7431 85.8307 69.8768Z" fill="white"/>
</g>
<path d="M98.9321 8.78906H76.9291C75.8034 8.78906 74.8909 9.70161 74.8909 10.8273V29.8398C74.8909 30.9654 75.8034 31.878 76.9291 31.878H98.9321C100.058 31.878 100.97 30.9654 100.97 29.8398V10.8273C100.97 9.70161 100.058 8.78906 98.9321 8.78906Z" fill="#407BFF"/>
<path opacity="0.7" d="M98.9321 8.78906H76.9291C75.8034 8.78906 74.8909 9.70161 74.8909 10.8273V29.8398C74.8909 30.9654 75.8034 31.878 76.9291 31.878H98.9321C100.058 31.878 100.97 30.9654 100.97 29.8398V10.8273C100.97 9.70161 100.058 8.78906 98.9321 8.78906Z" fill="white"/>
<path d="M89.5311 14.2793C89.5311 14.2793 88.9798 19.0933 90.7889 19.468C93.0324 19.9453 92.4906 15.6612 92.4906 15.6612L90.7889 13.1934L89.5311 14.2793Z" fill="#263238"/>
<path opacity="0.6" d="M89.5311 14.2793C89.5311 14.2793 88.9798 19.0933 90.7889 19.468C93.0324 19.9453 92.4906 15.6612 92.4906 15.6612L90.7889 13.1934L89.5311 14.2793Z" fill="black"/>
<path d="M95.1231 15.4629C95.1231 15.4629 97.8487 17.4009 96.684 18.9379C95.5193 20.475 93.5813 18.3031 93.5455 17.0978C93.5097 15.8925 95.1231 15.4629 95.1231 15.4629Z" fill="#263238"/>
<path d="M86.8913 27.1621L85.2469 27.3196C85.2469 27.3196 83.3375 26.5416 82.7265 26.7254C82.3041 26.8519 81.6931 27.8089 81.8148 28.2338C81.8602 28.3913 82.2373 28.5178 82.3996 28.5321C82.6144 28.5512 83.0082 28.0548 83.223 28.0404C83.5094 28.0166 84.0679 28.4987 84.3566 28.5034C84.7002 28.4735 85.0415 28.4209 85.3782 28.3459L87.3162 28.3913L86.8913 27.1621Z" fill="#FFC3BD"/>
<path d="M86.2255 27.0981L86.6169 28.5039C86.6169 28.5039 89.4523 28.8905 90.5645 28.4012C91.6767 27.912 90.839 19.6874 89.7673 19.7781C88.6957 19.8688 89.29 24.4202 89.29 25.8499C89.2852 26.9406 86.2255 27.0981 86.2255 27.0981Z" fill="#263238"/>
<path opacity="0.5" d="M86.2255 27.0981L86.6169 28.5039C86.6169 28.5039 89.4523 28.8905 90.5645 28.4012C91.6767 27.912 90.839 19.6874 89.7673 19.7781C88.6957 19.8688 89.29 24.4202 89.29 25.8499C89.2852 26.9406 86.2255 27.0981 86.2255 27.0981Z" fill="white"/>
<path d="M89.5549 19.7875C88.4809 21.3245 90.9487 23.7351 91.0012 31.8809H98.968C99.2067 29.6803 100.025 21.0596 98.8773 19.4318C97.5575 17.5631 90.5788 18.3244 89.5549 19.7875Z" fill="#263238"/>
<path opacity="0.2" d="M89.5549 19.7875C88.4809 21.3245 90.9487 23.7351 91.0012 31.8809H98.968C99.2067 29.6803 100.025 21.0596 98.8773 19.4318C97.5575 17.5631 90.5788 18.3244 89.5549 19.7875Z" fill="white"/>
<path d="M91.9081 17.6281L93.5072 15.8906C93.6599 17.2224 94.3688 18.3155 94.5096 18.3585L94.3354 18.9695C92.3974 21.1485 91.9487 19.0554 91.9487 19.0554C92.4236 18.6616 91.9081 17.6281 91.9081 17.6281Z" fill="#FFC3BD"/>
<path d="M94.2446 15.0997C94.2347 15.4568 94.0916 15.7973 93.8436 16.0544C93.5118 16.3933 93.1276 16.1379 93.0464 15.694C92.9701 15.2907 93.0464 14.6319 93.4689 14.4649C93.8913 14.2978 94.2469 14.6534 94.2446 15.0997Z" fill="#FFC3BD"/>
<path d="M92.433 27.4462L90.7885 27.6037C90.7885 27.6037 88.9269 26.6705 88.2706 26.7588C87.8457 26.8161 87.0295 27.8305 87.1035 28.2529C87.1321 28.4152 87.5307 28.5131 87.6906 28.5512C87.9507 28.6157 88.7646 28.0739 88.7646 28.0739C88.7646 28.0739 89.5928 28.7517 89.8983 28.7899C90.2435 28.7725 90.5858 28.719 90.9198 28.63L92.8578 28.6777L92.433 27.4462Z" fill="#FFC3BD"/>
<path d="M98.4739 19.2979C97.9441 18.9375 97.3784 19.286 96.8032 22.582C96.1254 26.4914 95.6719 26.6681 91.7649 27.3721L92.1897 28.7779C92.1897 28.7779 95.5311 29.1884 97.1397 28.1383C98.7484 27.0881 99.8988 20.2717 98.4739 19.2979Z" fill="#263238"/>
<path opacity="0.5" d="M98.4739 19.2979C97.9441 18.9375 97.3784 19.286 96.8032 22.582C96.1254 26.4914 95.6719 26.6681 91.7649 27.3721L92.1897 28.7779C92.1897 28.7779 95.5311 29.1884 97.1397 28.1383C98.7484 27.0881 99.8988 20.2717 98.4739 19.2979Z" fill="white"/>
<path d="M92.7602 20.188C94.0586 20.1618 95.228 18.6104 94.586 18.3359C93.728 18.3661 92.8743 18.4716 92.0346 18.651C91.6575 18.9374 91.4165 20.2167 92.7602 20.188Z" fill="#FFC3BD"/>
<path opacity="0.2" d="M92.8651 16.5871L93.6122 16.5107C93.6122 16.5107 93.5788 18.7447 92.0513 18.938C92.3353 18.4869 91.9081 17.6277 91.9081 17.6277L92.8651 16.5871Z" fill="#263238"/>
<path d="M93.29 13.9809C93.6337 15.5585 93.9177 16.4631 93.3712 17.5061C93.1976 17.8478 92.9338 18.1354 92.6083 18.3377C92.2829 18.5401 91.9082 18.6494 91.525 18.6538C91.1417 18.6582 90.7646 18.5576 90.4346 18.3628C90.1045 18.1681 89.8341 17.8866 89.6527 17.549C88.9248 16.265 88.4808 13.8998 89.8055 12.7995C90.0865 12.5534 90.4275 12.3858 90.794 12.3135C91.1605 12.2413 91.5396 12.267 91.893 12.388C92.2464 12.509 92.5617 12.7211 92.807 13.0029C93.0522 13.2847 93.2189 13.6261 93.29 13.9929V13.9809Z" fill="#FFC3BD"/>
<path d="M91.0896 15.1644C91.1278 15.2885 91.0896 15.4031 91.0037 15.4317C90.9177 15.4604 90.8294 15.3769 90.7912 15.2527C90.7531 15.1286 90.7912 15.0141 90.8796 14.983C90.9679 14.952 91.0538 15.0356 91.0896 15.1644Z" fill="#263238"/>
<path d="M89.6811 15.6208C89.7169 15.7449 89.6811 15.8595 89.5952 15.8881C89.5093 15.9167 89.4186 15.8332 89.3828 15.7067C89.347 15.5802 89.3828 15.468 89.4687 15.437C89.5546 15.406 89.6453 15.4919 89.6811 15.6208Z" fill="#263238"/>
<path d="M91.3951 14.5577C91.4076 14.5556 91.4192 14.5497 91.4285 14.541C91.4346 14.5332 91.439 14.5243 91.4416 14.5148C91.4442 14.5052 91.4448 14.4953 91.4435 14.4855C91.4421 14.4757 91.4389 14.4663 91.4338 14.4578C91.4288 14.4493 91.4221 14.4419 91.4142 14.436C91.3184 14.3599 91.2053 14.3087 91.0849 14.2871C90.9645 14.2654 90.8407 14.2739 90.7244 14.3119C90.7059 14.3193 90.691 14.3337 90.683 14.352C90.6749 14.3703 90.6744 14.391 90.6814 14.4097C90.6889 14.4283 90.7033 14.4431 90.7216 14.4512C90.7399 14.4592 90.7606 14.4598 90.7793 14.4527C90.8697 14.424 90.9657 14.4176 91.0592 14.4337C91.1526 14.4499 91.2408 14.4884 91.3163 14.5458C91.3269 14.5551 91.34 14.5611 91.3539 14.5632C91.3679 14.5654 91.3822 14.5634 91.3951 14.5577Z" fill="#263238"/>
<path d="M88.9365 15.3248C88.9476 15.3191 88.9572 15.3111 88.9647 15.3011C88.9721 15.2912 88.9772 15.2797 88.9795 15.2675C88.9921 15.1686 89.0275 15.0739 89.083 14.9911C89.1386 14.9082 89.2126 14.8394 89.2993 14.7902C89.3077 14.7844 89.3149 14.7771 89.3204 14.7685C89.3259 14.76 89.3297 14.7505 89.3314 14.7405C89.3332 14.7305 89.333 14.7202 89.3307 14.7103C89.3285 14.7004 89.3243 14.691 89.3184 14.6828C89.3094 14.669 89.2961 14.6586 89.2806 14.653C89.2651 14.6474 89.2483 14.6469 89.2325 14.6517C89.1248 14.7107 89.0324 14.7941 88.9628 14.8952C88.8931 14.9964 88.8482 15.1124 88.8315 15.2341C88.828 15.2537 88.8323 15.2739 88.8434 15.2904C88.8546 15.3069 88.8717 15.3183 88.8912 15.3224C88.9058 15.3271 88.9215 15.3279 88.9365 15.3248Z" fill="#263238"/>
<path d="M91.1872 17.1123C91.1244 17.1497 91.059 17.1824 90.9915 17.2102C90.9863 17.2126 90.9807 17.2139 90.975 17.2141C90.9693 17.2143 90.9637 17.2134 90.9583 17.2114C90.953 17.2094 90.9481 17.2064 90.944 17.2025C90.9398 17.1986 90.9365 17.1939 90.9342 17.1887C90.9319 17.1832 90.9308 17.1774 90.9309 17.1715C90.931 17.1655 90.9323 17.1597 90.9348 17.1543C90.9373 17.149 90.9408 17.1441 90.9452 17.1402C90.9496 17.1363 90.9548 17.1333 90.9604 17.1314C91.1333 17.0664 91.2883 16.9613 91.4128 16.8248C91.5372 16.6884 91.6276 16.5243 91.6765 16.3462C91.6776 16.3405 91.6798 16.3351 91.6831 16.3303C91.6864 16.3255 91.6906 16.3214 91.6955 16.3182C91.7005 16.3151 91.7059 16.313 91.7117 16.3121C91.7174 16.3111 91.7233 16.3114 91.729 16.3128C91.7346 16.3136 91.74 16.3156 91.7448 16.3187C91.7495 16.3217 91.7537 16.3257 91.7568 16.3304C91.76 16.3351 91.7621 16.3405 91.763 16.3461C91.764 16.3517 91.7638 16.3574 91.7624 16.3629C91.7217 16.52 91.6497 16.6673 91.5509 16.7961C91.4521 16.9248 91.3284 17.0324 91.1872 17.1123Z" fill="#263238"/>
<path d="M90.1707 15.5371C90.1316 15.9719 90.0353 16.3996 89.8843 16.8092C89.9884 16.8429 90.0987 16.8538 90.2074 16.841C90.3161 16.8282 90.4208 16.7921 90.5144 16.7352L90.1707 15.5371Z" fill="#ED893E"/>
<path d="M89.4926 15.4336H89.1346C89.1346 15.4336 89.3829 15.6484 89.4926 15.4336Z" fill="#263238"/>
<path d="M90.8843 14.9932H90.5239C90.5239 14.9932 90.7698 15.1984 90.8843 14.9932Z" fill="#263238"/>
<path d="M91.7435 12.8352C91.7435 12.8352 91.1707 14.8137 88.4546 14.5703C88.4546 14.5703 87.5906 11.4676 90.9702 11.4342C90.9702 11.4342 93.6361 10.2695 94.3832 13.1812C94.3832 13.1812 96.7388 15.8901 94.5144 16.8544C92.8604 17.5704 91.7435 12.8352 91.7435 12.8352Z" fill="#263238"/>
<path d="M91.0728 28.7141H78.3636C78.3156 28.7101 78.2672 28.7161 78.2217 28.7318C78.1761 28.7474 78.1342 28.7723 78.0988 28.805C78.0633 28.8376 78.035 28.8772 78.0157 28.9214C77.9963 28.9655 77.9863 29.0132 77.9863 29.0613C77.9863 29.1095 77.9963 29.1572 78.0157 29.2013C78.035 29.2455 78.0633 29.2851 78.0988 29.3177C78.1342 29.3504 78.1761 29.3753 78.2217 29.3909C78.2672 29.4066 78.3156 29.4126 78.3636 29.4086H91.0728C91.1599 29.4014 91.2411 29.3617 91.3003 29.2973C91.3596 29.233 91.3924 29.1488 91.3924 29.0613C91.3924 28.9739 91.3596 28.8897 91.3003 28.8254C91.2411 28.761 91.1599 28.7213 91.0728 28.7141Z" fill="#263238"/>
<path d="M78.552 29.1961H82.8958C82.9219 29.1959 82.9475 29.1896 82.9706 29.1776C82.9938 29.1656 83.0137 29.1483 83.0289 29.1271C83.044 29.1059 83.0539 29.0814 83.0577 29.0557C83.0616 29.0299 83.0592 29.0036 83.0509 28.9789L80.6642 22.172C80.6309 22.0814 80.5709 22.0029 80.492 21.9471C80.4132 21.8913 80.3193 21.8607 80.2227 21.8594H75.8789C75.8526 21.8594 75.8266 21.8657 75.8032 21.8779C75.7799 21.89 75.7597 21.9075 75.7445 21.929C75.7293 21.9505 75.7195 21.9754 75.7159 22.0015C75.7123 22.0276 75.715 22.0541 75.7238 22.079L78.1105 28.8834C78.142 28.9753 78.2016 29.0549 78.2808 29.111C78.3601 29.1671 78.4549 29.1968 78.552 29.1961Z" fill="#263238"/>
<path d="M78.3421 29.1961H82.6858C82.7119 29.1959 82.7375 29.1896 82.7607 29.1776C82.7838 29.1656 82.8038 29.1483 82.8189 29.1271C82.834 29.1059 82.8439 29.0814 82.8478 29.0557C82.8516 29.0299 82.8493 29.0036 82.841 28.9789L80.4543 22.172C80.421 22.0814 80.3609 22.0029 80.2821 21.9471C80.2032 21.8913 80.1093 21.8607 80.0127 21.8594H75.6689C75.6426 21.8594 75.6167 21.8657 75.5933 21.8779C75.5699 21.89 75.5498 21.9075 75.5346 21.929C75.5194 21.9505 75.5096 21.9754 75.506 22.0015C75.5023 22.0276 75.505 22.0541 75.5138 22.079L77.9005 28.8787C77.933 28.9702 77.9928 29.0497 78.0717 29.1064C78.1506 29.1631 78.2449 29.1944 78.3421 29.1961Z" fill="#407BFF"/>
<path opacity="0.5" d="M79.0725 25.9929H79.6238C79.6272 25.9928 79.6304 25.9918 79.6333 25.9901C79.6362 25.9885 79.6387 25.9862 79.6406 25.9834C79.6424 25.9806 79.6436 25.9774 79.644 25.9741C79.6444 25.9708 79.644 25.9674 79.6429 25.9643L79.3327 25.1027C79.3282 25.0912 79.3203 25.0813 79.3101 25.0745C79.2998 25.0677 79.2877 25.0642 79.2754 25.0645H78.7264C78.7232 25.0643 78.7199 25.0649 78.717 25.0662C78.714 25.0676 78.7115 25.0697 78.7096 25.0723C78.7077 25.0749 78.7065 25.078 78.7061 25.0812C78.7057 25.0845 78.7061 25.0877 78.7073 25.0908L79.0081 25.9524C79.0128 25.9653 79.0217 25.9763 79.0333 25.9837C79.045 25.991 79.0588 25.9943 79.0725 25.9929Z" fill="white"/>
<path d="M83.4543 29.4086C83.4063 29.4126 83.3579 29.4066 83.3124 29.3909C83.2668 29.3753 83.2249 29.3504 83.1895 29.3177C83.154 29.2851 83.1257 29.2455 83.1064 29.2013C83.087 29.1572 83.077 29.1095 83.077 29.0613C83.077 29.0132 83.087 28.9655 83.1064 28.9214C83.1257 28.8772 83.154 28.8376 83.1895 28.805C83.2249 28.7723 83.2668 28.7474 83.3124 28.7318C83.3579 28.7161 83.4063 28.7101 83.4543 28.7141H91.0726C91.1598 28.7213 91.241 28.761 91.3002 28.8254C91.3594 28.8897 91.3923 28.9739 91.3923 29.0613C91.3923 29.1488 91.3594 29.233 91.3002 29.2973C91.241 29.3617 91.1598 29.4014 91.0726 29.4086H83.4543Z" fill="#407BFF"/>
<path d="M93.0107 29.4202H74.8909V29.8331C74.8908 30.0547 74.9271 30.2749 74.9983 30.4847H93.0107C93.1466 30.4756 93.274 30.4152 93.3671 30.3158C93.4601 30.2163 93.5119 30.0851 93.5119 29.9489C93.5119 29.8127 93.4601 29.6815 93.3671 29.582C93.274 29.4826 93.1466 29.4222 93.0107 29.4131V29.4202Z" fill="#407BFF"/>
<path d="M76.9291 31.8803H92.5119V30.4912H74.9983C75.1339 30.8959 75.3933 31.2478 75.7398 31.497C76.0862 31.7463 76.5023 31.8804 76.9291 31.8803Z" fill="#407BFF"/>
<path opacity="0.6" d="M93.0107 29.4202H74.8909V29.8331C74.8908 30.0547 74.9271 30.2749 74.9983 30.4847H93.0107C93.1466 30.4756 93.274 30.4152 93.3671 30.3158C93.4601 30.2163 93.5119 30.0851 93.5119 29.9489C93.5119 29.8127 93.4601 29.6815 93.3671 29.582C93.274 29.4826 93.1466 29.4222 93.0107 29.4131V29.4202Z" fill="white"/>
<path opacity="0.4" d="M76.9291 31.8803H92.5119V30.4912H74.9983C75.1339 30.8959 75.3933 31.2478 75.7398 31.497C76.0862 31.7463 76.5023 31.8804 76.9291 31.8803Z" fill="white"/>
<path d="M26.8874 67.7381H24.0806C23.3685 67.7346 22.6836 67.4647 22.1605 66.9814C21.6375 66.4982 21.3144 65.8366 21.2548 65.127L20.744 58.6519L21.8133 58.5684L22.324 65.0435C22.3616 65.4854 22.5632 65.8973 22.8891 66.1981C23.2151 66.4989 23.6419 66.6668 24.0854 66.6688H26.8922L26.8874 67.7381Z" fill="#263238"/>
<path d="M25.4695 59.3441C25.7931 59.3103 26.0901 59.1497 26.2955 58.8974C26.5008 58.6451 26.5977 58.3216 26.565 57.998L25.7154 49.709C25.699 49.5489 25.6512 49.3937 25.5748 49.2521C25.4984 49.1106 25.3948 48.9855 25.27 48.884C25.1452 48.7824 25.0017 48.7065 24.8475 48.6605C24.6934 48.6145 24.5317 48.5993 24.3717 48.6158H16.2569C16.1499 48.6266 16.0461 48.6583 15.9514 48.7093C15.8568 48.7602 15.7731 48.8294 15.7053 48.9128C15.6374 48.9962 15.5867 49.0921 15.556 49.1952C15.5253 49.2982 15.5153 49.4063 15.5266 49.5132L16.4574 58.6113C16.4681 58.7184 16.4999 58.8223 16.5508 58.9171C16.6017 59.0119 16.6708 59.0957 16.7542 59.1637C16.8375 59.2318 16.9335 59.2827 17.0365 59.3137C17.1396 59.3446 17.2477 59.3549 17.3548 59.3441H25.4695Z" fill="#407BFF"/>
<path opacity="0.3" d="M25.4695 59.3441C25.7931 59.3103 26.0901 59.1497 26.2955 58.8974C26.5008 58.6451 26.5977 58.3216 26.565 57.998L25.7154 49.709C25.699 49.5489 25.6512 49.3937 25.5748 49.2521C25.4984 49.1106 25.3948 48.9855 25.27 48.884C25.1452 48.7824 25.0017 48.7065 24.8475 48.6605C24.6934 48.6145 24.5317 48.5993 24.3717 48.6158H16.2569C16.1499 48.6266 16.0461 48.6583 15.9514 48.7093C15.8568 48.7602 15.7731 48.8294 15.7053 48.9128C15.6374 48.9962 15.5867 49.0921 15.556 49.1952C15.5253 49.2982 15.5153 49.4063 15.5266 49.5132L16.4574 58.6113C16.4681 58.7184 16.4999 58.8223 16.5508 58.9171C16.6017 59.0119 16.6708 59.0957 16.7542 59.1637C16.8375 59.2318 16.9335 59.2827 17.0365 59.3137C17.1396 59.3446 17.2477 59.3549 17.3548 59.3441H25.4695Z" fill="black"/>
<path d="M16.455 58.6113L15.5242 49.5132C15.513 49.4063 15.523 49.2982 15.5537 49.1952C15.5844 49.0921 15.6351 48.9962 15.7029 48.9128C15.7708 48.8294 15.8545 48.7602 15.9491 48.7093C16.0438 48.6583 16.1476 48.6266 16.2546 48.6158C16.4146 48.5993 16.5763 48.6145 16.7304 48.6605C16.8846 48.7065 17.0281 48.7824 17.1529 48.884C17.2777 48.9855 17.3813 49.1106 17.4577 49.2521C17.5341 49.3937 17.5819 49.5489 17.5983 49.709L18.4479 57.9956C18.4806 58.3192 18.3837 58.6427 18.1784 58.895C17.973 59.1473 17.676 59.3079 17.3524 59.3417C17.1366 59.3637 16.9209 59.2991 16.7526 59.1622C16.5844 59.0253 16.4773 58.8271 16.455 58.6113Z" fill="#407BFF"/>
<path d="M25.6319 83.4309L25.7035 83.2114C25.748 83.0728 25.8353 82.952 25.9528 82.8662C26.0703 82.7804 26.212 82.7341 26.3575 82.734H33.9472C34.104 82.734 34.2561 82.7875 34.3784 82.8855C34.5008 82.9836 34.5861 83.1204 34.6202 83.2734L34.6393 83.3617C34.672 83.5101 34.7545 83.6429 34.873 83.7379C34.9915 83.833 35.139 83.8847 35.2909 83.8844C35.3909 83.8847 35.4896 83.8624 35.5798 83.8193C35.67 83.7762 35.7493 83.7134 35.8119 83.6354C35.8745 83.5575 35.9187 83.4664 35.9413 83.3691C35.9639 83.2717 35.9643 83.1705 35.9425 83.0729L35.9234 82.987C35.8244 82.5365 35.5745 82.1334 35.2151 81.8443C34.8557 81.5552 34.4084 81.3976 33.9472 81.3975H26.3575C25.9339 81.4001 25.5218 81.5355 25.1793 81.7847C24.8367 82.0339 24.581 82.3843 24.4481 82.7865L24.3741 83.0085C24.3414 83.1088 24.3328 83.2154 24.3491 83.3197C24.3655 83.424 24.4063 83.5229 24.4682 83.6083C24.5302 83.6938 24.6115 83.7633 24.7055 83.8113C24.7994 83.8593 24.9035 83.8844 25.009 83.8844C25.1469 83.8824 25.2809 83.8377 25.3924 83.7565C25.5039 83.6753 25.5876 83.5616 25.6319 83.4309Z" fill="#263238"/>
<path opacity="0.7" d="M31.2716 81.4023H28.9231V82.7365H31.2716V81.4023Z" fill="black"/>
<path d="M30.0975 83.7381C29.9202 83.7381 29.7503 83.6677 29.6249 83.5424C29.4996 83.4171 29.4292 83.2471 29.4292 83.0699V65.3271H30.7634V83.0699C30.7634 83.2467 30.6933 83.4163 30.5685 83.5416C30.4437 83.6668 30.2743 83.7375 30.0975 83.7381Z" fill="#263238"/>
<path d="M31.0306 84.9488C31.0311 85.1341 30.9765 85.3153 30.8739 85.4695C30.7713 85.6237 30.6252 85.744 30.4541 85.8151C30.2831 85.8862 30.0948 85.905 29.9131 85.8689C29.7314 85.8329 29.5644 85.7438 29.4335 85.6128C29.3025 85.4818 29.2133 85.3149 29.1773 85.1332C29.1413 84.9514 29.16 84.7631 29.2311 84.5921C29.3022 84.421 29.4225 84.2749 29.5767 84.1723C29.7309 84.0697 29.9121 84.0152 30.0974 84.0156C30.3447 84.0163 30.5817 84.1148 30.7566 84.2897C30.9314 84.4645 31.03 84.7015 31.0306 84.9488Z" fill="#407BFF"/>
<path d="M25.2691 84.9488C25.2696 85.134 25.2151 85.3151 25.1126 85.4693C25.0101 85.6234 24.8641 85.7437 24.6932 85.8149C24.5223 85.8861 24.3341 85.9049 24.1525 85.8691C23.9708 85.8333 23.8039 85.7444 23.6728 85.6136C23.5417 85.4829 23.4524 85.3162 23.4161 85.1346C23.3798 84.9531 23.3982 84.7648 23.4689 84.5937C23.5397 84.4226 23.6596 84.2764 23.8135 84.1735C23.9674 84.0706 24.1484 84.0156 24.3335 84.0156C24.5811 84.0163 24.8183 84.1147 24.9936 84.2895C25.1688 84.4643 25.2679 84.7013 25.2691 84.9488Z" fill="#407BFF"/>
<path d="M36.8972 84.9488C36.8976 85.1341 36.8431 85.3153 36.7405 85.4695C36.6379 85.6237 36.4918 85.744 36.3207 85.8151C36.1497 85.8862 35.9614 85.905 35.7796 85.8689C35.5979 85.8329 35.431 85.7438 35.3 85.6128C35.169 85.4818 35.0799 85.3149 35.0439 85.1332C35.0078 84.9514 35.0266 84.7631 35.0977 84.5921C35.1688 84.421 35.2891 84.2749 35.4433 84.1723C35.5975 84.0697 35.7787 84.0152 35.964 84.0156C36.2113 84.0163 36.4483 84.1148 36.6231 84.2897C36.798 84.4645 36.8965 84.7015 36.8972 84.9488Z" fill="#407BFF"/>
<path opacity="0.7" d="M30.7634 66.3613H29.4292V69.5189H30.7634V66.3613Z" fill="black"/>
<path d="M34.4292 67.8808H25.6318C25.2733 67.8801 24.9257 67.7573 24.6463 67.5325C24.3669 67.3078 24.1724 66.9946 24.0948 66.6445L23.8323 65.4512H36.372L35.9281 66.7973C35.8244 67.1129 35.6236 67.3876 35.3544 67.5822C35.0852 67.7768 34.7614 67.8813 34.4292 67.8808Z" fill="#263238"/>
<path opacity="0.5" d="M34.4292 67.8808H25.6318C25.2733 67.8801 24.9257 67.7573 24.6463 67.5325C24.3669 67.3078 24.1724 66.9946 24.0948 66.6445L23.8323 65.4512H36.372L35.9281 66.7973C35.8244 67.1129 35.6236 67.3876 35.3544 67.5822C35.0852 67.7768 34.7614 67.8813 34.4292 67.8808Z" fill="white"/>
<path d="M23.5554 64.2461H36.6369C36.7808 64.2461 36.9232 64.2744 37.0561 64.3295C37.189 64.3845 37.3098 64.4652 37.4115 64.567C37.5132 64.6687 37.5939 64.7894 37.649 64.9224C37.704 65.0553 37.7324 65.1977 37.7324 65.3416V65.6542C37.7324 65.8479 37.6554 66.0337 37.5185 66.1707C37.3815 66.3076 37.1957 66.3846 37.0021 66.3846H23.1926C23.0967 66.3846 23.0017 66.3657 22.9131 66.329C22.8245 66.2923 22.744 66.2385 22.6762 66.1707C22.6084 66.1029 22.5546 66.0223 22.5179 65.9337C22.4812 65.8451 22.4623 65.7502 22.4623 65.6542V65.3416C22.4623 65.0515 22.5774 64.7732 22.7823 64.5678C22.9872 64.3624 23.2653 64.2467 23.5554 64.2461Z" fill="#407BFF"/>
<path d="M39.3267 58.9745C39.3267 58.9745 44.8161 58.7001 45.2123 60.5331C45.6085 62.366 44.7731 83.9227 44.7731 83.9227L43.0428 84.0301C43.0428 84.0301 40.0475 66.76 41.5201 63.8004L37.1548 63.8601L39.3267 58.9745Z" fill="#FF8B7B"/>
<g style="mix-blend-mode:multiply" opacity="0.1">
<path d="M45.1027 74.2245C44.0311 74.2126 42.8282 74.2389 41.6444 74.289C41.7661 75.3487 41.8998 76.4012 42.0358 77.3917C43.0466 77.2002 44.0452 76.9492 45.0264 76.6399C45.0526 75.869 45.0765 75.0551 45.1027 74.2245Z" fill="black"/>
</g>
<path d="M45.203 83.8556C45.194 83.8544 45.1856 83.8506 45.1788 83.8447C45.172 83.8387 45.1671 83.8309 45.1648 83.8221C45.1624 83.8132 45.163 83.8037 45.1664 83.7951C45.1698 83.7865 45.176 83.7792 45.1839 83.7744C45.2101 83.7553 45.8402 83.3329 46.16 83.3973C46.2194 83.4085 46.2722 83.4418 46.308 83.4904C46.3303 83.517 46.3438 83.5498 46.3468 83.5844C46.3498 83.619 46.3421 83.6537 46.3247 83.6837C46.1733 83.8103 45.9801 83.8758 45.7829 83.8675C45.5897 83.8814 45.3955 83.8774 45.203 83.8556ZM45.3438 83.7863C45.697 83.803 46.1696 83.7672 46.2483 83.6384C46.2483 83.6217 46.2698 83.5954 46.2316 83.5405C46.2221 83.5247 46.2088 83.5115 46.193 83.5019C46.1772 83.4924 46.1594 83.4868 46.1409 83.4856C46.1124 83.482 46.0836 83.482 46.055 83.4856C45.7967 83.5379 45.5511 83.6401 45.3319 83.7863H45.3438Z" fill="#407BFF"/>
<path d="M45.1671 83.8554C45.1604 83.8516 45.1549 83.846 45.1511 83.8393C45.1474 83.8326 45.1455 83.8249 45.1456 83.8172C45.1456 83.7934 45.16 83.2826 45.3843 83.0678C45.4159 83.0371 45.4532 83.0131 45.4942 82.9971C45.5352 82.9811 45.579 82.9735 45.623 82.9747C45.7447 82.9747 45.7877 83.0368 45.7972 83.0869C45.8521 83.2969 45.4297 83.7361 45.2125 83.8506C45.2063 83.853 45.1995 83.853 45.1934 83.8506L45.1671 83.8554ZM45.6039 83.0607C45.5471 83.0631 45.4934 83.087 45.4535 83.1275C45.325 83.2996 45.2525 83.5071 45.2459 83.7218C45.4678 83.5666 45.7423 83.2277 45.7232 83.1012C45.7232 83.0893 45.7232 83.0583 45.6301 83.0559H45.6063L45.6039 83.0607Z" fill="#407BFF"/>
<path d="M44.9808 83.6077L42.9306 83.7557C42.8928 83.758 42.857 83.7733 42.8292 83.799C42.8014 83.8246 42.7833 83.859 42.7778 83.8965L42.5272 85.591C42.5215 85.6275 42.5232 85.6647 42.5322 85.7005C42.5412 85.7363 42.5573 85.7699 42.5796 85.7993C42.6019 85.8287 42.6299 85.8533 42.6619 85.8717C42.6939 85.89 42.7293 85.9017 42.7659 85.9061C42.7857 85.9086 42.8058 85.9086 42.8256 85.9061C43.5631 85.8393 44.2194 85.751 45.1383 85.6865C46.2242 85.6077 45.9593 85.7581 47.2386 85.6865C48.0071 85.6412 48.0859 84.7557 47.7565 84.7318C46.2481 84.6531 46.0619 84.2115 45.4462 83.7199C45.3107 83.6252 45.1445 83.5852 44.9808 83.6077Z" fill="#263238"/>
<path d="M35.9829 59.1504C35.9829 59.1504 41.4867 59.4129 41.7874 61.265C42.0881 63.1171 39.9496 84.0532 39.9496 84.0532L38.2145 84.0771C38.2145 84.0771 36.0545 66.6828 37.6679 63.7901L33.3051 63.6398L35.9829 59.1504Z" fill="#FF8B7B"/>
<g style="mix-blend-mode:multiply" opacity="0.1">
<path d="M40.5942 77.4972C40.692 76.4757 40.7946 75.3922 40.8973 74.2871C39.5846 74.2871 38.3077 74.2871 37.2886 74.3134C37.3649 75.4781 37.458 76.6308 37.5535 77.7168C38.1764 77.7049 39.2743 77.6571 40.5942 77.4972Z" fill="black"/>
</g>
<path d="M40.3317 84.0281C40.3228 84.0263 40.3147 84.022 40.3083 84.0156C40.3019 84.0093 40.2976 84.0011 40.2959 83.9923C40.294 83.9837 40.2949 83.9747 40.2983 83.9666C40.3017 83.9585 40.3075 83.9516 40.315 83.9469C40.3436 83.9278 40.9904 83.534 41.3054 83.6104C41.365 83.624 41.4171 83.6598 41.451 83.7106C41.4707 83.739 41.4813 83.7727 41.4813 83.8073C41.4813 83.8419 41.4707 83.8756 41.451 83.904C41.2929 84.0227 41.0968 84.0795 40.8997 84.0639C40.7097 84.0681 40.5197 84.0561 40.3317 84.0281ZM40.4749 83.9636C40.8281 83.997 41.3007 83.9803 41.3866 83.8538C41.3985 83.8395 41.4081 83.8109 41.3866 83.756C41.3765 83.7402 41.3632 83.7268 41.3476 83.7165C41.332 83.7063 41.3144 83.6994 41.2959 83.6963C41.2674 83.6928 41.2385 83.6928 41.21 83.6963C40.9503 83.7382 40.7008 83.8289 40.4749 83.9636Z" fill="#407BFF"/>
<path d="M40.3077 84.0272C40.3013 84.0227 40.2961 84.0165 40.2928 84.0094C40.2894 84.0023 40.288 83.9944 40.2886 83.9866C40.2886 83.9627 40.3244 83.452 40.5583 83.2491C40.5906 83.2202 40.6283 83.1979 40.6693 83.1835C40.7102 83.1692 40.7536 83.1631 40.797 83.1656C40.9187 83.1656 40.9592 83.2348 40.9664 83.2849C41.0118 83.4949 40.5726 83.9174 40.3506 84.0248C40.3445 84.0272 40.3377 84.0272 40.3315 84.0248L40.3077 84.0272ZM40.785 83.2491C40.7292 83.2516 40.676 83.2735 40.6347 83.3112C40.4971 83.4771 40.4138 83.6812 40.396 83.8959C40.6347 83.7503 40.9115 83.4186 40.8972 83.2945C40.8972 83.2825 40.8972 83.2515 40.8065 83.2467L40.785 83.2491Z" fill="#407BFF"/>
<path d="M40.1311 83.7726L38.0762 83.837C38.0386 83.838 38.0025 83.8518 37.9739 83.8761C37.9452 83.9004 37.9257 83.9337 37.9187 83.9707L37.5988 85.6533C37.5916 85.6889 37.5914 85.7256 37.5984 85.7612C37.6054 85.7969 37.6194 85.8308 37.6396 85.861C37.6598 85.8911 37.6858 85.917 37.7161 85.9371C37.7464 85.9572 37.7803 85.971 37.816 85.9779C37.8351 85.9802 37.8543 85.9802 37.8733 85.9779C38.6132 85.9421 39.2719 85.8824 40.1932 85.8538C41.2839 85.8227 41.0118 85.9612 42.2911 85.9397C43.062 85.9254 43.1766 85.0447 42.8496 85.0113C41.346 84.8704 41.1789 84.4217 40.5822 83.9038C40.4529 83.8065 40.2925 83.7598 40.1311 83.7726Z" fill="#263238"/>
<path d="M24.0471 55.2559C23.9267 55.9339 23.7495 56.6005 23.5173 57.2488C22.8156 59.2607 22.658 62.4995 24.0757 63.6618C26.3097 65.4853 34.9185 63.4017 36.1668 64.743C37.2074 65.8624 36.6441 76.4688 36.6441 76.4688C39.7397 76.3384 42.8266 76.0493 45.8926 75.6025C45.8926 75.6025 45.4152 72.8339 45.6253 67.5235C45.8353 62.2131 46.3556 59.3658 43.1288 59.0006C39.902 58.6354 34.15 57.5352 33.4364 56.4373C32.959 55.6998 33.181 55.2773 33.181 55.2773L24.0471 55.2559Z" fill="#263238"/>
<path opacity="0.5" d="M43.1598 75.9701C42.9593 75.0154 42.7135 72.655 43.062 67.0486C43.2863 63.4399 44.0453 59.626 40.9139 59.626C41.411 59.7266 41.8564 59.9999 42.1714 60.3974C42.4863 60.7949 42.6505 61.291 42.6348 61.7979C42.6348 63.4113 41.7851 73.3829 41.5464 76.1348C42.0715 76.087 42.6109 76.0322 43.1598 75.9701Z" fill="black"/>
<path opacity="0.5" d="M33.3909 56.3466C32.9852 55.6664 33.1904 55.2773 33.1904 55.2773L24.047 55.2559C23.9577 55.7623 23.8349 56.2622 23.6794 56.7523C24.8585 56.855 27.3001 57.022 28.8156 56.9385C30.9374 56.8239 33.7012 57.5352 33.7012 57.5352C33.7012 57.5352 32.7226 56.8144 33.3909 56.3466Z" fill="black"/>
<path d="M36.5367 37.1459C36.5367 37.1459 35.9471 38.609 36.3744 40.8644C36.718 42.6687 33.6082 41.9217 32.5867 40.8644C31.5652 39.8071 35.7681 36.9932 35.7681 36.9932L36.5367 37.1459Z" fill="#263238"/>
<path opacity="0.4" d="M36.5367 37.1459C36.5367 37.1459 35.9471 38.609 36.3744 40.8644C36.718 42.6687 33.6082 41.9217 32.5867 40.8644C31.5652 39.8071 35.7681 36.9932 35.7681 36.9932L36.5367 37.1459Z" fill="black"/>
<path d="M36.7944 52.3872L38.0761 52.7333C38.0761 52.7333 39.7874 51.7786 40.384 51.9075C40.711 51.9815 41.2027 52.5232 41.5607 52.9624C41.6085 53.0245 41.6403 53.0975 41.6532 53.1748C41.6662 53.2522 41.6599 53.3315 41.6349 53.4058C41.6099 53.4802 41.5669 53.5472 41.5099 53.6009C41.4528 53.6547 41.3834 53.6936 41.3077 53.7142C41.2296 53.736 41.1471 53.736 41.069 53.7142L40.1907 53.4612C40.1907 53.4612 39.2098 53.898 38.8231 53.9218C38.1453 53.9648 36.2837 53.4445 36.2837 53.4445L36.7944 52.3872Z" fill="#FF8B7B"/>
<path d="M34.5627 42.0049C35.1093 42.0908 36.1809 42.6804 35.0234 47.523C34.842 48.2891 34.5174 49.745 34.768 50.492C35.2191 51.8405 37.6678 52.4443 37.6678 52.4443L37.391 53.8167C37.391 53.8167 32.8562 52.8429 32.4004 51.2653C31.9541 49.7426 32.1235 41.6278 34.5627 42.0049Z" fill="#407BFF"/>
<path opacity="0.6" d="M34.5627 42.0049C35.1093 42.0908 36.1809 42.6804 35.0234 47.523C34.842 48.2891 34.5174 49.745 34.768 50.492C35.2191 51.8405 37.6678 52.4443 37.6678 52.4443L37.391 53.8167C37.391 53.8167 32.8562 52.8429 32.4004 51.2653C31.9541 49.7426 32.1235 41.6278 34.5627 42.0049Z" fill="white"/>
<path d="M23.7512 55.7003C26.9193 56.1258 30.13 56.1258 33.298 55.7003C33.298 55.7003 32.9615 53.6669 33.6154 50.2873C33.6966 49.8744 34.3625 47.4233 34.4818 47.0199C35.7706 42.6809 36.4819 41.5806 30.57 41.1582C25.4887 40.7978 24.7154 42.0699 24.5842 45.0724C24.4529 48.0748 23.7512 55.7003 23.7512 55.7003Z" fill="#407BFF"/>
<path opacity="0.4" d="M23.7512 55.7003C26.9193 56.1258 30.13 56.1258 33.298 55.7003C33.298 55.7003 32.9615 53.6669 33.6154 50.2873C33.6966 49.8744 34.3625 47.4233 34.4818 47.0199C35.7706 42.6809 36.4819 41.5806 30.57 41.1582C25.4887 40.7978 24.7154 42.0699 24.5842 45.0724C24.4529 48.0748 23.7512 55.7003 23.7512 55.7003Z" fill="white"/>
<path d="M29.0616 52.2672L30.36 52.8377C30.36 52.8377 32.0904 51.8663 32.6966 52.0023C33.0832 52.0906 33.8135 53.1312 33.8135 53.1312C33.8692 53.1836 33.9094 53.2502 33.93 53.3238C33.9506 53.3975 33.9507 53.4753 33.9303 53.5489C33.9099 53.6226 33.8698 53.6893 33.8144 53.7419C33.7589 53.7944 33.6901 53.8309 33.6154 53.8472C33.5443 53.8663 33.4694 53.8663 33.3983 53.8472L32.4961 53.5895C32.4961 53.5895 31.5008 54.031 31.1094 54.0549C30.4244 54.1002 28.5389 53.3556 28.5389 53.3556L29.0616 52.2672Z" fill="#FF8B7B"/>
<path d="M29.7776 40.9613C29.0616 41.1475 28.6439 41.6511 28.9184 43.5676C28.9823 43.4789 29.0663 43.4066 29.1636 43.3568C29.261 43.307 29.3687 43.281 29.478 43.281C29.5874 43.281 29.6951 43.307 29.7925 43.3568C29.8898 43.4066 29.9738 43.4789 30.0377 43.5676C30.6153 44.2383 31.6488 45.3385 31.6488 45.3385C32.1587 44.8779 32.6371 44.3836 33.0808 43.8588C33.6297 43.169 33.9543 43.971 33.9543 43.971C33.9543 43.971 34.4149 41.8229 33.2789 41.3456C32.2383 40.9112 30.644 40.737 29.7776 40.9613Z" fill="#407BFF"/>
<path opacity="0.6" d="M29.7776 40.9613C29.0616 41.1475 28.6439 41.6511 28.9184 43.5676C28.9823 43.4789 29.0663 43.4066 29.1636 43.3568C29.261 43.307 29.3687 43.281 29.478 43.281C29.5874 43.281 29.6951 43.307 29.7925 43.3568C29.8898 43.4066 29.9738 43.4789 30.0377 43.5676C30.6153 44.2383 31.6488 45.3385 31.6488 45.3385C32.1587 44.8779 32.6371 44.3836 33.0808 43.8588C33.6297 43.169 33.9543 43.971 33.9543 43.971C33.9543 43.971 34.4149 41.8229 33.2789 41.3456C32.2383 40.9112 30.644 40.737 29.7776 40.9613Z" fill="white"/>
<path opacity="0.1" d="M24.5818 45.0721C24.5078 46.7428 24.262 49.824 24.0543 52.2322C33.8398 56.1726 27.6678 51.7047 27.6678 51.7047C27.6678 51.7047 25.7083 50.3682 26.6272 47.17C27.5461 43.9718 27.2668 41.9718 27.2668 41.9718L26.9542 41.2939C25.0663 41.7665 24.6772 43.0076 24.5818 45.0721Z" fill="black"/>
<path d="M26.4434 41.4779C27.7131 41.4111 28.1141 41.9242 26.2429 46.5496C25.9446 47.2871 25.4625 48.7979 25.7155 49.5545C26.1737 50.9197 30.2025 52.5426 30.2025 52.5426L29.613 53.9102C29.613 53.9102 22.8872 51.6715 23.0519 50.07C23.2166 48.4685 24.3598 41.5901 26.4434 41.4779Z" fill="#407BFF"/>
<path opacity="0.6" d="M26.4434 41.4779C27.7131 41.4111 28.1141 41.9242 26.2429 46.5496C25.9446 47.2871 25.4625 48.7979 25.7155 49.5545C26.1737 50.9197 30.2025 52.5426 30.2025 52.5426L29.613 53.9102C29.613 53.9102 22.8872 51.6715 23.0519 50.07C23.2166 48.4685 24.3598 41.5901 26.4434 41.4779Z" fill="white"/>
<path d="M31.7443 44.8145C31.7443 44.8145 34.3386 42.5877 33.3482 41.7118C32.8493 41.2679 31.3123 40.8669 29.9614 41.1772C29.6368 41.2488 29.3409 42.2035 31.7443 44.8145Z" fill="#FF8B7B"/>
<path d="M33.3291 42.5393C33.3263 42.2982 33.2975 42.0581 33.2431 41.8233C33.0045 41.7016 32.5916 41.2505 33.0379 40.544L31.5987 38.0117C31.3266 39.1621 31.0903 41.0142 30.0283 41.3841C30.0283 41.3841 29.6941 42.2553 31.2216 44.136L33.3291 42.5393Z" fill="#FF8B7B"/>
<path opacity="0.2" d="M31.5986 38.0117C31.5079 38.396 31.4196 38.859 31.3051 39.3196C31.3234 39.8223 31.4925 40.3078 31.7904 40.713C32.0884 41.1182 32.5014 41.4244 32.9757 41.5918C32.8182 41.3698 32.7371 41.0166 33.033 40.5512L31.5986 38.0117Z" fill="black"/>
<path d="M31.3003 35.8324C30.9876 37.7848 30.823 38.601 31.5652 39.8063C32.6965 41.6202 35.162 41.5748 36.0522 39.7586C36.8518 38.1213 37.2312 35.1952 35.5128 34.0186C35.1362 33.7554 34.6987 33.5928 34.2417 33.5462C33.7846 33.4995 33.3233 33.5704 32.9013 33.7521C32.4793 33.9338 32.1108 34.2203 31.8306 34.5843C31.5504 34.9484 31.3679 35.378 31.3003 35.8324Z" fill="#FF8B7B"/>
<path d="M34.4245 37.3554C34.3768 37.5105 34.4245 37.6609 34.5176 37.6919C34.6107 37.7229 34.7396 37.6251 34.7873 37.4723C34.835 37.3196 34.7873 37.1692 34.6942 37.1358C34.6012 37.1024 34.477 37.2146 34.4245 37.3554Z" fill="#263238"/>
<path d="M36.1524 37.9065C36.1023 38.064 36.1524 38.212 36.2455 38.2431C36.3385 38.2741 36.4674 38.1762 36.5152 38.0235C36.5629 37.8707 36.5152 37.7204 36.4221 37.6893C36.329 37.6583 36.2001 37.7562 36.1524 37.9065Z" fill="#263238"/>
<path d="M36.3719 37.6846H36.7729C36.7729 37.6846 36.4961 37.9232 36.3719 37.6846Z" fill="#263238"/>
<path d="M35.5295 38.0166C35.5562 38.4092 35.6365 38.7962 35.7682 39.167C35.6721 39.1976 35.5705 39.207 35.4704 39.1947C35.3703 39.1823 35.274 39.1484 35.1882 39.0954L35.5295 38.0166Z" fill="#FF5652"/>
<path d="M34.1669 39.4316C34.2375 39.4666 34.3109 39.4954 34.3865 39.5176C34.3921 39.5199 34.3982 39.521 34.4042 39.5209C34.4103 39.5208 34.4163 39.5195 34.4219 39.5171C34.4275 39.5146 34.4325 39.5111 34.4366 39.5067C34.4408 39.5022 34.444 39.497 34.4462 39.4913C34.448 39.4852 34.4485 39.4788 34.4478 39.4725C34.4471 39.4661 34.4451 39.46 34.442 39.4544C34.4389 39.4489 34.4347 39.444 34.4297 39.4401C34.4247 39.4362 34.4189 39.4333 34.4127 39.4316C34.2211 39.3754 34.0453 39.2747 33.8998 39.1379C33.7543 39.0011 33.643 38.8319 33.575 38.644C33.5702 38.6336 33.5619 38.6253 33.5515 38.6205C33.5411 38.6158 33.5293 38.6149 33.5184 38.6181C33.5074 38.6213 33.4979 38.6283 33.4916 38.6379C33.4854 38.6475 33.4828 38.659 33.4843 38.6703C33.5414 38.8364 33.6312 38.9894 33.7484 39.1202C33.8657 39.2509 34.008 39.3569 34.1669 39.4316Z" fill="#263238"/>
<path d="M33.8374 36.7877C33.8551 36.797 33.8753 36.8005 33.8951 36.7975C33.9149 36.7945 33.9332 36.7852 33.9472 36.771C34.0681 36.6762 34.2072 36.6073 34.3558 36.5687C34.5045 36.5301 34.6595 36.5226 34.8112 36.5466C34.8365 36.5508 34.8624 36.5449 34.8834 36.5301C34.9044 36.5154 34.9187 36.493 34.9234 36.4678C34.9269 36.4436 34.9209 36.4188 34.9067 36.3988C34.8925 36.3788 34.8711 36.3651 34.847 36.3604C34.6648 36.3299 34.4782 36.339 34.2998 36.3872C34.1215 36.4354 33.9556 36.5215 33.8136 36.6397C33.7962 36.6571 33.7865 36.6807 33.7865 36.7053C33.7865 36.7299 33.7962 36.7535 33.8136 36.771C33.8192 36.7793 33.8277 36.7852 33.8374 36.7877Z" fill="#263238"/>
<path d="M36.9233 37.274C36.9379 37.2822 36.9543 37.2864 36.9711 37.2864C36.9878 37.2864 37.0042 37.2822 37.0188 37.274C37.0295 37.2674 37.0388 37.2588 37.046 37.2486C37.0533 37.2383 37.0584 37.2267 37.0611 37.2145C37.0638 37.2022 37.0639 37.1895 37.0616 37.1772C37.0592 37.1649 37.0544 37.1532 37.0474 37.1427C36.9693 37.0125 36.8603 36.9037 36.7299 36.8258C36.5996 36.7479 36.452 36.7035 36.3004 36.6964C36.2886 36.6958 36.2768 36.6975 36.2657 36.7015C36.2546 36.7055 36.2444 36.7117 36.2357 36.7197C36.227 36.7277 36.22 36.7374 36.2152 36.7481C36.2103 36.7589 36.2076 36.7705 36.2073 36.7823C36.207 36.7947 36.2092 36.8069 36.2137 36.8183C36.2183 36.8298 36.2251 36.8402 36.2338 36.8489C36.2425 36.8576 36.2529 36.8644 36.2644 36.869C36.2758 36.8736 36.2881 36.8758 36.3004 36.8754C36.4183 36.8856 36.5322 36.9232 36.633 36.9854C36.7337 37.0476 36.8184 37.1325 36.8804 37.2334C36.89 37.2512 36.9051 37.2654 36.9233 37.274Z" fill="#263238"/>
<path d="M34.6393 37.1455H35.0402C35.0402 37.1455 34.7658 37.3746 34.6393 37.1455Z" fill="#263238"/>
<path d="M31.1214 36.7155C31.1214 36.7155 32.2097 38.1213 32.7921 36.8635C33.3744 35.6057 35.6227 35.1117 35.1931 34.3813C35.7879 34.765 36.3013 35.2622 36.7039 35.8444C36.7174 35.8675 36.7384 35.8852 36.7634 35.8947C36.7885 35.9041 36.816 35.9047 36.8414 35.8964C36.8668 35.888 36.8886 35.8711 36.9031 35.8487C36.9176 35.8262 36.9239 35.7994 36.9211 35.7728C36.8614 34.9303 36.5296 33.2691 34.8446 33.3336C34.8446 33.3336 33.0809 32.0209 31.5725 33.0663C30.1309 34.0591 31.1214 36.7155 31.1214 36.7155Z" fill="#263238"/>
<path d="M34.3551 33.2914C34.3551 33.2914 31.7632 31.5563 30.0949 34.7807C28.4265 38.0052 25.9993 38.6973 27.4695 40.6114C28.9397 42.5256 31.6462 42.096 31.6605 41.0649C31.6748 40.0338 30.997 39.1388 31.4362 37.7378C31.8753 36.3368 34.3551 33.2914 34.3551 33.2914Z" fill="#263238"/>
<path d="M30.4458 37.1962C30.4659 37.3821 30.5227 37.5622 30.6128 37.7261C30.7029 37.8899 30.8246 38.0343 30.9709 38.1509C31.3647 38.454 31.7489 38.1509 31.799 37.6735C31.8396 37.2487 31.6869 36.578 31.2191 36.4515C31.1147 36.427 31.0058 36.4291 30.9025 36.4576C30.7991 36.4862 30.7046 36.5403 30.6276 36.6149C30.5506 36.6895 30.4936 36.7823 30.4618 36.8847C30.4301 36.9871 30.4245 37.0959 30.4458 37.201V37.1962Z" fill="#FF8B7B"/>
<path d="M55.0572 84.6587L50.3745 83.3722L49.7873 55.0039H48.1166L47.5414 83.3722L42.8587 84.6587C42.5837 84.7362 42.3416 84.9016 42.1692 85.1295C41.9969 85.3574 41.9037 85.6355 41.9041 85.9212H56.0262C56.0256 85.6336 55.9304 85.3541 55.7553 85.126C55.5802 84.8978 55.3349 84.7336 55.0572 84.6587Z" fill="#263238"/>
<path opacity="0.5" d="M55.0572 84.6587L50.3745 83.3722L49.7873 55.0039H48.1166L47.5414 83.3722L42.8587 84.6587C42.5837 84.7362 42.3416 84.9016 42.1692 85.1295C41.9969 85.3574 41.9037 85.6355 41.9041 85.9212H56.0262C56.0256 85.6336 55.9304 85.3541 55.7553 85.126C55.5802 84.8978 55.3349 84.7336 55.0572 84.6587Z" fill="white"/>
<path opacity="0.2" d="M47.0428 85.921V85.1668C47.0426 85.0529 47.0704 84.9407 47.1237 84.84C47.1769 84.7393 47.2541 84.6532 47.3483 84.5892L48.9569 83.4913V56.123H48.4796V83.4913L46.1263 84.6059C46.0064 84.6625 45.905 84.752 45.834 84.864C45.763 84.9759 45.7253 85.1058 45.7253 85.2384V85.921H47.0428Z" fill="white"/>
<path d="M68.8021 55.6387H32.8536V56.6077H68.8021V55.6387Z" fill="#263238"/>
<path opacity="0.3" d="M68.8021 55.6387H32.8536V56.6077H68.8021V55.6387Z" fill="white"/>
<path opacity="0.2" d="M68.7998 55.6387H50.8757V56.6077H68.7998V55.6387Z" fill="black"/>
<path d="M70.9694 54.6699H30.6843V55.6389H70.9694V54.6699Z" fill="#263238"/>
<path opacity="0.3" d="M70.9695 54.6699H48.7087V55.6389H70.9695V54.6699Z" fill="black"/>
<path d="M79.132 49.005V42.6802V41.5107C79.1307 40.7256 78.8182 39.9729 78.2631 39.4177C77.7079 38.8626 76.9552 38.5501 76.1701 38.5488H58.425C57.6402 38.5507 56.8882 38.8635 56.3335 39.4186C55.7788 39.9737 55.4667 40.726 55.4655 41.5107V51.573H56.2459V41.5107C56.2465 40.9324 56.4766 40.3779 56.8855 39.9689C57.2945 39.5599 57.849 39.3299 58.4273 39.3293H76.1701C76.7484 39.3299 77.3029 39.5599 77.7119 39.9689C78.1208 40.3779 78.3509 40.9324 78.3515 41.5107V49.005H77.4231L78.7405 51.153L80.058 49.005H79.132Z" fill="#407BFF"/>
<path d="M96.025 51.4512H45.0547V52.2316H96.025V51.4512Z" fill="#407BFF"/>
<path d="M58.4175 55.7126H52.3791C52.212 55.7126 52.0517 55.6463 51.9336 55.5281C51.8154 55.4099 51.749 55.2497 51.749 55.0826V46.4904C51.749 46.3233 51.8154 46.1631 51.9336 46.0449C52.0517 45.9267 52.212 45.8604 52.3791 45.8604H59.353C59.5202 45.8604 59.6804 45.9267 59.7986 46.0449C59.9168 46.1631 59.9831 46.3233 59.9831 46.4904V55.0826C59.9831 55.2497 59.9168 55.4099 59.7986 55.5281C59.6804 55.6463 59.5202 55.7126 59.353 55.7126H58.4175Z" fill="#407BFF"/>
<path opacity="0.8" d="M58.4175 55.7126H52.3791C52.212 55.7126 52.0517 55.6463 51.9336 55.5281C51.8154 55.4099 51.749 55.2497 51.749 55.0826V46.4904C51.749 46.3233 51.8154 46.1631 51.9336 46.0449C52.0517 45.9267 52.212 45.8604 52.3791 45.8604H59.353C59.5202 45.8604 59.6804 45.9267 59.7986 46.0449C59.9168 46.1631 59.9831 46.3233 59.9831 46.4904V55.0826C59.9831 55.2497 59.9168 55.4099 59.7986 55.5281C59.6804 55.6463 59.5202 55.7126 59.353 55.7126H58.4175Z" fill="white"/>
<path d="M59.353 45.8633H52.3791C52.212 45.8633 52.0517 45.9297 51.9336 46.0478C51.8154 46.166 51.749 46.3263 51.749 46.4934V47.4194H59.9831V46.4934C59.9831 46.3263 59.9168 46.166 59.7986 46.0478C59.6804 45.9297 59.5202 45.8633 59.353 45.8633Z" fill="#263238"/>
<path d="M59.0476 46.944C59.1926 46.944 59.3101 46.8265 59.3101 46.6815C59.3101 46.5365 59.1926 46.4189 59.0476 46.4189C58.9026 46.4189 58.785 46.5365 58.785 46.6815C58.785 46.8265 58.9026 46.944 59.0476 46.944Z" fill="#407BFF"/>
<path d="M57.9998 46.944C58.1448 46.944 58.2624 46.8265 58.2624 46.6815C58.2624 46.5365 58.1448 46.4189 57.9998 46.4189C57.8548 46.4189 57.7373 46.5365 57.7373 46.6815C57.7373 46.8265 57.8548 46.944 57.9998 46.944Z" fill="#407BFF"/>
<path d="M56.9544 46.944C57.0994 46.944 57.217 46.8265 57.217 46.6815C57.217 46.5365 57.0994 46.4189 56.9544 46.4189C56.8094 46.4189 56.6919 46.5365 56.6919 46.6815C56.6919 46.8265 56.8094 46.944 56.9544 46.944Z" fill="#407BFF"/>
<path d="M55.1524 49.002L54.2312 49.3409L55.1524 49.675V50.0211L53.835 49.5199V49.1667L55.1524 48.6631V49.002Z" fill="#263238"/>
<path d="M56.1453 47.9727H56.5296L55.6155 50.598H55.2264L56.1453 47.9727Z" fill="#263238"/>
<path d="M57.8973 49.1667V49.5247L56.5798 50.0259V49.6798L57.5011 49.3457L56.5798 49.0068V48.6631L57.8973 49.1667Z" fill="#263238"/>
<path d="M54.1407 51.4785H52.6705C52.5663 51.4785 52.4819 51.5629 52.4819 51.6671V51.7005C52.4819 51.8046 52.5663 51.889 52.6705 51.889H54.1407C54.2448 51.889 54.3292 51.8046 54.3292 51.7005V51.6671C54.3292 51.5629 54.2448 51.4785 54.1407 51.4785Z" fill="#263238"/>
<path d="M56.8136 51.4785H54.8828C54.7786 51.4785 54.6942 51.5629 54.6942 51.6671V51.7005C54.6942 51.8046 54.7786 51.889 54.8828 51.889H56.8136C56.9177 51.889 57.0022 51.8046 57.0022 51.7005V51.6671C57.0022 51.5629 56.9177 51.4785 56.8136 51.4785Z" fill="#263238"/>
<path d="M59.0594 51.4785H57.5582C57.454 51.4785 57.3696 51.5629 57.3696 51.6671V51.7005C57.3696 51.8046 57.454 51.889 57.5582 51.889H59.0594C59.1635 51.889 59.248 51.8046 59.248 51.7005V51.6671C59.248 51.5629 59.1635 51.4785 59.0594 51.4785Z" fill="#263238"/>
<path d="M54.2934 52.5H52.6705C52.5663 52.5 52.4819 52.5844 52.4819 52.6886V52.722C52.4819 52.8261 52.5663 52.9105 52.6705 52.9105H54.2934C54.3976 52.9105 54.482 52.8261 54.482 52.722V52.6886C54.482 52.5844 54.3976 52.5 54.2934 52.5Z" fill="#263238"/>
<path d="M57.124 52.5H55.038C54.9339 52.5 54.8495 52.5844 54.8495 52.6886V52.722C54.8495 52.8261 54.9339 52.9105 55.038 52.9105H57.124C57.2281 52.9105 57.3126 52.8261 57.3126 52.722V52.6886C57.3126 52.5844 57.2281 52.5 57.124 52.5Z" fill="#263238"/>
<path d="M59.0595 52.5H57.8662C57.762 52.5 57.6776 52.5844 57.6776 52.6886V52.722C57.6776 52.8261 57.762 52.9105 57.8662 52.9105H59.0595C59.1636 52.9105 59.2481 52.8261 59.2481 52.722V52.6886C59.2481 52.5844 59.1636 52.5 59.0595 52.5Z" fill="#263238"/>
<path d="M53.9856 53.5195H52.6705C52.5663 53.5195 52.4819 53.6039 52.4819 53.7081V53.7415C52.4819 53.8456 52.5663 53.93 52.6705 53.93H53.9856C54.0897 53.93 54.1741 53.8456 54.1741 53.7415V53.7081C54.1741 53.6039 54.0897 53.5195 53.9856 53.5195Z" fill="#263238"/>
<path d="M56.661 53.5195H54.7302C54.626 53.5195 54.5416 53.6039 54.5416 53.7081V53.7415C54.5416 53.8456 54.626 53.93 54.7302 53.93H56.661C56.7651 53.93 56.8496 53.8456 56.8496 53.7415V53.7081C56.8496 53.6039 56.7651 53.5195 56.661 53.5195Z" fill="#263238"/>
<path d="M59.0596 53.5195H57.4033C57.2991 53.5195 57.2147 53.6039 57.2147 53.7081V53.7415C57.2147 53.8456 57.2991 53.93 57.4033 53.93H59.0596C59.1638 53.93 59.2482 53.8456 59.2482 53.7415V53.7081C59.2482 53.6039 59.1638 53.5195 59.0596 53.5195Z" fill="#263238"/>
<path d="M54.6013 54.5391H52.6705C52.5663 54.5391 52.4819 54.6235 52.4819 54.7276V54.761C52.4819 54.8652 52.5663 54.9496 52.6705 54.9496H54.6013C54.7055 54.9496 54.7899 54.8652 54.7899 54.761V54.7276C54.7899 54.6235 54.7055 54.5391 54.6013 54.5391Z" fill="#263238"/>
<path d="M57.124 54.5391H55.3459C55.2418 54.5391 55.1573 54.6235 55.1573 54.7276V54.761C55.1573 54.8652 55.2418 54.9496 55.3459 54.9496H57.124C57.2281 54.9496 57.3125 54.8652 57.3125 54.761V54.7276C57.3125 54.6235 57.2281 54.5391 57.124 54.5391Z" fill="#263238"/>
<path d="M59.0595 54.5391H57.8662C57.762 54.5391 57.6776 54.6235 57.6776 54.7276V54.761C57.6776 54.8652 57.762 54.9496 57.8662 54.9496H59.0595C59.1636 54.9496 59.2481 54.8652 59.2481 54.761V54.7276C59.2481 54.6235 59.1636 54.5391 59.0595 54.5391Z" fill="#263238"/>
<path d="M81.3512 43.1707H75.3128C75.1457 43.1707 74.9855 43.1043 74.8673 42.9861C74.7491 42.8679 74.6827 42.7077 74.6827 42.5406V33.9484C74.6827 33.7813 74.7491 33.6211 74.8673 33.5029C74.9855 33.3847 75.1457 33.3184 75.3128 33.3184H82.2868C82.4539 33.3184 82.6141 33.3847 82.7323 33.5029C82.8505 33.6211 82.9169 33.7813 82.9169 33.9484V42.5406C82.9169 42.7077 82.8505 42.8679 82.7323 42.9861C82.6141 43.1043 82.4539 43.1707 82.2868 43.1707H81.3512Z" fill="#407BFF"/>
<path opacity="0.8" d="M81.3512 43.1707H75.3128C75.1457 43.1707 74.9855 43.1043 74.8673 42.9861C74.7491 42.8679 74.6827 42.7077 74.6827 42.5406V33.9484C74.6827 33.7813 74.7491 33.6211 74.8673 33.5029C74.9855 33.3847 75.1457 33.3184 75.3128 33.3184H82.2868C82.4539 33.3184 82.6141 33.3847 82.7323 33.5029C82.8505 33.6211 82.9169 33.7813 82.9169 33.9484V42.5406C82.9169 42.7077 82.8505 42.8679 82.7323 42.9861C82.6141 43.1043 82.4539 43.1707 82.2868 43.1707H81.3512Z" fill="white"/>
<path d="M82.2868 33.3213H75.3128C75.1457 33.3213 74.9855 33.3877 74.8673 33.5058C74.7491 33.624 74.6827 33.7843 74.6827 33.9514V34.8798H82.9121V33.9514C82.9121 33.7851 82.8464 33.6255 82.7292 33.5075C82.6121 33.3895 82.453 33.3225 82.2868 33.3213Z" fill="#263238"/>
<path d="M81.9813 34.405C82.1263 34.405 82.2438 34.2874 82.2438 34.1424C82.2438 33.9974 82.1263 33.8799 81.9813 33.8799C81.8363 33.8799 81.7188 33.9974 81.7188 34.1424C81.7188 34.2874 81.8363 34.405 81.9813 34.405Z" fill="#407BFF"/>
<path d="M80.9361 34.405C81.0811 34.405 81.1987 34.2874 81.1987 34.1424C81.1987 33.9974 81.0811 33.8799 80.9361 33.8799C80.7911 33.8799 80.6736 33.9974 80.6736 34.1424C80.6736 34.2874 80.7911 34.405 80.9361 34.405Z" fill="#407BFF"/>
<path d="M79.8883 34.405C80.0333 34.405 80.1508 34.2874 80.1508 34.1424C80.1508 33.9974 80.0333 33.8799 79.8883 33.8799C79.7433 33.8799 79.6257 33.9974 79.6257 34.1424C79.6257 34.2874 79.7433 34.405 79.8883 34.405Z" fill="#407BFF"/>
<path d="M78.0886 36.4616L77.165 36.7982L78.0886 37.1347V37.4712L76.7688 36.97V36.6096L78.0886 36.1084V36.4616Z" fill="#263238"/>
<path d="M79.0793 35.4355H79.4635L78.5494 38.0466H78.1652L79.0793 35.4355Z" fill="#263238"/>
<path d="M80.8333 36.6194V36.9798L79.5134 37.481V37.1349L80.4371 36.7984L79.5134 36.4618V36.1182L80.8333 36.6194Z" fill="#263238"/>
<path d="M77.0766 38.9395H75.6064C75.5023 38.9395 75.4178 39.0239 75.4178 39.128V39.1614C75.4178 39.2656 75.5023 39.35 75.6064 39.35H77.0766C77.1807 39.35 77.2651 39.2656 77.2651 39.1614V39.128C77.2651 39.0239 77.1807 38.9395 77.0766 38.9395Z" fill="#263238"/>
<path d="M79.7499 38.9395H77.819C77.7149 38.9395 77.6305 39.0239 77.6305 39.128V39.1614C77.6305 39.2656 77.7149 39.35 77.819 39.35H79.7499C79.854 39.35 79.9384 39.2656 79.9384 39.1614V39.128C79.9384 39.0239 79.854 38.9395 79.7499 38.9395Z" fill="#263238"/>
<path d="M81.9934 38.9395H80.4921C80.388 38.9395 80.3036 39.0239 80.3036 39.128V39.1614C80.3036 39.2656 80.388 39.35 80.4921 39.35H81.9934C82.0975 39.35 82.1819 39.2656 82.1819 39.1614V39.128C82.1819 39.0239 82.0975 38.9395 81.9934 38.9395Z" fill="#263238"/>
<path d="M77.2294 39.958H75.6064C75.5023 39.958 75.4178 40.0424 75.4178 40.1466V40.18C75.4178 40.2841 75.5023 40.3685 75.6064 40.3685H77.2294C77.3335 40.3685 77.4179 40.2841 77.4179 40.18V40.1466C77.4179 40.0424 77.3335 39.958 77.2294 39.958Z" fill="#263238"/>
<path d="M80.0576 39.958H77.9716C77.8675 39.958 77.7831 40.0424 77.7831 40.1466V40.18C77.7831 40.2841 77.8675 40.3685 77.9716 40.3685H80.0576C80.1617 40.3685 80.2461 40.2841 80.2461 40.18V40.1466C80.2461 40.0424 80.1617 39.958 80.0576 39.958Z" fill="#263238"/>
<path d="M81.9935 39.958H80.8001C80.696 39.958 80.6116 40.0424 80.6116 40.1466V40.18C80.6116 40.2841 80.696 40.3685 80.8001 40.3685H81.9935C82.0976 40.3685 82.182 40.2841 82.182 40.18V40.1466C82.182 40.0424 82.0976 39.958 81.9935 39.958Z" fill="#263238"/>
<path d="M76.9215 40.9775H75.6064C75.5023 40.9775 75.4178 41.062 75.4178 41.1661V41.1995C75.4178 41.3036 75.5023 41.3881 75.6064 41.3881H76.9215C77.0256 41.3881 77.11 41.3036 77.11 41.1995V41.1661C77.11 41.062 77.0256 40.9775 76.9215 40.9775Z" fill="#263238"/>
<path d="M79.5946 40.9775H77.6638C77.5596 40.9775 77.4752 41.062 77.4752 41.1661V41.1995C77.4752 41.3036 77.5596 41.3881 77.6638 41.3881H79.5946C79.6987 41.3881 79.7832 41.3036 79.7832 41.1995V41.1661C79.7832 41.062 79.6987 40.9775 79.5946 40.9775Z" fill="#263238"/>
<path d="M81.9932 40.9775H80.3369C80.2327 40.9775 80.1483 41.062 80.1483 41.1661V41.1995C80.1483 41.3036 80.2327 41.3881 80.3369 41.3881H81.9932C82.0974 41.3881 82.1818 41.3036 82.1818 41.1995V41.1661C82.1818 41.062 82.0974 40.9775 81.9932 40.9775Z" fill="#263238"/>
<path d="M77.5372 41.9971H75.6064C75.5023 41.9971 75.4178 42.0815 75.4178 42.1856V42.219C75.4178 42.3232 75.5023 42.4076 75.6064 42.4076H77.5372C77.6414 42.4076 77.7258 42.3232 77.7258 42.219V42.1856C77.7258 42.0815 77.6414 41.9971 77.5372 41.9971Z" fill="#263238"/>
<path d="M80.0577 41.9971H78.2796C78.1755 41.9971 78.0911 42.0815 78.0911 42.1856V42.219C78.0911 42.3232 78.1755 42.4076 78.2796 42.4076H80.0577C80.1618 42.4076 80.2463 42.3232 80.2463 42.219V42.1856C80.2463 42.0815 80.1618 41.9971 80.0577 41.9971Z" fill="#263238"/>
<path d="M81.9935 41.9971H80.8001C80.696 41.9971 80.6116 42.0815 80.6116 42.1856V42.219C80.6116 42.3232 80.696 42.4076 80.8001 42.4076H81.9935C82.0976 42.4076 82.182 42.3232 82.182 42.219V42.1856C82.182 42.0815 82.0976 41.9971 81.9935 41.9971Z" fill="#263238"/>
<path d="M97.8625 55.7126H91.8242C91.6571 55.7126 91.4968 55.6463 91.3786 55.5281C91.2605 55.4099 91.1941 55.2497 91.1941 55.0826V46.4904C91.1941 46.3233 91.2605 46.1631 91.3786 46.0449C91.4968 45.9267 91.6571 45.8604 91.8242 45.8604H98.7981C98.9652 45.8604 99.1255 45.9267 99.2437 46.0449C99.3618 46.1631 99.4282 46.3233 99.4282 46.4904V55.0826C99.4282 55.2497 99.3618 55.4099 99.2437 55.5281C99.1255 55.6463 98.9652 55.7126 98.7981 55.7126H97.8625Z" fill="#407BFF"/>
<path opacity="0.8" d="M97.8625 55.7126H91.8242C91.6571 55.7126 91.4968 55.6463 91.3786 55.5281C91.2605 55.4099 91.1941 55.2497 91.1941 55.0826V46.4904C91.1941 46.3233 91.2605 46.1631 91.3786 46.0449C91.4968 45.9267 91.6571 45.8604 91.8242 45.8604H98.7981C98.9652 45.8604 99.1255 45.9267 99.2437 46.0449C99.3618 46.1631 99.4282 46.3233 99.4282 46.4904V55.0826C99.4282 55.2497 99.3618 55.4099 99.2437 55.5281C99.1255 55.6463 98.9652 55.7126 98.7981 55.7126H97.8625Z" fill="white"/>
<path d="M98.7981 45.8633H91.8242C91.6571 45.8633 91.4968 45.9297 91.3786 46.0478C91.2605 46.166 91.1941 46.3263 91.1941 46.4934V47.4194H99.4282V46.4934C99.4282 46.3263 99.3618 46.166 99.2437 46.0478C99.1255 45.9297 98.9652 45.8633 98.7981 45.8633Z" fill="#263238"/>
<path d="M98.4926 46.944C98.6376 46.944 98.7552 46.8265 98.7552 46.6815C98.7552 46.5365 98.6376 46.4189 98.4926 46.4189C98.3476 46.4189 98.2301 46.5365 98.2301 46.6815C98.2301 46.8265 98.3476 46.944 98.4926 46.944Z" fill="#407BFF"/>
<path d="M97.4472 46.944C97.5922 46.944 97.7098 46.8265 97.7098 46.6815C97.7098 46.5365 97.5922 46.4189 97.4472 46.4189C97.3022 46.4189 97.1847 46.5365 97.1847 46.6815C97.1847 46.8265 97.3022 46.944 97.4472 46.944Z" fill="#407BFF"/>
<path d="M96.3994 46.944C96.5444 46.944 96.6619 46.8265 96.6619 46.6815C96.6619 46.5365 96.5444 46.4189 96.3994 46.4189C96.2544 46.4189 96.1368 46.5365 96.1368 46.6815C96.1368 46.8265 96.2544 46.944 96.3994 46.944Z" fill="#407BFF"/>
<path d="M94.6071 49.002L93.6834 49.3409L94.6071 49.675V50.0211L93.2872 49.5199V49.1667L94.6071 48.6631V49.002Z" fill="#263238"/>
<path d="M95.5903 47.9727H95.9769L95.0628 50.598H94.6761L95.5903 47.9727Z" fill="#263238"/>
<path d="M97.3447 49.1666V49.5246L96.0272 50.0258V49.6797L96.9485 49.3456L96.0392 49.0019V48.6582L97.3447 49.1666Z" fill="#263238"/>
<path d="M93.588 51.4785H92.1178C92.0136 51.4785 91.9292 51.5629 91.9292 51.6671V51.7005C91.9292 51.8046 92.0136 51.889 92.1178 51.889H93.588C93.6921 51.889 93.7765 51.8046 93.7765 51.7005V51.6671C93.7765 51.5629 93.6921 51.4785 93.588 51.4785Z" fill="#263238"/>
<path d="M96.261 51.4785H94.3302C94.226 51.4785 94.1416 51.5629 94.1416 51.6671V51.7005C94.1416 51.8046 94.226 51.889 94.3302 51.889H96.261C96.3651 51.889 96.4495 51.8046 96.4495 51.7005V51.6671C96.4495 51.5629 96.3651 51.4785 96.261 51.4785Z" fill="#263238"/>
<path d="M98.5045 51.4785H97.0032C96.8991 51.4785 96.8147 51.5629 96.8147 51.6671V51.7005C96.8147 51.8046 96.8991 51.889 97.0032 51.889H98.5045C98.6086 51.889 98.693 51.8046 98.693 51.7005V51.6671C98.693 51.5629 98.6086 51.4785 98.5045 51.4785Z" fill="#263238"/>
<path d="M93.7407 52.5H92.1178C92.0136 52.5 91.9292 52.5844 91.9292 52.6886V52.722C91.9292 52.8261 92.0136 52.9105 92.1178 52.9105H93.7407C93.8448 52.9105 93.9293 52.8261 93.9293 52.722V52.6886C93.9293 52.5844 93.8448 52.5 93.7407 52.5Z" fill="#263238"/>
<path d="M96.569 52.5H94.483C94.3789 52.5 94.2944 52.5844 94.2944 52.6886V52.722C94.2944 52.8261 94.3789 52.9105 94.483 52.9105H96.569C96.6731 52.9105 96.7575 52.8261 96.7575 52.722V52.6886C96.7575 52.5844 96.6731 52.5 96.569 52.5Z" fill="#263238"/>
<path d="M98.5045 52.5H97.3111C97.207 52.5 97.1226 52.5844 97.1226 52.6886V52.722C97.1226 52.8261 97.207 52.9105 97.3111 52.9105H98.5045C98.6086 52.9105 98.693 52.8261 98.693 52.722V52.6886C98.693 52.5844 98.6086 52.5 98.5045 52.5Z" fill="#263238"/>
<path d="M93.4328 53.5195H92.1178C92.0136 53.5195 91.9292 53.6039 91.9292 53.7081V53.7415C91.9292 53.8456 92.0136 53.93 92.1178 53.93H93.4328C93.5369 53.93 93.6214 53.8456 93.6214 53.7415V53.7081C93.6214 53.6039 93.5369 53.5195 93.4328 53.5195Z" fill="#263238"/>
<path d="M96.106 53.5195H94.1751C94.071 53.5195 93.9866 53.6039 93.9866 53.7081V53.7415C93.9866 53.8456 94.071 53.93 94.1751 53.93H96.106C96.2101 53.93 96.2945 53.8456 96.2945 53.7415V53.7081C96.2945 53.6039 96.2101 53.5195 96.106 53.5195Z" fill="#263238"/>
<path d="M98.507 53.5195H96.8507C96.7465 53.5195 96.6621 53.6039 96.6621 53.7081V53.7415C96.6621 53.8456 96.7465 53.93 96.8507 53.93H98.507C98.6112 53.93 98.6956 53.8456 98.6956 53.7415V53.7081C98.6956 53.6039 98.6112 53.5195 98.507 53.5195Z" fill="#263238"/>
<path d="M94.0486 54.5391H92.1178C92.0136 54.5391 91.9292 54.6235 91.9292 54.7276V54.761C91.9292 54.8652 92.0136 54.9496 92.1178 54.9496H94.0486C94.1527 54.9496 94.2371 54.8652 94.2371 54.761V54.7276C94.2371 54.6235 94.1527 54.5391 94.0486 54.5391Z" fill="#263238"/>
<path d="M96.5691 54.5391H94.791C94.6868 54.5391 94.6024 54.6235 94.6024 54.7276V54.761C94.6024 54.8652 94.6868 54.9496 94.791 54.9496H96.5691C96.6732 54.9496 96.7576 54.8652 96.7576 54.761V54.7276C96.7576 54.6235 96.6732 54.5391 96.5691 54.5391Z" fill="#263238"/>
<path d="M98.5045 54.5391H97.3111C97.207 54.5391 97.1226 54.6235 97.1226 54.7276V54.761C97.1226 54.8652 97.207 54.9496 97.3111 54.9496H98.5045C98.6086 54.9496 98.693 54.8652 98.693 54.761V54.7276C98.693 54.6235 98.6086 54.5391 98.5045 54.5391Z" fill="#263238"/>
<path d="M71.0671 55.7126H65.0288C64.8617 55.7126 64.7014 55.6463 64.5832 55.5281C64.4651 55.4099 64.3987 55.2497 64.3987 55.0826V46.4904C64.3987 46.3233 64.4651 46.1631 64.5832 46.0449C64.7014 45.9267 64.8617 45.8604 65.0288 45.8604H72.0027C72.1698 45.8604 72.3301 45.9267 72.4482 46.0449C72.5664 46.1631 72.6328 46.3233 72.6328 46.4904V55.0826C72.6328 55.2497 72.5664 55.4099 72.4482 55.5281C72.3301 55.6463 72.1698 55.7126 72.0027 55.7126H71.0671Z" fill="#407BFF"/>
<path opacity="0.8" d="M71.0671 55.7126H65.0288C64.8617 55.7126 64.7014 55.6463 64.5832 55.5281C64.4651 55.4099 64.3987 55.2497 64.3987 55.0826V46.4904C64.3987 46.3233 64.4651 46.1631 64.5832 46.0449C64.7014 45.9267 64.8617 45.8604 65.0288 45.8604H72.0027C72.1698 45.8604 72.3301 45.9267 72.4482 46.0449C72.5664 46.1631 72.6328 46.3233 72.6328 46.4904V55.0826C72.6328 55.2497 72.5664 55.4099 72.4482 55.5281C72.3301 55.6463 72.1698 55.7126 72.0027 55.7126H71.0671Z" fill="white"/>
<path d="M72.0027 45.8633H65.0288C64.8617 45.8633 64.7014 45.9297 64.5832 46.0478C64.4651 46.166 64.3987 46.3263 64.3987 46.4934V47.4194H72.6328V46.4934C72.6328 46.3263 72.5664 46.166 72.4482 46.0478C72.3301 45.9297 72.1698 45.8633 72.0027 45.8633Z" fill="#263238"/>
<path d="M71.6972 46.944C71.8422 46.944 71.9598 46.8265 71.9598 46.6815C71.9598 46.5365 71.8422 46.4189 71.6972 46.4189C71.5522 46.4189 71.4347 46.5365 71.4347 46.6815C71.4347 46.8265 71.5522 46.944 71.6972 46.944Z" fill="#407BFF"/>
<path d="M70.6517 46.944C70.7967 46.944 70.9142 46.8265 70.9142 46.6815C70.9142 46.5365 70.7967 46.4189 70.6517 46.4189C70.5067 46.4189 70.3892 46.5365 70.3892 46.6815C70.3892 46.8265 70.5067 46.944 70.6517 46.944Z" fill="#407BFF"/>
<path d="M69.604 46.944C69.749 46.944 69.8665 46.8265 69.8665 46.6815C69.8665 46.5365 69.749 46.4189 69.604 46.4189C69.459 46.4189 69.3414 46.5365 69.3414 46.6815C69.3414 46.8265 69.459 46.944 69.604 46.944Z" fill="#407BFF"/>
<path d="M67.8043 49.002L66.8807 49.3409L67.8043 49.675V50.0211L66.4845 49.5199V49.1667L67.8043 48.6631V49.002Z" fill="#263238"/>
<path d="M68.795 47.9727H69.1816L68.2675 50.598H67.8761L68.795 47.9727Z" fill="#263238"/>
<path d="M70.5492 49.1667V49.5247L69.2317 50.0259V49.6798L70.153 49.3457L69.2317 49.0068V48.6631L70.5492 49.1667Z" fill="#263238"/>
<path d="M67.2529 51.4785H65.3221C65.218 51.4785 65.1335 51.5629 65.1335 51.6671V51.7005C65.1335 51.8046 65.218 51.889 65.3221 51.889H67.2529C67.3571 51.889 67.4415 51.8046 67.4415 51.7005V51.6671C67.4415 51.5629 67.3571 51.4785 67.2529 51.4785Z" fill="#263238"/>
<path d="M69.926 51.4785H67.9952C67.8911 51.4785 67.8066 51.5629 67.8066 51.6671V51.7005C67.8066 51.8046 67.8911 51.889 67.9952 51.889H69.926C70.0302 51.889 70.1146 51.8046 70.1146 51.7005V51.6671C70.1146 51.5629 70.0302 51.4785 69.926 51.4785Z" fill="#263238"/>
<path d="M71.7113 51.4785H70.6707C70.5666 51.4785 70.4822 51.5629 70.4822 51.6671V51.7005C70.4822 51.8046 70.5666 51.889 70.6707 51.889H71.7113C71.8155 51.889 71.8999 51.8046 71.8999 51.7005V51.6671C71.8999 51.5629 71.8155 51.4785 71.7113 51.4785Z" fill="#263238"/>
<path d="M66.7923 52.5H65.3221C65.218 52.5 65.1335 52.5844 65.1335 52.6886V52.722C65.1335 52.8261 65.218 52.9105 65.3221 52.9105H66.7923C66.8964 52.9105 66.9808 52.8261 66.9808 52.722V52.6886C66.9808 52.5844 66.8964 52.5 66.7923 52.5Z" fill="#263238"/>
<path d="M69.6207 52.5H67.5347C67.4306 52.5 67.3462 52.5844 67.3462 52.6886V52.722C67.3462 52.8261 67.4306 52.9105 67.5347 52.9105H69.6207C69.7248 52.9105 69.8093 52.8261 69.8093 52.722V52.6886C69.8093 52.5844 69.7248 52.5 69.6207 52.5Z" fill="#263238"/>
<path d="M71.7112 52.5H70.3627C70.2586 52.5 70.1742 52.5844 70.1742 52.6886V52.722C70.1742 52.8261 70.2586 52.9105 70.3627 52.9105H71.7112C71.8154 52.9105 71.8998 52.8261 71.8998 52.722V52.6886C71.8998 52.5844 71.8154 52.5 71.7112 52.5Z" fill="#263238"/>
<path d="M67.2529 53.5195H65.3221C65.218 53.5195 65.1335 53.6039 65.1335 53.7081V53.7415C65.1335 53.8456 65.218 53.93 65.3221 53.93H67.2529C67.3571 53.93 67.4415 53.8456 67.4415 53.7415V53.7081C67.4415 53.6039 67.3571 53.5195 67.2529 53.5195Z" fill="#263238"/>
<path d="M69.926 53.5195H67.9952C67.8911 53.5195 67.8066 53.6039 67.8066 53.7081V53.7415C67.8066 53.8456 67.8911 53.93 67.9952 53.93H69.926C70.0302 53.93 70.1146 53.8456 70.1146 53.7415V53.7081C70.1146 53.6039 70.0302 53.5195 69.926 53.5195Z" fill="#263238"/>
<path d="M71.7113 53.5195H70.6707C70.5666 53.5195 70.4822 53.6039 70.4822 53.7081V53.7415C70.4822 53.8456 70.5666 53.93 70.6707 53.93H71.7113C71.8155 53.93 71.8999 53.8456 71.8999 53.7415V53.7081C71.8999 53.6039 71.8155 53.5195 71.7113 53.5195Z" fill="#263238"/>
<path d="M66.4844 54.5391H65.3221C65.218 54.5391 65.1335 54.6235 65.1335 54.7276V54.761C65.1335 54.8652 65.218 54.9496 65.3221 54.9496H66.4844C66.5886 54.9496 66.673 54.8652 66.673 54.761V54.7276C66.673 54.6235 66.5886 54.5391 66.4844 54.5391Z" fill="#263238"/>
<path d="M69.4655 54.5391H67.2268C67.1226 54.5391 67.0382 54.6235 67.0382 54.7276V54.761C67.0382 54.8652 67.1226 54.9496 67.2268 54.9496H69.4655C69.5696 54.9496 69.654 54.8652 69.654 54.761V54.7276C69.654 54.6235 69.5696 54.5391 69.4655 54.5391Z" fill="#263238"/>
<path d="M71.7091 54.5391H70.2078C70.1037 54.5391 70.0193 54.6235 70.0193 54.7276V54.761C70.0193 54.8652 70.1037 54.9496 70.2078 54.9496H71.7091C71.8132 54.9496 71.8976 54.8652 71.8976 54.761V54.7276C71.8976 54.6235 71.8132 54.5391 71.7091 54.5391Z" fill="#263238"/>
<path d="M86.404 53.9726C87.5811 53.9726 88.5353 53.0184 88.5353 51.8413C88.5353 50.6642 87.5811 49.71 86.404 49.71C85.2269 49.71 84.2727 50.6642 84.2727 51.8413C84.2727 53.0184 85.2269 53.9726 86.404 53.9726Z" fill="#263238"/>
<path d="M86.2128 53.1163L84.8882 51.7917C84.8643 51.7679 84.8453 51.7397 84.8323 51.7085C84.8193 51.6774 84.8126 51.644 84.8126 51.6103C84.8126 51.5765 84.8193 51.5431 84.8323 51.512C84.8453 51.4809 84.8643 51.4526 84.8882 51.4289C84.912 51.4049 84.9402 51.3859 84.9714 51.3729C85.0025 51.3599 85.0359 51.3533 85.0696 51.3533C85.1034 51.3533 85.1367 51.3599 85.1679 51.3729C85.199 51.3859 85.2273 51.4049 85.251 51.4289L86.2057 52.3836L88.4898 50.0971C88.5135 50.0731 88.5418 50.0541 88.5729 50.0411C88.604 50.0282 88.6374 50.0215 88.6712 50.0215C88.7049 50.0215 88.7383 50.0282 88.7694 50.0411C88.8005 50.0541 88.8288 50.0731 88.8525 50.0971C88.8765 50.1208 88.8955 50.1491 88.9085 50.1802C88.9215 50.2114 88.9282 50.2448 88.9282 50.2785C88.9282 50.3122 88.9215 50.3456 88.9085 50.3767C88.8955 50.4079 88.8765 50.4361 88.8525 50.4599L86.2128 53.1163Z" fill="#407BFF"/>
<g opacity="0.5">
<path d="M86.2128 53.1163L84.8882 51.7917C84.8643 51.7679 84.8453 51.7397 84.8323 51.7085C84.8193 51.6774 84.8126 51.644 84.8126 51.6103C84.8126 51.5765 84.8193 51.5431 84.8323 51.512C84.8453 51.4809 84.8643 51.4526 84.8882 51.4289C84.912 51.4049 84.9402 51.3859 84.9714 51.3729C85.0025 51.3599 85.0359 51.3533 85.0696 51.3533C85.1034 51.3533 85.1367 51.3599 85.1679 51.3729C85.199 51.3859 85.2273 51.4049 85.251 51.4289L86.2057 52.3836L88.4898 50.0971C88.5135 50.0731 88.5418 50.0541 88.5729 50.0411C88.604 50.0282 88.6374 50.0215 88.6712 50.0215C88.7049 50.0215 88.7383 50.0282 88.7694 50.0411C88.8005 50.0541 88.8288 50.0731 88.8525 50.0971C88.8765 50.1208 88.8955 50.1491 88.9085 50.1802C88.9215 50.2114 88.9282 50.2448 88.9282 50.2785C88.9282 50.3122 88.9215 50.3456 88.9085 50.3767C88.8955 50.4079 88.8765 50.4361 88.8525 50.4599L86.2128 53.1163Z" fill="white"/>
</g>
<path d="M86.404 41.0703C87.5811 41.0703 88.5353 40.116 88.5353 38.9389C88.5353 37.7618 87.5811 36.8076 86.404 36.8076C85.2269 36.8076 84.2727 37.7618 84.2727 38.9389C84.2727 40.116 85.2269 41.0703 86.404 41.0703Z" fill="#263238"/>
<path d="M87.7 37.641C87.6762 37.6171 87.648 37.5981 87.6169 37.5851C87.5857 37.5721 87.5523 37.5654 87.5186 37.5654C87.4849 37.5654 87.4515 37.5721 87.4203 37.5851C87.3892 37.5981 87.361 37.6171 87.3372 37.641L86.404 38.5766L85.4684 37.641C85.4447 37.6171 85.4164 37.5981 85.3853 37.5851C85.3542 37.5721 85.3208 37.5654 85.287 37.5654C85.2533 37.5654 85.2199 37.5721 85.1888 37.5851C85.1576 37.5981 85.1294 37.6171 85.1056 37.641C85.0584 37.6896 85.032 37.7547 85.032 37.8224C85.032 37.8902 85.0584 37.9553 85.1056 38.0038L86.0412 38.9394L85.1056 39.8726C85.0584 39.9212 85.032 39.9862 85.032 40.054C85.032 40.1217 85.0584 40.1868 85.1056 40.2354C85.1294 40.2593 85.1576 40.2784 85.1888 40.2913C85.2199 40.3043 85.2533 40.311 85.287 40.311C85.3208 40.311 85.3542 40.3043 85.3853 40.2913C85.4164 40.2784 85.4447 40.2593 85.4684 40.2354L86.404 39.3022L87.3372 40.2354C87.361 40.2593 87.3892 40.2784 87.4203 40.2913C87.4515 40.3043 87.4849 40.311 87.5186 40.311C87.5523 40.311 87.5857 40.3043 87.6169 40.2913C87.648 40.2784 87.6762 40.2593 87.7 40.2354C87.7239 40.2116 87.743 40.1834 87.7559 40.1523C87.7689 40.1211 87.7756 40.0877 87.7756 40.054C87.7756 40.0203 87.7689 39.9869 87.7559 39.9557C87.743 39.9246 87.7239 39.8963 87.7 39.8726L86.7668 38.9394L87.7 38.0038C87.7239 37.9801 87.743 37.9518 87.7559 37.9207C87.7689 37.8896 87.7756 37.8562 87.7756 37.8224C87.7756 37.7887 87.7689 37.7553 87.7559 37.7242C87.743 37.693 87.7239 37.6648 87.7 37.641Z" fill="#407BFF"/>
<path opacity="0.5" d="M87.7 37.641C87.6762 37.6171 87.648 37.5981 87.6169 37.5851C87.5857 37.5721 87.5523 37.5654 87.5186 37.5654C87.4849 37.5654 87.4515 37.5721 87.4203 37.5851C87.3892 37.5981 87.361 37.6171 87.3372 37.641L86.404 38.5766L85.4684 37.641C85.4447 37.6171 85.4164 37.5981 85.3853 37.5851C85.3542 37.5721 85.3208 37.5654 85.287 37.5654C85.2533 37.5654 85.2199 37.5721 85.1888 37.5851C85.1576 37.5981 85.1294 37.6171 85.1056 37.641C85.0584 37.6896 85.032 37.7547 85.032 37.8224C85.032 37.8902 85.0584 37.9553 85.1056 38.0038L86.0412 38.9394L85.1056 39.8726C85.0584 39.9212 85.032 39.9862 85.032 40.054C85.032 40.1217 85.0584 40.1868 85.1056 40.2354C85.1294 40.2593 85.1576 40.2784 85.1888 40.2913C85.2199 40.3043 85.2533 40.311 85.287 40.311C85.3208 40.311 85.3542 40.3043 85.3853 40.2913C85.4164 40.2784 85.4447 40.2593 85.4684 40.2354L86.404 39.3022L87.3372 40.2354C87.361 40.2593 87.3892 40.2784 87.4203 40.2913C87.4515 40.3043 87.4849 40.311 87.5186 40.311C87.5523 40.311 87.5857 40.3043 87.6169 40.2913C87.648 40.2784 87.6762 40.2593 87.7 40.2354C87.7239 40.2116 87.743 40.1834 87.7559 40.1523C87.7689 40.1211 87.7756 40.0877 87.7756 40.054C87.7756 40.0203 87.7689 39.9869 87.7559 39.9557C87.743 39.9246 87.7239 39.8963 87.7 39.8726L86.7668 38.9394L87.7 38.0038C87.7239 37.9801 87.743 37.9518 87.7559 37.9207C87.7689 37.8896 87.7756 37.8562 87.7756 37.8224C87.7756 37.7887 87.7689 37.7553 87.7559 37.7242C87.743 37.693 87.7239 37.6648 87.7 37.641Z" fill="white"/>
<path d="M85.2989 39.199H82.8573C82.7883 39.199 82.7222 39.1716 82.6734 39.1228C82.6246 39.074 82.5972 39.0079 82.5972 38.9389C82.5972 38.8699 82.6246 38.8037 82.6734 38.7549C82.7222 38.7061 82.7883 38.6787 82.8573 38.6787H85.2989V39.199Z" fill="#263238"/>
<path d="M71.7807 35.9814L63.5514 38.0602L55.3244 35.9814C54.8651 35.8628 54.4579 35.5955 54.1665 35.2212C53.875 34.8468 53.7157 34.3866 53.7134 33.9122V30.5708C53.7134 30.2907 53.7686 30.0133 53.8758 29.7546C53.9831 29.4959 54.1403 29.2608 54.3385 29.0629C54.5366 28.8649 54.7719 28.708 55.0307 28.601C55.2896 28.494 55.567 28.4391 55.8471 28.4395H71.258C71.8233 28.4395 72.3654 28.664 72.7651 29.0637C73.1648 29.4634 73.3893 30.0055 73.3893 30.5708V33.9122C73.3871 34.3862 73.2282 34.8463 72.9372 35.2206C72.6462 35.5949 72.2396 35.8624 71.7807 35.9814Z" fill="#407BFF"/>
<path d="M30.9376 53.9387H45.3342C45.4219 53.9459 45.5037 53.9859 45.5634 54.0507C45.623 54.1155 45.6561 54.2003 45.6561 54.2883C45.6561 54.3764 45.623 54.4612 45.5634 54.526C45.5037 54.5908 45.4219 54.6307 45.3342 54.638H30.9376C30.8893 54.642 30.8406 54.6359 30.7947 54.6202C30.7489 54.6044 30.7067 54.5793 30.6711 54.5464C30.6354 54.5136 30.6069 54.4737 30.5874 54.4293C30.5679 54.3848 30.5579 54.3369 30.5579 54.2883C30.5579 54.2398 30.5679 54.1919 30.5874 54.1474C30.6069 54.103 30.6354 54.0631 30.6711 54.0302C30.7067 53.9974 30.7489 53.9723 30.7947 53.9565C30.8406 53.9408 30.8893 53.9347 30.9376 53.9387Z" fill="#1A2E35"/>
<path d="M45.1433 54.4168H39.1766C39.1499 54.4167 39.1237 54.4103 39.1 54.3981C39.0764 54.3858 39.056 54.3681 39.0406 54.3464C39.0252 54.3247 39.0152 54.2996 39.0114 54.2732C39.0077 54.2469 39.0103 54.22 39.019 54.1948L41.4224 47.3331C41.4551 47.2411 41.5152 47.1614 41.5946 47.1046C41.6739 47.0479 41.7688 47.0168 41.8664 47.0156H47.8331C47.8598 47.0157 47.886 47.0221 47.9096 47.0343C47.9333 47.0466 47.9537 47.0643 47.9691 47.086C47.9845 47.1077 47.9945 47.1328 47.9983 47.1592C48.002 47.1856 47.9994 47.2124 47.9906 47.2376L45.5872 54.0994C45.5546 54.1913 45.4945 54.271 45.4151 54.3278C45.3357 54.3845 45.2409 54.4156 45.1433 54.4168Z" fill="#1A2E35"/>
<path d="M45.3557 54.4168H39.3889C39.3625 54.4164 39.3365 54.4097 39.3132 54.3973C39.2898 54.3849 39.2698 54.3671 39.2546 54.3454C39.2395 54.3238 39.2297 54.2988 39.2261 54.2726C39.2224 54.2465 39.2251 54.2198 39.2338 54.1948L41.6348 47.3331C41.6676 47.2407 41.728 47.1607 41.8079 47.104C41.8877 47.0472 41.9831 47.0163 42.0811 47.0156H48.0479C48.0743 47.0162 48.1003 47.0229 48.1236 47.0353C48.147 47.0477 48.1672 47.0654 48.1825 47.087C48.1978 47.1085 48.2078 47.1334 48.2118 47.1596C48.2158 47.1857 48.2136 47.2124 48.2054 47.2376L45.7996 54.1017C45.7665 54.1932 45.7063 54.2724 45.6269 54.3287C45.5476 54.385 45.4529 54.4158 45.3557 54.4168Z" fill="#1A2E35"/>
<path opacity="0.7" d="M45.3557 54.4168H39.3889C39.3625 54.4164 39.3365 54.4097 39.3132 54.3973C39.2898 54.3849 39.2698 54.3671 39.2546 54.3454C39.2395 54.3238 39.2297 54.2988 39.2261 54.2726C39.2224 54.2465 39.2251 54.2198 39.2338 54.1948L41.6348 47.3331C41.6676 47.2407 41.728 47.1607 41.8079 47.104C41.8877 47.0472 41.9831 47.0163 42.0811 47.0156H48.0479C48.0743 47.0162 48.1003 47.0229 48.1236 47.0353C48.147 47.0477 48.1672 47.0654 48.1825 47.087C48.1978 47.1085 48.2078 47.1334 48.2118 47.1596C48.2158 47.1857 48.2136 47.2124 48.2054 47.2376L45.7996 54.1017C45.7665 54.1932 45.7063 54.2724 45.6269 54.3287C45.5476 54.385 45.4529 54.4158 45.3557 54.4168Z" fill="white"/>
<path opacity="0.7" d="M38.6204 54.6312C38.6687 54.6352 38.7174 54.6291 38.7633 54.6133C38.8092 54.5976 38.8513 54.5725 38.887 54.5396C38.9226 54.5068 38.9511 54.4668 38.9706 54.4224C38.9901 54.378 39.0002 54.33 39.0002 54.2815C39.0002 54.233 38.9901 54.185 38.9706 54.1406C38.9511 54.0962 38.9226 54.0563 38.887 54.0234C38.8513 53.9905 38.8092 53.9654 38.7633 53.9497C38.7174 53.9339 38.6687 53.9279 38.6204 53.9319H30.9376C30.8893 53.9279 30.8406 53.9339 30.7947 53.9497C30.7489 53.9654 30.7067 53.9905 30.6711 54.0234C30.6354 54.0563 30.6069 54.0962 30.5874 54.1406C30.5679 54.185 30.5579 54.233 30.5579 54.2815C30.5579 54.33 30.5679 54.378 30.5874 54.4224C30.6069 54.4668 30.6354 54.5068 30.6711 54.5396C30.7067 54.5725 30.7489 54.5976 30.7947 54.6133C30.8406 54.6291 30.8893 54.6352 30.9376 54.6312H38.6204Z" fill="white"/>
<path d="M46.2004 47.3018H47.8568L47.7183 47.7003H46.0596L46.2004 47.3018Z" fill="#407BFF"/>
<path d="M45.0619 31.759C50.5295 31.759 54.9619 27.3266 54.9619 21.859C54.9619 16.3914 50.5295 11.959 45.0619 11.959C39.5943 11.959 35.1619 16.3914 35.1619 21.859C35.1619 27.3266 39.5943 31.759 45.0619 31.759Z" fill="#407BFF"/>
<path opacity="0.3" d="M45.0619 31.759C50.5295 31.759 54.9619 27.3266 54.9619 21.859C54.9619 16.3914 50.5295 11.959 45.0619 11.959C39.5943 11.959 35.1619 16.3914 35.1619 21.859C35.1619 27.3266 39.5943 31.759 45.0619 31.759Z" fill="white"/>
<path opacity="0.9" d="M42.0094 24.687V19.3479C42.4632 19.1959 42.8481 18.8874 43.0954 18.4776C43.3426 18.0678 43.4361 17.5834 43.359 17.1111C43.282 16.6387 43.0395 16.2091 42.6748 15.8991C42.3102 15.5892 41.8472 15.4189 41.3686 15.4189C40.89 15.4189 40.427 15.5892 40.0623 15.8991C39.6977 16.2091 39.4552 16.6387 39.3781 17.1111C39.3011 17.5834 39.3945 18.0678 39.6418 18.4776C39.889 18.8874 40.2739 19.1959 40.7277 19.3479V24.687C40.2746 24.839 39.8903 25.1473 39.6435 25.5566C39.3967 25.9659 39.3035 26.4497 39.3805 26.9214C39.4576 27.3931 39.6998 27.8221 40.064 28.1316C40.4282 28.4411 40.8906 28.6111 41.3686 28.6111C41.8465 28.6111 42.3089 28.4411 42.6731 28.1316C43.0373 27.8221 43.2796 27.3931 43.3566 26.9214C43.4336 26.4497 43.3404 25.9659 43.0936 25.5566C42.8468 25.1473 42.4625 24.839 42.0094 24.687ZM41.3674 16.7059C41.5124 16.7054 41.6543 16.748 41.7751 16.8282C41.8959 16.9084 41.9902 17.0227 42.046 17.1565C42.1018 17.2904 42.1167 17.4378 42.0887 17.5801C42.0607 17.7224 41.9911 17.8531 41.8887 17.9558C41.7863 18.0586 41.6558 18.1286 41.5136 18.157C41.3714 18.1855 41.2239 18.1711 41.0899 18.1158C40.9559 18.0604 40.8413 17.9665 40.7607 17.8459C40.6801 17.7254 40.637 17.5836 40.637 17.4386C40.637 17.2447 40.7139 17.0587 40.8508 16.9213C40.9877 16.784 41.1735 16.7065 41.3674 16.7059ZM41.3674 27.3267C41.2224 27.3267 41.0806 27.2836 40.9601 27.203C40.8395 27.1224 40.7456 27.0078 40.6902 26.8738C40.6348 26.7398 40.6205 26.5923 40.6489 26.4501C40.6774 26.3079 40.7474 26.1774 40.8501 26.075C40.9528 25.9726 41.0836 25.903 41.2259 25.875C41.3682 25.847 41.5156 25.8619 41.6494 25.9177C41.7833 25.9735 41.8975 26.0678 41.9778 26.1886C42.058 26.3094 42.1006 26.4513 42.1001 26.5964C42.1001 26.6925 42.0811 26.7876 42.0443 26.8764C42.0074 26.9652 41.9534 27.0458 41.8853 27.1136C41.8173 27.1815 41.7365 27.2352 41.6476 27.2718C41.5587 27.3083 41.4635 27.327 41.3674 27.3267Z" fill="white"/>
<path opacity="0.9" d="M50.3101 24.6868V19.4504C50.3095 18.7473 50.0299 18.0732 49.5328 17.5761C49.0356 17.0789 48.3615 16.7994 47.6585 16.7987H45.7491V15.751L44.0593 17.4408L45.7491 19.1329V18.0828H47.6585C48.02 18.0853 48.3659 18.2303 48.621 18.4864C48.8762 18.7425 49.02 19.0889 49.0213 19.4504V24.6868C48.5675 24.8389 48.1825 25.1474 47.9353 25.5572C47.6881 25.9669 47.5946 26.4513 47.6716 26.9237C47.7487 27.396 47.9912 27.8256 48.3559 28.1356C48.7205 28.4456 49.1835 28.6158 49.6621 28.6158C50.1407 28.6158 50.6037 28.4456 50.9684 28.1356C51.333 27.8256 51.5755 27.396 51.6526 26.9237C51.7296 26.4513 51.6361 25.9669 51.3889 25.5572C51.1417 25.1474 50.7567 24.8389 50.3029 24.6868H50.3101ZM49.6705 27.3265C49.5254 27.3265 49.3837 27.2834 49.2631 27.2028C49.1426 27.1222 49.0487 27.0076 48.9933 26.8736C48.9379 26.7396 48.9235 26.5921 48.952 26.4499C48.9805 26.3077 49.0505 26.1772 49.1532 26.0748C49.2559 25.9724 49.3867 25.9028 49.529 25.8748C49.6713 25.8468 49.8187 25.8617 49.9525 25.9175C50.0864 25.9733 50.2006 26.0676 50.2808 26.1884C50.3611 26.3092 50.4036 26.4511 50.4032 26.5961C50.4032 26.6922 50.3842 26.7874 50.3474 26.8762C50.3105 26.9649 50.2565 27.0456 50.1884 27.1134C50.1203 27.1813 50.0396 27.235 49.9507 27.2716C49.8618 27.3081 49.7666 27.3268 49.6705 27.3265Z" fill="white"/>
</svg>
